%TF.GenerationSoftware,KiCad,Pcbnew,(5.1.0)-1*%
%TF.CreationDate,2019-04-24T14:24:49-04:00*%
%TF.ProjectId,SGschematic,53477363-6865-46d6-9174-69632e6b6963,rev?*%
%TF.SameCoordinates,Original*%
%TF.FileFunction,Other,User*%
%FSLAX46Y46*%
G04 Gerber Fmt 4.6, Leading zero omitted, Abs format (unit mm)*
G04 Created by KiCad (PCBNEW (5.1.0)-1) date 2019-04-24 14:24:49*
%MOMM*%
%LPD*%
G04 APERTURE LIST*
%ADD10C,0.150000*%
%ADD11C,0.050000*%
G04 APERTURE END LIST*
D10*
X44076666Y-165160000D02*
G75*
G03X44076666Y-165160000I-1666666J0D01*
G01*
X39910000Y-165160000D02*
X44910000Y-165160000D01*
X42410000Y-162660000D02*
X42410000Y-167660000D01*
X46576666Y-43910000D02*
G75*
G03X46576666Y-43910000I-1666666J0D01*
G01*
X42410000Y-43910000D02*
X47410000Y-43910000D01*
X44910000Y-41410000D02*
X44910000Y-46410000D01*
X154576666Y-43410000D02*
G75*
G03X154576666Y-43410000I-1666666J0D01*
G01*
X150410000Y-43410000D02*
X155410000Y-43410000D01*
X152910000Y-40910000D02*
X152910000Y-45910000D01*
X154576666Y-164660000D02*
G75*
G03X154576666Y-164660000I-1666666J0D01*
G01*
X150410000Y-164660000D02*
X155410000Y-164660000D01*
X152910000Y-162160000D02*
X152910000Y-167160000D01*
X48160000Y-162160000D02*
X48160000Y-46160000D01*
X150160000Y-162160000D02*
X48160000Y-162160000D01*
X150160000Y-46160000D02*
X150160000Y-162160000D01*
X48160000Y-46160000D02*
X150160000Y-46160000D01*
D11*
X129230000Y-68230000D02*
X123130000Y-68230000D01*
X123130000Y-68230000D02*
X123130000Y-120030000D01*
X123130000Y-120030000D02*
X129230000Y-120030000D01*
X129230000Y-120030000D02*
X129230000Y-68230000D01*
X142860000Y-109610000D02*
X133060000Y-109610000D01*
X142860000Y-120310000D02*
X142860000Y-109610000D01*
X133060000Y-120310000D02*
X142860000Y-120310000D01*
X133060000Y-109610000D02*
X133060000Y-120310000D01*
X80110000Y-123160000D02*
G75*
G03X80110000Y-123160000I-2950000J0D01*
G01*
X148110000Y-157160000D02*
G75*
G03X148110000Y-157160000I-2950000J0D01*
G01*
X148110000Y-51160000D02*
G75*
G03X148110000Y-51160000I-2950000J0D01*
G01*
X56110000Y-157160000D02*
G75*
G03X56110000Y-157160000I-2950000J0D01*
G01*
X129110000Y-123160000D02*
G75*
G03X129110000Y-123160000I-2950000J0D01*
G01*
X129110000Y-65160000D02*
G75*
G03X129110000Y-65160000I-2950000J0D01*
G01*
X56110000Y-51160000D02*
G75*
G03X56110000Y-51160000I-2950000J0D01*
G01*
X80110000Y-65160000D02*
G75*
G03X80110000Y-65160000I-2950000J0D01*
G01*
X94910000Y-81910000D02*
G75*
G03X94910000Y-81910000I-2750000J0D01*
G01*
X72480000Y-88350000D02*
X82280000Y-88350000D01*
X72480000Y-77650000D02*
X72480000Y-88350000D01*
X82280000Y-77650000D02*
X72480000Y-77650000D01*
X82280000Y-88350000D02*
X82280000Y-77650000D01*
X141860000Y-136610000D02*
X132060000Y-136610000D01*
X141860000Y-147310000D02*
X141860000Y-136610000D01*
X132060000Y-147310000D02*
X141860000Y-147310000D01*
X132060000Y-136610000D02*
X132060000Y-147310000D01*
X96910000Y-115910000D02*
G75*
G03X96910000Y-115910000I-2750000J0D01*
G01*
X73750000Y-129980000D02*
G75*
G03X73750000Y-129980000I-2750000J0D01*
G01*
X114410000Y-108450000D02*
G75*
G03X114410000Y-108450000I-2750000J0D01*
G01*
X110660000Y-117160000D02*
G75*
G03X110660000Y-117160000I-2750000J0D01*
G01*
X127160000Y-55160000D02*
G75*
G03X127160000Y-55160000I-2750000J0D01*
G01*
X132460000Y-102710000D02*
X142260000Y-102710000D01*
X132460000Y-81860000D02*
X132460000Y-102710000D01*
X142260000Y-81860000D02*
X132460000Y-81860000D01*
X142260000Y-102710000D02*
X142260000Y-81860000D01*
X76020000Y-104500000D02*
X85370000Y-104500000D01*
X76020000Y-104500000D02*
X76020000Y-114810000D01*
X85370000Y-114810000D02*
X85370000Y-104500000D01*
X85370000Y-114810000D02*
X76020000Y-114810000D01*
X76020000Y-91165000D02*
X85370000Y-91165000D01*
X76020000Y-91165000D02*
X76020000Y-101475000D01*
X85370000Y-101475000D02*
X85370000Y-91165000D01*
X85370000Y-101475000D02*
X76020000Y-101475000D01*
X58130000Y-66650000D02*
X58130000Y-56150000D01*
X58130000Y-66650000D02*
X66130000Y-66650000D01*
X66130000Y-56150000D02*
X58130000Y-56150000D01*
X66130000Y-56150000D02*
X66130000Y-66650000D01*
X58130000Y-78080000D02*
X58130000Y-67580000D01*
X58130000Y-78080000D02*
X66130000Y-78080000D01*
X66130000Y-67580000D02*
X58130000Y-67580000D01*
X66130000Y-67580000D02*
X66130000Y-78080000D01*
X58130000Y-89510000D02*
X58130000Y-79010000D01*
X58130000Y-89510000D02*
X66130000Y-89510000D01*
X66130000Y-79010000D02*
X58130000Y-79010000D01*
X66130000Y-79010000D02*
X66130000Y-89510000D01*
X58130000Y-101575000D02*
X58130000Y-91075000D01*
X58130000Y-101575000D02*
X66130000Y-101575000D01*
X66130000Y-91075000D02*
X58130000Y-91075000D01*
X66130000Y-91075000D02*
X66130000Y-101575000D01*
X58130000Y-125070000D02*
X58130000Y-114570000D01*
X58130000Y-125070000D02*
X66130000Y-125070000D01*
X66130000Y-114570000D02*
X58130000Y-114570000D01*
X66130000Y-114570000D02*
X66130000Y-125070000D01*
X58130000Y-151750000D02*
X58130000Y-136150000D01*
X58130000Y-151750000D02*
X66130000Y-151750000D01*
X66130000Y-136150000D02*
X58130000Y-136150000D01*
X66130000Y-136150000D02*
X66130000Y-151750000D01*
X105120000Y-138590000D02*
X95320000Y-138590000D01*
X105120000Y-149290000D02*
X105120000Y-138590000D01*
X95320000Y-149290000D02*
X105120000Y-149290000D01*
X95320000Y-138590000D02*
X95320000Y-149290000D01*
M02*
