%TF.GenerationSoftware,KiCad,Pcbnew,(5.1.0)-1*%
%TF.CreationDate,2019-04-24T14:24:49-04:00*%
%TF.ProjectId,SGschematic,53477363-6865-46d6-9174-69632e6b6963,rev?*%
%TF.SameCoordinates,Original*%
%TF.FileFunction,Soldermask,Bot*%
%TF.FilePolarity,Negative*%
%FSLAX46Y46*%
G04 Gerber Fmt 4.6, Leading zero omitted, Abs format (unit mm)*
G04 Created by KiCad (PCBNEW (5.1.0)-1) date 2019-04-24 14:24:49*
%MOMM*%
%LPD*%
G04 APERTURE LIST*
%ADD10C,0.150000*%
%ADD11C,0.250000*%
G04 APERTURE END LIST*
D10*
X44076666Y-165160000D02*
G75*
G03X44076666Y-165160000I-1666666J0D01*
G01*
X39910000Y-165160000D02*
X44910000Y-165160000D01*
X42410000Y-162660000D02*
X42410000Y-167660000D01*
X46576666Y-43910000D02*
G75*
G03X46576666Y-43910000I-1666666J0D01*
G01*
X42410000Y-43910000D02*
X47410000Y-43910000D01*
X44910000Y-41410000D02*
X44910000Y-46410000D01*
X154576666Y-43410000D02*
G75*
G03X154576666Y-43410000I-1666666J0D01*
G01*
X150410000Y-43410000D02*
X155410000Y-43410000D01*
X152910000Y-40910000D02*
X152910000Y-45910000D01*
X154576666Y-164660000D02*
G75*
G03X154576666Y-164660000I-1666666J0D01*
G01*
X150410000Y-164660000D02*
X155410000Y-164660000D01*
X152910000Y-162160000D02*
X152910000Y-167160000D01*
X48160000Y-162160000D02*
X48160000Y-46160000D01*
X150160000Y-162160000D02*
X48160000Y-162160000D01*
X150160000Y-46160000D02*
X150160000Y-162160000D01*
X48160000Y-46160000D02*
X150160000Y-46160000D01*
D11*
G36*
X145478433Y-155794893D02*
G01*
X145568657Y-155812839D01*
X145674267Y-155856585D01*
X145823621Y-155918449D01*
X145823622Y-155918450D01*
X146053086Y-156071772D01*
X146248228Y-156266914D01*
X146350675Y-156420237D01*
X146401551Y-156496379D01*
X146507161Y-156751344D01*
X146561000Y-157022012D01*
X146561000Y-157297988D01*
X146507161Y-157568656D01*
X146401551Y-157823621D01*
X146401550Y-157823622D01*
X146248228Y-158053086D01*
X146053086Y-158248228D01*
X145899763Y-158350675D01*
X145823621Y-158401551D01*
X145674267Y-158463415D01*
X145568657Y-158507161D01*
X145478433Y-158525107D01*
X145297988Y-158561000D01*
X145022012Y-158561000D01*
X144841567Y-158525107D01*
X144751343Y-158507161D01*
X144645733Y-158463415D01*
X144496379Y-158401551D01*
X144420237Y-158350675D01*
X144266914Y-158248228D01*
X144071772Y-158053086D01*
X143918450Y-157823622D01*
X143918449Y-157823621D01*
X143812839Y-157568656D01*
X143759000Y-157297988D01*
X143759000Y-157022012D01*
X143812839Y-156751344D01*
X143918449Y-156496379D01*
X143969325Y-156420237D01*
X144071772Y-156266914D01*
X144266914Y-156071772D01*
X144496378Y-155918450D01*
X144496379Y-155918449D01*
X144645733Y-155856585D01*
X144751343Y-155812839D01*
X144841567Y-155794893D01*
X145022012Y-155759000D01*
X145297988Y-155759000D01*
X145478433Y-155794893D01*
X145478433Y-155794893D01*
G37*
G36*
X53478433Y-155794893D02*
G01*
X53568657Y-155812839D01*
X53674267Y-155856585D01*
X53823621Y-155918449D01*
X53823622Y-155918450D01*
X54053086Y-156071772D01*
X54248228Y-156266914D01*
X54350675Y-156420237D01*
X54401551Y-156496379D01*
X54507161Y-156751344D01*
X54561000Y-157022012D01*
X54561000Y-157297988D01*
X54507161Y-157568656D01*
X54401551Y-157823621D01*
X54401550Y-157823622D01*
X54248228Y-158053086D01*
X54053086Y-158248228D01*
X53899763Y-158350675D01*
X53823621Y-158401551D01*
X53674267Y-158463415D01*
X53568657Y-158507161D01*
X53478433Y-158525107D01*
X53297988Y-158561000D01*
X53022012Y-158561000D01*
X52841567Y-158525107D01*
X52751343Y-158507161D01*
X52645733Y-158463415D01*
X52496379Y-158401551D01*
X52420237Y-158350675D01*
X52266914Y-158248228D01*
X52071772Y-158053086D01*
X51918450Y-157823622D01*
X51918449Y-157823621D01*
X51812839Y-157568656D01*
X51759000Y-157297988D01*
X51759000Y-157022012D01*
X51812839Y-156751344D01*
X51918449Y-156496379D01*
X51969325Y-156420237D01*
X52071772Y-156266914D01*
X52266914Y-156071772D01*
X52496378Y-155918450D01*
X52496379Y-155918449D01*
X52645733Y-155856585D01*
X52751343Y-155812839D01*
X52841567Y-155794893D01*
X53022012Y-155759000D01*
X53297988Y-155759000D01*
X53478433Y-155794893D01*
X53478433Y-155794893D01*
G37*
G36*
X62432585Y-147508802D02*
G01*
X62582410Y-147538604D01*
X62864674Y-147655521D01*
X63118705Y-147825259D01*
X63334741Y-148041295D01*
X63504479Y-148295326D01*
X63621396Y-148577590D01*
X63681000Y-148877240D01*
X63681000Y-149182760D01*
X63621396Y-149482410D01*
X63504479Y-149764674D01*
X63334741Y-150018705D01*
X63118705Y-150234741D01*
X62864674Y-150404479D01*
X62582410Y-150521396D01*
X62432585Y-150551198D01*
X62282761Y-150581000D01*
X61977239Y-150581000D01*
X61827415Y-150551198D01*
X61677590Y-150521396D01*
X61395326Y-150404479D01*
X61141295Y-150234741D01*
X60925259Y-150018705D01*
X60755521Y-149764674D01*
X60638604Y-149482410D01*
X60579000Y-149182760D01*
X60579000Y-148877240D01*
X60638604Y-148577590D01*
X60755521Y-148295326D01*
X60925259Y-148041295D01*
X61141295Y-147825259D01*
X61395326Y-147655521D01*
X61677590Y-147538604D01*
X61827415Y-147508802D01*
X61977239Y-147479000D01*
X62282761Y-147479000D01*
X62432585Y-147508802D01*
X62432585Y-147508802D01*
G37*
G36*
X96586823Y-146921313D02*
G01*
X96747242Y-146969976D01*
X96877366Y-147039529D01*
X96895078Y-147048996D01*
X97024659Y-147155341D01*
X97131004Y-147284922D01*
X97131005Y-147284924D01*
X97210024Y-147432758D01*
X97258687Y-147593177D01*
X97275117Y-147760000D01*
X97258687Y-147926823D01*
X97210024Y-148087242D01*
X97139114Y-148219906D01*
X97131004Y-148235078D01*
X97024659Y-148364659D01*
X96895078Y-148471004D01*
X96895076Y-148471005D01*
X96747242Y-148550024D01*
X96586823Y-148598687D01*
X96461804Y-148611000D01*
X96378196Y-148611000D01*
X96253177Y-148598687D01*
X96092758Y-148550024D01*
X95944924Y-148471005D01*
X95944922Y-148471004D01*
X95815341Y-148364659D01*
X95708996Y-148235078D01*
X95700886Y-148219906D01*
X95629976Y-148087242D01*
X95581313Y-147926823D01*
X95564883Y-147760000D01*
X95581313Y-147593177D01*
X95629976Y-147432758D01*
X95708995Y-147284924D01*
X95708996Y-147284922D01*
X95815341Y-147155341D01*
X95944922Y-147048996D01*
X95962634Y-147039529D01*
X96092758Y-146969976D01*
X96253177Y-146921313D01*
X96378196Y-146909000D01*
X96461804Y-146909000D01*
X96586823Y-146921313D01*
X96586823Y-146921313D01*
G37*
G36*
X104206823Y-146921313D02*
G01*
X104367242Y-146969976D01*
X104497366Y-147039529D01*
X104515078Y-147048996D01*
X104644659Y-147155341D01*
X104751004Y-147284922D01*
X104751005Y-147284924D01*
X104830024Y-147432758D01*
X104878687Y-147593177D01*
X104895117Y-147760000D01*
X104878687Y-147926823D01*
X104830024Y-148087242D01*
X104759114Y-148219906D01*
X104751004Y-148235078D01*
X104644659Y-148364659D01*
X104515078Y-148471004D01*
X104515076Y-148471005D01*
X104367242Y-148550024D01*
X104206823Y-148598687D01*
X104081804Y-148611000D01*
X103998196Y-148611000D01*
X103873177Y-148598687D01*
X103712758Y-148550024D01*
X103564924Y-148471005D01*
X103564922Y-148471004D01*
X103435341Y-148364659D01*
X103328996Y-148235078D01*
X103320886Y-148219906D01*
X103249976Y-148087242D01*
X103201313Y-147926823D01*
X103184883Y-147760000D01*
X103201313Y-147593177D01*
X103249976Y-147432758D01*
X103328995Y-147284924D01*
X103328996Y-147284922D01*
X103435341Y-147155341D01*
X103564922Y-147048996D01*
X103582634Y-147039529D01*
X103712758Y-146969976D01*
X103873177Y-146921313D01*
X103998196Y-146909000D01*
X104081804Y-146909000D01*
X104206823Y-146921313D01*
X104206823Y-146921313D01*
G37*
G36*
X89037142Y-146978242D02*
G01*
X89185101Y-147039529D01*
X89318255Y-147128499D01*
X89431501Y-147241745D01*
X89520471Y-147374899D01*
X89581758Y-147522858D01*
X89613000Y-147679925D01*
X89613000Y-147840075D01*
X89581758Y-147997142D01*
X89520471Y-148145101D01*
X89431501Y-148278255D01*
X89318255Y-148391501D01*
X89185101Y-148480471D01*
X89037142Y-148541758D01*
X88880075Y-148573000D01*
X88719925Y-148573000D01*
X88562858Y-148541758D01*
X88414899Y-148480471D01*
X88281745Y-148391501D01*
X88168499Y-148278255D01*
X88079529Y-148145101D01*
X88018242Y-147997142D01*
X87987000Y-147840075D01*
X87987000Y-147679925D01*
X88018242Y-147522858D01*
X88079529Y-147374899D01*
X88168499Y-147241745D01*
X88281745Y-147128499D01*
X88414899Y-147039529D01*
X88562858Y-146978242D01*
X88719925Y-146947000D01*
X88880075Y-146947000D01*
X89037142Y-146978242D01*
X89037142Y-146978242D01*
G37*
G36*
X76337142Y-146978242D02*
G01*
X76485101Y-147039529D01*
X76618255Y-147128499D01*
X76731501Y-147241745D01*
X76820471Y-147374899D01*
X76881758Y-147522858D01*
X76913000Y-147679925D01*
X76913000Y-147840075D01*
X76881758Y-147997142D01*
X76820471Y-148145101D01*
X76731501Y-148278255D01*
X76618255Y-148391501D01*
X76485101Y-148480471D01*
X76337142Y-148541758D01*
X76180075Y-148573000D01*
X76019925Y-148573000D01*
X75862858Y-148541758D01*
X75714899Y-148480471D01*
X75581745Y-148391501D01*
X75468499Y-148278255D01*
X75379529Y-148145101D01*
X75318242Y-147997142D01*
X75287000Y-147840075D01*
X75287000Y-147679925D01*
X75318242Y-147522858D01*
X75379529Y-147374899D01*
X75468499Y-147241745D01*
X75581745Y-147128499D01*
X75714899Y-147039529D01*
X75862858Y-146978242D01*
X76019925Y-146947000D01*
X76180075Y-146947000D01*
X76337142Y-146978242D01*
X76337142Y-146978242D01*
G37*
G36*
X140946823Y-144941313D02*
G01*
X141107242Y-144989976D01*
X141225479Y-145053175D01*
X141255078Y-145068996D01*
X141384659Y-145175341D01*
X141491004Y-145304922D01*
X141491005Y-145304924D01*
X141570024Y-145452758D01*
X141618687Y-145613177D01*
X141635117Y-145780000D01*
X141618687Y-145946823D01*
X141570024Y-146107242D01*
X141499114Y-146239906D01*
X141491004Y-146255078D01*
X141384659Y-146384659D01*
X141255078Y-146491004D01*
X141255076Y-146491005D01*
X141107242Y-146570024D01*
X140946823Y-146618687D01*
X140821804Y-146631000D01*
X140738196Y-146631000D01*
X140613177Y-146618687D01*
X140452758Y-146570024D01*
X140304924Y-146491005D01*
X140304922Y-146491004D01*
X140175341Y-146384659D01*
X140068996Y-146255078D01*
X140060886Y-146239906D01*
X139989976Y-146107242D01*
X139941313Y-145946823D01*
X139924883Y-145780000D01*
X139941313Y-145613177D01*
X139989976Y-145452758D01*
X140068995Y-145304924D01*
X140068996Y-145304922D01*
X140175341Y-145175341D01*
X140304922Y-145068996D01*
X140334521Y-145053175D01*
X140452758Y-144989976D01*
X140613177Y-144941313D01*
X140738196Y-144929000D01*
X140821804Y-144929000D01*
X140946823Y-144941313D01*
X140946823Y-144941313D01*
G37*
G36*
X133326823Y-144941313D02*
G01*
X133487242Y-144989976D01*
X133605479Y-145053175D01*
X133635078Y-145068996D01*
X133764659Y-145175341D01*
X133871004Y-145304922D01*
X133871005Y-145304924D01*
X133950024Y-145452758D01*
X133998687Y-145613177D01*
X134015117Y-145780000D01*
X133998687Y-145946823D01*
X133950024Y-146107242D01*
X133879114Y-146239906D01*
X133871004Y-146255078D01*
X133764659Y-146384659D01*
X133635078Y-146491004D01*
X133635076Y-146491005D01*
X133487242Y-146570024D01*
X133326823Y-146618687D01*
X133201804Y-146631000D01*
X133118196Y-146631000D01*
X132993177Y-146618687D01*
X132832758Y-146570024D01*
X132684924Y-146491005D01*
X132684922Y-146491004D01*
X132555341Y-146384659D01*
X132448996Y-146255078D01*
X132440886Y-146239906D01*
X132369976Y-146107242D01*
X132321313Y-145946823D01*
X132304883Y-145780000D01*
X132321313Y-145613177D01*
X132369976Y-145452758D01*
X132448995Y-145304924D01*
X132448996Y-145304922D01*
X132555341Y-145175341D01*
X132684922Y-145068996D01*
X132714521Y-145053175D01*
X132832758Y-144989976D01*
X132993177Y-144941313D01*
X133118196Y-144929000D01*
X133201804Y-144929000D01*
X133326823Y-144941313D01*
X133326823Y-144941313D01*
G37*
G36*
X104206823Y-144381313D02*
G01*
X104367242Y-144429976D01*
X104497366Y-144499529D01*
X104515078Y-144508996D01*
X104644659Y-144615341D01*
X104751004Y-144744922D01*
X104751005Y-144744924D01*
X104830024Y-144892758D01*
X104878687Y-145053177D01*
X104895117Y-145220000D01*
X104878687Y-145386823D01*
X104830024Y-145547242D01*
X104794782Y-145613175D01*
X104751004Y-145695078D01*
X104644659Y-145824659D01*
X104515078Y-145931004D01*
X104515076Y-145931005D01*
X104367242Y-146010024D01*
X104206823Y-146058687D01*
X104081804Y-146071000D01*
X103998196Y-146071000D01*
X103873177Y-146058687D01*
X103712758Y-146010024D01*
X103564924Y-145931005D01*
X103564922Y-145931004D01*
X103435341Y-145824659D01*
X103328996Y-145695078D01*
X103285218Y-145613175D01*
X103249976Y-145547242D01*
X103201313Y-145386823D01*
X103184883Y-145220000D01*
X103201313Y-145053177D01*
X103249976Y-144892758D01*
X103328995Y-144744924D01*
X103328996Y-144744922D01*
X103435341Y-144615341D01*
X103564922Y-144508996D01*
X103582634Y-144499529D01*
X103712758Y-144429976D01*
X103873177Y-144381313D01*
X103998196Y-144369000D01*
X104081804Y-144369000D01*
X104206823Y-144381313D01*
X104206823Y-144381313D01*
G37*
G36*
X96586823Y-144381313D02*
G01*
X96747242Y-144429976D01*
X96877366Y-144499529D01*
X96895078Y-144508996D01*
X97024659Y-144615341D01*
X97131004Y-144744922D01*
X97131005Y-144744924D01*
X97210024Y-144892758D01*
X97258687Y-145053177D01*
X97275117Y-145220000D01*
X97258687Y-145386823D01*
X97210024Y-145547242D01*
X97174782Y-145613175D01*
X97131004Y-145695078D01*
X97024659Y-145824659D01*
X96895078Y-145931004D01*
X96895076Y-145931005D01*
X96747242Y-146010024D01*
X96586823Y-146058687D01*
X96461804Y-146071000D01*
X96378196Y-146071000D01*
X96253177Y-146058687D01*
X96092758Y-146010024D01*
X95944924Y-145931005D01*
X95944922Y-145931004D01*
X95815341Y-145824659D01*
X95708996Y-145695078D01*
X95665218Y-145613175D01*
X95629976Y-145547242D01*
X95581313Y-145386823D01*
X95564883Y-145220000D01*
X95581313Y-145053177D01*
X95629976Y-144892758D01*
X95708995Y-144744924D01*
X95708996Y-144744922D01*
X95815341Y-144615341D01*
X95944922Y-144508996D01*
X95962634Y-144499529D01*
X96092758Y-144429976D01*
X96253177Y-144381313D01*
X96378196Y-144369000D01*
X96461804Y-144369000D01*
X96586823Y-144381313D01*
X96586823Y-144381313D01*
G37*
G36*
X124597142Y-144438242D02*
G01*
X124745101Y-144499529D01*
X124878255Y-144588499D01*
X124991501Y-144701745D01*
X125080471Y-144834899D01*
X125141758Y-144982858D01*
X125173000Y-145139925D01*
X125173000Y-145300075D01*
X125141758Y-145457142D01*
X125080471Y-145605101D01*
X124991501Y-145738255D01*
X124878255Y-145851501D01*
X124745101Y-145940471D01*
X124597142Y-146001758D01*
X124440075Y-146033000D01*
X124279925Y-146033000D01*
X124122858Y-146001758D01*
X123974899Y-145940471D01*
X123841745Y-145851501D01*
X123728499Y-145738255D01*
X123639529Y-145605101D01*
X123578242Y-145457142D01*
X123547000Y-145300075D01*
X123547000Y-145139925D01*
X123578242Y-144982858D01*
X123639529Y-144834899D01*
X123728499Y-144701745D01*
X123841745Y-144588499D01*
X123974899Y-144499529D01*
X124122858Y-144438242D01*
X124279925Y-144407000D01*
X124440075Y-144407000D01*
X124597142Y-144438242D01*
X124597142Y-144438242D01*
G37*
G36*
X111897142Y-144438242D02*
G01*
X112045101Y-144499529D01*
X112178255Y-144588499D01*
X112291501Y-144701745D01*
X112380471Y-144834899D01*
X112441758Y-144982858D01*
X112473000Y-145139925D01*
X112473000Y-145300075D01*
X112441758Y-145457142D01*
X112380471Y-145605101D01*
X112291501Y-145738255D01*
X112178255Y-145851501D01*
X112045101Y-145940471D01*
X111897142Y-146001758D01*
X111740075Y-146033000D01*
X111579925Y-146033000D01*
X111422858Y-146001758D01*
X111274899Y-145940471D01*
X111141745Y-145851501D01*
X111028499Y-145738255D01*
X110939529Y-145605101D01*
X110878242Y-145457142D01*
X110847000Y-145300075D01*
X110847000Y-145139925D01*
X110878242Y-144982858D01*
X110939529Y-144834899D01*
X111028499Y-144701745D01*
X111141745Y-144588499D01*
X111274899Y-144499529D01*
X111422858Y-144438242D01*
X111579925Y-144407000D01*
X111740075Y-144407000D01*
X111897142Y-144438242D01*
X111897142Y-144438242D01*
G37*
G36*
X62432585Y-142428802D02*
G01*
X62582410Y-142458604D01*
X62864674Y-142575521D01*
X63118705Y-142745259D01*
X63334741Y-142961295D01*
X63504479Y-143215326D01*
X63621396Y-143497590D01*
X63681000Y-143797240D01*
X63681000Y-144102760D01*
X63621396Y-144402410D01*
X63504479Y-144684674D01*
X63334741Y-144938705D01*
X63118705Y-145154741D01*
X62864674Y-145324479D01*
X62582410Y-145441396D01*
X62525289Y-145452758D01*
X62282761Y-145501000D01*
X61977239Y-145501000D01*
X61734711Y-145452758D01*
X61677590Y-145441396D01*
X61395326Y-145324479D01*
X61141295Y-145154741D01*
X60925259Y-144938705D01*
X60755521Y-144684674D01*
X60638604Y-144402410D01*
X60579000Y-144102760D01*
X60579000Y-143797240D01*
X60638604Y-143497590D01*
X60755521Y-143215326D01*
X60925259Y-142961295D01*
X61141295Y-142745259D01*
X61395326Y-142575521D01*
X61677590Y-142458604D01*
X61827415Y-142428802D01*
X61977239Y-142399000D01*
X62282761Y-142399000D01*
X62432585Y-142428802D01*
X62432585Y-142428802D01*
G37*
G36*
X133326823Y-142401313D02*
G01*
X133487242Y-142449976D01*
X133605479Y-142513175D01*
X133635078Y-142528996D01*
X133764659Y-142635341D01*
X133871004Y-142764922D01*
X133871005Y-142764924D01*
X133950024Y-142912758D01*
X133998687Y-143073177D01*
X134015117Y-143240000D01*
X133998687Y-143406823D01*
X133950024Y-143567242D01*
X133879114Y-143699906D01*
X133871004Y-143715078D01*
X133764659Y-143844659D01*
X133635078Y-143951004D01*
X133635076Y-143951005D01*
X133487242Y-144030024D01*
X133326823Y-144078687D01*
X133201804Y-144091000D01*
X133118196Y-144091000D01*
X132993177Y-144078687D01*
X132832758Y-144030024D01*
X132684924Y-143951005D01*
X132684922Y-143951004D01*
X132555341Y-143844659D01*
X132448996Y-143715078D01*
X132440886Y-143699906D01*
X132369976Y-143567242D01*
X132321313Y-143406823D01*
X132304883Y-143240000D01*
X132321313Y-143073177D01*
X132369976Y-142912758D01*
X132448995Y-142764924D01*
X132448996Y-142764922D01*
X132555341Y-142635341D01*
X132684922Y-142528996D01*
X132714521Y-142513175D01*
X132832758Y-142449976D01*
X132993177Y-142401313D01*
X133118196Y-142389000D01*
X133201804Y-142389000D01*
X133326823Y-142401313D01*
X133326823Y-142401313D01*
G37*
G36*
X140946823Y-142401313D02*
G01*
X141107242Y-142449976D01*
X141225479Y-142513175D01*
X141255078Y-142528996D01*
X141384659Y-142635341D01*
X141491004Y-142764922D01*
X141491005Y-142764924D01*
X141570024Y-142912758D01*
X141618687Y-143073177D01*
X141635117Y-143240000D01*
X141618687Y-143406823D01*
X141570024Y-143567242D01*
X141499114Y-143699906D01*
X141491004Y-143715078D01*
X141384659Y-143844659D01*
X141255078Y-143951004D01*
X141255076Y-143951005D01*
X141107242Y-144030024D01*
X140946823Y-144078687D01*
X140821804Y-144091000D01*
X140738196Y-144091000D01*
X140613177Y-144078687D01*
X140452758Y-144030024D01*
X140304924Y-143951005D01*
X140304922Y-143951004D01*
X140175341Y-143844659D01*
X140068996Y-143715078D01*
X140060886Y-143699906D01*
X139989976Y-143567242D01*
X139941313Y-143406823D01*
X139924883Y-143240000D01*
X139941313Y-143073177D01*
X139989976Y-142912758D01*
X140068995Y-142764924D01*
X140068996Y-142764922D01*
X140175341Y-142635341D01*
X140304922Y-142528996D01*
X140334521Y-142513175D01*
X140452758Y-142449976D01*
X140613177Y-142401313D01*
X140738196Y-142389000D01*
X140821804Y-142389000D01*
X140946823Y-142401313D01*
X140946823Y-142401313D01*
G37*
G36*
X104206823Y-141841313D02*
G01*
X104367242Y-141889976D01*
X104499906Y-141960886D01*
X104515078Y-141968996D01*
X104644659Y-142075341D01*
X104751004Y-142204922D01*
X104751005Y-142204924D01*
X104830024Y-142352758D01*
X104878687Y-142513177D01*
X104895117Y-142680000D01*
X104878687Y-142846823D01*
X104830024Y-143007242D01*
X104794782Y-143073175D01*
X104751004Y-143155078D01*
X104644659Y-143284659D01*
X104515078Y-143391004D01*
X104515076Y-143391005D01*
X104367242Y-143470024D01*
X104206823Y-143518687D01*
X104081804Y-143531000D01*
X103998196Y-143531000D01*
X103873177Y-143518687D01*
X103712758Y-143470024D01*
X103564924Y-143391005D01*
X103564922Y-143391004D01*
X103435341Y-143284659D01*
X103328996Y-143155078D01*
X103285218Y-143073175D01*
X103249976Y-143007242D01*
X103201313Y-142846823D01*
X103184883Y-142680000D01*
X103201313Y-142513177D01*
X103249976Y-142352758D01*
X103328995Y-142204924D01*
X103328996Y-142204922D01*
X103435341Y-142075341D01*
X103564922Y-141968996D01*
X103580094Y-141960886D01*
X103712758Y-141889976D01*
X103873177Y-141841313D01*
X103998196Y-141829000D01*
X104081804Y-141829000D01*
X104206823Y-141841313D01*
X104206823Y-141841313D01*
G37*
G36*
X96586823Y-141841313D02*
G01*
X96747242Y-141889976D01*
X96879906Y-141960886D01*
X96895078Y-141968996D01*
X97024659Y-142075341D01*
X97131004Y-142204922D01*
X97131005Y-142204924D01*
X97210024Y-142352758D01*
X97258687Y-142513177D01*
X97275117Y-142680000D01*
X97258687Y-142846823D01*
X97210024Y-143007242D01*
X97174782Y-143073175D01*
X97131004Y-143155078D01*
X97024659Y-143284659D01*
X96895078Y-143391004D01*
X96895076Y-143391005D01*
X96747242Y-143470024D01*
X96586823Y-143518687D01*
X96461804Y-143531000D01*
X96378196Y-143531000D01*
X96253177Y-143518687D01*
X96092758Y-143470024D01*
X95944924Y-143391005D01*
X95944922Y-143391004D01*
X95815341Y-143284659D01*
X95708996Y-143155078D01*
X95665218Y-143073175D01*
X95629976Y-143007242D01*
X95581313Y-142846823D01*
X95564883Y-142680000D01*
X95581313Y-142513177D01*
X95629976Y-142352758D01*
X95708995Y-142204924D01*
X95708996Y-142204922D01*
X95815341Y-142075341D01*
X95944922Y-141968996D01*
X95960094Y-141960886D01*
X96092758Y-141889976D01*
X96253177Y-141841313D01*
X96378196Y-141829000D01*
X96461804Y-141829000D01*
X96586823Y-141841313D01*
X96586823Y-141841313D01*
G37*
G36*
X140946823Y-139861313D02*
G01*
X141107242Y-139909976D01*
X141225479Y-139973175D01*
X141255078Y-139988996D01*
X141384659Y-140095341D01*
X141491004Y-140224922D01*
X141491005Y-140224924D01*
X141570024Y-140372758D01*
X141618687Y-140533177D01*
X141635117Y-140700000D01*
X141618687Y-140866823D01*
X141570024Y-141027242D01*
X141499114Y-141159906D01*
X141491004Y-141175078D01*
X141384659Y-141304659D01*
X141255078Y-141411004D01*
X141255076Y-141411005D01*
X141107242Y-141490024D01*
X140946823Y-141538687D01*
X140821804Y-141551000D01*
X140738196Y-141551000D01*
X140613177Y-141538687D01*
X140452758Y-141490024D01*
X140304924Y-141411005D01*
X140304922Y-141411004D01*
X140175341Y-141304659D01*
X140068996Y-141175078D01*
X140060886Y-141159906D01*
X139989976Y-141027242D01*
X139941313Y-140866823D01*
X139924883Y-140700000D01*
X139941313Y-140533177D01*
X139989976Y-140372758D01*
X140068995Y-140224924D01*
X140068996Y-140224922D01*
X140175341Y-140095341D01*
X140304922Y-139988996D01*
X140334521Y-139973175D01*
X140452758Y-139909976D01*
X140613177Y-139861313D01*
X140738196Y-139849000D01*
X140821804Y-139849000D01*
X140946823Y-139861313D01*
X140946823Y-139861313D01*
G37*
G36*
X133326823Y-139861313D02*
G01*
X133487242Y-139909976D01*
X133605479Y-139973175D01*
X133635078Y-139988996D01*
X133764659Y-140095341D01*
X133871004Y-140224922D01*
X133871005Y-140224924D01*
X133950024Y-140372758D01*
X133998687Y-140533177D01*
X134015117Y-140700000D01*
X133998687Y-140866823D01*
X133950024Y-141027242D01*
X133879114Y-141159906D01*
X133871004Y-141175078D01*
X133764659Y-141304659D01*
X133635078Y-141411004D01*
X133635076Y-141411005D01*
X133487242Y-141490024D01*
X133326823Y-141538687D01*
X133201804Y-141551000D01*
X133118196Y-141551000D01*
X132993177Y-141538687D01*
X132832758Y-141490024D01*
X132684924Y-141411005D01*
X132684922Y-141411004D01*
X132555341Y-141304659D01*
X132448996Y-141175078D01*
X132440886Y-141159906D01*
X132369976Y-141027242D01*
X132321313Y-140866823D01*
X132304883Y-140700000D01*
X132321313Y-140533177D01*
X132369976Y-140372758D01*
X132448995Y-140224924D01*
X132448996Y-140224922D01*
X132555341Y-140095341D01*
X132684922Y-139988996D01*
X132714521Y-139973175D01*
X132832758Y-139909976D01*
X132993177Y-139861313D01*
X133118196Y-139849000D01*
X133201804Y-139849000D01*
X133326823Y-139861313D01*
X133326823Y-139861313D01*
G37*
G36*
X104206823Y-139301313D02*
G01*
X104367242Y-139349976D01*
X104499906Y-139420886D01*
X104515078Y-139428996D01*
X104644659Y-139535341D01*
X104751004Y-139664922D01*
X104751005Y-139664924D01*
X104830024Y-139812758D01*
X104878687Y-139973177D01*
X104895117Y-140140000D01*
X104878687Y-140306823D01*
X104830024Y-140467242D01*
X104794782Y-140533175D01*
X104751004Y-140615078D01*
X104644659Y-140744659D01*
X104515078Y-140851004D01*
X104515076Y-140851005D01*
X104367242Y-140930024D01*
X104206823Y-140978687D01*
X104081804Y-140991000D01*
X103998196Y-140991000D01*
X103873177Y-140978687D01*
X103712758Y-140930024D01*
X103564924Y-140851005D01*
X103564922Y-140851004D01*
X103435341Y-140744659D01*
X103328996Y-140615078D01*
X103285218Y-140533175D01*
X103249976Y-140467242D01*
X103201313Y-140306823D01*
X103184883Y-140140000D01*
X103201313Y-139973177D01*
X103249976Y-139812758D01*
X103328995Y-139664924D01*
X103328996Y-139664922D01*
X103435341Y-139535341D01*
X103564922Y-139428996D01*
X103580094Y-139420886D01*
X103712758Y-139349976D01*
X103873177Y-139301313D01*
X103998196Y-139289000D01*
X104081804Y-139289000D01*
X104206823Y-139301313D01*
X104206823Y-139301313D01*
G37*
G36*
X97271000Y-140991000D02*
G01*
X95569000Y-140991000D01*
X95569000Y-139289000D01*
X97271000Y-139289000D01*
X97271000Y-140991000D01*
X97271000Y-140991000D01*
G37*
G36*
X63681000Y-140421000D02*
G01*
X60579000Y-140421000D01*
X60579000Y-137319000D01*
X63681000Y-137319000D01*
X63681000Y-140421000D01*
X63681000Y-140421000D01*
G37*
G36*
X140946823Y-137321313D02*
G01*
X141107242Y-137369976D01*
X141239906Y-137440886D01*
X141255078Y-137448996D01*
X141384659Y-137555341D01*
X141491004Y-137684922D01*
X141491005Y-137684924D01*
X141570024Y-137832758D01*
X141618687Y-137993177D01*
X141635117Y-138160000D01*
X141618687Y-138326823D01*
X141570024Y-138487242D01*
X141499114Y-138619906D01*
X141491004Y-138635078D01*
X141384659Y-138764659D01*
X141255078Y-138871004D01*
X141255076Y-138871005D01*
X141107242Y-138950024D01*
X140946823Y-138998687D01*
X140821804Y-139011000D01*
X140738196Y-139011000D01*
X140613177Y-138998687D01*
X140452758Y-138950024D01*
X140304924Y-138871005D01*
X140304922Y-138871004D01*
X140175341Y-138764659D01*
X140068996Y-138635078D01*
X140060886Y-138619906D01*
X139989976Y-138487242D01*
X139941313Y-138326823D01*
X139924883Y-138160000D01*
X139941313Y-137993177D01*
X139989976Y-137832758D01*
X140068995Y-137684924D01*
X140068996Y-137684922D01*
X140175341Y-137555341D01*
X140304922Y-137448996D01*
X140320094Y-137440886D01*
X140452758Y-137369976D01*
X140613177Y-137321313D01*
X140738196Y-137309000D01*
X140821804Y-137309000D01*
X140946823Y-137321313D01*
X140946823Y-137321313D01*
G37*
G36*
X134011000Y-139011000D02*
G01*
X132309000Y-139011000D01*
X132309000Y-137309000D01*
X134011000Y-137309000D01*
X134011000Y-139011000D01*
X134011000Y-139011000D01*
G37*
G36*
X72498228Y-129161703D02*
G01*
X72653100Y-129225853D01*
X72792481Y-129318985D01*
X72911015Y-129437519D01*
X73004147Y-129576900D01*
X73068297Y-129731772D01*
X73101000Y-129896184D01*
X73101000Y-130063816D01*
X73068297Y-130228228D01*
X73004147Y-130383100D01*
X72911015Y-130522481D01*
X72792481Y-130641015D01*
X72653100Y-130734147D01*
X72498228Y-130798297D01*
X72333816Y-130831000D01*
X72166184Y-130831000D01*
X72001772Y-130798297D01*
X71846900Y-130734147D01*
X71707519Y-130641015D01*
X71588985Y-130522481D01*
X71495853Y-130383100D01*
X71431703Y-130228228D01*
X71399000Y-130063816D01*
X71399000Y-129896184D01*
X71431703Y-129731772D01*
X71495853Y-129576900D01*
X71588985Y-129437519D01*
X71707519Y-129318985D01*
X71846900Y-129225853D01*
X72001772Y-129161703D01*
X72166184Y-129129000D01*
X72333816Y-129129000D01*
X72498228Y-129161703D01*
X72498228Y-129161703D01*
G37*
G36*
X70601000Y-130831000D02*
G01*
X68899000Y-130831000D01*
X68899000Y-129129000D01*
X70601000Y-129129000D01*
X70601000Y-130831000D01*
X70601000Y-130831000D01*
G37*
G36*
X141017142Y-128378242D02*
G01*
X141165101Y-128439529D01*
X141298255Y-128528499D01*
X141411501Y-128641745D01*
X141500471Y-128774899D01*
X141561758Y-128922858D01*
X141593000Y-129079925D01*
X141593000Y-129240075D01*
X141561758Y-129397142D01*
X141500471Y-129545101D01*
X141411501Y-129678255D01*
X141298255Y-129791501D01*
X141165101Y-129880471D01*
X141017142Y-129941758D01*
X140860075Y-129973000D01*
X140699925Y-129973000D01*
X140542858Y-129941758D01*
X140394899Y-129880471D01*
X140261745Y-129791501D01*
X140148499Y-129678255D01*
X140059529Y-129545101D01*
X139998242Y-129397142D01*
X139967000Y-129240075D01*
X139967000Y-129079925D01*
X139998242Y-128922858D01*
X140059529Y-128774899D01*
X140148499Y-128641745D01*
X140261745Y-128528499D01*
X140394899Y-128439529D01*
X140542858Y-128378242D01*
X140699925Y-128347000D01*
X140860075Y-128347000D01*
X141017142Y-128378242D01*
X141017142Y-128378242D01*
G37*
G36*
X128317142Y-128378242D02*
G01*
X128465101Y-128439529D01*
X128598255Y-128528499D01*
X128711501Y-128641745D01*
X128800471Y-128774899D01*
X128861758Y-128922858D01*
X128893000Y-129079925D01*
X128893000Y-129240075D01*
X128861758Y-129397142D01*
X128800471Y-129545101D01*
X128711501Y-129678255D01*
X128598255Y-129791501D01*
X128465101Y-129880471D01*
X128317142Y-129941758D01*
X128160075Y-129973000D01*
X127999925Y-129973000D01*
X127842858Y-129941758D01*
X127694899Y-129880471D01*
X127561745Y-129791501D01*
X127448499Y-129678255D01*
X127359529Y-129545101D01*
X127298242Y-129397142D01*
X127267000Y-129240075D01*
X127267000Y-129079925D01*
X127298242Y-128922858D01*
X127359529Y-128774899D01*
X127448499Y-128641745D01*
X127561745Y-128528499D01*
X127694899Y-128439529D01*
X127842858Y-128378242D01*
X127999925Y-128347000D01*
X128160075Y-128347000D01*
X128317142Y-128378242D01*
X128317142Y-128378242D01*
G37*
G36*
X99477142Y-127378242D02*
G01*
X99625101Y-127439529D01*
X99758255Y-127528499D01*
X99871501Y-127641745D01*
X99960471Y-127774899D01*
X100021758Y-127922858D01*
X100053000Y-128079925D01*
X100053000Y-128240075D01*
X100021758Y-128397142D01*
X99960471Y-128545101D01*
X99871501Y-128678255D01*
X99758255Y-128791501D01*
X99625101Y-128880471D01*
X99477142Y-128941758D01*
X99320075Y-128973000D01*
X99159925Y-128973000D01*
X99002858Y-128941758D01*
X98854899Y-128880471D01*
X98721745Y-128791501D01*
X98608499Y-128678255D01*
X98519529Y-128545101D01*
X98458242Y-128397142D01*
X98427000Y-128240075D01*
X98427000Y-128079925D01*
X98458242Y-127922858D01*
X98519529Y-127774899D01*
X98608499Y-127641745D01*
X98721745Y-127528499D01*
X98854899Y-127439529D01*
X99002858Y-127378242D01*
X99159925Y-127347000D01*
X99320075Y-127347000D01*
X99477142Y-127378242D01*
X99477142Y-127378242D01*
G37*
G36*
X86777142Y-127378242D02*
G01*
X86925101Y-127439529D01*
X87058255Y-127528499D01*
X87171501Y-127641745D01*
X87260471Y-127774899D01*
X87321758Y-127922858D01*
X87353000Y-128079925D01*
X87353000Y-128240075D01*
X87321758Y-128397142D01*
X87260471Y-128545101D01*
X87171501Y-128678255D01*
X87058255Y-128791501D01*
X86925101Y-128880471D01*
X86777142Y-128941758D01*
X86620075Y-128973000D01*
X86459925Y-128973000D01*
X86302858Y-128941758D01*
X86154899Y-128880471D01*
X86021745Y-128791501D01*
X85908499Y-128678255D01*
X85819529Y-128545101D01*
X85758242Y-128397142D01*
X85727000Y-128240075D01*
X85727000Y-128079925D01*
X85758242Y-127922858D01*
X85819529Y-127774899D01*
X85908499Y-127641745D01*
X86021745Y-127528499D01*
X86154899Y-127439529D01*
X86302858Y-127378242D01*
X86459925Y-127347000D01*
X86620075Y-127347000D01*
X86777142Y-127378242D01*
X86777142Y-127378242D01*
G37*
G36*
X104317142Y-127378242D02*
G01*
X104465101Y-127439529D01*
X104598255Y-127528499D01*
X104711501Y-127641745D01*
X104800471Y-127774899D01*
X104861758Y-127922858D01*
X104893000Y-128079925D01*
X104893000Y-128240075D01*
X104861758Y-128397142D01*
X104800471Y-128545101D01*
X104711501Y-128678255D01*
X104598255Y-128791501D01*
X104465101Y-128880471D01*
X104317142Y-128941758D01*
X104160075Y-128973000D01*
X103999925Y-128973000D01*
X103842858Y-128941758D01*
X103694899Y-128880471D01*
X103561745Y-128791501D01*
X103448499Y-128678255D01*
X103359529Y-128545101D01*
X103298242Y-128397142D01*
X103267000Y-128240075D01*
X103267000Y-128079925D01*
X103298242Y-127922858D01*
X103359529Y-127774899D01*
X103448499Y-127641745D01*
X103561745Y-127528499D01*
X103694899Y-127439529D01*
X103842858Y-127378242D01*
X103999925Y-127347000D01*
X104160075Y-127347000D01*
X104317142Y-127378242D01*
X104317142Y-127378242D01*
G37*
G36*
X117017142Y-127378242D02*
G01*
X117165101Y-127439529D01*
X117298255Y-127528499D01*
X117411501Y-127641745D01*
X117500471Y-127774899D01*
X117561758Y-127922858D01*
X117593000Y-128079925D01*
X117593000Y-128240075D01*
X117561758Y-128397142D01*
X117500471Y-128545101D01*
X117411501Y-128678255D01*
X117298255Y-128791501D01*
X117165101Y-128880471D01*
X117017142Y-128941758D01*
X116860075Y-128973000D01*
X116699925Y-128973000D01*
X116542858Y-128941758D01*
X116394899Y-128880471D01*
X116261745Y-128791501D01*
X116148499Y-128678255D01*
X116059529Y-128545101D01*
X115998242Y-128397142D01*
X115967000Y-128240075D01*
X115967000Y-128079925D01*
X115998242Y-127922858D01*
X116059529Y-127774899D01*
X116148499Y-127641745D01*
X116261745Y-127528499D01*
X116394899Y-127439529D01*
X116542858Y-127378242D01*
X116699925Y-127347000D01*
X116860075Y-127347000D01*
X117017142Y-127378242D01*
X117017142Y-127378242D01*
G37*
G36*
X126478433Y-121794893D02*
G01*
X126568657Y-121812839D01*
X126674267Y-121856585D01*
X126823621Y-121918449D01*
X126823622Y-121918450D01*
X127053086Y-122071772D01*
X127248228Y-122266914D01*
X127350675Y-122420237D01*
X127401551Y-122496379D01*
X127507161Y-122751344D01*
X127561000Y-123022012D01*
X127561000Y-123297988D01*
X127507161Y-123568656D01*
X127401551Y-123823621D01*
X127401550Y-123823622D01*
X127248228Y-124053086D01*
X127053086Y-124248228D01*
X126899763Y-124350675D01*
X126823621Y-124401551D01*
X126674267Y-124463415D01*
X126568657Y-124507161D01*
X126478433Y-124525107D01*
X126297988Y-124561000D01*
X126022012Y-124561000D01*
X125841567Y-124525107D01*
X125751343Y-124507161D01*
X125645733Y-124463415D01*
X125496379Y-124401551D01*
X125420237Y-124350675D01*
X125266914Y-124248228D01*
X125071772Y-124053086D01*
X124918450Y-123823622D01*
X124918449Y-123823621D01*
X124812839Y-123568656D01*
X124759000Y-123297988D01*
X124759000Y-123022012D01*
X124812839Y-122751344D01*
X124918449Y-122496379D01*
X124969325Y-122420237D01*
X125071772Y-122266914D01*
X125266914Y-122071772D01*
X125496378Y-121918450D01*
X125496379Y-121918449D01*
X125645733Y-121856585D01*
X125751343Y-121812839D01*
X125841567Y-121794893D01*
X126022012Y-121759000D01*
X126297988Y-121759000D01*
X126478433Y-121794893D01*
X126478433Y-121794893D01*
G37*
G36*
X77478433Y-121794893D02*
G01*
X77568657Y-121812839D01*
X77674267Y-121856585D01*
X77823621Y-121918449D01*
X77823622Y-121918450D01*
X78053086Y-122071772D01*
X78248228Y-122266914D01*
X78350675Y-122420237D01*
X78401551Y-122496379D01*
X78507161Y-122751344D01*
X78561000Y-123022012D01*
X78561000Y-123297988D01*
X78507161Y-123568656D01*
X78401551Y-123823621D01*
X78401550Y-123823622D01*
X78248228Y-124053086D01*
X78053086Y-124248228D01*
X77899763Y-124350675D01*
X77823621Y-124401551D01*
X77674267Y-124463415D01*
X77568657Y-124507161D01*
X77478433Y-124525107D01*
X77297988Y-124561000D01*
X77022012Y-124561000D01*
X76841567Y-124525107D01*
X76751343Y-124507161D01*
X76645733Y-124463415D01*
X76496379Y-124401551D01*
X76420237Y-124350675D01*
X76266914Y-124248228D01*
X76071772Y-124053086D01*
X75918450Y-123823622D01*
X75918449Y-123823621D01*
X75812839Y-123568656D01*
X75759000Y-123297988D01*
X75759000Y-123022012D01*
X75812839Y-122751344D01*
X75918449Y-122496379D01*
X75969325Y-122420237D01*
X76071772Y-122266914D01*
X76266914Y-122071772D01*
X76496378Y-121918450D01*
X76496379Y-121918449D01*
X76645733Y-121856585D01*
X76751343Y-121812839D01*
X76841567Y-121794893D01*
X77022012Y-121759000D01*
X77297988Y-121759000D01*
X77478433Y-121794893D01*
X77478433Y-121794893D01*
G37*
G36*
X62432585Y-120838802D02*
G01*
X62582410Y-120868604D01*
X62864674Y-120985521D01*
X63118705Y-121155259D01*
X63334741Y-121371295D01*
X63504479Y-121625326D01*
X63621396Y-121907590D01*
X63681000Y-122207240D01*
X63681000Y-122512760D01*
X63621396Y-122812410D01*
X63504479Y-123094674D01*
X63334741Y-123348705D01*
X63118705Y-123564741D01*
X62864674Y-123734479D01*
X62582410Y-123851396D01*
X62432585Y-123881198D01*
X62282761Y-123911000D01*
X61977239Y-123911000D01*
X61827415Y-123881198D01*
X61677590Y-123851396D01*
X61395326Y-123734479D01*
X61141295Y-123564741D01*
X60925259Y-123348705D01*
X60755521Y-123094674D01*
X60638604Y-122812410D01*
X60579000Y-122512760D01*
X60579000Y-122207240D01*
X60638604Y-121907590D01*
X60755521Y-121625326D01*
X60925259Y-121371295D01*
X61141295Y-121155259D01*
X61395326Y-120985521D01*
X61677590Y-120868604D01*
X61827415Y-120838802D01*
X61977239Y-120809000D01*
X62282761Y-120809000D01*
X62432585Y-120838802D01*
X62432585Y-120838802D01*
G37*
G36*
X141946823Y-117941313D02*
G01*
X142107242Y-117989976D01*
X142239906Y-118060886D01*
X142255078Y-118068996D01*
X142384659Y-118175341D01*
X142491004Y-118304922D01*
X142491005Y-118304924D01*
X142570024Y-118452758D01*
X142618687Y-118613177D01*
X142635117Y-118780000D01*
X142618687Y-118946823D01*
X142570024Y-119107242D01*
X142532223Y-119177963D01*
X142491004Y-119255078D01*
X142384659Y-119384659D01*
X142255078Y-119491004D01*
X142255076Y-119491005D01*
X142107242Y-119570024D01*
X141946823Y-119618687D01*
X141821804Y-119631000D01*
X141738196Y-119631000D01*
X141613177Y-119618687D01*
X141452758Y-119570024D01*
X141304924Y-119491005D01*
X141304922Y-119491004D01*
X141175341Y-119384659D01*
X141068996Y-119255078D01*
X141027777Y-119177963D01*
X140989976Y-119107242D01*
X140941313Y-118946823D01*
X140924883Y-118780000D01*
X140941313Y-118613177D01*
X140989976Y-118452758D01*
X141068995Y-118304924D01*
X141068996Y-118304922D01*
X141175341Y-118175341D01*
X141304922Y-118068996D01*
X141320094Y-118060886D01*
X141452758Y-117989976D01*
X141613177Y-117941313D01*
X141738196Y-117929000D01*
X141821804Y-117929000D01*
X141946823Y-117941313D01*
X141946823Y-117941313D01*
G37*
G36*
X134326823Y-117941313D02*
G01*
X134487242Y-117989976D01*
X134619906Y-118060886D01*
X134635078Y-118068996D01*
X134764659Y-118175341D01*
X134871004Y-118304922D01*
X134871005Y-118304924D01*
X134950024Y-118452758D01*
X134998687Y-118613177D01*
X135015117Y-118780000D01*
X134998687Y-118946823D01*
X134950024Y-119107242D01*
X134912223Y-119177963D01*
X134871004Y-119255078D01*
X134764659Y-119384659D01*
X134635078Y-119491004D01*
X134635076Y-119491005D01*
X134487242Y-119570024D01*
X134326823Y-119618687D01*
X134201804Y-119631000D01*
X134118196Y-119631000D01*
X133993177Y-119618687D01*
X133832758Y-119570024D01*
X133684924Y-119491005D01*
X133684922Y-119491004D01*
X133555341Y-119384659D01*
X133448996Y-119255078D01*
X133407777Y-119177963D01*
X133369976Y-119107242D01*
X133321313Y-118946823D01*
X133304883Y-118780000D01*
X133321313Y-118613177D01*
X133369976Y-118452758D01*
X133448995Y-118304924D01*
X133448996Y-118304922D01*
X133555341Y-118175341D01*
X133684922Y-118068996D01*
X133700094Y-118060886D01*
X133832758Y-117989976D01*
X133993177Y-117941313D01*
X134118196Y-117929000D01*
X134201804Y-117929000D01*
X134326823Y-117941313D01*
X134326823Y-117941313D01*
G37*
G36*
X127540442Y-117395518D02*
G01*
X127606627Y-117402037D01*
X127776466Y-117453557D01*
X127932991Y-117537222D01*
X127964523Y-117563100D01*
X128070186Y-117649814D01*
X128153448Y-117751271D01*
X128182778Y-117787009D01*
X128266443Y-117943534D01*
X128317963Y-118113373D01*
X128335359Y-118290000D01*
X128317963Y-118466627D01*
X128266443Y-118636466D01*
X128182778Y-118792991D01*
X128153448Y-118828729D01*
X128070186Y-118930186D01*
X127968729Y-119013448D01*
X127932991Y-119042778D01*
X127776466Y-119126443D01*
X127606627Y-119177963D01*
X127540443Y-119184481D01*
X127474260Y-119191000D01*
X127385740Y-119191000D01*
X127319557Y-119184481D01*
X127253373Y-119177963D01*
X127083534Y-119126443D01*
X126927009Y-119042778D01*
X126891271Y-119013448D01*
X126789814Y-118930186D01*
X126706552Y-118828729D01*
X126677222Y-118792991D01*
X126593557Y-118636466D01*
X126542037Y-118466627D01*
X126524641Y-118290000D01*
X126542037Y-118113373D01*
X126593557Y-117943534D01*
X126677222Y-117787009D01*
X126706552Y-117751271D01*
X126789814Y-117649814D01*
X126895477Y-117563100D01*
X126927009Y-117537222D01*
X127083534Y-117453557D01*
X127253373Y-117402037D01*
X127319558Y-117395518D01*
X127385740Y-117389000D01*
X127474260Y-117389000D01*
X127540442Y-117395518D01*
X127540442Y-117395518D01*
G37*
G36*
X125000442Y-117395518D02*
G01*
X125066627Y-117402037D01*
X125236466Y-117453557D01*
X125392991Y-117537222D01*
X125424523Y-117563100D01*
X125530186Y-117649814D01*
X125613448Y-117751271D01*
X125642778Y-117787009D01*
X125726443Y-117943534D01*
X125777963Y-118113373D01*
X125795359Y-118290000D01*
X125777963Y-118466627D01*
X125726443Y-118636466D01*
X125642778Y-118792991D01*
X125613448Y-118828729D01*
X125530186Y-118930186D01*
X125428729Y-119013448D01*
X125392991Y-119042778D01*
X125236466Y-119126443D01*
X125066627Y-119177963D01*
X125000443Y-119184481D01*
X124934260Y-119191000D01*
X124845740Y-119191000D01*
X124779557Y-119184481D01*
X124713373Y-119177963D01*
X124543534Y-119126443D01*
X124387009Y-119042778D01*
X124351271Y-119013448D01*
X124249814Y-118930186D01*
X124166552Y-118828729D01*
X124137222Y-118792991D01*
X124053557Y-118636466D01*
X124002037Y-118466627D01*
X123984641Y-118290000D01*
X124002037Y-118113373D01*
X124053557Y-117943534D01*
X124137222Y-117787009D01*
X124166552Y-117751271D01*
X124249814Y-117649814D01*
X124355477Y-117563100D01*
X124387009Y-117537222D01*
X124543534Y-117453557D01*
X124713373Y-117402037D01*
X124779558Y-117395518D01*
X124845740Y-117389000D01*
X124934260Y-117389000D01*
X125000442Y-117395518D01*
X125000442Y-117395518D01*
G37*
G36*
X63681000Y-118831000D02*
G01*
X60579000Y-118831000D01*
X60579000Y-115729000D01*
X63681000Y-115729000D01*
X63681000Y-118831000D01*
X63681000Y-118831000D01*
G37*
G36*
X95011000Y-118011000D02*
G01*
X93309000Y-118011000D01*
X93309000Y-116309000D01*
X95011000Y-116309000D01*
X95011000Y-118011000D01*
X95011000Y-118011000D01*
G37*
G36*
X110011000Y-118011000D02*
G01*
X108309000Y-118011000D01*
X108309000Y-116309000D01*
X110011000Y-116309000D01*
X110011000Y-118011000D01*
X110011000Y-118011000D01*
G37*
G36*
X106908228Y-116341703D02*
G01*
X107063100Y-116405853D01*
X107202481Y-116498985D01*
X107321015Y-116617519D01*
X107414147Y-116756900D01*
X107478297Y-116911772D01*
X107511000Y-117076184D01*
X107511000Y-117243816D01*
X107478297Y-117408228D01*
X107414147Y-117563100D01*
X107321015Y-117702481D01*
X107202481Y-117821015D01*
X107063100Y-117914147D01*
X106908228Y-117978297D01*
X106743816Y-118011000D01*
X106576184Y-118011000D01*
X106411772Y-117978297D01*
X106256900Y-117914147D01*
X106117519Y-117821015D01*
X105998985Y-117702481D01*
X105905853Y-117563100D01*
X105841703Y-117408228D01*
X105809000Y-117243816D01*
X105809000Y-117076184D01*
X105841703Y-116911772D01*
X105905853Y-116756900D01*
X105998985Y-116617519D01*
X106117519Y-116498985D01*
X106256900Y-116405853D01*
X106411772Y-116341703D01*
X106576184Y-116309000D01*
X106743816Y-116309000D01*
X106908228Y-116341703D01*
X106908228Y-116341703D01*
G37*
G36*
X141946823Y-115401313D02*
G01*
X142107242Y-115449976D01*
X142221410Y-115511000D01*
X142255078Y-115528996D01*
X142384659Y-115635341D01*
X142491004Y-115764922D01*
X142491005Y-115764924D01*
X142570024Y-115912758D01*
X142618687Y-116073177D01*
X142635117Y-116240000D01*
X142618687Y-116406823D01*
X142570024Y-116567242D01*
X142499114Y-116699906D01*
X142491004Y-116715078D01*
X142384659Y-116844659D01*
X142255078Y-116951004D01*
X142255076Y-116951005D01*
X142107242Y-117030024D01*
X141946823Y-117078687D01*
X141821804Y-117091000D01*
X141738196Y-117091000D01*
X141613177Y-117078687D01*
X141452758Y-117030024D01*
X141304924Y-116951005D01*
X141304922Y-116951004D01*
X141175341Y-116844659D01*
X141068996Y-116715078D01*
X141060886Y-116699906D01*
X140989976Y-116567242D01*
X140941313Y-116406823D01*
X140924883Y-116240000D01*
X140941313Y-116073177D01*
X140989976Y-115912758D01*
X141068995Y-115764924D01*
X141068996Y-115764922D01*
X141175341Y-115635341D01*
X141304922Y-115528996D01*
X141338590Y-115511000D01*
X141452758Y-115449976D01*
X141613177Y-115401313D01*
X141738196Y-115389000D01*
X141821804Y-115389000D01*
X141946823Y-115401313D01*
X141946823Y-115401313D01*
G37*
G36*
X134326823Y-115401313D02*
G01*
X134487242Y-115449976D01*
X134601410Y-115511000D01*
X134635078Y-115528996D01*
X134764659Y-115635341D01*
X134871004Y-115764922D01*
X134871005Y-115764924D01*
X134950024Y-115912758D01*
X134998687Y-116073177D01*
X135015117Y-116240000D01*
X134998687Y-116406823D01*
X134950024Y-116567242D01*
X134879114Y-116699906D01*
X134871004Y-116715078D01*
X134764659Y-116844659D01*
X134635078Y-116951004D01*
X134635076Y-116951005D01*
X134487242Y-117030024D01*
X134326823Y-117078687D01*
X134201804Y-117091000D01*
X134118196Y-117091000D01*
X133993177Y-117078687D01*
X133832758Y-117030024D01*
X133684924Y-116951005D01*
X133684922Y-116951004D01*
X133555341Y-116844659D01*
X133448996Y-116715078D01*
X133440886Y-116699906D01*
X133369976Y-116567242D01*
X133321313Y-116406823D01*
X133304883Y-116240000D01*
X133321313Y-116073177D01*
X133369976Y-115912758D01*
X133448995Y-115764924D01*
X133448996Y-115764922D01*
X133555341Y-115635341D01*
X133684922Y-115528996D01*
X133718590Y-115511000D01*
X133832758Y-115449976D01*
X133993177Y-115401313D01*
X134118196Y-115389000D01*
X134201804Y-115389000D01*
X134326823Y-115401313D01*
X134326823Y-115401313D01*
G37*
G36*
X94408228Y-113841703D02*
G01*
X94563100Y-113905853D01*
X94702481Y-113998985D01*
X94821015Y-114117519D01*
X94914147Y-114256900D01*
X94978297Y-114411772D01*
X95011000Y-114576184D01*
X95011000Y-114743816D01*
X94978297Y-114908228D01*
X94914147Y-115063100D01*
X94821015Y-115202481D01*
X94702481Y-115321015D01*
X94563100Y-115414147D01*
X94408228Y-115478297D01*
X94243816Y-115511000D01*
X94076184Y-115511000D01*
X93911772Y-115478297D01*
X93756900Y-115414147D01*
X93617519Y-115321015D01*
X93498985Y-115202481D01*
X93405853Y-115063100D01*
X93341703Y-114908228D01*
X93309000Y-114743816D01*
X93309000Y-114576184D01*
X93341703Y-114411772D01*
X93405853Y-114256900D01*
X93498985Y-114117519D01*
X93617519Y-113998985D01*
X93756900Y-113905853D01*
X93911772Y-113841703D01*
X94076184Y-113809000D01*
X94243816Y-113809000D01*
X94408228Y-113841703D01*
X94408228Y-113841703D01*
G37*
G36*
X141946823Y-112861313D02*
G01*
X142107242Y-112909976D01*
X142176069Y-112946765D01*
X142255078Y-112988996D01*
X142384659Y-113095341D01*
X142491004Y-113224922D01*
X142491005Y-113224924D01*
X142570024Y-113372758D01*
X142618687Y-113533177D01*
X142635117Y-113700000D01*
X142618687Y-113866823D01*
X142570024Y-114027242D01*
X142521770Y-114117519D01*
X142491004Y-114175078D01*
X142384659Y-114304659D01*
X142255078Y-114411004D01*
X142255076Y-114411005D01*
X142107242Y-114490024D01*
X141946823Y-114538687D01*
X141821804Y-114551000D01*
X141738196Y-114551000D01*
X141613177Y-114538687D01*
X141452758Y-114490024D01*
X141304924Y-114411005D01*
X141304922Y-114411004D01*
X141175341Y-114304659D01*
X141068996Y-114175078D01*
X141038230Y-114117519D01*
X140989976Y-114027242D01*
X140941313Y-113866823D01*
X140924883Y-113700000D01*
X140941313Y-113533177D01*
X140989976Y-113372758D01*
X141068995Y-113224924D01*
X141068996Y-113224922D01*
X141175341Y-113095341D01*
X141304922Y-112988996D01*
X141383931Y-112946765D01*
X141452758Y-112909976D01*
X141613177Y-112861313D01*
X141738196Y-112849000D01*
X141821804Y-112849000D01*
X141946823Y-112861313D01*
X141946823Y-112861313D01*
G37*
G36*
X134326823Y-112861313D02*
G01*
X134487242Y-112909976D01*
X134556069Y-112946765D01*
X134635078Y-112988996D01*
X134764659Y-113095341D01*
X134871004Y-113224922D01*
X134871005Y-113224924D01*
X134950024Y-113372758D01*
X134998687Y-113533177D01*
X135015117Y-113700000D01*
X134998687Y-113866823D01*
X134950024Y-114027242D01*
X134901770Y-114117519D01*
X134871004Y-114175078D01*
X134764659Y-114304659D01*
X134635078Y-114411004D01*
X134635076Y-114411005D01*
X134487242Y-114490024D01*
X134326823Y-114538687D01*
X134201804Y-114551000D01*
X134118196Y-114551000D01*
X133993177Y-114538687D01*
X133832758Y-114490024D01*
X133684924Y-114411005D01*
X133684922Y-114411004D01*
X133555341Y-114304659D01*
X133448996Y-114175078D01*
X133418230Y-114117519D01*
X133369976Y-114027242D01*
X133321313Y-113866823D01*
X133304883Y-113700000D01*
X133321313Y-113533177D01*
X133369976Y-113372758D01*
X133448995Y-113224924D01*
X133448996Y-113224922D01*
X133555341Y-113095341D01*
X133684922Y-112988996D01*
X133763931Y-112946765D01*
X133832758Y-112909976D01*
X133993177Y-112861313D01*
X134118196Y-112849000D01*
X134201804Y-112849000D01*
X134326823Y-112861313D01*
X134326823Y-112861313D01*
G37*
G36*
X84771000Y-113251000D02*
G01*
X82669000Y-113251000D01*
X82669000Y-111149000D01*
X84771000Y-111149000D01*
X84771000Y-113251000D01*
X84771000Y-113251000D01*
G37*
G36*
X78743097Y-111154069D02*
G01*
X78846032Y-111164207D01*
X79044146Y-111224305D01*
X79044149Y-111224306D01*
X79140975Y-111276061D01*
X79226729Y-111321897D01*
X79386765Y-111453235D01*
X79518103Y-111613271D01*
X79529758Y-111635076D01*
X79615694Y-111795851D01*
X79615695Y-111795854D01*
X79675793Y-111993968D01*
X79696085Y-112200000D01*
X79675793Y-112406032D01*
X79621472Y-112585101D01*
X79615694Y-112604149D01*
X79563939Y-112700975D01*
X79518103Y-112786729D01*
X79386765Y-112946765D01*
X79226729Y-113078103D01*
X79140975Y-113123939D01*
X79044149Y-113175694D01*
X79044146Y-113175695D01*
X78846032Y-113235793D01*
X78743097Y-113245931D01*
X78691631Y-113251000D01*
X78588369Y-113251000D01*
X78536903Y-113245931D01*
X78433968Y-113235793D01*
X78235854Y-113175695D01*
X78235851Y-113175694D01*
X78139025Y-113123939D01*
X78053271Y-113078103D01*
X77893235Y-112946765D01*
X77761897Y-112786729D01*
X77716061Y-112700975D01*
X77664306Y-112604149D01*
X77658528Y-112585101D01*
X77604207Y-112406032D01*
X77583915Y-112200000D01*
X77604207Y-111993968D01*
X77664305Y-111795854D01*
X77664306Y-111795851D01*
X77750242Y-111635076D01*
X77761897Y-111613271D01*
X77893235Y-111453235D01*
X78053271Y-111321897D01*
X78139025Y-111276061D01*
X78235851Y-111224306D01*
X78235854Y-111224305D01*
X78433968Y-111164207D01*
X78536903Y-111154069D01*
X78588369Y-111149000D01*
X78691631Y-111149000D01*
X78743097Y-111154069D01*
X78743097Y-111154069D01*
G37*
G36*
X68717142Y-111418242D02*
G01*
X68865101Y-111479529D01*
X68998255Y-111568499D01*
X69111501Y-111681745D01*
X69200471Y-111814899D01*
X69261758Y-111962858D01*
X69293000Y-112119925D01*
X69293000Y-112280075D01*
X69261758Y-112437142D01*
X69200471Y-112585101D01*
X69111501Y-112718255D01*
X68998255Y-112831501D01*
X68865101Y-112920471D01*
X68717142Y-112981758D01*
X68560075Y-113013000D01*
X68399925Y-113013000D01*
X68242858Y-112981758D01*
X68094899Y-112920471D01*
X67961745Y-112831501D01*
X67848499Y-112718255D01*
X67759529Y-112585101D01*
X67698242Y-112437142D01*
X67667000Y-112280075D01*
X67667000Y-112119925D01*
X67698242Y-111962858D01*
X67759529Y-111814899D01*
X67848499Y-111681745D01*
X67961745Y-111568499D01*
X68094899Y-111479529D01*
X68242858Y-111418242D01*
X68399925Y-111387000D01*
X68560075Y-111387000D01*
X68717142Y-111418242D01*
X68717142Y-111418242D01*
G37*
G36*
X73797142Y-111418242D02*
G01*
X73945101Y-111479529D01*
X74078255Y-111568499D01*
X74191501Y-111681745D01*
X74280471Y-111814899D01*
X74341758Y-111962858D01*
X74373000Y-112119925D01*
X74373000Y-112280075D01*
X74341758Y-112437142D01*
X74280471Y-112585101D01*
X74191501Y-112718255D01*
X74078255Y-112831501D01*
X73945101Y-112920471D01*
X73797142Y-112981758D01*
X73640075Y-113013000D01*
X73479925Y-113013000D01*
X73322858Y-112981758D01*
X73174899Y-112920471D01*
X73041745Y-112831501D01*
X72928499Y-112718255D01*
X72839529Y-112585101D01*
X72778242Y-112437142D01*
X72747000Y-112280075D01*
X72747000Y-112119925D01*
X72778242Y-111962858D01*
X72839529Y-111814899D01*
X72928499Y-111681745D01*
X73041745Y-111568499D01*
X73174899Y-111479529D01*
X73322858Y-111418242D01*
X73479925Y-111387000D01*
X73640075Y-111387000D01*
X73797142Y-111418242D01*
X73797142Y-111418242D01*
G37*
G36*
X141946823Y-110321313D02*
G01*
X142107242Y-110369976D01*
X142239906Y-110440886D01*
X142255078Y-110448996D01*
X142384659Y-110555341D01*
X142491004Y-110684922D01*
X142491005Y-110684924D01*
X142570024Y-110832758D01*
X142618687Y-110993177D01*
X142635117Y-111160000D01*
X142618687Y-111326823D01*
X142570024Y-111487242D01*
X142526591Y-111568499D01*
X142491004Y-111635078D01*
X142384659Y-111764659D01*
X142255078Y-111871004D01*
X142255076Y-111871005D01*
X142107242Y-111950024D01*
X141946823Y-111998687D01*
X141821804Y-112011000D01*
X141738196Y-112011000D01*
X141613177Y-111998687D01*
X141452758Y-111950024D01*
X141304924Y-111871005D01*
X141304922Y-111871004D01*
X141175341Y-111764659D01*
X141068996Y-111635078D01*
X141033409Y-111568499D01*
X140989976Y-111487242D01*
X140941313Y-111326823D01*
X140924883Y-111160000D01*
X140941313Y-110993177D01*
X140989976Y-110832758D01*
X141068995Y-110684924D01*
X141068996Y-110684922D01*
X141175341Y-110555341D01*
X141304922Y-110448996D01*
X141320094Y-110440886D01*
X141452758Y-110369976D01*
X141613177Y-110321313D01*
X141738196Y-110309000D01*
X141821804Y-110309000D01*
X141946823Y-110321313D01*
X141946823Y-110321313D01*
G37*
G36*
X135011000Y-112011000D02*
G01*
X133309000Y-112011000D01*
X133309000Y-110309000D01*
X135011000Y-110309000D01*
X135011000Y-112011000D01*
X135011000Y-112011000D01*
G37*
G36*
X112511000Y-110551000D02*
G01*
X110809000Y-110551000D01*
X110809000Y-108849000D01*
X112511000Y-108849000D01*
X112511000Y-110551000D01*
X112511000Y-110551000D01*
G37*
G36*
X83823097Y-106074069D02*
G01*
X83926032Y-106084207D01*
X84124146Y-106144305D01*
X84124149Y-106144306D01*
X84220975Y-106196061D01*
X84306729Y-106241897D01*
X84466765Y-106373235D01*
X84598103Y-106533271D01*
X84601157Y-106538985D01*
X84695694Y-106715851D01*
X84695695Y-106715854D01*
X84755793Y-106913968D01*
X84776085Y-107120000D01*
X84755793Y-107326032D01*
X84701472Y-107505101D01*
X84695694Y-107524149D01*
X84643939Y-107620975D01*
X84598103Y-107706729D01*
X84466765Y-107866765D01*
X84306729Y-107998103D01*
X84268952Y-108018295D01*
X84124149Y-108095694D01*
X84124146Y-108095695D01*
X83926032Y-108155793D01*
X83823097Y-108165931D01*
X83771631Y-108171000D01*
X83668369Y-108171000D01*
X83616903Y-108165931D01*
X83513968Y-108155793D01*
X83315854Y-108095695D01*
X83315851Y-108095694D01*
X83171048Y-108018295D01*
X83133271Y-107998103D01*
X82973235Y-107866765D01*
X82841897Y-107706729D01*
X82796061Y-107620975D01*
X82744306Y-107524149D01*
X82738528Y-107505101D01*
X82684207Y-107326032D01*
X82663915Y-107120000D01*
X82684207Y-106913968D01*
X82744305Y-106715854D01*
X82744306Y-106715851D01*
X82838843Y-106538985D01*
X82841897Y-106533271D01*
X82973235Y-106373235D01*
X83133271Y-106241897D01*
X83219025Y-106196061D01*
X83315851Y-106144306D01*
X83315854Y-106144305D01*
X83513968Y-106084207D01*
X83616903Y-106074069D01*
X83668369Y-106069000D01*
X83771631Y-106069000D01*
X83823097Y-106074069D01*
X83823097Y-106074069D01*
G37*
G36*
X78743097Y-106074069D02*
G01*
X78846032Y-106084207D01*
X79044146Y-106144305D01*
X79044149Y-106144306D01*
X79140975Y-106196061D01*
X79226729Y-106241897D01*
X79386765Y-106373235D01*
X79518103Y-106533271D01*
X79521157Y-106538985D01*
X79615694Y-106715851D01*
X79615695Y-106715854D01*
X79675793Y-106913968D01*
X79696085Y-107120000D01*
X79675793Y-107326032D01*
X79621472Y-107505101D01*
X79615694Y-107524149D01*
X79563939Y-107620975D01*
X79518103Y-107706729D01*
X79386765Y-107866765D01*
X79226729Y-107998103D01*
X79188952Y-108018295D01*
X79044149Y-108095694D01*
X79044146Y-108095695D01*
X78846032Y-108155793D01*
X78743097Y-108165931D01*
X78691631Y-108171000D01*
X78588369Y-108171000D01*
X78536903Y-108165931D01*
X78433968Y-108155793D01*
X78235854Y-108095695D01*
X78235851Y-108095694D01*
X78091048Y-108018295D01*
X78053271Y-107998103D01*
X77893235Y-107866765D01*
X77761897Y-107706729D01*
X77716061Y-107620975D01*
X77664306Y-107524149D01*
X77658528Y-107505101D01*
X77604207Y-107326032D01*
X77583915Y-107120000D01*
X77604207Y-106913968D01*
X77664305Y-106715854D01*
X77664306Y-106715851D01*
X77758843Y-106538985D01*
X77761897Y-106533271D01*
X77893235Y-106373235D01*
X78053271Y-106241897D01*
X78139025Y-106196061D01*
X78235851Y-106144306D01*
X78235854Y-106144305D01*
X78433968Y-106084207D01*
X78536903Y-106074069D01*
X78588369Y-106069000D01*
X78691631Y-106069000D01*
X78743097Y-106074069D01*
X78743097Y-106074069D01*
G37*
G36*
X111908228Y-106381703D02*
G01*
X112063100Y-106445853D01*
X112202481Y-106538985D01*
X112321015Y-106657519D01*
X112414147Y-106796900D01*
X112478297Y-106951772D01*
X112511000Y-107116184D01*
X112511000Y-107283816D01*
X112478297Y-107448228D01*
X112414147Y-107603100D01*
X112321015Y-107742481D01*
X112202481Y-107861015D01*
X112063100Y-107954147D01*
X111908228Y-108018297D01*
X111743816Y-108051000D01*
X111576184Y-108051000D01*
X111411772Y-108018297D01*
X111256900Y-107954147D01*
X111117519Y-107861015D01*
X110998985Y-107742481D01*
X110905853Y-107603100D01*
X110841703Y-107448228D01*
X110809000Y-107283816D01*
X110809000Y-107116184D01*
X110841703Y-106951772D01*
X110905853Y-106796900D01*
X110998985Y-106657519D01*
X111117519Y-106538985D01*
X111256900Y-106445853D01*
X111411772Y-106381703D01*
X111576184Y-106349000D01*
X111743816Y-106349000D01*
X111908228Y-106381703D01*
X111908228Y-106381703D01*
G37*
G36*
X68717142Y-106338242D02*
G01*
X68865101Y-106399529D01*
X68998255Y-106488499D01*
X69111501Y-106601745D01*
X69200471Y-106734899D01*
X69261758Y-106882858D01*
X69293000Y-107039925D01*
X69293000Y-107200075D01*
X69261758Y-107357142D01*
X69200471Y-107505101D01*
X69111501Y-107638255D01*
X68998255Y-107751501D01*
X68865101Y-107840471D01*
X68717142Y-107901758D01*
X68560075Y-107933000D01*
X68399925Y-107933000D01*
X68242858Y-107901758D01*
X68094899Y-107840471D01*
X67961745Y-107751501D01*
X67848499Y-107638255D01*
X67759529Y-107505101D01*
X67698242Y-107357142D01*
X67667000Y-107200075D01*
X67667000Y-107039925D01*
X67698242Y-106882858D01*
X67759529Y-106734899D01*
X67848499Y-106601745D01*
X67961745Y-106488499D01*
X68094899Y-106399529D01*
X68242858Y-106338242D01*
X68399925Y-106307000D01*
X68560075Y-106307000D01*
X68717142Y-106338242D01*
X68717142Y-106338242D01*
G37*
G36*
X73797142Y-106338242D02*
G01*
X73945101Y-106399529D01*
X74078255Y-106488499D01*
X74191501Y-106601745D01*
X74280471Y-106734899D01*
X74341758Y-106882858D01*
X74373000Y-107039925D01*
X74373000Y-107200075D01*
X74341758Y-107357142D01*
X74280471Y-107505101D01*
X74191501Y-107638255D01*
X74078255Y-107751501D01*
X73945101Y-107840471D01*
X73797142Y-107901758D01*
X73640075Y-107933000D01*
X73479925Y-107933000D01*
X73322858Y-107901758D01*
X73174899Y-107840471D01*
X73041745Y-107751501D01*
X72928499Y-107638255D01*
X72839529Y-107505101D01*
X72778242Y-107357142D01*
X72747000Y-107200075D01*
X72747000Y-107039925D01*
X72778242Y-106882858D01*
X72839529Y-106734899D01*
X72928499Y-106601745D01*
X73041745Y-106488499D01*
X73174899Y-106399529D01*
X73322858Y-106338242D01*
X73479925Y-106307000D01*
X73640075Y-106307000D01*
X73797142Y-106338242D01*
X73797142Y-106338242D01*
G37*
G36*
X91777142Y-104378242D02*
G01*
X91925101Y-104439529D01*
X92058255Y-104528499D01*
X92171501Y-104641745D01*
X92260471Y-104774899D01*
X92321758Y-104922858D01*
X92353000Y-105079925D01*
X92353000Y-105240075D01*
X92321758Y-105397142D01*
X92260471Y-105545101D01*
X92171501Y-105678255D01*
X92058255Y-105791501D01*
X91925101Y-105880471D01*
X91777142Y-105941758D01*
X91620075Y-105973000D01*
X91459925Y-105973000D01*
X91302858Y-105941758D01*
X91154899Y-105880471D01*
X91021745Y-105791501D01*
X90908499Y-105678255D01*
X90819529Y-105545101D01*
X90758242Y-105397142D01*
X90727000Y-105240075D01*
X90727000Y-105079925D01*
X90758242Y-104922858D01*
X90819529Y-104774899D01*
X90908499Y-104641745D01*
X91021745Y-104528499D01*
X91154899Y-104439529D01*
X91302858Y-104378242D01*
X91459925Y-104347000D01*
X91620075Y-104347000D01*
X91777142Y-104378242D01*
X91777142Y-104378242D01*
G37*
G36*
X104477142Y-104378242D02*
G01*
X104625101Y-104439529D01*
X104758255Y-104528499D01*
X104871501Y-104641745D01*
X104960471Y-104774899D01*
X105021758Y-104922858D01*
X105053000Y-105079925D01*
X105053000Y-105240075D01*
X105021758Y-105397142D01*
X104960471Y-105545101D01*
X104871501Y-105678255D01*
X104758255Y-105791501D01*
X104625101Y-105880471D01*
X104477142Y-105941758D01*
X104320075Y-105973000D01*
X104159925Y-105973000D01*
X104002858Y-105941758D01*
X103854899Y-105880471D01*
X103721745Y-105791501D01*
X103608499Y-105678255D01*
X103519529Y-105545101D01*
X103458242Y-105397142D01*
X103427000Y-105240075D01*
X103427000Y-105079925D01*
X103458242Y-104922858D01*
X103519529Y-104774899D01*
X103608499Y-104641745D01*
X103721745Y-104528499D01*
X103854899Y-104439529D01*
X104002858Y-104378242D01*
X104159925Y-104347000D01*
X104320075Y-104347000D01*
X104477142Y-104378242D01*
X104477142Y-104378242D01*
G37*
G36*
X142011000Y-102011000D02*
G01*
X140309000Y-102011000D01*
X140309000Y-100309000D01*
X142011000Y-100309000D01*
X142011000Y-102011000D01*
X142011000Y-102011000D01*
G37*
G36*
X133706823Y-100321313D02*
G01*
X133867242Y-100369976D01*
X133999906Y-100440886D01*
X134015078Y-100448996D01*
X134144659Y-100555341D01*
X134251004Y-100684922D01*
X134251005Y-100684924D01*
X134330024Y-100832758D01*
X134378687Y-100993177D01*
X134395117Y-101160000D01*
X134378687Y-101326823D01*
X134330024Y-101487242D01*
X134259114Y-101619906D01*
X134251004Y-101635078D01*
X134144659Y-101764659D01*
X134015078Y-101871004D01*
X134015076Y-101871005D01*
X133867242Y-101950024D01*
X133706823Y-101998687D01*
X133581804Y-102011000D01*
X133498196Y-102011000D01*
X133373177Y-101998687D01*
X133212758Y-101950024D01*
X133064924Y-101871005D01*
X133064922Y-101871004D01*
X132935341Y-101764659D01*
X132828996Y-101635078D01*
X132820886Y-101619906D01*
X132749976Y-101487242D01*
X132701313Y-101326823D01*
X132684883Y-101160000D01*
X132701313Y-100993177D01*
X132749976Y-100832758D01*
X132828995Y-100684924D01*
X132828996Y-100684922D01*
X132935341Y-100555341D01*
X133064922Y-100448996D01*
X133080094Y-100440886D01*
X133212758Y-100369976D01*
X133373177Y-100321313D01*
X133498196Y-100309000D01*
X133581804Y-100309000D01*
X133706823Y-100321313D01*
X133706823Y-100321313D01*
G37*
G36*
X62432585Y-97343802D02*
G01*
X62582410Y-97373604D01*
X62864674Y-97490521D01*
X63118705Y-97660259D01*
X63334741Y-97876295D01*
X63504479Y-98130326D01*
X63621396Y-98412590D01*
X63621396Y-98412591D01*
X63673167Y-98672858D01*
X63681000Y-98712240D01*
X63681000Y-99017760D01*
X63621396Y-99317410D01*
X63504479Y-99599674D01*
X63334741Y-99853705D01*
X63118705Y-100069741D01*
X62864674Y-100239479D01*
X62582410Y-100356396D01*
X62432585Y-100386198D01*
X62282761Y-100416000D01*
X61977239Y-100416000D01*
X61827415Y-100386198D01*
X61677590Y-100356396D01*
X61395326Y-100239479D01*
X61141295Y-100069741D01*
X60925259Y-99853705D01*
X60755521Y-99599674D01*
X60638604Y-99317410D01*
X60579000Y-99017760D01*
X60579000Y-98712240D01*
X60586834Y-98672858D01*
X60638604Y-98412591D01*
X60638604Y-98412590D01*
X60755521Y-98130326D01*
X60925259Y-97876295D01*
X61141295Y-97660259D01*
X61395326Y-97490521D01*
X61677590Y-97373604D01*
X61827415Y-97343802D01*
X61977239Y-97314000D01*
X62282761Y-97314000D01*
X62432585Y-97343802D01*
X62432585Y-97343802D01*
G37*
G36*
X84771000Y-99916000D02*
G01*
X82669000Y-99916000D01*
X82669000Y-97814000D01*
X84771000Y-97814000D01*
X84771000Y-99916000D01*
X84771000Y-99916000D01*
G37*
G36*
X78743097Y-97819069D02*
G01*
X78846032Y-97829207D01*
X79044146Y-97889305D01*
X79044149Y-97889306D01*
X79080984Y-97908995D01*
X79226729Y-97986897D01*
X79386765Y-98118235D01*
X79518103Y-98278271D01*
X79563939Y-98364025D01*
X79615694Y-98460851D01*
X79615695Y-98460854D01*
X79675793Y-98658968D01*
X79696085Y-98865000D01*
X79675793Y-99071032D01*
X79629190Y-99224659D01*
X79615694Y-99269149D01*
X79582631Y-99331005D01*
X79518103Y-99451729D01*
X79386765Y-99611765D01*
X79226729Y-99743103D01*
X79140975Y-99788939D01*
X79044149Y-99840694D01*
X79044146Y-99840695D01*
X78846032Y-99900793D01*
X78743097Y-99910931D01*
X78691631Y-99916000D01*
X78588369Y-99916000D01*
X78536903Y-99910931D01*
X78433968Y-99900793D01*
X78235854Y-99840695D01*
X78235851Y-99840694D01*
X78139025Y-99788939D01*
X78053271Y-99743103D01*
X77893235Y-99611765D01*
X77761897Y-99451729D01*
X77697369Y-99331005D01*
X77664306Y-99269149D01*
X77650810Y-99224659D01*
X77604207Y-99071032D01*
X77583915Y-98865000D01*
X77604207Y-98658968D01*
X77664305Y-98460854D01*
X77664306Y-98460851D01*
X77716061Y-98364025D01*
X77761897Y-98278271D01*
X77893235Y-98118235D01*
X78053271Y-97986897D01*
X78199016Y-97908995D01*
X78235851Y-97889306D01*
X78235854Y-97889305D01*
X78433968Y-97829207D01*
X78536903Y-97819069D01*
X78588369Y-97814000D01*
X78691631Y-97814000D01*
X78743097Y-97819069D01*
X78743097Y-97819069D01*
G37*
G36*
X68857142Y-98128242D02*
G01*
X69005101Y-98189529D01*
X69138255Y-98278499D01*
X69251501Y-98391745D01*
X69340471Y-98524899D01*
X69401758Y-98672858D01*
X69433000Y-98829925D01*
X69433000Y-98990075D01*
X69401758Y-99147142D01*
X69340471Y-99295101D01*
X69251501Y-99428255D01*
X69138255Y-99541501D01*
X69005101Y-99630471D01*
X68857142Y-99691758D01*
X68700075Y-99723000D01*
X68539925Y-99723000D01*
X68382858Y-99691758D01*
X68234899Y-99630471D01*
X68101745Y-99541501D01*
X67988499Y-99428255D01*
X67899529Y-99295101D01*
X67838242Y-99147142D01*
X67807000Y-98990075D01*
X67807000Y-98829925D01*
X67838242Y-98672858D01*
X67899529Y-98524899D01*
X67988499Y-98391745D01*
X68101745Y-98278499D01*
X68234899Y-98189529D01*
X68382858Y-98128242D01*
X68539925Y-98097000D01*
X68700075Y-98097000D01*
X68857142Y-98128242D01*
X68857142Y-98128242D01*
G37*
G36*
X73937142Y-98128242D02*
G01*
X74085101Y-98189529D01*
X74218255Y-98278499D01*
X74331501Y-98391745D01*
X74420471Y-98524899D01*
X74481758Y-98672858D01*
X74513000Y-98829925D01*
X74513000Y-98990075D01*
X74481758Y-99147142D01*
X74420471Y-99295101D01*
X74331501Y-99428255D01*
X74218255Y-99541501D01*
X74085101Y-99630471D01*
X73937142Y-99691758D01*
X73780075Y-99723000D01*
X73619925Y-99723000D01*
X73462858Y-99691758D01*
X73314899Y-99630471D01*
X73181745Y-99541501D01*
X73068499Y-99428255D01*
X72979529Y-99295101D01*
X72918242Y-99147142D01*
X72887000Y-98990075D01*
X72887000Y-98829925D01*
X72918242Y-98672858D01*
X72979529Y-98524899D01*
X73068499Y-98391745D01*
X73181745Y-98278499D01*
X73314899Y-98189529D01*
X73462858Y-98128242D01*
X73619925Y-98097000D01*
X73780075Y-98097000D01*
X73937142Y-98128242D01*
X73937142Y-98128242D01*
G37*
G36*
X141326823Y-97781313D02*
G01*
X141487242Y-97829976D01*
X141619906Y-97900886D01*
X141635078Y-97908996D01*
X141764659Y-98015341D01*
X141871004Y-98144922D01*
X141871005Y-98144924D01*
X141950024Y-98292758D01*
X141998687Y-98453177D01*
X142015117Y-98620000D01*
X141998687Y-98786823D01*
X141950024Y-98947242D01*
X141883858Y-99071030D01*
X141871004Y-99095078D01*
X141764659Y-99224659D01*
X141635078Y-99331004D01*
X141635076Y-99331005D01*
X141487242Y-99410024D01*
X141326823Y-99458687D01*
X141201804Y-99471000D01*
X141118196Y-99471000D01*
X140993177Y-99458687D01*
X140832758Y-99410024D01*
X140684924Y-99331005D01*
X140684922Y-99331004D01*
X140555341Y-99224659D01*
X140448996Y-99095078D01*
X140436142Y-99071030D01*
X140369976Y-98947242D01*
X140321313Y-98786823D01*
X140304883Y-98620000D01*
X140321313Y-98453177D01*
X140369976Y-98292758D01*
X140448995Y-98144924D01*
X140448996Y-98144922D01*
X140555341Y-98015341D01*
X140684922Y-97908996D01*
X140700094Y-97900886D01*
X140832758Y-97829976D01*
X140993177Y-97781313D01*
X141118196Y-97769000D01*
X141201804Y-97769000D01*
X141326823Y-97781313D01*
X141326823Y-97781313D01*
G37*
G36*
X133706823Y-97781313D02*
G01*
X133867242Y-97829976D01*
X133999906Y-97900886D01*
X134015078Y-97908996D01*
X134144659Y-98015341D01*
X134251004Y-98144922D01*
X134251005Y-98144924D01*
X134330024Y-98292758D01*
X134378687Y-98453177D01*
X134395117Y-98620000D01*
X134378687Y-98786823D01*
X134330024Y-98947242D01*
X134263858Y-99071030D01*
X134251004Y-99095078D01*
X134144659Y-99224659D01*
X134015078Y-99331004D01*
X134015076Y-99331005D01*
X133867242Y-99410024D01*
X133706823Y-99458687D01*
X133581804Y-99471000D01*
X133498196Y-99471000D01*
X133373177Y-99458687D01*
X133212758Y-99410024D01*
X133064924Y-99331005D01*
X133064922Y-99331004D01*
X132935341Y-99224659D01*
X132828996Y-99095078D01*
X132816142Y-99071030D01*
X132749976Y-98947242D01*
X132701313Y-98786823D01*
X132684883Y-98620000D01*
X132701313Y-98453177D01*
X132749976Y-98292758D01*
X132828995Y-98144924D01*
X132828996Y-98144922D01*
X132935341Y-98015341D01*
X133064922Y-97908996D01*
X133080094Y-97900886D01*
X133212758Y-97829976D01*
X133373177Y-97781313D01*
X133498196Y-97769000D01*
X133581804Y-97769000D01*
X133706823Y-97781313D01*
X133706823Y-97781313D01*
G37*
G36*
X127540443Y-97075519D02*
G01*
X127606627Y-97082037D01*
X127776466Y-97133557D01*
X127932991Y-97217222D01*
X127968729Y-97246552D01*
X128070186Y-97329814D01*
X128153448Y-97431271D01*
X128182778Y-97467009D01*
X128266443Y-97623534D01*
X128317963Y-97793373D01*
X128335359Y-97970000D01*
X128317963Y-98146627D01*
X128266443Y-98316466D01*
X128182778Y-98472991D01*
X128153448Y-98508729D01*
X128070186Y-98610186D01*
X127968729Y-98693448D01*
X127932991Y-98722778D01*
X127776466Y-98806443D01*
X127606627Y-98857963D01*
X127540443Y-98864481D01*
X127474260Y-98871000D01*
X127385740Y-98871000D01*
X127319558Y-98864482D01*
X127253373Y-98857963D01*
X127083534Y-98806443D01*
X126927009Y-98722778D01*
X126891271Y-98693448D01*
X126789814Y-98610186D01*
X126706552Y-98508729D01*
X126677222Y-98472991D01*
X126593557Y-98316466D01*
X126542037Y-98146627D01*
X126524641Y-97970000D01*
X126542037Y-97793373D01*
X126593557Y-97623534D01*
X126677222Y-97467009D01*
X126706552Y-97431271D01*
X126789814Y-97329814D01*
X126891271Y-97246552D01*
X126927009Y-97217222D01*
X127083534Y-97133557D01*
X127253373Y-97082037D01*
X127319557Y-97075519D01*
X127385740Y-97069000D01*
X127474260Y-97069000D01*
X127540443Y-97075519D01*
X127540443Y-97075519D01*
G37*
G36*
X125000443Y-97075519D02*
G01*
X125066627Y-97082037D01*
X125236466Y-97133557D01*
X125392991Y-97217222D01*
X125428729Y-97246552D01*
X125530186Y-97329814D01*
X125613448Y-97431271D01*
X125642778Y-97467009D01*
X125726443Y-97623534D01*
X125777963Y-97793373D01*
X125795359Y-97970000D01*
X125777963Y-98146627D01*
X125726443Y-98316466D01*
X125642778Y-98472991D01*
X125613448Y-98508729D01*
X125530186Y-98610186D01*
X125428729Y-98693448D01*
X125392991Y-98722778D01*
X125236466Y-98806443D01*
X125066627Y-98857963D01*
X125000443Y-98864481D01*
X124934260Y-98871000D01*
X124845740Y-98871000D01*
X124779558Y-98864482D01*
X124713373Y-98857963D01*
X124543534Y-98806443D01*
X124387009Y-98722778D01*
X124351271Y-98693448D01*
X124249814Y-98610186D01*
X124166552Y-98508729D01*
X124137222Y-98472991D01*
X124053557Y-98316466D01*
X124002037Y-98146627D01*
X123984641Y-97970000D01*
X124002037Y-97793373D01*
X124053557Y-97623534D01*
X124137222Y-97467009D01*
X124166552Y-97431271D01*
X124249814Y-97329814D01*
X124351271Y-97246552D01*
X124387009Y-97217222D01*
X124543534Y-97133557D01*
X124713373Y-97082037D01*
X124779557Y-97075519D01*
X124845740Y-97069000D01*
X124934260Y-97069000D01*
X125000443Y-97075519D01*
X125000443Y-97075519D01*
G37*
G36*
X106017142Y-95378242D02*
G01*
X106165101Y-95439529D01*
X106298255Y-95528499D01*
X106411501Y-95641745D01*
X106500471Y-95774899D01*
X106561758Y-95922858D01*
X106593000Y-96079925D01*
X106593000Y-96240075D01*
X106561758Y-96397142D01*
X106500471Y-96545101D01*
X106411501Y-96678255D01*
X106298255Y-96791501D01*
X106165101Y-96880471D01*
X106017142Y-96941758D01*
X105860075Y-96973000D01*
X105699925Y-96973000D01*
X105542858Y-96941758D01*
X105394899Y-96880471D01*
X105261745Y-96791501D01*
X105148499Y-96678255D01*
X105059529Y-96545101D01*
X104998242Y-96397142D01*
X104967000Y-96240075D01*
X104967000Y-96079925D01*
X104998242Y-95922858D01*
X105059529Y-95774899D01*
X105148499Y-95641745D01*
X105261745Y-95528499D01*
X105394899Y-95439529D01*
X105542858Y-95378242D01*
X105699925Y-95347000D01*
X105860075Y-95347000D01*
X106017142Y-95378242D01*
X106017142Y-95378242D01*
G37*
G36*
X93317142Y-95378242D02*
G01*
X93465101Y-95439529D01*
X93598255Y-95528499D01*
X93711501Y-95641745D01*
X93800471Y-95774899D01*
X93861758Y-95922858D01*
X93893000Y-96079925D01*
X93893000Y-96240075D01*
X93861758Y-96397142D01*
X93800471Y-96545101D01*
X93711501Y-96678255D01*
X93598255Y-96791501D01*
X93465101Y-96880471D01*
X93317142Y-96941758D01*
X93160075Y-96973000D01*
X92999925Y-96973000D01*
X92842858Y-96941758D01*
X92694899Y-96880471D01*
X92561745Y-96791501D01*
X92448499Y-96678255D01*
X92359529Y-96545101D01*
X92298242Y-96397142D01*
X92267000Y-96240075D01*
X92267000Y-96079925D01*
X92298242Y-95922858D01*
X92359529Y-95774899D01*
X92448499Y-95641745D01*
X92561745Y-95528499D01*
X92694899Y-95439529D01*
X92842858Y-95378242D01*
X92999925Y-95347000D01*
X93160075Y-95347000D01*
X93317142Y-95378242D01*
X93317142Y-95378242D01*
G37*
G36*
X133706823Y-95241313D02*
G01*
X133867242Y-95289976D01*
X133973926Y-95347000D01*
X134015078Y-95368996D01*
X134144659Y-95475341D01*
X134251004Y-95604922D01*
X134251005Y-95604924D01*
X134330024Y-95752758D01*
X134378687Y-95913177D01*
X134395117Y-96080000D01*
X134378687Y-96246823D01*
X134330024Y-96407242D01*
X134259114Y-96539906D01*
X134251004Y-96555078D01*
X134144659Y-96684659D01*
X134015078Y-96791004D01*
X134015076Y-96791005D01*
X133867242Y-96870024D01*
X133706823Y-96918687D01*
X133581804Y-96931000D01*
X133498196Y-96931000D01*
X133373177Y-96918687D01*
X133212758Y-96870024D01*
X133064924Y-96791005D01*
X133064922Y-96791004D01*
X132935341Y-96684659D01*
X132828996Y-96555078D01*
X132820886Y-96539906D01*
X132749976Y-96407242D01*
X132701313Y-96246823D01*
X132684883Y-96080000D01*
X132701313Y-95913177D01*
X132749976Y-95752758D01*
X132828995Y-95604924D01*
X132828996Y-95604922D01*
X132935341Y-95475341D01*
X133064922Y-95368996D01*
X133106074Y-95347000D01*
X133212758Y-95289976D01*
X133373177Y-95241313D01*
X133498196Y-95229000D01*
X133581804Y-95229000D01*
X133706823Y-95241313D01*
X133706823Y-95241313D01*
G37*
G36*
X141326823Y-95241313D02*
G01*
X141487242Y-95289976D01*
X141593926Y-95347000D01*
X141635078Y-95368996D01*
X141764659Y-95475341D01*
X141871004Y-95604922D01*
X141871005Y-95604924D01*
X141950024Y-95752758D01*
X141998687Y-95913177D01*
X142015117Y-96080000D01*
X141998687Y-96246823D01*
X141950024Y-96407242D01*
X141879114Y-96539906D01*
X141871004Y-96555078D01*
X141764659Y-96684659D01*
X141635078Y-96791004D01*
X141635076Y-96791005D01*
X141487242Y-96870024D01*
X141326823Y-96918687D01*
X141201804Y-96931000D01*
X141118196Y-96931000D01*
X140993177Y-96918687D01*
X140832758Y-96870024D01*
X140684924Y-96791005D01*
X140684922Y-96791004D01*
X140555341Y-96684659D01*
X140448996Y-96555078D01*
X140440886Y-96539906D01*
X140369976Y-96407242D01*
X140321313Y-96246823D01*
X140304883Y-96080000D01*
X140321313Y-95913177D01*
X140369976Y-95752758D01*
X140448995Y-95604924D01*
X140448996Y-95604922D01*
X140555341Y-95475341D01*
X140684922Y-95368996D01*
X140726074Y-95347000D01*
X140832758Y-95289976D01*
X140993177Y-95241313D01*
X141118196Y-95229000D01*
X141201804Y-95229000D01*
X141326823Y-95241313D01*
X141326823Y-95241313D01*
G37*
G36*
X125000443Y-94535519D02*
G01*
X125066627Y-94542037D01*
X125236466Y-94593557D01*
X125392991Y-94677222D01*
X125410703Y-94691758D01*
X125530186Y-94789814D01*
X125613448Y-94891271D01*
X125642778Y-94927009D01*
X125726443Y-95083534D01*
X125777963Y-95253373D01*
X125795359Y-95430000D01*
X125777963Y-95606627D01*
X125726443Y-95776466D01*
X125642778Y-95932991D01*
X125613448Y-95968729D01*
X125530186Y-96070186D01*
X125428729Y-96153448D01*
X125392991Y-96182778D01*
X125236466Y-96266443D01*
X125066627Y-96317963D01*
X125000443Y-96324481D01*
X124934260Y-96331000D01*
X124845740Y-96331000D01*
X124779557Y-96324481D01*
X124713373Y-96317963D01*
X124543534Y-96266443D01*
X124387009Y-96182778D01*
X124351271Y-96153448D01*
X124249814Y-96070186D01*
X124166552Y-95968729D01*
X124137222Y-95932991D01*
X124053557Y-95776466D01*
X124002037Y-95606627D01*
X123984641Y-95430000D01*
X124002037Y-95253373D01*
X124053557Y-95083534D01*
X124137222Y-94927009D01*
X124166552Y-94891271D01*
X124249814Y-94789814D01*
X124369297Y-94691758D01*
X124387009Y-94677222D01*
X124543534Y-94593557D01*
X124713373Y-94542037D01*
X124779558Y-94535518D01*
X124845740Y-94529000D01*
X124934260Y-94529000D01*
X125000443Y-94535519D01*
X125000443Y-94535519D01*
G37*
G36*
X63681000Y-95336000D02*
G01*
X60579000Y-95336000D01*
X60579000Y-92234000D01*
X63681000Y-92234000D01*
X63681000Y-95336000D01*
X63681000Y-95336000D01*
G37*
G36*
X83823097Y-92739069D02*
G01*
X83926032Y-92749207D01*
X84124146Y-92809305D01*
X84124149Y-92809306D01*
X84160984Y-92828995D01*
X84306729Y-92906897D01*
X84466765Y-93038235D01*
X84598103Y-93198271D01*
X84640985Y-93278499D01*
X84695694Y-93380851D01*
X84695695Y-93380854D01*
X84755793Y-93578968D01*
X84776085Y-93785000D01*
X84755793Y-93991032D01*
X84695695Y-94189146D01*
X84695694Y-94189149D01*
X84662631Y-94251005D01*
X84598103Y-94371729D01*
X84466765Y-94531765D01*
X84306729Y-94663103D01*
X84253119Y-94691758D01*
X84124149Y-94760694D01*
X84124146Y-94760695D01*
X83926032Y-94820793D01*
X83823097Y-94830931D01*
X83771631Y-94836000D01*
X83668369Y-94836000D01*
X83616903Y-94830931D01*
X83513968Y-94820793D01*
X83315854Y-94760695D01*
X83315851Y-94760694D01*
X83186881Y-94691758D01*
X83133271Y-94663103D01*
X82973235Y-94531765D01*
X82841897Y-94371729D01*
X82777369Y-94251005D01*
X82744306Y-94189149D01*
X82744305Y-94189146D01*
X82684207Y-93991032D01*
X82663915Y-93785000D01*
X82684207Y-93578968D01*
X82744305Y-93380854D01*
X82744306Y-93380851D01*
X82799015Y-93278499D01*
X82841897Y-93198271D01*
X82973235Y-93038235D01*
X83133271Y-92906897D01*
X83279016Y-92828995D01*
X83315851Y-92809306D01*
X83315854Y-92809305D01*
X83513968Y-92749207D01*
X83616903Y-92739069D01*
X83668369Y-92734000D01*
X83771631Y-92734000D01*
X83823097Y-92739069D01*
X83823097Y-92739069D01*
G37*
G36*
X78743097Y-92739069D02*
G01*
X78846032Y-92749207D01*
X79044146Y-92809305D01*
X79044149Y-92809306D01*
X79080984Y-92828995D01*
X79226729Y-92906897D01*
X79386765Y-93038235D01*
X79518103Y-93198271D01*
X79560985Y-93278499D01*
X79615694Y-93380851D01*
X79615695Y-93380854D01*
X79675793Y-93578968D01*
X79696085Y-93785000D01*
X79675793Y-93991032D01*
X79615695Y-94189146D01*
X79615694Y-94189149D01*
X79582631Y-94251005D01*
X79518103Y-94371729D01*
X79386765Y-94531765D01*
X79226729Y-94663103D01*
X79173119Y-94691758D01*
X79044149Y-94760694D01*
X79044146Y-94760695D01*
X78846032Y-94820793D01*
X78743097Y-94830931D01*
X78691631Y-94836000D01*
X78588369Y-94836000D01*
X78536903Y-94830931D01*
X78433968Y-94820793D01*
X78235854Y-94760695D01*
X78235851Y-94760694D01*
X78106881Y-94691758D01*
X78053271Y-94663103D01*
X77893235Y-94531765D01*
X77761897Y-94371729D01*
X77697369Y-94251005D01*
X77664306Y-94189149D01*
X77664305Y-94189146D01*
X77604207Y-93991032D01*
X77583915Y-93785000D01*
X77604207Y-93578968D01*
X77664305Y-93380854D01*
X77664306Y-93380851D01*
X77719015Y-93278499D01*
X77761897Y-93198271D01*
X77893235Y-93038235D01*
X78053271Y-92906897D01*
X78199016Y-92828995D01*
X78235851Y-92809306D01*
X78235854Y-92809305D01*
X78433968Y-92749207D01*
X78536903Y-92739069D01*
X78588369Y-92734000D01*
X78691631Y-92734000D01*
X78743097Y-92739069D01*
X78743097Y-92739069D01*
G37*
G36*
X73937142Y-93128242D02*
G01*
X74085101Y-93189529D01*
X74218255Y-93278499D01*
X74331501Y-93391745D01*
X74420471Y-93524899D01*
X74481758Y-93672858D01*
X74513000Y-93829925D01*
X74513000Y-93990075D01*
X74481758Y-94147142D01*
X74420471Y-94295101D01*
X74331501Y-94428255D01*
X74218255Y-94541501D01*
X74085101Y-94630471D01*
X73937142Y-94691758D01*
X73780075Y-94723000D01*
X73619925Y-94723000D01*
X73462858Y-94691758D01*
X73314899Y-94630471D01*
X73181745Y-94541501D01*
X73068499Y-94428255D01*
X72979529Y-94295101D01*
X72918242Y-94147142D01*
X72887000Y-93990075D01*
X72887000Y-93829925D01*
X72918242Y-93672858D01*
X72979529Y-93524899D01*
X73068499Y-93391745D01*
X73181745Y-93278499D01*
X73314899Y-93189529D01*
X73462858Y-93128242D01*
X73619925Y-93097000D01*
X73780075Y-93097000D01*
X73937142Y-93128242D01*
X73937142Y-93128242D01*
G37*
G36*
X68857142Y-93128242D02*
G01*
X69005101Y-93189529D01*
X69138255Y-93278499D01*
X69251501Y-93391745D01*
X69340471Y-93524899D01*
X69401758Y-93672858D01*
X69433000Y-93829925D01*
X69433000Y-93990075D01*
X69401758Y-94147142D01*
X69340471Y-94295101D01*
X69251501Y-94428255D01*
X69138255Y-94541501D01*
X69005101Y-94630471D01*
X68857142Y-94691758D01*
X68700075Y-94723000D01*
X68539925Y-94723000D01*
X68382858Y-94691758D01*
X68234899Y-94630471D01*
X68101745Y-94541501D01*
X67988499Y-94428255D01*
X67899529Y-94295101D01*
X67838242Y-94147142D01*
X67807000Y-93990075D01*
X67807000Y-93829925D01*
X67838242Y-93672858D01*
X67899529Y-93524899D01*
X67988499Y-93391745D01*
X68101745Y-93278499D01*
X68234899Y-93189529D01*
X68382858Y-93128242D01*
X68539925Y-93097000D01*
X68700075Y-93097000D01*
X68857142Y-93128242D01*
X68857142Y-93128242D01*
G37*
G36*
X141326823Y-92701313D02*
G01*
X141487242Y-92749976D01*
X141619906Y-92820886D01*
X141635078Y-92828996D01*
X141764659Y-92935341D01*
X141871004Y-93064922D01*
X141871005Y-93064924D01*
X141950024Y-93212758D01*
X141998687Y-93373177D01*
X142015117Y-93540000D01*
X141998687Y-93706823D01*
X141950024Y-93867242D01*
X141884369Y-93990074D01*
X141871004Y-94015078D01*
X141764659Y-94144659D01*
X141635078Y-94251004D01*
X141635076Y-94251005D01*
X141487242Y-94330024D01*
X141326823Y-94378687D01*
X141201804Y-94391000D01*
X141118196Y-94391000D01*
X140993177Y-94378687D01*
X140832758Y-94330024D01*
X140684924Y-94251005D01*
X140684922Y-94251004D01*
X140555341Y-94144659D01*
X140448996Y-94015078D01*
X140435631Y-93990074D01*
X140369976Y-93867242D01*
X140321313Y-93706823D01*
X140304883Y-93540000D01*
X140321313Y-93373177D01*
X140369976Y-93212758D01*
X140448995Y-93064924D01*
X140448996Y-93064922D01*
X140555341Y-92935341D01*
X140684922Y-92828996D01*
X140700094Y-92820886D01*
X140832758Y-92749976D01*
X140993177Y-92701313D01*
X141118196Y-92689000D01*
X141201804Y-92689000D01*
X141326823Y-92701313D01*
X141326823Y-92701313D01*
G37*
G36*
X133706823Y-92701313D02*
G01*
X133867242Y-92749976D01*
X133999906Y-92820886D01*
X134015078Y-92828996D01*
X134144659Y-92935341D01*
X134251004Y-93064922D01*
X134251005Y-93064924D01*
X134330024Y-93212758D01*
X134378687Y-93373177D01*
X134395117Y-93540000D01*
X134378687Y-93706823D01*
X134330024Y-93867242D01*
X134264369Y-93990074D01*
X134251004Y-94015078D01*
X134144659Y-94144659D01*
X134015078Y-94251004D01*
X134015076Y-94251005D01*
X133867242Y-94330024D01*
X133706823Y-94378687D01*
X133581804Y-94391000D01*
X133498196Y-94391000D01*
X133373177Y-94378687D01*
X133212758Y-94330024D01*
X133064924Y-94251005D01*
X133064922Y-94251004D01*
X132935341Y-94144659D01*
X132828996Y-94015078D01*
X132815631Y-93990074D01*
X132749976Y-93867242D01*
X132701313Y-93706823D01*
X132684883Y-93540000D01*
X132701313Y-93373177D01*
X132749976Y-93212758D01*
X132828995Y-93064924D01*
X132828996Y-93064922D01*
X132935341Y-92935341D01*
X133064922Y-92828996D01*
X133080094Y-92820886D01*
X133212758Y-92749976D01*
X133373177Y-92701313D01*
X133498196Y-92689000D01*
X133581804Y-92689000D01*
X133706823Y-92701313D01*
X133706823Y-92701313D01*
G37*
G36*
X125000442Y-91995518D02*
G01*
X125066627Y-92002037D01*
X125236466Y-92053557D01*
X125392991Y-92137222D01*
X125428729Y-92166552D01*
X125530186Y-92249814D01*
X125613448Y-92351271D01*
X125642778Y-92387009D01*
X125726443Y-92543534D01*
X125777963Y-92713373D01*
X125795359Y-92890000D01*
X125777963Y-93066627D01*
X125726443Y-93236466D01*
X125642778Y-93392991D01*
X125613448Y-93428729D01*
X125530186Y-93530186D01*
X125428729Y-93613448D01*
X125392991Y-93642778D01*
X125236466Y-93726443D01*
X125066627Y-93777963D01*
X125000442Y-93784482D01*
X124934260Y-93791000D01*
X124845740Y-93791000D01*
X124779558Y-93784482D01*
X124713373Y-93777963D01*
X124543534Y-93726443D01*
X124387009Y-93642778D01*
X124351271Y-93613448D01*
X124249814Y-93530186D01*
X124166552Y-93428729D01*
X124137222Y-93392991D01*
X124053557Y-93236466D01*
X124002037Y-93066627D01*
X123984641Y-92890000D01*
X124002037Y-92713373D01*
X124053557Y-92543534D01*
X124137222Y-92387009D01*
X124166552Y-92351271D01*
X124249814Y-92249814D01*
X124351271Y-92166552D01*
X124387009Y-92137222D01*
X124543534Y-92053557D01*
X124713373Y-92002037D01*
X124779558Y-91995518D01*
X124845740Y-91989000D01*
X124934260Y-91989000D01*
X125000442Y-91995518D01*
X125000442Y-91995518D01*
G37*
G36*
X133706823Y-90161313D02*
G01*
X133867242Y-90209976D01*
X133999906Y-90280886D01*
X134015078Y-90288996D01*
X134144659Y-90395341D01*
X134251004Y-90524922D01*
X134251005Y-90524924D01*
X134330024Y-90672758D01*
X134378687Y-90833177D01*
X134395117Y-91000000D01*
X134378687Y-91166823D01*
X134330024Y-91327242D01*
X134259114Y-91459906D01*
X134251004Y-91475078D01*
X134144659Y-91604659D01*
X134015078Y-91711004D01*
X134015076Y-91711005D01*
X133867242Y-91790024D01*
X133706823Y-91838687D01*
X133581804Y-91851000D01*
X133498196Y-91851000D01*
X133373177Y-91838687D01*
X133212758Y-91790024D01*
X133064924Y-91711005D01*
X133064922Y-91711004D01*
X132935341Y-91604659D01*
X132828996Y-91475078D01*
X132820886Y-91459906D01*
X132749976Y-91327242D01*
X132701313Y-91166823D01*
X132684883Y-91000000D01*
X132701313Y-90833177D01*
X132749976Y-90672758D01*
X132828995Y-90524924D01*
X132828996Y-90524922D01*
X132935341Y-90395341D01*
X133064922Y-90288996D01*
X133080094Y-90280886D01*
X133212758Y-90209976D01*
X133373177Y-90161313D01*
X133498196Y-90149000D01*
X133581804Y-90149000D01*
X133706823Y-90161313D01*
X133706823Y-90161313D01*
G37*
G36*
X141326823Y-90161313D02*
G01*
X141487242Y-90209976D01*
X141619906Y-90280886D01*
X141635078Y-90288996D01*
X141764659Y-90395341D01*
X141871004Y-90524922D01*
X141871005Y-90524924D01*
X141950024Y-90672758D01*
X141998687Y-90833177D01*
X142015117Y-91000000D01*
X141998687Y-91166823D01*
X141950024Y-91327242D01*
X141879114Y-91459906D01*
X141871004Y-91475078D01*
X141764659Y-91604659D01*
X141635078Y-91711004D01*
X141635076Y-91711005D01*
X141487242Y-91790024D01*
X141326823Y-91838687D01*
X141201804Y-91851000D01*
X141118196Y-91851000D01*
X140993177Y-91838687D01*
X140832758Y-91790024D01*
X140684924Y-91711005D01*
X140684922Y-91711004D01*
X140555341Y-91604659D01*
X140448996Y-91475078D01*
X140440886Y-91459906D01*
X140369976Y-91327242D01*
X140321313Y-91166823D01*
X140304883Y-91000000D01*
X140321313Y-90833177D01*
X140369976Y-90672758D01*
X140448995Y-90524924D01*
X140448996Y-90524922D01*
X140555341Y-90395341D01*
X140684922Y-90288996D01*
X140700094Y-90280886D01*
X140832758Y-90209976D01*
X140993177Y-90161313D01*
X141118196Y-90149000D01*
X141201804Y-90149000D01*
X141326823Y-90161313D01*
X141326823Y-90161313D01*
G37*
G36*
X93317142Y-88378242D02*
G01*
X93465101Y-88439529D01*
X93598255Y-88528499D01*
X93711501Y-88641745D01*
X93800471Y-88774899D01*
X93861758Y-88922858D01*
X93893000Y-89079925D01*
X93893000Y-89240075D01*
X93861758Y-89397142D01*
X93800471Y-89545101D01*
X93711501Y-89678255D01*
X93598255Y-89791501D01*
X93465101Y-89880471D01*
X93317142Y-89941758D01*
X93160075Y-89973000D01*
X92999925Y-89973000D01*
X92842858Y-89941758D01*
X92694899Y-89880471D01*
X92561745Y-89791501D01*
X92448499Y-89678255D01*
X92359529Y-89545101D01*
X92298242Y-89397142D01*
X92267000Y-89240075D01*
X92267000Y-89079925D01*
X92298242Y-88922858D01*
X92359529Y-88774899D01*
X92448499Y-88641745D01*
X92561745Y-88528499D01*
X92694899Y-88439529D01*
X92842858Y-88378242D01*
X92999925Y-88347000D01*
X93160075Y-88347000D01*
X93317142Y-88378242D01*
X93317142Y-88378242D01*
G37*
G36*
X106017142Y-88378242D02*
G01*
X106165101Y-88439529D01*
X106298255Y-88528499D01*
X106411501Y-88641745D01*
X106500471Y-88774899D01*
X106561758Y-88922858D01*
X106593000Y-89079925D01*
X106593000Y-89240075D01*
X106561758Y-89397142D01*
X106500471Y-89545101D01*
X106411501Y-89678255D01*
X106298255Y-89791501D01*
X106165101Y-89880471D01*
X106017142Y-89941758D01*
X105860075Y-89973000D01*
X105699925Y-89973000D01*
X105542858Y-89941758D01*
X105394899Y-89880471D01*
X105261745Y-89791501D01*
X105148499Y-89678255D01*
X105059529Y-89545101D01*
X104998242Y-89397142D01*
X104967000Y-89240075D01*
X104967000Y-89079925D01*
X104998242Y-88922858D01*
X105059529Y-88774899D01*
X105148499Y-88641745D01*
X105261745Y-88528499D01*
X105394899Y-88439529D01*
X105542858Y-88378242D01*
X105699925Y-88347000D01*
X105860075Y-88347000D01*
X106017142Y-88378242D01*
X106017142Y-88378242D01*
G37*
G36*
X141326823Y-87621313D02*
G01*
X141487242Y-87669976D01*
X141619906Y-87740886D01*
X141635078Y-87748996D01*
X141764659Y-87855341D01*
X141871004Y-87984922D01*
X141871005Y-87984924D01*
X141950024Y-88132758D01*
X141998687Y-88293177D01*
X142015117Y-88460000D01*
X141998687Y-88626823D01*
X141950024Y-88787242D01*
X141879114Y-88919906D01*
X141871004Y-88935078D01*
X141764659Y-89064659D01*
X141635078Y-89171004D01*
X141635076Y-89171005D01*
X141487242Y-89250024D01*
X141326823Y-89298687D01*
X141201804Y-89311000D01*
X141118196Y-89311000D01*
X140993177Y-89298687D01*
X140832758Y-89250024D01*
X140684924Y-89171005D01*
X140684922Y-89171004D01*
X140555341Y-89064659D01*
X140448996Y-88935078D01*
X140440886Y-88919906D01*
X140369976Y-88787242D01*
X140321313Y-88626823D01*
X140304883Y-88460000D01*
X140321313Y-88293177D01*
X140369976Y-88132758D01*
X140448995Y-87984924D01*
X140448996Y-87984922D01*
X140555341Y-87855341D01*
X140684922Y-87748996D01*
X140700094Y-87740886D01*
X140832758Y-87669976D01*
X140993177Y-87621313D01*
X141118196Y-87609000D01*
X141201804Y-87609000D01*
X141326823Y-87621313D01*
X141326823Y-87621313D01*
G37*
G36*
X133706823Y-87621313D02*
G01*
X133867242Y-87669976D01*
X133999906Y-87740886D01*
X134015078Y-87748996D01*
X134144659Y-87855341D01*
X134251004Y-87984922D01*
X134251005Y-87984924D01*
X134330024Y-88132758D01*
X134378687Y-88293177D01*
X134395117Y-88460000D01*
X134378687Y-88626823D01*
X134330024Y-88787242D01*
X134259114Y-88919906D01*
X134251004Y-88935078D01*
X134144659Y-89064659D01*
X134015078Y-89171004D01*
X134015076Y-89171005D01*
X133867242Y-89250024D01*
X133706823Y-89298687D01*
X133581804Y-89311000D01*
X133498196Y-89311000D01*
X133373177Y-89298687D01*
X133212758Y-89250024D01*
X133064924Y-89171005D01*
X133064922Y-89171004D01*
X132935341Y-89064659D01*
X132828996Y-88935078D01*
X132820886Y-88919906D01*
X132749976Y-88787242D01*
X132701313Y-88626823D01*
X132684883Y-88460000D01*
X132701313Y-88293177D01*
X132749976Y-88132758D01*
X132828995Y-87984924D01*
X132828996Y-87984922D01*
X132935341Y-87855341D01*
X133064922Y-87748996D01*
X133080094Y-87740886D01*
X133212758Y-87669976D01*
X133373177Y-87621313D01*
X133498196Y-87609000D01*
X133581804Y-87609000D01*
X133706823Y-87621313D01*
X133706823Y-87621313D01*
G37*
G36*
X62432585Y-85278802D02*
G01*
X62582410Y-85308604D01*
X62864674Y-85425521D01*
X63118705Y-85595259D01*
X63334741Y-85811295D01*
X63504479Y-86065326D01*
X63621396Y-86347590D01*
X63630842Y-86395078D01*
X63677771Y-86631004D01*
X63681000Y-86647240D01*
X63681000Y-86952760D01*
X63621396Y-87252410D01*
X63504479Y-87534674D01*
X63334741Y-87788705D01*
X63118705Y-88004741D01*
X62864674Y-88174479D01*
X62582410Y-88291396D01*
X62432585Y-88321198D01*
X62282761Y-88351000D01*
X61977239Y-88351000D01*
X61827415Y-88321198D01*
X61677590Y-88291396D01*
X61395326Y-88174479D01*
X61141295Y-88004741D01*
X60925259Y-87788705D01*
X60755521Y-87534674D01*
X60638604Y-87252410D01*
X60579000Y-86952760D01*
X60579000Y-86647240D01*
X60582230Y-86631004D01*
X60629158Y-86395078D01*
X60638604Y-86347590D01*
X60755521Y-86065326D01*
X60925259Y-85811295D01*
X61141295Y-85595259D01*
X61395326Y-85425521D01*
X61677590Y-85308604D01*
X61827415Y-85278802D01*
X61977239Y-85249000D01*
X62282761Y-85249000D01*
X62432585Y-85278802D01*
X62432585Y-85278802D01*
G37*
G36*
X82031000Y-87651000D02*
G01*
X80329000Y-87651000D01*
X80329000Y-85949000D01*
X82031000Y-85949000D01*
X82031000Y-87651000D01*
X82031000Y-87651000D01*
G37*
G36*
X73726823Y-85961313D02*
G01*
X73887242Y-86009976D01*
X73990794Y-86065326D01*
X74035078Y-86088996D01*
X74164659Y-86195341D01*
X74271004Y-86324922D01*
X74271005Y-86324924D01*
X74350024Y-86472758D01*
X74398687Y-86633177D01*
X74415117Y-86800000D01*
X74398687Y-86966823D01*
X74350024Y-87127242D01*
X74283121Y-87252409D01*
X74271004Y-87275078D01*
X74164659Y-87404659D01*
X74035078Y-87511004D01*
X74035076Y-87511005D01*
X73887242Y-87590024D01*
X73726823Y-87638687D01*
X73601804Y-87651000D01*
X73518196Y-87651000D01*
X73393177Y-87638687D01*
X73232758Y-87590024D01*
X73084924Y-87511005D01*
X73084922Y-87511004D01*
X72955341Y-87404659D01*
X72848996Y-87275078D01*
X72836879Y-87252409D01*
X72769976Y-87127242D01*
X72721313Y-86966823D01*
X72704883Y-86800000D01*
X72721313Y-86633177D01*
X72769976Y-86472758D01*
X72848995Y-86324924D01*
X72848996Y-86324922D01*
X72955341Y-86195341D01*
X73084922Y-86088996D01*
X73129206Y-86065326D01*
X73232758Y-86009976D01*
X73393177Y-85961313D01*
X73518196Y-85949000D01*
X73601804Y-85949000D01*
X73726823Y-85961313D01*
X73726823Y-85961313D01*
G37*
G36*
X141326823Y-85081313D02*
G01*
X141487242Y-85129976D01*
X141619906Y-85200886D01*
X141635078Y-85208996D01*
X141764659Y-85315341D01*
X141871004Y-85444922D01*
X141871005Y-85444924D01*
X141950024Y-85592758D01*
X141998687Y-85753177D01*
X142015117Y-85920000D01*
X141998687Y-86086823D01*
X141950024Y-86247242D01*
X141908503Y-86324922D01*
X141871004Y-86395078D01*
X141764659Y-86524659D01*
X141635078Y-86631004D01*
X141619906Y-86639114D01*
X141487242Y-86710024D01*
X141326823Y-86758687D01*
X141201804Y-86771000D01*
X141118196Y-86771000D01*
X140993177Y-86758687D01*
X140832758Y-86710024D01*
X140700094Y-86639114D01*
X140684922Y-86631004D01*
X140555341Y-86524659D01*
X140448996Y-86395078D01*
X140411497Y-86324922D01*
X140369976Y-86247242D01*
X140321313Y-86086823D01*
X140304883Y-85920000D01*
X140321313Y-85753177D01*
X140369976Y-85592758D01*
X140448995Y-85444924D01*
X140448996Y-85444922D01*
X140555341Y-85315341D01*
X140684922Y-85208996D01*
X140700094Y-85200886D01*
X140832758Y-85129976D01*
X140993177Y-85081313D01*
X141118196Y-85069000D01*
X141201804Y-85069000D01*
X141326823Y-85081313D01*
X141326823Y-85081313D01*
G37*
G36*
X133706823Y-85081313D02*
G01*
X133867242Y-85129976D01*
X133999906Y-85200886D01*
X134015078Y-85208996D01*
X134144659Y-85315341D01*
X134251004Y-85444922D01*
X134251005Y-85444924D01*
X134330024Y-85592758D01*
X134378687Y-85753177D01*
X134395117Y-85920000D01*
X134378687Y-86086823D01*
X134330024Y-86247242D01*
X134288503Y-86324922D01*
X134251004Y-86395078D01*
X134144659Y-86524659D01*
X134015078Y-86631004D01*
X133999906Y-86639114D01*
X133867242Y-86710024D01*
X133706823Y-86758687D01*
X133581804Y-86771000D01*
X133498196Y-86771000D01*
X133373177Y-86758687D01*
X133212758Y-86710024D01*
X133080094Y-86639114D01*
X133064922Y-86631004D01*
X132935341Y-86524659D01*
X132828996Y-86395078D01*
X132791497Y-86324922D01*
X132749976Y-86247242D01*
X132701313Y-86086823D01*
X132684883Y-85920000D01*
X132701313Y-85753177D01*
X132749976Y-85592758D01*
X132828995Y-85444924D01*
X132828996Y-85444922D01*
X132935341Y-85315341D01*
X133064922Y-85208996D01*
X133080094Y-85200886D01*
X133212758Y-85129976D01*
X133373177Y-85081313D01*
X133498196Y-85069000D01*
X133581804Y-85069000D01*
X133706823Y-85081313D01*
X133706823Y-85081313D01*
G37*
G36*
X127540443Y-84375519D02*
G01*
X127606627Y-84382037D01*
X127776466Y-84433557D01*
X127932991Y-84517222D01*
X127968729Y-84546552D01*
X128070186Y-84629814D01*
X128153448Y-84731271D01*
X128182778Y-84767009D01*
X128266443Y-84923534D01*
X128317963Y-85093373D01*
X128335359Y-85270000D01*
X128317963Y-85446627D01*
X128266443Y-85616466D01*
X128182778Y-85772991D01*
X128153448Y-85808729D01*
X128070186Y-85910186D01*
X128007885Y-85961314D01*
X127932991Y-86022778D01*
X127776466Y-86106443D01*
X127606627Y-86157963D01*
X127540443Y-86164481D01*
X127474260Y-86171000D01*
X127385740Y-86171000D01*
X127319557Y-86164481D01*
X127253373Y-86157963D01*
X127083534Y-86106443D01*
X126927009Y-86022778D01*
X126852115Y-85961314D01*
X126789814Y-85910186D01*
X126706552Y-85808729D01*
X126677222Y-85772991D01*
X126593557Y-85616466D01*
X126542037Y-85446627D01*
X126524641Y-85270000D01*
X126542037Y-85093373D01*
X126593557Y-84923534D01*
X126677222Y-84767009D01*
X126706552Y-84731271D01*
X126789814Y-84629814D01*
X126891271Y-84546552D01*
X126927009Y-84517222D01*
X127083534Y-84433557D01*
X127253373Y-84382037D01*
X127319557Y-84375519D01*
X127385740Y-84369000D01*
X127474260Y-84369000D01*
X127540443Y-84375519D01*
X127540443Y-84375519D01*
G37*
G36*
X125000443Y-84375519D02*
G01*
X125066627Y-84382037D01*
X125236466Y-84433557D01*
X125392991Y-84517222D01*
X125428729Y-84546552D01*
X125530186Y-84629814D01*
X125613448Y-84731271D01*
X125642778Y-84767009D01*
X125726443Y-84923534D01*
X125777963Y-85093373D01*
X125795359Y-85270000D01*
X125777963Y-85446627D01*
X125726443Y-85616466D01*
X125642778Y-85772991D01*
X125613448Y-85808729D01*
X125530186Y-85910186D01*
X125467885Y-85961314D01*
X125392991Y-86022778D01*
X125236466Y-86106443D01*
X125066627Y-86157963D01*
X125000443Y-86164481D01*
X124934260Y-86171000D01*
X124845740Y-86171000D01*
X124779557Y-86164481D01*
X124713373Y-86157963D01*
X124543534Y-86106443D01*
X124387009Y-86022778D01*
X124312115Y-85961314D01*
X124249814Y-85910186D01*
X124166552Y-85808729D01*
X124137222Y-85772991D01*
X124053557Y-85616466D01*
X124002037Y-85446627D01*
X123984641Y-85270000D01*
X124002037Y-85093373D01*
X124053557Y-84923534D01*
X124137222Y-84767009D01*
X124166552Y-84731271D01*
X124249814Y-84629814D01*
X124351271Y-84546552D01*
X124387009Y-84517222D01*
X124543534Y-84433557D01*
X124713373Y-84382037D01*
X124779557Y-84375519D01*
X124845740Y-84369000D01*
X124934260Y-84369000D01*
X125000443Y-84375519D01*
X125000443Y-84375519D01*
G37*
G36*
X81346823Y-83421313D02*
G01*
X81507242Y-83469976D01*
X81639906Y-83540886D01*
X81655078Y-83548996D01*
X81784659Y-83655341D01*
X81891004Y-83784922D01*
X81891005Y-83784924D01*
X81970024Y-83932758D01*
X82018687Y-84093177D01*
X82035117Y-84260000D01*
X82018687Y-84426823D01*
X81970024Y-84587242D01*
X81947268Y-84629815D01*
X81891004Y-84735078D01*
X81784659Y-84864659D01*
X81655078Y-84971004D01*
X81655076Y-84971005D01*
X81507242Y-85050024D01*
X81346823Y-85098687D01*
X81221804Y-85111000D01*
X81138196Y-85111000D01*
X81013177Y-85098687D01*
X80852758Y-85050024D01*
X80704924Y-84971005D01*
X80704922Y-84971004D01*
X80575341Y-84864659D01*
X80468996Y-84735078D01*
X80412732Y-84629815D01*
X80389976Y-84587242D01*
X80341313Y-84426823D01*
X80324883Y-84260000D01*
X80341313Y-84093177D01*
X80389976Y-83932758D01*
X80468995Y-83784924D01*
X80468996Y-83784922D01*
X80575341Y-83655341D01*
X80704922Y-83548996D01*
X80720094Y-83540886D01*
X80852758Y-83469976D01*
X81013177Y-83421313D01*
X81138196Y-83409000D01*
X81221804Y-83409000D01*
X81346823Y-83421313D01*
X81346823Y-83421313D01*
G37*
G36*
X73726823Y-83421313D02*
G01*
X73887242Y-83469976D01*
X74019906Y-83540886D01*
X74035078Y-83548996D01*
X74164659Y-83655341D01*
X74271004Y-83784922D01*
X74271005Y-83784924D01*
X74350024Y-83932758D01*
X74398687Y-84093177D01*
X74415117Y-84260000D01*
X74398687Y-84426823D01*
X74350024Y-84587242D01*
X74327268Y-84629815D01*
X74271004Y-84735078D01*
X74164659Y-84864659D01*
X74035078Y-84971004D01*
X74035076Y-84971005D01*
X73887242Y-85050024D01*
X73726823Y-85098687D01*
X73601804Y-85111000D01*
X73518196Y-85111000D01*
X73393177Y-85098687D01*
X73232758Y-85050024D01*
X73084924Y-84971005D01*
X73084922Y-84971004D01*
X72955341Y-84864659D01*
X72848996Y-84735078D01*
X72792732Y-84629815D01*
X72769976Y-84587242D01*
X72721313Y-84426823D01*
X72704883Y-84260000D01*
X72721313Y-84093177D01*
X72769976Y-83932758D01*
X72848995Y-83784924D01*
X72848996Y-83784922D01*
X72955341Y-83655341D01*
X73084922Y-83548996D01*
X73100094Y-83540886D01*
X73232758Y-83469976D01*
X73393177Y-83421313D01*
X73518196Y-83409000D01*
X73601804Y-83409000D01*
X73726823Y-83421313D01*
X73726823Y-83421313D01*
G37*
G36*
X141326823Y-82541313D02*
G01*
X141487242Y-82589976D01*
X141619906Y-82660886D01*
X141635078Y-82668996D01*
X141764659Y-82775341D01*
X141871004Y-82904922D01*
X141871005Y-82904924D01*
X141950024Y-83052758D01*
X141998687Y-83213177D01*
X142015117Y-83380000D01*
X141998687Y-83546823D01*
X141950024Y-83707242D01*
X141915540Y-83771757D01*
X141871004Y-83855078D01*
X141764659Y-83984659D01*
X141635078Y-84091004D01*
X141619906Y-84099114D01*
X141487242Y-84170024D01*
X141326823Y-84218687D01*
X141201804Y-84231000D01*
X141118196Y-84231000D01*
X140993177Y-84218687D01*
X140832758Y-84170024D01*
X140700094Y-84099114D01*
X140684922Y-84091004D01*
X140555341Y-83984659D01*
X140448996Y-83855078D01*
X140404460Y-83771757D01*
X140369976Y-83707242D01*
X140321313Y-83546823D01*
X140304883Y-83380000D01*
X140321313Y-83213177D01*
X140369976Y-83052758D01*
X140448995Y-82904924D01*
X140448996Y-82904922D01*
X140555341Y-82775341D01*
X140684922Y-82668996D01*
X140700094Y-82660886D01*
X140832758Y-82589976D01*
X140993177Y-82541313D01*
X141118196Y-82529000D01*
X141201804Y-82529000D01*
X141326823Y-82541313D01*
X141326823Y-82541313D01*
G37*
G36*
X133706823Y-82541313D02*
G01*
X133867242Y-82589976D01*
X133999906Y-82660886D01*
X134015078Y-82668996D01*
X134144659Y-82775341D01*
X134251004Y-82904922D01*
X134251005Y-82904924D01*
X134330024Y-83052758D01*
X134378687Y-83213177D01*
X134395117Y-83380000D01*
X134378687Y-83546823D01*
X134330024Y-83707242D01*
X134295540Y-83771757D01*
X134251004Y-83855078D01*
X134144659Y-83984659D01*
X134015078Y-84091004D01*
X133999906Y-84099114D01*
X133867242Y-84170024D01*
X133706823Y-84218687D01*
X133581804Y-84231000D01*
X133498196Y-84231000D01*
X133373177Y-84218687D01*
X133212758Y-84170024D01*
X133080094Y-84099114D01*
X133064922Y-84091004D01*
X132935341Y-83984659D01*
X132828996Y-83855078D01*
X132784460Y-83771757D01*
X132749976Y-83707242D01*
X132701313Y-83546823D01*
X132684883Y-83380000D01*
X132701313Y-83213177D01*
X132749976Y-83052758D01*
X132828995Y-82904924D01*
X132828996Y-82904922D01*
X132935341Y-82775341D01*
X133064922Y-82668996D01*
X133080094Y-82660886D01*
X133212758Y-82589976D01*
X133373177Y-82541313D01*
X133498196Y-82529000D01*
X133581804Y-82529000D01*
X133706823Y-82541313D01*
X133706823Y-82541313D01*
G37*
G36*
X93011000Y-84011000D02*
G01*
X91309000Y-84011000D01*
X91309000Y-82309000D01*
X93011000Y-82309000D01*
X93011000Y-84011000D01*
X93011000Y-84011000D01*
G37*
G36*
X115707142Y-82208242D02*
G01*
X115855101Y-82269529D01*
X115988255Y-82358499D01*
X116101501Y-82471745D01*
X116190471Y-82604899D01*
X116251758Y-82752858D01*
X116283000Y-82909925D01*
X116283000Y-83070075D01*
X116251758Y-83227142D01*
X116190471Y-83375101D01*
X116101501Y-83508255D01*
X115988255Y-83621501D01*
X115855101Y-83710471D01*
X115707142Y-83771758D01*
X115550075Y-83803000D01*
X115389925Y-83803000D01*
X115232858Y-83771758D01*
X115084899Y-83710471D01*
X114951745Y-83621501D01*
X114838499Y-83508255D01*
X114749529Y-83375101D01*
X114688242Y-83227142D01*
X114657000Y-83070075D01*
X114657000Y-82909925D01*
X114688242Y-82752858D01*
X114749529Y-82604899D01*
X114838499Y-82471745D01*
X114951745Y-82358499D01*
X115084899Y-82269529D01*
X115232858Y-82208242D01*
X115389925Y-82177000D01*
X115550075Y-82177000D01*
X115707142Y-82208242D01*
X115707142Y-82208242D01*
G37*
G36*
X127540442Y-81835518D02*
G01*
X127606627Y-81842037D01*
X127776466Y-81893557D01*
X127932991Y-81977222D01*
X127968729Y-82006552D01*
X128070186Y-82089814D01*
X128153448Y-82191271D01*
X128182778Y-82227009D01*
X128182779Y-82227011D01*
X128253063Y-82358501D01*
X128266443Y-82383534D01*
X128317963Y-82553373D01*
X128335359Y-82730000D01*
X128317963Y-82906627D01*
X128266443Y-83076466D01*
X128182778Y-83232991D01*
X128153448Y-83268729D01*
X128070186Y-83370186D01*
X128007885Y-83421314D01*
X127932991Y-83482778D01*
X127776466Y-83566443D01*
X127606627Y-83617963D01*
X127540442Y-83624482D01*
X127474260Y-83631000D01*
X127385740Y-83631000D01*
X127319558Y-83624482D01*
X127253373Y-83617963D01*
X127083534Y-83566443D01*
X126927009Y-83482778D01*
X126852115Y-83421314D01*
X126789814Y-83370186D01*
X126706552Y-83268729D01*
X126677222Y-83232991D01*
X126593557Y-83076466D01*
X126542037Y-82906627D01*
X126524641Y-82730000D01*
X126542037Y-82553373D01*
X126593557Y-82383534D01*
X126606938Y-82358501D01*
X126677221Y-82227011D01*
X126677222Y-82227009D01*
X126706552Y-82191271D01*
X126789814Y-82089814D01*
X126891271Y-82006552D01*
X126927009Y-81977222D01*
X127083534Y-81893557D01*
X127253373Y-81842037D01*
X127319558Y-81835518D01*
X127385740Y-81829000D01*
X127474260Y-81829000D01*
X127540442Y-81835518D01*
X127540442Y-81835518D01*
G37*
G36*
X125000442Y-81835518D02*
G01*
X125066627Y-81842037D01*
X125236466Y-81893557D01*
X125392991Y-81977222D01*
X125428729Y-82006552D01*
X125530186Y-82089814D01*
X125613448Y-82191271D01*
X125642778Y-82227009D01*
X125642779Y-82227011D01*
X125713063Y-82358501D01*
X125726443Y-82383534D01*
X125777963Y-82553373D01*
X125795359Y-82730000D01*
X125777963Y-82906627D01*
X125726443Y-83076466D01*
X125642778Y-83232991D01*
X125613448Y-83268729D01*
X125530186Y-83370186D01*
X125467885Y-83421314D01*
X125392991Y-83482778D01*
X125236466Y-83566443D01*
X125066627Y-83617963D01*
X125000442Y-83624482D01*
X124934260Y-83631000D01*
X124845740Y-83631000D01*
X124779558Y-83624482D01*
X124713373Y-83617963D01*
X124543534Y-83566443D01*
X124387009Y-83482778D01*
X124312115Y-83421314D01*
X124249814Y-83370186D01*
X124166552Y-83268729D01*
X124137222Y-83232991D01*
X124053557Y-83076466D01*
X124002037Y-82906627D01*
X123984641Y-82730000D01*
X124002037Y-82553373D01*
X124053557Y-82383534D01*
X124066938Y-82358501D01*
X124137221Y-82227011D01*
X124137222Y-82227009D01*
X124166552Y-82191271D01*
X124249814Y-82089814D01*
X124351271Y-82006552D01*
X124387009Y-81977222D01*
X124543534Y-81893557D01*
X124713373Y-81842037D01*
X124779558Y-81835518D01*
X124845740Y-81829000D01*
X124934260Y-81829000D01*
X125000442Y-81835518D01*
X125000442Y-81835518D01*
G37*
G36*
X63681000Y-83271000D02*
G01*
X60579000Y-83271000D01*
X60579000Y-80169000D01*
X63681000Y-80169000D01*
X63681000Y-83271000D01*
X63681000Y-83271000D01*
G37*
G36*
X73726823Y-80881313D02*
G01*
X73887242Y-80929976D01*
X74019906Y-81000886D01*
X74035078Y-81008996D01*
X74164659Y-81115341D01*
X74271004Y-81244922D01*
X74271005Y-81244924D01*
X74350024Y-81392758D01*
X74398687Y-81553177D01*
X74415117Y-81720000D01*
X74398687Y-81886823D01*
X74350024Y-82047242D01*
X74327268Y-82089815D01*
X74271004Y-82195078D01*
X74164659Y-82324659D01*
X74035078Y-82431004D01*
X74035076Y-82431005D01*
X73887242Y-82510024D01*
X73726823Y-82558687D01*
X73601804Y-82571000D01*
X73518196Y-82571000D01*
X73393177Y-82558687D01*
X73232758Y-82510024D01*
X73084924Y-82431005D01*
X73084922Y-82431004D01*
X72955341Y-82324659D01*
X72848996Y-82195078D01*
X72792732Y-82089815D01*
X72769976Y-82047242D01*
X72721313Y-81886823D01*
X72704883Y-81720000D01*
X72721313Y-81553177D01*
X72769976Y-81392758D01*
X72848995Y-81244924D01*
X72848996Y-81244922D01*
X72955341Y-81115341D01*
X73084922Y-81008996D01*
X73100094Y-81000886D01*
X73232758Y-80929976D01*
X73393177Y-80881313D01*
X73518196Y-80869000D01*
X73601804Y-80869000D01*
X73726823Y-80881313D01*
X73726823Y-80881313D01*
G37*
G36*
X81346823Y-80881313D02*
G01*
X81507242Y-80929976D01*
X81639906Y-81000886D01*
X81655078Y-81008996D01*
X81784659Y-81115341D01*
X81891004Y-81244922D01*
X81891005Y-81244924D01*
X81970024Y-81392758D01*
X82018687Y-81553177D01*
X82035117Y-81720000D01*
X82018687Y-81886823D01*
X81970024Y-82047242D01*
X81947268Y-82089815D01*
X81891004Y-82195078D01*
X81784659Y-82324659D01*
X81655078Y-82431004D01*
X81655076Y-82431005D01*
X81507242Y-82510024D01*
X81346823Y-82558687D01*
X81221804Y-82571000D01*
X81138196Y-82571000D01*
X81013177Y-82558687D01*
X80852758Y-82510024D01*
X80704924Y-82431005D01*
X80704922Y-82431004D01*
X80575341Y-82324659D01*
X80468996Y-82195078D01*
X80412732Y-82089815D01*
X80389976Y-82047242D01*
X80341313Y-81886823D01*
X80324883Y-81720000D01*
X80341313Y-81553177D01*
X80389976Y-81392758D01*
X80468995Y-81244924D01*
X80468996Y-81244922D01*
X80575341Y-81115341D01*
X80704922Y-81008996D01*
X80720094Y-81000886D01*
X80852758Y-80929976D01*
X81013177Y-80881313D01*
X81138196Y-80869000D01*
X81221804Y-80869000D01*
X81346823Y-80881313D01*
X81346823Y-80881313D01*
G37*
G36*
X92408228Y-79841703D02*
G01*
X92563100Y-79905853D01*
X92702481Y-79998985D01*
X92821015Y-80117519D01*
X92914147Y-80256900D01*
X92978297Y-80411772D01*
X93011000Y-80576184D01*
X93011000Y-80743816D01*
X92978297Y-80908228D01*
X92914147Y-81063100D01*
X92821015Y-81202481D01*
X92702481Y-81321015D01*
X92563100Y-81414147D01*
X92408228Y-81478297D01*
X92243816Y-81511000D01*
X92076184Y-81511000D01*
X91911772Y-81478297D01*
X91756900Y-81414147D01*
X91617519Y-81321015D01*
X91498985Y-81202481D01*
X91405853Y-81063100D01*
X91341703Y-80908228D01*
X91309000Y-80743816D01*
X91309000Y-80576184D01*
X91341703Y-80411772D01*
X91405853Y-80256900D01*
X91498985Y-80117519D01*
X91617519Y-79998985D01*
X91756900Y-79905853D01*
X91911772Y-79841703D01*
X92076184Y-79809000D01*
X92243816Y-79809000D01*
X92408228Y-79841703D01*
X92408228Y-79841703D01*
G37*
G36*
X81346823Y-78341313D02*
G01*
X81507242Y-78389976D01*
X81547512Y-78411501D01*
X81655078Y-78468996D01*
X81784659Y-78575341D01*
X81891004Y-78704922D01*
X81891005Y-78704924D01*
X81970024Y-78852758D01*
X82018687Y-79013177D01*
X82035117Y-79180000D01*
X82018687Y-79346823D01*
X81970024Y-79507242D01*
X81899114Y-79639906D01*
X81891004Y-79655078D01*
X81784659Y-79784659D01*
X81655078Y-79891004D01*
X81655076Y-79891005D01*
X81507242Y-79970024D01*
X81346823Y-80018687D01*
X81221804Y-80031000D01*
X81138196Y-80031000D01*
X81013177Y-80018687D01*
X80852758Y-79970024D01*
X80704924Y-79891005D01*
X80704922Y-79891004D01*
X80575341Y-79784659D01*
X80468996Y-79655078D01*
X80460886Y-79639906D01*
X80389976Y-79507242D01*
X80341313Y-79346823D01*
X80324883Y-79180000D01*
X80341313Y-79013177D01*
X80389976Y-78852758D01*
X80468995Y-78704924D01*
X80468996Y-78704922D01*
X80575341Y-78575341D01*
X80704922Y-78468996D01*
X80812488Y-78411501D01*
X80852758Y-78389976D01*
X81013177Y-78341313D01*
X81138196Y-78329000D01*
X81221804Y-78329000D01*
X81346823Y-78341313D01*
X81346823Y-78341313D01*
G37*
G36*
X73726823Y-78341313D02*
G01*
X73887242Y-78389976D01*
X73927512Y-78411501D01*
X74035078Y-78468996D01*
X74164659Y-78575341D01*
X74271004Y-78704922D01*
X74271005Y-78704924D01*
X74350024Y-78852758D01*
X74398687Y-79013177D01*
X74415117Y-79180000D01*
X74398687Y-79346823D01*
X74350024Y-79507242D01*
X74279114Y-79639906D01*
X74271004Y-79655078D01*
X74164659Y-79784659D01*
X74035078Y-79891004D01*
X74035076Y-79891005D01*
X73887242Y-79970024D01*
X73726823Y-80018687D01*
X73601804Y-80031000D01*
X73518196Y-80031000D01*
X73393177Y-80018687D01*
X73232758Y-79970024D01*
X73084924Y-79891005D01*
X73084922Y-79891004D01*
X72955341Y-79784659D01*
X72848996Y-79655078D01*
X72840886Y-79639906D01*
X72769976Y-79507242D01*
X72721313Y-79346823D01*
X72704883Y-79180000D01*
X72721313Y-79013177D01*
X72769976Y-78852758D01*
X72848995Y-78704924D01*
X72848996Y-78704922D01*
X72955341Y-78575341D01*
X73084922Y-78468996D01*
X73192488Y-78411501D01*
X73232758Y-78389976D01*
X73393177Y-78341313D01*
X73518196Y-78329000D01*
X73601804Y-78329000D01*
X73726823Y-78341313D01*
X73726823Y-78341313D01*
G37*
G36*
X137397142Y-76998242D02*
G01*
X137545101Y-77059529D01*
X137678255Y-77148499D01*
X137791501Y-77261745D01*
X137880471Y-77394899D01*
X137941758Y-77542858D01*
X137973000Y-77699925D01*
X137973000Y-77860075D01*
X137941758Y-78017142D01*
X137880471Y-78165101D01*
X137791501Y-78298255D01*
X137678255Y-78411501D01*
X137545101Y-78500471D01*
X137397142Y-78561758D01*
X137240075Y-78593000D01*
X137079925Y-78593000D01*
X136922858Y-78561758D01*
X136774899Y-78500471D01*
X136641745Y-78411501D01*
X136528499Y-78298255D01*
X136439529Y-78165101D01*
X136378242Y-78017142D01*
X136347000Y-77860075D01*
X136347000Y-77699925D01*
X136378242Y-77542858D01*
X136439529Y-77394899D01*
X136528499Y-77261745D01*
X136641745Y-77148499D01*
X136774899Y-77059529D01*
X136922858Y-76998242D01*
X137079925Y-76967000D01*
X137240075Y-76967000D01*
X137397142Y-76998242D01*
X137397142Y-76998242D01*
G37*
G36*
X62432585Y-73848802D02*
G01*
X62582410Y-73878604D01*
X62864674Y-73995521D01*
X63118705Y-74165259D01*
X63334741Y-74381295D01*
X63504479Y-74635326D01*
X63621396Y-74917590D01*
X63681000Y-75217240D01*
X63681000Y-75522760D01*
X63621396Y-75822410D01*
X63504479Y-76104674D01*
X63334741Y-76358705D01*
X63118705Y-76574741D01*
X62864674Y-76744479D01*
X62582410Y-76861396D01*
X62432585Y-76891198D01*
X62282761Y-76921000D01*
X61977239Y-76921000D01*
X61827415Y-76891198D01*
X61677590Y-76861396D01*
X61395326Y-76744479D01*
X61141295Y-76574741D01*
X60925259Y-76358705D01*
X60755521Y-76104674D01*
X60638604Y-75822410D01*
X60579000Y-75522760D01*
X60579000Y-75217240D01*
X60638604Y-74917590D01*
X60755521Y-74635326D01*
X60925259Y-74381295D01*
X61141295Y-74165259D01*
X61395326Y-73995521D01*
X61677590Y-73878604D01*
X61827415Y-73848802D01*
X61977239Y-73819000D01*
X62282761Y-73819000D01*
X62432585Y-73848802D01*
X62432585Y-73848802D01*
G37*
G36*
X127540443Y-74215519D02*
G01*
X127606627Y-74222037D01*
X127776466Y-74273557D01*
X127932991Y-74357222D01*
X127962324Y-74381295D01*
X128070186Y-74469814D01*
X128153448Y-74571271D01*
X128182778Y-74607009D01*
X128266443Y-74763534D01*
X128317963Y-74933373D01*
X128335359Y-75110000D01*
X128317963Y-75286627D01*
X128266443Y-75456466D01*
X128182778Y-75612991D01*
X128153448Y-75648729D01*
X128070186Y-75750186D01*
X127982179Y-75822410D01*
X127932991Y-75862778D01*
X127776466Y-75946443D01*
X127606627Y-75997963D01*
X127540443Y-76004481D01*
X127474260Y-76011000D01*
X127385740Y-76011000D01*
X127319557Y-76004481D01*
X127253373Y-75997963D01*
X127083534Y-75946443D01*
X126927009Y-75862778D01*
X126877821Y-75822410D01*
X126789814Y-75750186D01*
X126706552Y-75648729D01*
X126677222Y-75612991D01*
X126593557Y-75456466D01*
X126542037Y-75286627D01*
X126524641Y-75110000D01*
X126542037Y-74933373D01*
X126593557Y-74763534D01*
X126677222Y-74607009D01*
X126706552Y-74571271D01*
X126789814Y-74469814D01*
X126897676Y-74381295D01*
X126927009Y-74357222D01*
X127083534Y-74273557D01*
X127253373Y-74222037D01*
X127319557Y-74215519D01*
X127385740Y-74209000D01*
X127474260Y-74209000D01*
X127540443Y-74215519D01*
X127540443Y-74215519D01*
G37*
G36*
X68157142Y-71378242D02*
G01*
X68305101Y-71439529D01*
X68438255Y-71528499D01*
X68551501Y-71641745D01*
X68640471Y-71774899D01*
X68701758Y-71922858D01*
X68733000Y-72079925D01*
X68733000Y-72240075D01*
X68701758Y-72397142D01*
X68640471Y-72545101D01*
X68551501Y-72678255D01*
X68438255Y-72791501D01*
X68305101Y-72880471D01*
X68157142Y-72941758D01*
X68000075Y-72973000D01*
X67839925Y-72973000D01*
X67682858Y-72941758D01*
X67534899Y-72880471D01*
X67401745Y-72791501D01*
X67288499Y-72678255D01*
X67199529Y-72545101D01*
X67138242Y-72397142D01*
X67107000Y-72240075D01*
X67107000Y-72079925D01*
X67138242Y-71922858D01*
X67199529Y-71774899D01*
X67288499Y-71641745D01*
X67401745Y-71528499D01*
X67534899Y-71439529D01*
X67682858Y-71378242D01*
X67839925Y-71347000D01*
X68000075Y-71347000D01*
X68157142Y-71378242D01*
X68157142Y-71378242D01*
G37*
G36*
X98637142Y-71378242D02*
G01*
X98785101Y-71439529D01*
X98918255Y-71528499D01*
X99031501Y-71641745D01*
X99120471Y-71774899D01*
X99181758Y-71922858D01*
X99213000Y-72079925D01*
X99213000Y-72240075D01*
X99181758Y-72397142D01*
X99120471Y-72545101D01*
X99031501Y-72678255D01*
X98918255Y-72791501D01*
X98785101Y-72880471D01*
X98637142Y-72941758D01*
X98480075Y-72973000D01*
X98319925Y-72973000D01*
X98162858Y-72941758D01*
X98014899Y-72880471D01*
X97881745Y-72791501D01*
X97768499Y-72678255D01*
X97679529Y-72545101D01*
X97618242Y-72397142D01*
X97587000Y-72240075D01*
X97587000Y-72079925D01*
X97618242Y-71922858D01*
X97679529Y-71774899D01*
X97768499Y-71641745D01*
X97881745Y-71528499D01*
X98014899Y-71439529D01*
X98162858Y-71378242D01*
X98319925Y-71347000D01*
X98480075Y-71347000D01*
X98637142Y-71378242D01*
X98637142Y-71378242D01*
G37*
G36*
X63681000Y-71841000D02*
G01*
X60579000Y-71841000D01*
X60579000Y-68739000D01*
X63681000Y-68739000D01*
X63681000Y-71841000D01*
X63681000Y-71841000D01*
G37*
G36*
X115707142Y-69508242D02*
G01*
X115855101Y-69569529D01*
X115988255Y-69658499D01*
X116101501Y-69771745D01*
X116190471Y-69904899D01*
X116251758Y-70052858D01*
X116283000Y-70209925D01*
X116283000Y-70370075D01*
X116251758Y-70527142D01*
X116190471Y-70675101D01*
X116101501Y-70808255D01*
X115988255Y-70921501D01*
X115855101Y-71010471D01*
X115707142Y-71071758D01*
X115550075Y-71103000D01*
X115389925Y-71103000D01*
X115232858Y-71071758D01*
X115084899Y-71010471D01*
X114951745Y-70921501D01*
X114838499Y-70808255D01*
X114749529Y-70675101D01*
X114688242Y-70527142D01*
X114657000Y-70370075D01*
X114657000Y-70209925D01*
X114688242Y-70052858D01*
X114749529Y-69904899D01*
X114838499Y-69771745D01*
X114951745Y-69658499D01*
X115084899Y-69569529D01*
X115232858Y-69508242D01*
X115389925Y-69477000D01*
X115550075Y-69477000D01*
X115707142Y-69508242D01*
X115707142Y-69508242D01*
G37*
G36*
X127540443Y-69135519D02*
G01*
X127606627Y-69142037D01*
X127776466Y-69193557D01*
X127932991Y-69277222D01*
X127968729Y-69306552D01*
X128070186Y-69389814D01*
X128153448Y-69491271D01*
X128182778Y-69527009D01*
X128182779Y-69527011D01*
X128253063Y-69658501D01*
X128266443Y-69683534D01*
X128317963Y-69853373D01*
X128335359Y-70030000D01*
X128317963Y-70206627D01*
X128266443Y-70376466D01*
X128182778Y-70532991D01*
X128153448Y-70568729D01*
X128070186Y-70670186D01*
X127968729Y-70753448D01*
X127932991Y-70782778D01*
X127776466Y-70866443D01*
X127606627Y-70917963D01*
X127540442Y-70924482D01*
X127474260Y-70931000D01*
X127385740Y-70931000D01*
X127319558Y-70924482D01*
X127253373Y-70917963D01*
X127083534Y-70866443D01*
X126927009Y-70782778D01*
X126891271Y-70753448D01*
X126789814Y-70670186D01*
X126706552Y-70568729D01*
X126677222Y-70532991D01*
X126593557Y-70376466D01*
X126542037Y-70206627D01*
X126524641Y-70030000D01*
X126542037Y-69853373D01*
X126593557Y-69683534D01*
X126606938Y-69658501D01*
X126677221Y-69527011D01*
X126677222Y-69527009D01*
X126706552Y-69491271D01*
X126789814Y-69389814D01*
X126891271Y-69306552D01*
X126927009Y-69277222D01*
X127083534Y-69193557D01*
X127253373Y-69142037D01*
X127319557Y-69135519D01*
X127385740Y-69129000D01*
X127474260Y-69129000D01*
X127540443Y-69135519D01*
X127540443Y-69135519D01*
G37*
G36*
X125791000Y-70931000D02*
G01*
X123989000Y-70931000D01*
X123989000Y-69129000D01*
X125791000Y-69129000D01*
X125791000Y-70931000D01*
X125791000Y-70931000D01*
G37*
G36*
X77478433Y-63794893D02*
G01*
X77568657Y-63812839D01*
X77674267Y-63856585D01*
X77823621Y-63918449D01*
X77823622Y-63918450D01*
X78053086Y-64071772D01*
X78248228Y-64266914D01*
X78332081Y-64392410D01*
X78401551Y-64496379D01*
X78463415Y-64645733D01*
X78507161Y-64751343D01*
X78525107Y-64841567D01*
X78561000Y-65022012D01*
X78561000Y-65297988D01*
X78507161Y-65568656D01*
X78401551Y-65823621D01*
X78355193Y-65893000D01*
X78248228Y-66053086D01*
X78053086Y-66248228D01*
X77899763Y-66350675D01*
X77823621Y-66401551D01*
X77674267Y-66463415D01*
X77568657Y-66507161D01*
X77478433Y-66525107D01*
X77297988Y-66561000D01*
X77022012Y-66561000D01*
X76841567Y-66525107D01*
X76751343Y-66507161D01*
X76645733Y-66463415D01*
X76496379Y-66401551D01*
X76420237Y-66350675D01*
X76266914Y-66248228D01*
X76071772Y-66053086D01*
X75964807Y-65893000D01*
X75918449Y-65823621D01*
X75812839Y-65568656D01*
X75759000Y-65297988D01*
X75759000Y-65022012D01*
X75794893Y-64841567D01*
X75812839Y-64751343D01*
X75856585Y-64645733D01*
X75918449Y-64496379D01*
X75987919Y-64392410D01*
X76071772Y-64266914D01*
X76266914Y-64071772D01*
X76496378Y-63918450D01*
X76496379Y-63918449D01*
X76645733Y-63856585D01*
X76751343Y-63812839D01*
X76841567Y-63794893D01*
X77022012Y-63759000D01*
X77297988Y-63759000D01*
X77478433Y-63794893D01*
X77478433Y-63794893D01*
G37*
G36*
X126478433Y-63794893D02*
G01*
X126568657Y-63812839D01*
X126674267Y-63856585D01*
X126823621Y-63918449D01*
X126823622Y-63918450D01*
X127053086Y-64071772D01*
X127248228Y-64266914D01*
X127332081Y-64392410D01*
X127401551Y-64496379D01*
X127463415Y-64645733D01*
X127507161Y-64751343D01*
X127525107Y-64841567D01*
X127561000Y-65022012D01*
X127561000Y-65297988D01*
X127507161Y-65568656D01*
X127401551Y-65823621D01*
X127355193Y-65893000D01*
X127248228Y-66053086D01*
X127053086Y-66248228D01*
X126899763Y-66350675D01*
X126823621Y-66401551D01*
X126674267Y-66463415D01*
X126568657Y-66507161D01*
X126478433Y-66525107D01*
X126297988Y-66561000D01*
X126022012Y-66561000D01*
X125841567Y-66525107D01*
X125751343Y-66507161D01*
X125645733Y-66463415D01*
X125496379Y-66401551D01*
X125420237Y-66350675D01*
X125266914Y-66248228D01*
X125071772Y-66053086D01*
X124964807Y-65893000D01*
X124918449Y-65823621D01*
X124812839Y-65568656D01*
X124759000Y-65297988D01*
X124759000Y-65022012D01*
X124794893Y-64841567D01*
X124812839Y-64751343D01*
X124856585Y-64645733D01*
X124918449Y-64496379D01*
X124987919Y-64392410D01*
X125071772Y-64266914D01*
X125266914Y-64071772D01*
X125496378Y-63918450D01*
X125496379Y-63918449D01*
X125645733Y-63856585D01*
X125751343Y-63812839D01*
X125841567Y-63794893D01*
X126022012Y-63759000D01*
X126297988Y-63759000D01*
X126478433Y-63794893D01*
X126478433Y-63794893D01*
G37*
G36*
X137397142Y-64298242D02*
G01*
X137545101Y-64359529D01*
X137678255Y-64448499D01*
X137791501Y-64561745D01*
X137880471Y-64694899D01*
X137941758Y-64842858D01*
X137973000Y-64999925D01*
X137973000Y-65160075D01*
X137941758Y-65317142D01*
X137880471Y-65465101D01*
X137791501Y-65598255D01*
X137678255Y-65711501D01*
X137545101Y-65800471D01*
X137397142Y-65861758D01*
X137240075Y-65893000D01*
X137079925Y-65893000D01*
X136922858Y-65861758D01*
X136774899Y-65800471D01*
X136641745Y-65711501D01*
X136528499Y-65598255D01*
X136439529Y-65465101D01*
X136378242Y-65317142D01*
X136347000Y-65160075D01*
X136347000Y-64999925D01*
X136378242Y-64842858D01*
X136439529Y-64694899D01*
X136528499Y-64561745D01*
X136641745Y-64448499D01*
X136774899Y-64359529D01*
X136922858Y-64298242D01*
X137079925Y-64267000D01*
X137240075Y-64267000D01*
X137397142Y-64298242D01*
X137397142Y-64298242D01*
G37*
G36*
X62432585Y-62418802D02*
G01*
X62582410Y-62448604D01*
X62864674Y-62565521D01*
X63118705Y-62735259D01*
X63334741Y-62951295D01*
X63504479Y-63205326D01*
X63621396Y-63487590D01*
X63681000Y-63787240D01*
X63681000Y-64092760D01*
X63621396Y-64392410D01*
X63504479Y-64674674D01*
X63334741Y-64928705D01*
X63118705Y-65144741D01*
X62864674Y-65314479D01*
X62582410Y-65431396D01*
X62432585Y-65461198D01*
X62282761Y-65491000D01*
X61977239Y-65491000D01*
X61827415Y-65461198D01*
X61677590Y-65431396D01*
X61395326Y-65314479D01*
X61141295Y-65144741D01*
X60925259Y-64928705D01*
X60755521Y-64674674D01*
X60638604Y-64392410D01*
X60579000Y-64092760D01*
X60579000Y-63787240D01*
X60638604Y-63487590D01*
X60755521Y-63205326D01*
X60925259Y-62951295D01*
X61141295Y-62735259D01*
X61395326Y-62565521D01*
X61677590Y-62448604D01*
X61827415Y-62418802D01*
X61977239Y-62389000D01*
X62282761Y-62389000D01*
X62432585Y-62418802D01*
X62432585Y-62418802D01*
G37*
G36*
X86317142Y-63158242D02*
G01*
X86465101Y-63219529D01*
X86598255Y-63308499D01*
X86711501Y-63421745D01*
X86800471Y-63554899D01*
X86861758Y-63702858D01*
X86893000Y-63859925D01*
X86893000Y-64020075D01*
X86861758Y-64177142D01*
X86800471Y-64325101D01*
X86711501Y-64458255D01*
X86598255Y-64571501D01*
X86465101Y-64660471D01*
X86317142Y-64721758D01*
X86160075Y-64753000D01*
X85999925Y-64753000D01*
X85842858Y-64721758D01*
X85694899Y-64660471D01*
X85561745Y-64571501D01*
X85448499Y-64458255D01*
X85359529Y-64325101D01*
X85298242Y-64177142D01*
X85267000Y-64020075D01*
X85267000Y-63859925D01*
X85298242Y-63702858D01*
X85359529Y-63554899D01*
X85448499Y-63421745D01*
X85561745Y-63308499D01*
X85694899Y-63219529D01*
X85842858Y-63158242D01*
X85999925Y-63127000D01*
X86160075Y-63127000D01*
X86317142Y-63158242D01*
X86317142Y-63158242D01*
G37*
G36*
X106637142Y-63158242D02*
G01*
X106785101Y-63219529D01*
X106918255Y-63308499D01*
X107031501Y-63421745D01*
X107120471Y-63554899D01*
X107181758Y-63702858D01*
X107213000Y-63859925D01*
X107213000Y-64020075D01*
X107181758Y-64177142D01*
X107120471Y-64325101D01*
X107031501Y-64458255D01*
X106918255Y-64571501D01*
X106785101Y-64660471D01*
X106637142Y-64721758D01*
X106480075Y-64753000D01*
X106319925Y-64753000D01*
X106162858Y-64721758D01*
X106014899Y-64660471D01*
X105881745Y-64571501D01*
X105768499Y-64458255D01*
X105679529Y-64325101D01*
X105618242Y-64177142D01*
X105587000Y-64020075D01*
X105587000Y-63859925D01*
X105618242Y-63702858D01*
X105679529Y-63554899D01*
X105768499Y-63421745D01*
X105881745Y-63308499D01*
X106014899Y-63219529D01*
X106162858Y-63158242D01*
X106319925Y-63127000D01*
X106480075Y-63127000D01*
X106637142Y-63158242D01*
X106637142Y-63158242D01*
G37*
G36*
X137397142Y-60378242D02*
G01*
X137545101Y-60439529D01*
X137678255Y-60528499D01*
X137791501Y-60641745D01*
X137880471Y-60774899D01*
X137941758Y-60922858D01*
X137973000Y-61079925D01*
X137973000Y-61240075D01*
X137941758Y-61397142D01*
X137880471Y-61545101D01*
X137791501Y-61678255D01*
X137678255Y-61791501D01*
X137545101Y-61880471D01*
X137397142Y-61941758D01*
X137240075Y-61973000D01*
X137079925Y-61973000D01*
X136922858Y-61941758D01*
X136774899Y-61880471D01*
X136641745Y-61791501D01*
X136528499Y-61678255D01*
X136439529Y-61545101D01*
X136378242Y-61397142D01*
X136347000Y-61240075D01*
X136347000Y-61079925D01*
X136378242Y-60922858D01*
X136439529Y-60774899D01*
X136528499Y-60641745D01*
X136641745Y-60528499D01*
X136774899Y-60439529D01*
X136922858Y-60378242D01*
X137079925Y-60347000D01*
X137240075Y-60347000D01*
X137397142Y-60378242D01*
X137397142Y-60378242D01*
G37*
G36*
X63681000Y-60411000D02*
G01*
X60579000Y-60411000D01*
X60579000Y-57309000D01*
X63681000Y-57309000D01*
X63681000Y-60411000D01*
X63681000Y-60411000D01*
G37*
G36*
X137397142Y-58378242D02*
G01*
X137545101Y-58439529D01*
X137678255Y-58528499D01*
X137791501Y-58641745D01*
X137880471Y-58774899D01*
X137941758Y-58922858D01*
X137973000Y-59079925D01*
X137973000Y-59240075D01*
X137941758Y-59397142D01*
X137880471Y-59545101D01*
X137791501Y-59678255D01*
X137678255Y-59791501D01*
X137545101Y-59880471D01*
X137397142Y-59941758D01*
X137240075Y-59973000D01*
X137079925Y-59973000D01*
X136922858Y-59941758D01*
X136774899Y-59880471D01*
X136641745Y-59791501D01*
X136528499Y-59678255D01*
X136439529Y-59545101D01*
X136378242Y-59397142D01*
X136347000Y-59240075D01*
X136347000Y-59079925D01*
X136378242Y-58922858D01*
X136439529Y-58774899D01*
X136528499Y-58641745D01*
X136641745Y-58528499D01*
X136774899Y-58439529D01*
X136922858Y-58378242D01*
X137079925Y-58347000D01*
X137240075Y-58347000D01*
X137397142Y-58378242D01*
X137397142Y-58378242D01*
G37*
G36*
X69857142Y-58078242D02*
G01*
X70005101Y-58139529D01*
X70138255Y-58228499D01*
X70251501Y-58341745D01*
X70340471Y-58474899D01*
X70401758Y-58622858D01*
X70433000Y-58779925D01*
X70433000Y-58940075D01*
X70401758Y-59097142D01*
X70340471Y-59245101D01*
X70251501Y-59378255D01*
X70138255Y-59491501D01*
X70005101Y-59580471D01*
X69857142Y-59641758D01*
X69700075Y-59673000D01*
X69539925Y-59673000D01*
X69382858Y-59641758D01*
X69234899Y-59580471D01*
X69101745Y-59491501D01*
X68988499Y-59378255D01*
X68899529Y-59245101D01*
X68838242Y-59097142D01*
X68807000Y-58940075D01*
X68807000Y-58779925D01*
X68838242Y-58622858D01*
X68899529Y-58474899D01*
X68988499Y-58341745D01*
X69101745Y-58228499D01*
X69234899Y-58139529D01*
X69382858Y-58078242D01*
X69539925Y-58047000D01*
X69700075Y-58047000D01*
X69857142Y-58078242D01*
X69857142Y-58078242D01*
G37*
G36*
X74937142Y-58078242D02*
G01*
X75085101Y-58139529D01*
X75218255Y-58228499D01*
X75331501Y-58341745D01*
X75420471Y-58474899D01*
X75481758Y-58622858D01*
X75513000Y-58779925D01*
X75513000Y-58940075D01*
X75481758Y-59097142D01*
X75420471Y-59245101D01*
X75331501Y-59378255D01*
X75218255Y-59491501D01*
X75085101Y-59580471D01*
X74937142Y-59641758D01*
X74780075Y-59673000D01*
X74619925Y-59673000D01*
X74462858Y-59641758D01*
X74314899Y-59580471D01*
X74181745Y-59491501D01*
X74068499Y-59378255D01*
X73979529Y-59245101D01*
X73918242Y-59097142D01*
X73887000Y-58940075D01*
X73887000Y-58779925D01*
X73918242Y-58622858D01*
X73979529Y-58474899D01*
X74068499Y-58341745D01*
X74181745Y-58228499D01*
X74314899Y-58139529D01*
X74462858Y-58078242D01*
X74619925Y-58047000D01*
X74780075Y-58047000D01*
X74937142Y-58078242D01*
X74937142Y-58078242D01*
G37*
G36*
X137973000Y-57973000D02*
G01*
X136347000Y-57973000D01*
X136347000Y-56347000D01*
X137973000Y-56347000D01*
X137973000Y-57973000D01*
X137973000Y-57973000D01*
G37*
G36*
X125908228Y-54341703D02*
G01*
X126063100Y-54405853D01*
X126202481Y-54498985D01*
X126321015Y-54617519D01*
X126414147Y-54756900D01*
X126478297Y-54911772D01*
X126511000Y-55076184D01*
X126511000Y-55243816D01*
X126478297Y-55408228D01*
X126414147Y-55563100D01*
X126321015Y-55702481D01*
X126202481Y-55821015D01*
X126063100Y-55914147D01*
X125908228Y-55978297D01*
X125743816Y-56011000D01*
X125576184Y-56011000D01*
X125411772Y-55978297D01*
X125256900Y-55914147D01*
X125117519Y-55821015D01*
X124998985Y-55702481D01*
X124905853Y-55563100D01*
X124841703Y-55408228D01*
X124809000Y-55243816D01*
X124809000Y-55076184D01*
X124841703Y-54911772D01*
X124905853Y-54756900D01*
X124998985Y-54617519D01*
X125117519Y-54498985D01*
X125256900Y-54405853D01*
X125411772Y-54341703D01*
X125576184Y-54309000D01*
X125743816Y-54309000D01*
X125908228Y-54341703D01*
X125908228Y-54341703D01*
G37*
G36*
X124011000Y-56011000D02*
G01*
X122309000Y-56011000D01*
X122309000Y-54309000D01*
X124011000Y-54309000D01*
X124011000Y-56011000D01*
X124011000Y-56011000D01*
G37*
G36*
X111857142Y-54378242D02*
G01*
X112005101Y-54439529D01*
X112138255Y-54528499D01*
X112251501Y-54641745D01*
X112340471Y-54774899D01*
X112401758Y-54922858D01*
X112433000Y-55079925D01*
X112433000Y-55240075D01*
X112401758Y-55397142D01*
X112340471Y-55545101D01*
X112251501Y-55678255D01*
X112138255Y-55791501D01*
X112005101Y-55880471D01*
X111857142Y-55941758D01*
X111700075Y-55973000D01*
X111539925Y-55973000D01*
X111382858Y-55941758D01*
X111234899Y-55880471D01*
X111101745Y-55791501D01*
X110988499Y-55678255D01*
X110899529Y-55545101D01*
X110838242Y-55397142D01*
X110807000Y-55240075D01*
X110807000Y-55079925D01*
X110838242Y-54922858D01*
X110899529Y-54774899D01*
X110988499Y-54641745D01*
X111101745Y-54528499D01*
X111234899Y-54439529D01*
X111382858Y-54378242D01*
X111539925Y-54347000D01*
X111700075Y-54347000D01*
X111857142Y-54378242D01*
X111857142Y-54378242D01*
G37*
G36*
X116937142Y-54378242D02*
G01*
X117085101Y-54439529D01*
X117218255Y-54528499D01*
X117331501Y-54641745D01*
X117420471Y-54774899D01*
X117481758Y-54922858D01*
X117513000Y-55079925D01*
X117513000Y-55240075D01*
X117481758Y-55397142D01*
X117420471Y-55545101D01*
X117331501Y-55678255D01*
X117218255Y-55791501D01*
X117085101Y-55880471D01*
X116937142Y-55941758D01*
X116780075Y-55973000D01*
X116619925Y-55973000D01*
X116462858Y-55941758D01*
X116314899Y-55880471D01*
X116181745Y-55791501D01*
X116068499Y-55678255D01*
X115979529Y-55545101D01*
X115918242Y-55397142D01*
X115887000Y-55240075D01*
X115887000Y-55079925D01*
X115918242Y-54922858D01*
X115979529Y-54774899D01*
X116068499Y-54641745D01*
X116181745Y-54528499D01*
X116314899Y-54439529D01*
X116462858Y-54378242D01*
X116619925Y-54347000D01*
X116780075Y-54347000D01*
X116937142Y-54378242D01*
X116937142Y-54378242D01*
G37*
G36*
X86317142Y-54268242D02*
G01*
X86465101Y-54329529D01*
X86598255Y-54418499D01*
X86711501Y-54531745D01*
X86800471Y-54664899D01*
X86861758Y-54812858D01*
X86893000Y-54969925D01*
X86893000Y-55130075D01*
X86861758Y-55287142D01*
X86800471Y-55435101D01*
X86711501Y-55568255D01*
X86598255Y-55681501D01*
X86465101Y-55770471D01*
X86317142Y-55831758D01*
X86160075Y-55863000D01*
X85999925Y-55863000D01*
X85842858Y-55831758D01*
X85694899Y-55770471D01*
X85561745Y-55681501D01*
X85448499Y-55568255D01*
X85359529Y-55435101D01*
X85298242Y-55287142D01*
X85267000Y-55130075D01*
X85267000Y-54969925D01*
X85298242Y-54812858D01*
X85359529Y-54664899D01*
X85448499Y-54531745D01*
X85561745Y-54418499D01*
X85694899Y-54329529D01*
X85842858Y-54268242D01*
X85999925Y-54237000D01*
X86160075Y-54237000D01*
X86317142Y-54268242D01*
X86317142Y-54268242D01*
G37*
G36*
X106637142Y-54268242D02*
G01*
X106785101Y-54329529D01*
X106918255Y-54418499D01*
X107031501Y-54531745D01*
X107120471Y-54664899D01*
X107181758Y-54812858D01*
X107213000Y-54969925D01*
X107213000Y-55130075D01*
X107181758Y-55287142D01*
X107120471Y-55435101D01*
X107031501Y-55568255D01*
X106918255Y-55681501D01*
X106785101Y-55770471D01*
X106637142Y-55831758D01*
X106480075Y-55863000D01*
X106319925Y-55863000D01*
X106162858Y-55831758D01*
X106014899Y-55770471D01*
X105881745Y-55681501D01*
X105768499Y-55568255D01*
X105679529Y-55435101D01*
X105618242Y-55287142D01*
X105587000Y-55130075D01*
X105587000Y-54969925D01*
X105618242Y-54812858D01*
X105679529Y-54664899D01*
X105768499Y-54531745D01*
X105881745Y-54418499D01*
X106014899Y-54329529D01*
X106162858Y-54268242D01*
X106319925Y-54237000D01*
X106480075Y-54237000D01*
X106637142Y-54268242D01*
X106637142Y-54268242D01*
G37*
G36*
X145478433Y-49794893D02*
G01*
X145568657Y-49812839D01*
X145674267Y-49856585D01*
X145823621Y-49918449D01*
X145823622Y-49918450D01*
X146053086Y-50071772D01*
X146248228Y-50266914D01*
X146350675Y-50420237D01*
X146401551Y-50496379D01*
X146507161Y-50751344D01*
X146561000Y-51022012D01*
X146561000Y-51297988D01*
X146507161Y-51568656D01*
X146401551Y-51823621D01*
X146401550Y-51823622D01*
X146248228Y-52053086D01*
X146053086Y-52248228D01*
X145899763Y-52350675D01*
X145823621Y-52401551D01*
X145674267Y-52463415D01*
X145568657Y-52507161D01*
X145478433Y-52525107D01*
X145297988Y-52561000D01*
X145022012Y-52561000D01*
X144841567Y-52525107D01*
X144751343Y-52507161D01*
X144645733Y-52463415D01*
X144496379Y-52401551D01*
X144420237Y-52350675D01*
X144266914Y-52248228D01*
X144071772Y-52053086D01*
X143918450Y-51823622D01*
X143918449Y-51823621D01*
X143812839Y-51568656D01*
X143759000Y-51297988D01*
X143759000Y-51022012D01*
X143812839Y-50751344D01*
X143918449Y-50496379D01*
X143969325Y-50420237D01*
X144071772Y-50266914D01*
X144266914Y-50071772D01*
X144496378Y-49918450D01*
X144496379Y-49918449D01*
X144645733Y-49856585D01*
X144751343Y-49812839D01*
X144841567Y-49794893D01*
X145022012Y-49759000D01*
X145297988Y-49759000D01*
X145478433Y-49794893D01*
X145478433Y-49794893D01*
G37*
G36*
X53478433Y-49794893D02*
G01*
X53568657Y-49812839D01*
X53674267Y-49856585D01*
X53823621Y-49918449D01*
X53823622Y-49918450D01*
X54053086Y-50071772D01*
X54248228Y-50266914D01*
X54350675Y-50420237D01*
X54401551Y-50496379D01*
X54507161Y-50751344D01*
X54561000Y-51022012D01*
X54561000Y-51297988D01*
X54507161Y-51568656D01*
X54401551Y-51823621D01*
X54401550Y-51823622D01*
X54248228Y-52053086D01*
X54053086Y-52248228D01*
X53899763Y-52350675D01*
X53823621Y-52401551D01*
X53674267Y-52463415D01*
X53568657Y-52507161D01*
X53478433Y-52525107D01*
X53297988Y-52561000D01*
X53022012Y-52561000D01*
X52841567Y-52525107D01*
X52751343Y-52507161D01*
X52645733Y-52463415D01*
X52496379Y-52401551D01*
X52420237Y-52350675D01*
X52266914Y-52248228D01*
X52071772Y-52053086D01*
X51918450Y-51823622D01*
X51918449Y-51823621D01*
X51812839Y-51568656D01*
X51759000Y-51297988D01*
X51759000Y-51022012D01*
X51812839Y-50751344D01*
X51918449Y-50496379D01*
X51969325Y-50420237D01*
X52071772Y-50266914D01*
X52266914Y-50071772D01*
X52496378Y-49918450D01*
X52496379Y-49918449D01*
X52645733Y-49856585D01*
X52751343Y-49812839D01*
X52841567Y-49794893D01*
X53022012Y-49759000D01*
X53297988Y-49759000D01*
X53478433Y-49794893D01*
X53478433Y-49794893D01*
G37*
M02*
