%TF.GenerationSoftware,KiCad,Pcbnew,(5.1.0)-1*%
%TF.CreationDate,2019-04-24T14:24:48-04:00*%
%TF.ProjectId,SGschematic,53477363-6865-46d6-9174-69632e6b6963,rev?*%
%TF.SameCoordinates,Original*%
%TF.FileFunction,Copper,L2,Bot*%
%TF.FilePolarity,Positive*%
%FSLAX46Y46*%
G04 Gerber Fmt 4.6, Leading zero omitted, Abs format (unit mm)*
G04 Created by KiCad (PCBNEW (5.1.0)-1) date 2019-04-24 14:24:48*
%MOMM*%
%LPD*%
G04 APERTURE LIST*
%ADD10C,0.150000*%
%ADD11C,0.300000*%
%ADD12R,1.700000X1.700000*%
%ADD13O,1.700000X1.700000*%
%ADD14O,1.600000X1.600000*%
%ADD15R,1.600000X1.600000*%
%ADD16C,1.524000*%
%ADD17R,1.524000X1.524000*%
%ADD18C,1.600000*%
%ADD19R,2.000000X2.000000*%
%ADD20O,2.000000X2.000000*%
%ADD21C,3.000000*%
%ADD22R,3.000000X3.000000*%
%ADD23C,0.250000*%
%ADD24C,0.750000*%
%ADD25C,0.800000*%
G04 APERTURE END LIST*
D10*
X44076666Y-165160000D02*
G75*
G03X44076666Y-165160000I-1666666J0D01*
G01*
X39910000Y-165160000D02*
X44910000Y-165160000D01*
X42410000Y-162660000D02*
X42410000Y-167660000D01*
X46576666Y-43910000D02*
G75*
G03X46576666Y-43910000I-1666666J0D01*
G01*
X42410000Y-43910000D02*
X47410000Y-43910000D01*
X44910000Y-41410000D02*
X44910000Y-46410000D01*
X154576666Y-43410000D02*
G75*
G03X154576666Y-43410000I-1666666J0D01*
G01*
X150410000Y-43410000D02*
X155410000Y-43410000D01*
X152910000Y-40910000D02*
X152910000Y-45910000D01*
X154576666Y-164660000D02*
G75*
G03X154576666Y-164660000I-1666666J0D01*
G01*
X150410000Y-164660000D02*
X155410000Y-164660000D01*
X152910000Y-162160000D02*
X152910000Y-167160000D01*
D11*
X108409999Y-154992142D02*
X108195714Y-155063571D01*
X107838571Y-155063571D01*
X107695714Y-154992142D01*
X107624285Y-154920714D01*
X107552857Y-154777857D01*
X107552857Y-154635000D01*
X107624285Y-154492142D01*
X107695714Y-154420714D01*
X107838571Y-154349285D01*
X108124285Y-154277857D01*
X108267142Y-154206428D01*
X108338571Y-154135000D01*
X108409999Y-153992142D01*
X108409999Y-153849285D01*
X108338571Y-153706428D01*
X108267142Y-153635000D01*
X108124285Y-153563571D01*
X107767142Y-153563571D01*
X107552857Y-153635000D01*
X107124285Y-154063571D02*
X106552857Y-154063571D01*
X106909999Y-153563571D02*
X106909999Y-154849285D01*
X106838571Y-154992142D01*
X106695714Y-155063571D01*
X106552857Y-155063571D01*
X105481428Y-154992142D02*
X105624285Y-155063571D01*
X105909999Y-155063571D01*
X106052857Y-154992142D01*
X106124285Y-154849285D01*
X106124285Y-154277857D01*
X106052857Y-154135000D01*
X105909999Y-154063571D01*
X105624285Y-154063571D01*
X105481428Y-154135000D01*
X105409999Y-154277857D01*
X105409999Y-154420714D01*
X106124285Y-154563571D01*
X104124285Y-155063571D02*
X104124285Y-154277857D01*
X104195714Y-154135000D01*
X104338571Y-154063571D01*
X104624285Y-154063571D01*
X104767142Y-154135000D01*
X104124285Y-154992142D02*
X104267142Y-155063571D01*
X104624285Y-155063571D01*
X104767142Y-154992142D01*
X104838571Y-154849285D01*
X104838571Y-154706428D01*
X104767142Y-154563571D01*
X104624285Y-154492142D01*
X104267142Y-154492142D01*
X104124285Y-154420714D01*
X103409999Y-155063571D02*
X103409999Y-154063571D01*
X103409999Y-154206428D02*
X103338571Y-154135000D01*
X103195714Y-154063571D01*
X102981428Y-154063571D01*
X102838571Y-154135000D01*
X102767142Y-154277857D01*
X102767142Y-155063571D01*
X102767142Y-154277857D02*
X102695714Y-154135000D01*
X102552857Y-154063571D01*
X102338571Y-154063571D01*
X102195714Y-154135000D01*
X102124285Y-154277857D01*
X102124285Y-155063571D01*
X99481428Y-153635000D02*
X99624285Y-153563571D01*
X99838571Y-153563571D01*
X100052857Y-153635000D01*
X100195714Y-153777857D01*
X100267142Y-153920714D01*
X100338571Y-154206428D01*
X100338571Y-154420714D01*
X100267142Y-154706428D01*
X100195714Y-154849285D01*
X100052857Y-154992142D01*
X99838571Y-155063571D01*
X99695714Y-155063571D01*
X99481428Y-154992142D01*
X99409999Y-154920714D01*
X99409999Y-154420714D01*
X99695714Y-154420714D01*
X98195714Y-154992142D02*
X98338571Y-155063571D01*
X98624285Y-155063571D01*
X98767142Y-154992142D01*
X98838571Y-154849285D01*
X98838571Y-154277857D01*
X98767142Y-154135000D01*
X98624285Y-154063571D01*
X98338571Y-154063571D01*
X98195714Y-154135000D01*
X98124285Y-154277857D01*
X98124285Y-154420714D01*
X98838571Y-154563571D01*
X97481428Y-154063571D02*
X97481428Y-155063571D01*
X97481428Y-154206428D02*
X97409999Y-154135000D01*
X97267142Y-154063571D01*
X97052857Y-154063571D01*
X96909999Y-154135000D01*
X96838571Y-154277857D01*
X96838571Y-155063571D01*
X95552857Y-154992142D02*
X95695714Y-155063571D01*
X95981428Y-155063571D01*
X96124285Y-154992142D01*
X96195714Y-154849285D01*
X96195714Y-154277857D01*
X96124285Y-154135000D01*
X95981428Y-154063571D01*
X95695714Y-154063571D01*
X95552857Y-154135000D01*
X95481428Y-154277857D01*
X95481428Y-154420714D01*
X96195714Y-154563571D01*
X94838571Y-155063571D02*
X94838571Y-154063571D01*
X94838571Y-154349285D02*
X94767142Y-154206428D01*
X94695714Y-154135000D01*
X94552857Y-154063571D01*
X94409999Y-154063571D01*
X93267142Y-155063571D02*
X93267142Y-154277857D01*
X93338571Y-154135000D01*
X93481428Y-154063571D01*
X93767142Y-154063571D01*
X93909999Y-154135000D01*
X93267142Y-154992142D02*
X93409999Y-155063571D01*
X93767142Y-155063571D01*
X93909999Y-154992142D01*
X93981428Y-154849285D01*
X93981428Y-154706428D01*
X93909999Y-154563571D01*
X93767142Y-154492142D01*
X93409999Y-154492142D01*
X93267142Y-154420714D01*
X92767142Y-154063571D02*
X92195714Y-154063571D01*
X92552857Y-153563571D02*
X92552857Y-154849285D01*
X92481428Y-154992142D01*
X92338571Y-155063571D01*
X92195714Y-155063571D01*
X91695714Y-155063571D02*
X91695714Y-154063571D01*
X91695714Y-153563571D02*
X91767142Y-153635000D01*
X91695714Y-153706428D01*
X91624285Y-153635000D01*
X91695714Y-153563571D01*
X91695714Y-153706428D01*
X90981428Y-154063571D02*
X90981428Y-155063571D01*
X90981428Y-154206428D02*
X90909999Y-154135000D01*
X90767142Y-154063571D01*
X90552857Y-154063571D01*
X90409999Y-154135000D01*
X90338571Y-154277857D01*
X90338571Y-155063571D01*
X88981428Y-154063571D02*
X88981428Y-155277857D01*
X89052857Y-155420714D01*
X89124285Y-155492142D01*
X89267142Y-155563571D01*
X89481428Y-155563571D01*
X89624285Y-155492142D01*
X88981428Y-154992142D02*
X89124285Y-155063571D01*
X89409999Y-155063571D01*
X89552857Y-154992142D01*
X89624285Y-154920714D01*
X89695714Y-154777857D01*
X89695714Y-154349285D01*
X89624285Y-154206428D01*
X89552857Y-154135000D01*
X89409999Y-154063571D01*
X89124285Y-154063571D01*
X88981428Y-154135000D01*
X87124285Y-155063571D02*
X87124285Y-153563571D01*
X87124285Y-154277857D02*
X86267142Y-154277857D01*
X86267142Y-155063571D02*
X86267142Y-153563571D01*
X84909999Y-154063571D02*
X84909999Y-155063571D01*
X85552857Y-154063571D02*
X85552857Y-154849285D01*
X85481428Y-154992142D01*
X85338571Y-155063571D01*
X85124285Y-155063571D01*
X84981428Y-154992142D01*
X84909999Y-154920714D01*
X84195714Y-155063571D02*
X84195714Y-154063571D01*
X84195714Y-154206428D02*
X84124285Y-154135000D01*
X83981428Y-154063571D01*
X83767142Y-154063571D01*
X83624285Y-154135000D01*
X83552857Y-154277857D01*
X83552857Y-155063571D01*
X83552857Y-154277857D02*
X83481428Y-154135000D01*
X83338571Y-154063571D01*
X83124285Y-154063571D01*
X82981428Y-154135000D01*
X82909999Y-154277857D01*
X82909999Y-155063571D01*
X82195714Y-155063571D02*
X82195714Y-154063571D01*
X82195714Y-153563571D02*
X82267142Y-153635000D01*
X82195714Y-153706428D01*
X82124285Y-153635000D01*
X82195714Y-153563571D01*
X82195714Y-153706428D01*
X80838571Y-155063571D02*
X80838571Y-153563571D01*
X80838571Y-154992142D02*
X80981428Y-155063571D01*
X81267142Y-155063571D01*
X81409999Y-154992142D01*
X81481428Y-154920714D01*
X81552857Y-154777857D01*
X81552857Y-154349285D01*
X81481428Y-154206428D01*
X81409999Y-154135000D01*
X81267142Y-154063571D01*
X80981428Y-154063571D01*
X80838571Y-154135000D01*
X80124285Y-155063571D02*
X80124285Y-154063571D01*
X80124285Y-153563571D02*
X80195714Y-153635000D01*
X80124285Y-153706428D01*
X80052857Y-153635000D01*
X80124285Y-153563571D01*
X80124285Y-153706428D01*
X79624285Y-154063571D02*
X79052857Y-154063571D01*
X79409999Y-155063571D02*
X79409999Y-153777857D01*
X79338571Y-153635000D01*
X79195714Y-153563571D01*
X79052857Y-153563571D01*
X78552857Y-155063571D02*
X78552857Y-154063571D01*
X78552857Y-153563571D02*
X78624285Y-153635000D01*
X78552857Y-153706428D01*
X78481428Y-153635000D01*
X78552857Y-153563571D01*
X78552857Y-153706428D01*
X77267142Y-154992142D02*
X77409999Y-155063571D01*
X77695714Y-155063571D01*
X77838571Y-154992142D01*
X77909999Y-154849285D01*
X77909999Y-154277857D01*
X77838571Y-154135000D01*
X77695714Y-154063571D01*
X77409999Y-154063571D01*
X77267142Y-154135000D01*
X77195714Y-154277857D01*
X77195714Y-154420714D01*
X77909999Y-154563571D01*
X76552857Y-155063571D02*
X76552857Y-154063571D01*
X76552857Y-154349285D02*
X76481428Y-154206428D01*
X76409999Y-154135000D01*
X76267142Y-154063571D01*
X76124285Y-154063571D01*
X110445714Y-156827857D02*
X110231428Y-156899285D01*
X110160000Y-156970714D01*
X110088571Y-157113571D01*
X110088571Y-157327857D01*
X110160000Y-157470714D01*
X110231428Y-157542142D01*
X110374285Y-157613571D01*
X110945714Y-157613571D01*
X110945714Y-156113571D01*
X110445714Y-156113571D01*
X110302857Y-156185000D01*
X110231428Y-156256428D01*
X110160000Y-156399285D01*
X110160000Y-156542142D01*
X110231428Y-156685000D01*
X110302857Y-156756428D01*
X110445714Y-156827857D01*
X110945714Y-156827857D01*
X109588571Y-156613571D02*
X109231428Y-157613571D01*
X108874285Y-156613571D02*
X109231428Y-157613571D01*
X109374285Y-157970714D01*
X109445714Y-158042142D01*
X109588571Y-158113571D01*
X106445714Y-157613571D02*
X107160000Y-157613571D01*
X107160000Y-156113571D01*
X105302857Y-157613571D02*
X105302857Y-156827857D01*
X105374285Y-156685000D01*
X105517142Y-156613571D01*
X105802857Y-156613571D01*
X105945714Y-156685000D01*
X105302857Y-157542142D02*
X105445714Y-157613571D01*
X105802857Y-157613571D01*
X105945714Y-157542142D01*
X106017142Y-157399285D01*
X106017142Y-157256428D01*
X105945714Y-157113571D01*
X105802857Y-157042142D01*
X105445714Y-157042142D01*
X105302857Y-156970714D01*
X104588571Y-157613571D02*
X104588571Y-156613571D01*
X104588571Y-156899285D02*
X104517142Y-156756428D01*
X104445714Y-156685000D01*
X104302857Y-156613571D01*
X104160000Y-156613571D01*
X103660000Y-157613571D02*
X103660000Y-156613571D01*
X103660000Y-156899285D02*
X103588571Y-156756428D01*
X103517142Y-156685000D01*
X103374285Y-156613571D01*
X103231428Y-156613571D01*
X102874285Y-156613571D02*
X102517142Y-157613571D01*
X102160000Y-156613571D02*
X102517142Y-157613571D01*
X102660000Y-157970714D01*
X102731428Y-158042142D01*
X102874285Y-158113571D01*
X99660000Y-156185000D02*
X99802857Y-156113571D01*
X100017142Y-156113571D01*
X100231428Y-156185000D01*
X100374285Y-156327857D01*
X100445714Y-156470714D01*
X100517142Y-156756428D01*
X100517142Y-156970714D01*
X100445714Y-157256428D01*
X100374285Y-157399285D01*
X100231428Y-157542142D01*
X100017142Y-157613571D01*
X99874285Y-157613571D01*
X99660000Y-157542142D01*
X99588571Y-157470714D01*
X99588571Y-156970714D01*
X99874285Y-156970714D01*
X98731428Y-157613571D02*
X98874285Y-157542142D01*
X98945714Y-157470714D01*
X99017142Y-157327857D01*
X99017142Y-156899285D01*
X98945714Y-156756428D01*
X98874285Y-156685000D01*
X98731428Y-156613571D01*
X98517142Y-156613571D01*
X98374285Y-156685000D01*
X98302857Y-156756428D01*
X98231428Y-156899285D01*
X98231428Y-157327857D01*
X98302857Y-157470714D01*
X98374285Y-157542142D01*
X98517142Y-157613571D01*
X98731428Y-157613571D01*
X97588571Y-157613571D02*
X97588571Y-156613571D01*
X97588571Y-156899285D02*
X97517142Y-156756428D01*
X97445714Y-156685000D01*
X97302857Y-156613571D01*
X97160000Y-156613571D01*
X96660000Y-157613571D02*
X96660000Y-156113571D01*
X96017142Y-157613571D02*
X96017142Y-156827857D01*
X96088571Y-156685000D01*
X96231428Y-156613571D01*
X96445714Y-156613571D01*
X96588571Y-156685000D01*
X96660000Y-156756428D01*
X94660000Y-157613571D02*
X94660000Y-156827857D01*
X94731428Y-156685000D01*
X94874285Y-156613571D01*
X95160000Y-156613571D01*
X95302857Y-156685000D01*
X94660000Y-157542142D02*
X94802857Y-157613571D01*
X95160000Y-157613571D01*
X95302857Y-157542142D01*
X95374285Y-157399285D01*
X95374285Y-157256428D01*
X95302857Y-157113571D01*
X95160000Y-157042142D01*
X94802857Y-157042142D01*
X94660000Y-156970714D01*
X93945714Y-157613571D02*
X93945714Y-156613571D01*
X93945714Y-156756428D02*
X93874285Y-156685000D01*
X93731428Y-156613571D01*
X93517142Y-156613571D01*
X93374285Y-156685000D01*
X93302857Y-156827857D01*
X93302857Y-157613571D01*
X93302857Y-156827857D02*
X93231428Y-156685000D01*
X93088571Y-156613571D01*
X92874285Y-156613571D01*
X92731428Y-156685000D01*
X92660000Y-156827857D01*
X92660000Y-157613571D01*
X90874285Y-157185000D02*
X90160000Y-157185000D01*
X91017142Y-157613571D02*
X90517142Y-156113571D01*
X90017142Y-157613571D01*
X89517142Y-156613571D02*
X89517142Y-158113571D01*
X89517142Y-156685000D02*
X89374285Y-156613571D01*
X89088571Y-156613571D01*
X88945714Y-156685000D01*
X88874285Y-156756428D01*
X88802857Y-156899285D01*
X88802857Y-157327857D01*
X88874285Y-157470714D01*
X88945714Y-157542142D01*
X89088571Y-157613571D01*
X89374285Y-157613571D01*
X89517142Y-157542142D01*
X88160000Y-157613571D02*
X88160000Y-156613571D01*
X88160000Y-156899285D02*
X88088571Y-156756428D01*
X88017142Y-156685000D01*
X87874285Y-156613571D01*
X87731428Y-156613571D01*
X87231428Y-157613571D02*
X87231428Y-156613571D01*
X87231428Y-156113571D02*
X87302857Y-156185000D01*
X87231428Y-156256428D01*
X87160000Y-156185000D01*
X87231428Y-156113571D01*
X87231428Y-156256428D01*
X86302857Y-157613571D02*
X86445714Y-157542142D01*
X86517142Y-157399285D01*
X86517142Y-156113571D01*
X84660000Y-156256428D02*
X84588571Y-156185000D01*
X84445714Y-156113571D01*
X84088571Y-156113571D01*
X83945714Y-156185000D01*
X83874285Y-156256428D01*
X83802857Y-156399285D01*
X83802857Y-156542142D01*
X83874285Y-156756428D01*
X84731428Y-157613571D01*
X83802857Y-157613571D01*
X83231428Y-156256428D02*
X83160000Y-156185000D01*
X83017142Y-156113571D01*
X82660000Y-156113571D01*
X82517142Y-156185000D01*
X82445714Y-156256428D01*
X82374285Y-156399285D01*
X82374285Y-156542142D01*
X82445714Y-156756428D01*
X83302857Y-157613571D01*
X82374285Y-157613571D01*
X81660000Y-157542142D02*
X81660000Y-157613571D01*
X81731428Y-157756428D01*
X81802857Y-157827857D01*
X79945714Y-156256428D02*
X79874285Y-156185000D01*
X79731428Y-156113571D01*
X79374285Y-156113571D01*
X79231428Y-156185000D01*
X79160000Y-156256428D01*
X79088571Y-156399285D01*
X79088571Y-156542142D01*
X79160000Y-156756428D01*
X80017142Y-157613571D01*
X79088571Y-157613571D01*
X78160000Y-156113571D02*
X78017142Y-156113571D01*
X77874285Y-156185000D01*
X77802857Y-156256428D01*
X77731428Y-156399285D01*
X77660000Y-156685000D01*
X77660000Y-157042142D01*
X77731428Y-157327857D01*
X77802857Y-157470714D01*
X77874285Y-157542142D01*
X78017142Y-157613571D01*
X78160000Y-157613571D01*
X78302857Y-157542142D01*
X78374285Y-157470714D01*
X78445714Y-157327857D01*
X78517142Y-157042142D01*
X78517142Y-156685000D01*
X78445714Y-156399285D01*
X78374285Y-156256428D01*
X78302857Y-156185000D01*
X78160000Y-156113571D01*
X76231428Y-157613571D02*
X77088571Y-157613571D01*
X76660000Y-157613571D02*
X76660000Y-156113571D01*
X76802857Y-156327857D01*
X76945714Y-156470714D01*
X77088571Y-156542142D01*
X75517142Y-157613571D02*
X75231428Y-157613571D01*
X75088571Y-157542142D01*
X75017142Y-157470714D01*
X74874285Y-157256428D01*
X74802857Y-156970714D01*
X74802857Y-156399285D01*
X74874285Y-156256428D01*
X74945714Y-156185000D01*
X75088571Y-156113571D01*
X75374285Y-156113571D01*
X75517142Y-156185000D01*
X75588571Y-156256428D01*
X75660000Y-156399285D01*
X75660000Y-156756428D01*
X75588571Y-156899285D01*
X75517142Y-156970714D01*
X75374285Y-157042142D01*
X75088571Y-157042142D01*
X74945714Y-156970714D01*
X74874285Y-156899285D01*
X74802857Y-156756428D01*
D10*
X48160000Y-162160000D02*
X48160000Y-46160000D01*
X150160000Y-162160000D02*
X48160000Y-162160000D01*
X150160000Y-46160000D02*
X150160000Y-162160000D01*
X48160000Y-46160000D02*
X150160000Y-46160000D01*
D12*
X124890000Y-70030000D03*
D13*
X127430000Y-70030000D03*
X127430000Y-75110000D03*
X124890000Y-82730000D03*
X127430000Y-82730000D03*
X124890000Y-85270000D03*
X127430000Y-85270000D03*
X124890000Y-92890000D03*
X124890000Y-95430000D03*
X124890000Y-97970000D03*
X127430000Y-97970000D03*
X124890000Y-118290000D03*
X127430000Y-118290000D03*
D14*
X141780000Y-111160000D03*
X134160000Y-118780000D03*
X141780000Y-113700000D03*
X134160000Y-116240000D03*
X141780000Y-116240000D03*
X134160000Y-113700000D03*
X141780000Y-118780000D03*
D15*
X134160000Y-111160000D03*
D16*
X137160000Y-59160000D03*
D17*
X137160000Y-57160000D03*
D16*
X137160000Y-61160000D03*
X106400000Y-55050000D03*
X106400000Y-63940000D03*
X86080000Y-55050000D03*
X86080000Y-63940000D03*
X68620000Y-98910000D03*
X73700000Y-98910000D03*
D18*
X92160000Y-80660000D03*
D15*
X92160000Y-83160000D03*
D14*
X73560000Y-86800000D03*
X81180000Y-79180000D03*
X73560000Y-84260000D03*
X81180000Y-81720000D03*
X73560000Y-81720000D03*
X81180000Y-84260000D03*
X73560000Y-79180000D03*
D15*
X81180000Y-86800000D03*
D14*
X140780000Y-138160000D03*
X133160000Y-145780000D03*
X140780000Y-140700000D03*
X133160000Y-143240000D03*
X140780000Y-143240000D03*
X133160000Y-140700000D03*
X140780000Y-145780000D03*
D15*
X133160000Y-138160000D03*
D18*
X94160000Y-114660000D03*
D15*
X94160000Y-117160000D03*
D18*
X72250000Y-129980000D03*
D15*
X69750000Y-129980000D03*
D18*
X111660000Y-107200000D03*
D15*
X111660000Y-109700000D03*
D18*
X106660000Y-117160000D03*
D15*
X109160000Y-117160000D03*
D18*
X125660000Y-55160000D03*
D15*
X123160000Y-55160000D03*
D14*
X133540000Y-101160000D03*
X141160000Y-83380000D03*
X133540000Y-98620000D03*
X141160000Y-85920000D03*
X133540000Y-96080000D03*
X141160000Y-88460000D03*
X133540000Y-93540000D03*
X141160000Y-91000000D03*
X133540000Y-91000000D03*
X141160000Y-93540000D03*
X133540000Y-88460000D03*
X141160000Y-96080000D03*
X133540000Y-85920000D03*
X141160000Y-98620000D03*
X133540000Y-83380000D03*
D15*
X141160000Y-101160000D03*
D16*
X68480000Y-112200000D03*
X73560000Y-112200000D03*
X111620000Y-55160000D03*
X116700000Y-55160000D03*
X68620000Y-93910000D03*
X73700000Y-93910000D03*
X69620000Y-58860000D03*
X74700000Y-58860000D03*
X68480000Y-107120000D03*
X73560000Y-107120000D03*
X67920000Y-72160000D03*
X98400000Y-72160000D03*
X137160000Y-77780000D03*
X137160000Y-65080000D03*
X115470000Y-70290000D03*
X115470000Y-82990000D03*
X105780000Y-96160000D03*
X93080000Y-96160000D03*
X86540000Y-128160000D03*
X99240000Y-128160000D03*
X76100000Y-147760000D03*
X88800000Y-147760000D03*
X111660000Y-145220000D03*
X124360000Y-145220000D03*
X140780000Y-129160000D03*
X128080000Y-129160000D03*
X91540000Y-105160000D03*
X104240000Y-105160000D03*
X105780000Y-89160000D03*
X93080000Y-89160000D03*
X116780000Y-128160000D03*
X104080000Y-128160000D03*
D19*
X83720000Y-112200000D03*
D20*
X78640000Y-107120000D03*
X83720000Y-107120000D03*
X78640000Y-112200000D03*
D19*
X83720000Y-98865000D03*
D20*
X78640000Y-93785000D03*
X83720000Y-93785000D03*
X78640000Y-98865000D03*
D21*
X62130000Y-63940000D03*
D22*
X62130000Y-58860000D03*
D21*
X62130000Y-75370000D03*
D22*
X62130000Y-70290000D03*
D21*
X62130000Y-86800000D03*
D22*
X62130000Y-81720000D03*
D21*
X62130000Y-98865000D03*
D22*
X62130000Y-93785000D03*
D21*
X62130000Y-122360000D03*
D22*
X62130000Y-117280000D03*
D21*
X62130000Y-149030000D03*
X62130000Y-143950000D03*
D22*
X62130000Y-138870000D03*
D14*
X104040000Y-140140000D03*
X96420000Y-147760000D03*
X104040000Y-142680000D03*
X96420000Y-145220000D03*
X104040000Y-145220000D03*
X96420000Y-142680000D03*
X104040000Y-147760000D03*
D15*
X96420000Y-140140000D03*
D23*
X137160000Y-77780000D02*
X138249400Y-76690600D01*
X138249400Y-76690600D02*
X138249400Y-60249400D01*
X138249400Y-60249400D02*
X137160000Y-59160000D01*
D24*
X127430000Y-75110000D02*
X126254700Y-75110000D01*
D23*
X126254700Y-75110000D02*
X126254700Y-74742600D01*
D24*
X126254700Y-74742600D02*
X125446800Y-73934700D01*
X125446800Y-73934700D02*
X119114700Y-73934700D01*
X119114700Y-73934700D02*
X115470000Y-70290000D01*
X115470000Y-70290000D02*
X109120000Y-63940000D01*
X109120000Y-63940000D02*
X106400000Y-63940000D01*
X73560000Y-79180000D02*
X74685300Y-79180000D01*
D23*
X106660000Y-117160000D02*
X104160000Y-114660000D01*
X104160000Y-114660000D02*
X94160000Y-114660000D01*
X96420000Y-140140000D02*
X97545300Y-140140000D01*
X133160000Y-140700000D02*
X132034700Y-140700000D01*
X132034700Y-140700000D02*
X130349400Y-139014700D01*
X130349400Y-139014700D02*
X98670600Y-139014700D01*
X98670600Y-139014700D02*
X97545300Y-140140000D01*
X62130000Y-138870000D02*
X63955300Y-138870000D01*
X63955300Y-138870000D02*
X63955300Y-138274700D01*
X63955300Y-138274700D02*
X72250000Y-129980000D01*
D25*
X93570000Y-75590000D02*
X101010000Y-75590000D01*
X101010000Y-69330000D02*
X106400000Y-63940000D01*
X101010000Y-75590000D02*
X101010000Y-69330000D01*
X74685300Y-79180000D02*
X78260000Y-79180000D01*
X80430000Y-77010000D02*
X92150000Y-77010000D01*
X78260000Y-79180000D02*
X80430000Y-77010000D01*
X92150000Y-77010000D02*
X93570000Y-75590000D01*
D23*
X81180000Y-83134700D02*
X81180000Y-84260000D01*
X80898600Y-83134700D02*
X81180000Y-83134700D01*
X78260000Y-79180000D02*
X78260000Y-80496100D01*
X78260000Y-80496100D02*
X80898600Y-83134700D01*
X131660000Y-61160000D02*
X137160000Y-61160000D01*
X125660000Y-55160000D02*
X131660000Y-61160000D01*
D25*
X64230300Y-81720000D02*
X70820400Y-75129900D01*
X70820400Y-75129900D02*
X91758000Y-75129900D01*
X91758000Y-75129900D02*
X107381700Y-59506200D01*
X107381700Y-59506200D02*
X112353800Y-59506200D01*
X112353800Y-59506200D02*
X116700000Y-55160000D01*
X62130000Y-81720000D02*
X64230300Y-81720000D01*
D23*
X96420000Y-142680000D02*
X81180000Y-142680000D01*
X81180000Y-142680000D02*
X76100000Y-147760000D01*
X104040000Y-142680000D02*
X102914700Y-142680000D01*
X86540000Y-128160000D02*
X86540000Y-132381100D01*
X86540000Y-132381100D02*
X95713600Y-141554700D01*
X95713600Y-141554700D02*
X101789400Y-141554700D01*
X101789400Y-141554700D02*
X102914700Y-142680000D01*
X96420000Y-145220000D02*
X97545300Y-145220000D01*
X111660000Y-145220000D02*
X110534700Y-146345300D01*
X110534700Y-146345300D02*
X98670600Y-146345300D01*
X98670600Y-146345300D02*
X97545300Y-145220000D01*
X140780000Y-140700000D02*
X139654700Y-140700000D01*
X104040000Y-140140000D02*
X105165300Y-140140000D01*
X105165300Y-140140000D02*
X106850600Y-141825300D01*
X106850600Y-141825300D02*
X138529400Y-141825300D01*
X138529400Y-141825300D02*
X139654700Y-140700000D01*
X88800000Y-147760000D02*
X96420000Y-147760000D01*
X133160000Y-143240000D02*
X132034700Y-143240000D01*
X124360000Y-145220000D02*
X130054700Y-145220000D01*
X130054700Y-145220000D02*
X132034700Y-143240000D01*
X111660000Y-109700000D02*
X110534700Y-109700000D01*
X104240000Y-105160000D02*
X105994700Y-105160000D01*
X105994700Y-105160000D02*
X110534700Y-109700000D01*
X111660000Y-109700000D02*
X112785300Y-109700000D01*
X134160000Y-111160000D02*
X133034700Y-111160000D01*
X133034700Y-111160000D02*
X131349700Y-109475000D01*
X131349700Y-109475000D02*
X113010300Y-109475000D01*
X113010300Y-109475000D02*
X112785300Y-109700000D01*
X83720000Y-107120000D02*
X83720000Y-105520000D01*
X83720000Y-105520000D02*
X93080000Y-96160000D01*
X134160000Y-113700000D02*
X134160000Y-112574700D01*
X134160000Y-112574700D02*
X134863300Y-112574700D01*
X134863300Y-112574700D02*
X135285400Y-112152600D01*
X135285400Y-112152600D02*
X135285400Y-110223000D01*
X135285400Y-110223000D02*
X132007400Y-106945000D01*
X132007400Y-106945000D02*
X111915000Y-106945000D01*
X111915000Y-106945000D02*
X111660000Y-107200000D01*
X141160000Y-98620000D02*
X141160000Y-97494700D01*
X115470000Y-82990000D02*
X116574600Y-84094600D01*
X116574600Y-84094600D02*
X125415600Y-84094600D01*
X125415600Y-84094600D02*
X126254600Y-84933600D01*
X126254600Y-84933600D02*
X126254600Y-85795600D01*
X126254600Y-85795600D02*
X126999000Y-86540000D01*
X126999000Y-86540000D02*
X132359800Y-86540000D01*
X132359800Y-86540000D02*
X133009800Y-87190000D01*
X133009800Y-87190000D02*
X133941100Y-87190000D01*
X133941100Y-87190000D02*
X137350000Y-90598900D01*
X137350000Y-90598900D02*
X137350000Y-93966000D01*
X137350000Y-93966000D02*
X140878700Y-97494700D01*
X140878700Y-97494700D02*
X141160000Y-97494700D01*
X133540000Y-101160000D02*
X133540000Y-102285300D01*
X133540000Y-102285300D02*
X140654700Y-109400000D01*
X140654700Y-109400000D02*
X140654700Y-111160000D01*
X141780000Y-111160000D02*
X140654700Y-111160000D01*
X136844700Y-114970000D02*
X140654700Y-111160000D01*
X132469500Y-114970000D02*
X136844700Y-114970000D01*
X62130000Y-149030000D02*
X90418400Y-120741600D01*
X91160000Y-119910000D02*
X130160000Y-119910000D01*
X130160000Y-119910000D02*
X132469500Y-117600500D01*
X132469500Y-117600500D02*
X132469500Y-114970000D01*
X91160000Y-120000000D02*
X90418400Y-120741600D01*
X91160000Y-119910000D02*
X91160000Y-120000000D01*
D24*
X62130000Y-86800000D02*
X73560000Y-86800000D01*
D23*
X123160000Y-55160000D02*
X124285300Y-55160000D01*
X137160000Y-65080000D02*
X133924000Y-65080000D01*
X133924000Y-65080000D02*
X124285300Y-55441300D01*
X124285300Y-55441300D02*
X124285300Y-55160000D01*
X62130000Y-143950000D02*
X120810000Y-85270000D01*
X120810000Y-85270000D02*
X124890000Y-85270000D01*
X78595000Y-98910000D02*
X78640000Y-98865000D01*
X73700000Y-98910000D02*
X78595000Y-98910000D01*
X68495000Y-93785000D02*
X68620000Y-93910000D01*
X62130000Y-93785000D02*
X68495000Y-93785000D01*
D25*
X62130000Y-70290000D02*
X66050000Y-70290000D01*
X66050000Y-70290000D02*
X67920000Y-72160000D01*
X62130000Y-58860000D02*
X69620000Y-58860000D01*
D23*
X127430000Y-82730000D02*
X128605300Y-82730000D01*
X140780000Y-129160000D02*
X142926300Y-127013700D01*
X142926300Y-127013700D02*
X142926300Y-96189700D01*
X142926300Y-96189700D02*
X141546600Y-94810000D01*
X141546600Y-94810000D02*
X140790600Y-94810000D01*
X140790600Y-94810000D02*
X140034700Y-94054100D01*
X140034700Y-94054100D02*
X140034700Y-90822300D01*
X140034700Y-90822300D02*
X134007000Y-84794600D01*
X134007000Y-84794600D02*
X130669900Y-84794600D01*
X130669900Y-84794600D02*
X128605300Y-82730000D01*
D25*
X86080000Y-55050000D02*
X78510000Y-55050000D01*
X78510000Y-55050000D02*
X74700000Y-58860000D01*
D23*
X83720000Y-112200000D02*
X85045300Y-112200000D01*
X85045300Y-112200000D02*
X85045300Y-111654700D01*
X85045300Y-111654700D02*
X91540000Y-105160000D01*
X92160000Y-83160000D02*
X92160000Y-84560300D01*
X95025300Y-89160000D02*
X105780000Y-89160000D01*
X85320300Y-98865000D02*
X95025300Y-89160000D01*
X95025300Y-89160000D02*
X95025300Y-87425600D01*
X95025300Y-87425600D02*
X92160000Y-84560300D01*
X83720000Y-98865000D02*
X85320300Y-98865000D01*
X124890000Y-92890000D02*
X126065300Y-92890000D01*
X133540000Y-88460000D02*
X132414700Y-88460000D01*
X132414700Y-88460000D02*
X129160000Y-91714700D01*
X129160000Y-91714700D02*
X126873200Y-91714700D01*
X126873200Y-91714700D02*
X126065300Y-92522600D01*
X126065300Y-92522600D02*
X126065300Y-92890000D01*
X124890000Y-95430000D02*
X126065300Y-95430000D01*
X133540000Y-91000000D02*
X132414700Y-91000000D01*
X132414700Y-91000000D02*
X129160000Y-94254700D01*
X129160000Y-94254700D02*
X126873200Y-94254700D01*
X126873200Y-94254700D02*
X126065300Y-95062600D01*
X126065300Y-95062600D02*
X126065300Y-95430000D01*
X124890000Y-97970000D02*
X126065300Y-97970000D01*
X133540000Y-93540000D02*
X132414700Y-93540000D01*
X132414700Y-93540000D02*
X129160000Y-96794700D01*
X129160000Y-96794700D02*
X126873200Y-96794700D01*
X126873200Y-96794700D02*
X126065300Y-97602600D01*
X126065300Y-97602600D02*
X126065300Y-97970000D01*
X78640000Y-112200000D02*
X73560000Y-112200000D01*
X78640000Y-107120000D02*
X73560000Y-107120000D01*
X78515000Y-93910000D02*
X78640000Y-93785000D01*
X73700000Y-93910000D02*
X78515000Y-93910000D01*
X86080000Y-63940000D02*
X85622300Y-63482300D01*
X62587700Y-63482300D02*
X62130000Y-63940000D01*
D25*
X106400000Y-55050000D02*
X111510000Y-55050000D01*
X111510000Y-55050000D02*
X111620000Y-55160000D01*
D23*
X62130000Y-98865000D02*
X62756500Y-98238500D01*
X68575000Y-98865000D02*
X68620000Y-98910000D01*
X62130000Y-98865000D02*
X68575000Y-98865000D01*
X81180000Y-81720000D02*
X82305300Y-81720000D01*
X93080000Y-89160000D02*
X89745300Y-89160000D01*
X89745300Y-89160000D02*
X82305300Y-81720000D01*
M02*
