%TF.GenerationSoftware,KiCad,Pcbnew,(5.1.0)-1*%
%TF.CreationDate,2019-04-24T14:24:48-04:00*%
%TF.ProjectId,SGschematic,53477363-6865-46d6-9174-69632e6b6963,rev?*%
%TF.SameCoordinates,Original*%
%TF.FileFunction,Legend,Top*%
%TF.FilePolarity,Positive*%
%FSLAX46Y46*%
G04 Gerber Fmt 4.6, Leading zero omitted, Abs format (unit mm)*
G04 Created by KiCad (PCBNEW (5.1.0)-1) date 2019-04-24 14:24:48*
%MOMM*%
%LPD*%
G04 APERTURE LIST*
%ADD10C,0.150000*%
%ADD11C,0.120000*%
G04 APERTURE END LIST*
D10*
X44076666Y-165160000D02*
G75*
G03X44076666Y-165160000I-1666666J0D01*
G01*
X39910000Y-165160000D02*
X44910000Y-165160000D01*
X42410000Y-162660000D02*
X42410000Y-167660000D01*
X46576666Y-43910000D02*
G75*
G03X46576666Y-43910000I-1666666J0D01*
G01*
X42410000Y-43910000D02*
X47410000Y-43910000D01*
X44910000Y-41410000D02*
X44910000Y-46410000D01*
X154576666Y-43410000D02*
G75*
G03X154576666Y-43410000I-1666666J0D01*
G01*
X150410000Y-43410000D02*
X155410000Y-43410000D01*
X152910000Y-40910000D02*
X152910000Y-45910000D01*
X154576666Y-164660000D02*
G75*
G03X154576666Y-164660000I-1666666J0D01*
G01*
X150410000Y-164660000D02*
X155410000Y-164660000D01*
X152910000Y-162160000D02*
X152910000Y-167160000D01*
X95707619Y-153739761D02*
X95850476Y-153787380D01*
X96088571Y-153787380D01*
X96183809Y-153739761D01*
X96231428Y-153692142D01*
X96279047Y-153596904D01*
X96279047Y-153501666D01*
X96231428Y-153406428D01*
X96183809Y-153358809D01*
X96088571Y-153311190D01*
X95898095Y-153263571D01*
X95802857Y-153215952D01*
X95755238Y-153168333D01*
X95707619Y-153073095D01*
X95707619Y-152977857D01*
X95755238Y-152882619D01*
X95802857Y-152835000D01*
X95898095Y-152787380D01*
X96136190Y-152787380D01*
X96279047Y-152835000D01*
X96564761Y-153120714D02*
X96945714Y-153120714D01*
X96707619Y-152787380D02*
X96707619Y-153644523D01*
X96755238Y-153739761D01*
X96850476Y-153787380D01*
X96945714Y-153787380D01*
X97660000Y-153739761D02*
X97564761Y-153787380D01*
X97374285Y-153787380D01*
X97279047Y-153739761D01*
X97231428Y-153644523D01*
X97231428Y-153263571D01*
X97279047Y-153168333D01*
X97374285Y-153120714D01*
X97564761Y-153120714D01*
X97660000Y-153168333D01*
X97707619Y-153263571D01*
X97707619Y-153358809D01*
X97231428Y-153454047D01*
X98564761Y-153787380D02*
X98564761Y-153263571D01*
X98517142Y-153168333D01*
X98421904Y-153120714D01*
X98231428Y-153120714D01*
X98136190Y-153168333D01*
X98564761Y-153739761D02*
X98469523Y-153787380D01*
X98231428Y-153787380D01*
X98136190Y-153739761D01*
X98088571Y-153644523D01*
X98088571Y-153549285D01*
X98136190Y-153454047D01*
X98231428Y-153406428D01*
X98469523Y-153406428D01*
X98564761Y-153358809D01*
X99040952Y-153787380D02*
X99040952Y-153120714D01*
X99040952Y-153215952D02*
X99088571Y-153168333D01*
X99183809Y-153120714D01*
X99326666Y-153120714D01*
X99421904Y-153168333D01*
X99469523Y-153263571D01*
X99469523Y-153787380D01*
X99469523Y-153263571D02*
X99517142Y-153168333D01*
X99612380Y-153120714D01*
X99755238Y-153120714D01*
X99850476Y-153168333D01*
X99898095Y-153263571D01*
X99898095Y-153787380D01*
X101660000Y-152835000D02*
X101564761Y-152787380D01*
X101421904Y-152787380D01*
X101279047Y-152835000D01*
X101183809Y-152930238D01*
X101136190Y-153025476D01*
X101088571Y-153215952D01*
X101088571Y-153358809D01*
X101136190Y-153549285D01*
X101183809Y-153644523D01*
X101279047Y-153739761D01*
X101421904Y-153787380D01*
X101517142Y-153787380D01*
X101660000Y-153739761D01*
X101707619Y-153692142D01*
X101707619Y-153358809D01*
X101517142Y-153358809D01*
X102517142Y-153739761D02*
X102421904Y-153787380D01*
X102231428Y-153787380D01*
X102136190Y-153739761D01*
X102088571Y-153644523D01*
X102088571Y-153263571D01*
X102136190Y-153168333D01*
X102231428Y-153120714D01*
X102421904Y-153120714D01*
X102517142Y-153168333D01*
X102564761Y-153263571D01*
X102564761Y-153358809D01*
X102088571Y-153454047D01*
X102993333Y-153120714D02*
X102993333Y-153787380D01*
X102993333Y-153215952D02*
X103040952Y-153168333D01*
X103136190Y-153120714D01*
X103279047Y-153120714D01*
X103374285Y-153168333D01*
X103421904Y-153263571D01*
X103421904Y-153787380D01*
X104279047Y-153739761D02*
X104183809Y-153787380D01*
X103993333Y-153787380D01*
X103898095Y-153739761D01*
X103850476Y-153644523D01*
X103850476Y-153263571D01*
X103898095Y-153168333D01*
X103993333Y-153120714D01*
X104183809Y-153120714D01*
X104279047Y-153168333D01*
X104326666Y-153263571D01*
X104326666Y-153358809D01*
X103850476Y-153454047D01*
X104755238Y-153787380D02*
X104755238Y-153120714D01*
X104755238Y-153311190D02*
X104802857Y-153215952D01*
X104850476Y-153168333D01*
X104945714Y-153120714D01*
X105040952Y-153120714D01*
X105802857Y-153787380D02*
X105802857Y-153263571D01*
X105755238Y-153168333D01*
X105660000Y-153120714D01*
X105469523Y-153120714D01*
X105374285Y-153168333D01*
X105802857Y-153739761D02*
X105707619Y-153787380D01*
X105469523Y-153787380D01*
X105374285Y-153739761D01*
X105326666Y-153644523D01*
X105326666Y-153549285D01*
X105374285Y-153454047D01*
X105469523Y-153406428D01*
X105707619Y-153406428D01*
X105802857Y-153358809D01*
X106136190Y-153120714D02*
X106517142Y-153120714D01*
X106279047Y-152787380D02*
X106279047Y-153644523D01*
X106326666Y-153739761D01*
X106421904Y-153787380D01*
X106517142Y-153787380D01*
X106850476Y-153787380D02*
X106850476Y-153120714D01*
X106850476Y-152787380D02*
X106802857Y-152835000D01*
X106850476Y-152882619D01*
X106898095Y-152835000D01*
X106850476Y-152787380D01*
X106850476Y-152882619D01*
X107326666Y-153120714D02*
X107326666Y-153787380D01*
X107326666Y-153215952D02*
X107374285Y-153168333D01*
X107469523Y-153120714D01*
X107612380Y-153120714D01*
X107707619Y-153168333D01*
X107755238Y-153263571D01*
X107755238Y-153787380D01*
X108660000Y-153120714D02*
X108660000Y-153930238D01*
X108612380Y-154025476D01*
X108564761Y-154073095D01*
X108469523Y-154120714D01*
X108326666Y-154120714D01*
X108231428Y-154073095D01*
X108660000Y-153739761D02*
X108564761Y-153787380D01*
X108374285Y-153787380D01*
X108279047Y-153739761D01*
X108231428Y-153692142D01*
X108183809Y-153596904D01*
X108183809Y-153311190D01*
X108231428Y-153215952D01*
X108279047Y-153168333D01*
X108374285Y-153120714D01*
X108564761Y-153120714D01*
X108660000Y-153168333D01*
X109898095Y-153787380D02*
X109898095Y-152787380D01*
X109898095Y-153263571D02*
X110469523Y-153263571D01*
X110469523Y-153787380D02*
X110469523Y-152787380D01*
X111374285Y-153120714D02*
X111374285Y-153787380D01*
X110945714Y-153120714D02*
X110945714Y-153644523D01*
X110993333Y-153739761D01*
X111088571Y-153787380D01*
X111231428Y-153787380D01*
X111326666Y-153739761D01*
X111374285Y-153692142D01*
X111850476Y-153787380D02*
X111850476Y-153120714D01*
X111850476Y-153215952D02*
X111898095Y-153168333D01*
X111993333Y-153120714D01*
X112136190Y-153120714D01*
X112231428Y-153168333D01*
X112279047Y-153263571D01*
X112279047Y-153787380D01*
X112279047Y-153263571D02*
X112326666Y-153168333D01*
X112421904Y-153120714D01*
X112564761Y-153120714D01*
X112660000Y-153168333D01*
X112707619Y-153263571D01*
X112707619Y-153787380D01*
X113183809Y-153787380D02*
X113183809Y-153120714D01*
X113183809Y-152787380D02*
X113136190Y-152835000D01*
X113183809Y-152882619D01*
X113231428Y-152835000D01*
X113183809Y-152787380D01*
X113183809Y-152882619D01*
X114088571Y-153787380D02*
X114088571Y-152787380D01*
X114088571Y-153739761D02*
X113993333Y-153787380D01*
X113802857Y-153787380D01*
X113707619Y-153739761D01*
X113660000Y-153692142D01*
X113612380Y-153596904D01*
X113612380Y-153311190D01*
X113660000Y-153215952D01*
X113707619Y-153168333D01*
X113802857Y-153120714D01*
X113993333Y-153120714D01*
X114088571Y-153168333D01*
X114564761Y-153787380D02*
X114564761Y-153120714D01*
X114564761Y-152787380D02*
X114517142Y-152835000D01*
X114564761Y-152882619D01*
X114612380Y-152835000D01*
X114564761Y-152787380D01*
X114564761Y-152882619D01*
X114898095Y-153120714D02*
X115279047Y-153120714D01*
X115040952Y-153787380D02*
X115040952Y-152930238D01*
X115088571Y-152835000D01*
X115183809Y-152787380D01*
X115279047Y-152787380D01*
X115612380Y-153787380D02*
X115612380Y-153120714D01*
X115612380Y-152787380D02*
X115564761Y-152835000D01*
X115612380Y-152882619D01*
X115660000Y-152835000D01*
X115612380Y-152787380D01*
X115612380Y-152882619D01*
X116469523Y-153739761D02*
X116374285Y-153787380D01*
X116183809Y-153787380D01*
X116088571Y-153739761D01*
X116040952Y-153644523D01*
X116040952Y-153263571D01*
X116088571Y-153168333D01*
X116183809Y-153120714D01*
X116374285Y-153120714D01*
X116469523Y-153168333D01*
X116517142Y-153263571D01*
X116517142Y-153358809D01*
X116040952Y-153454047D01*
X116945714Y-153787380D02*
X116945714Y-153120714D01*
X116945714Y-153311190D02*
X116993333Y-153215952D01*
X117040952Y-153168333D01*
X117136190Y-153120714D01*
X117231428Y-153120714D01*
X93969523Y-154913571D02*
X94112380Y-154961190D01*
X94160000Y-155008809D01*
X94207619Y-155104047D01*
X94207619Y-155246904D01*
X94160000Y-155342142D01*
X94112380Y-155389761D01*
X94017142Y-155437380D01*
X93636190Y-155437380D01*
X93636190Y-154437380D01*
X93969523Y-154437380D01*
X94064761Y-154485000D01*
X94112380Y-154532619D01*
X94160000Y-154627857D01*
X94160000Y-154723095D01*
X94112380Y-154818333D01*
X94064761Y-154865952D01*
X93969523Y-154913571D01*
X93636190Y-154913571D01*
X94540952Y-154770714D02*
X94779047Y-155437380D01*
X95017142Y-154770714D02*
X94779047Y-155437380D01*
X94683809Y-155675476D01*
X94636190Y-155723095D01*
X94540952Y-155770714D01*
X96636190Y-155437380D02*
X96160000Y-155437380D01*
X96160000Y-154437380D01*
X97398095Y-155437380D02*
X97398095Y-154913571D01*
X97350476Y-154818333D01*
X97255238Y-154770714D01*
X97064761Y-154770714D01*
X96969523Y-154818333D01*
X97398095Y-155389761D02*
X97302857Y-155437380D01*
X97064761Y-155437380D01*
X96969523Y-155389761D01*
X96921904Y-155294523D01*
X96921904Y-155199285D01*
X96969523Y-155104047D01*
X97064761Y-155056428D01*
X97302857Y-155056428D01*
X97398095Y-155008809D01*
X97874285Y-155437380D02*
X97874285Y-154770714D01*
X97874285Y-154961190D02*
X97921904Y-154865952D01*
X97969523Y-154818333D01*
X98064761Y-154770714D01*
X98160000Y-154770714D01*
X98493333Y-155437380D02*
X98493333Y-154770714D01*
X98493333Y-154961190D02*
X98540952Y-154865952D01*
X98588571Y-154818333D01*
X98683809Y-154770714D01*
X98779047Y-154770714D01*
X99017142Y-154770714D02*
X99255238Y-155437380D01*
X99493333Y-154770714D02*
X99255238Y-155437380D01*
X99160000Y-155675476D01*
X99112380Y-155723095D01*
X99017142Y-155770714D01*
X101160000Y-154485000D02*
X101064761Y-154437380D01*
X100921904Y-154437380D01*
X100779047Y-154485000D01*
X100683809Y-154580238D01*
X100636190Y-154675476D01*
X100588571Y-154865952D01*
X100588571Y-155008809D01*
X100636190Y-155199285D01*
X100683809Y-155294523D01*
X100779047Y-155389761D01*
X100921904Y-155437380D01*
X101017142Y-155437380D01*
X101160000Y-155389761D01*
X101207619Y-155342142D01*
X101207619Y-155008809D01*
X101017142Y-155008809D01*
X101779047Y-155437380D02*
X101683809Y-155389761D01*
X101636190Y-155342142D01*
X101588571Y-155246904D01*
X101588571Y-154961190D01*
X101636190Y-154865952D01*
X101683809Y-154818333D01*
X101779047Y-154770714D01*
X101921904Y-154770714D01*
X102017142Y-154818333D01*
X102064761Y-154865952D01*
X102112380Y-154961190D01*
X102112380Y-155246904D01*
X102064761Y-155342142D01*
X102017142Y-155389761D01*
X101921904Y-155437380D01*
X101779047Y-155437380D01*
X102540952Y-155437380D02*
X102540952Y-154770714D01*
X102540952Y-154961190D02*
X102588571Y-154865952D01*
X102636190Y-154818333D01*
X102731428Y-154770714D01*
X102826666Y-154770714D01*
X103160000Y-155437380D02*
X103160000Y-154437380D01*
X103588571Y-155437380D02*
X103588571Y-154913571D01*
X103540952Y-154818333D01*
X103445714Y-154770714D01*
X103302857Y-154770714D01*
X103207619Y-154818333D01*
X103160000Y-154865952D01*
X104493333Y-155437380D02*
X104493333Y-154913571D01*
X104445714Y-154818333D01*
X104350476Y-154770714D01*
X104160000Y-154770714D01*
X104064761Y-154818333D01*
X104493333Y-155389761D02*
X104398095Y-155437380D01*
X104160000Y-155437380D01*
X104064761Y-155389761D01*
X104017142Y-155294523D01*
X104017142Y-155199285D01*
X104064761Y-155104047D01*
X104160000Y-155056428D01*
X104398095Y-155056428D01*
X104493333Y-155008809D01*
X104969523Y-155437380D02*
X104969523Y-154770714D01*
X104969523Y-154865952D02*
X105017142Y-154818333D01*
X105112380Y-154770714D01*
X105255238Y-154770714D01*
X105350476Y-154818333D01*
X105398095Y-154913571D01*
X105398095Y-155437380D01*
X105398095Y-154913571D02*
X105445714Y-154818333D01*
X105540952Y-154770714D01*
X105683809Y-154770714D01*
X105779047Y-154818333D01*
X105826666Y-154913571D01*
X105826666Y-155437380D01*
X107017142Y-155151666D02*
X107493333Y-155151666D01*
X106921904Y-155437380D02*
X107255238Y-154437380D01*
X107588571Y-155437380D01*
X107921904Y-154770714D02*
X107921904Y-155770714D01*
X107921904Y-154818333D02*
X108017142Y-154770714D01*
X108207619Y-154770714D01*
X108302857Y-154818333D01*
X108350476Y-154865952D01*
X108398095Y-154961190D01*
X108398095Y-155246904D01*
X108350476Y-155342142D01*
X108302857Y-155389761D01*
X108207619Y-155437380D01*
X108017142Y-155437380D01*
X107921904Y-155389761D01*
X108826666Y-155437380D02*
X108826666Y-154770714D01*
X108826666Y-154961190D02*
X108874285Y-154865952D01*
X108921904Y-154818333D01*
X109017142Y-154770714D01*
X109112380Y-154770714D01*
X109445714Y-155437380D02*
X109445714Y-154770714D01*
X109445714Y-154437380D02*
X109398095Y-154485000D01*
X109445714Y-154532619D01*
X109493333Y-154485000D01*
X109445714Y-154437380D01*
X109445714Y-154532619D01*
X110064761Y-155437380D02*
X109969523Y-155389761D01*
X109921904Y-155294523D01*
X109921904Y-154437380D01*
X111160000Y-154532619D02*
X111207619Y-154485000D01*
X111302857Y-154437380D01*
X111540952Y-154437380D01*
X111636190Y-154485000D01*
X111683809Y-154532619D01*
X111731428Y-154627857D01*
X111731428Y-154723095D01*
X111683809Y-154865952D01*
X111112380Y-155437380D01*
X111731428Y-155437380D01*
X112112380Y-154532619D02*
X112160000Y-154485000D01*
X112255238Y-154437380D01*
X112493333Y-154437380D01*
X112588571Y-154485000D01*
X112636190Y-154532619D01*
X112683809Y-154627857D01*
X112683809Y-154723095D01*
X112636190Y-154865952D01*
X112064761Y-155437380D01*
X112683809Y-155437380D01*
X113160000Y-155389761D02*
X113160000Y-155437380D01*
X113112380Y-155532619D01*
X113064761Y-155580238D01*
X114302857Y-154532619D02*
X114350476Y-154485000D01*
X114445714Y-154437380D01*
X114683809Y-154437380D01*
X114779047Y-154485000D01*
X114826666Y-154532619D01*
X114874285Y-154627857D01*
X114874285Y-154723095D01*
X114826666Y-154865952D01*
X114255238Y-155437380D01*
X114874285Y-155437380D01*
X115493333Y-154437380D02*
X115588571Y-154437380D01*
X115683809Y-154485000D01*
X115731428Y-154532619D01*
X115779047Y-154627857D01*
X115826666Y-154818333D01*
X115826666Y-155056428D01*
X115779047Y-155246904D01*
X115731428Y-155342142D01*
X115683809Y-155389761D01*
X115588571Y-155437380D01*
X115493333Y-155437380D01*
X115398095Y-155389761D01*
X115350476Y-155342142D01*
X115302857Y-155246904D01*
X115255238Y-155056428D01*
X115255238Y-154818333D01*
X115302857Y-154627857D01*
X115350476Y-154532619D01*
X115398095Y-154485000D01*
X115493333Y-154437380D01*
X116779047Y-155437380D02*
X116207619Y-155437380D01*
X116493333Y-155437380D02*
X116493333Y-154437380D01*
X116398095Y-154580238D01*
X116302857Y-154675476D01*
X116207619Y-154723095D01*
X117255238Y-155437380D02*
X117445714Y-155437380D01*
X117540952Y-155389761D01*
X117588571Y-155342142D01*
X117683809Y-155199285D01*
X117731428Y-155008809D01*
X117731428Y-154627857D01*
X117683809Y-154532619D01*
X117636190Y-154485000D01*
X117540952Y-154437380D01*
X117350476Y-154437380D01*
X117255238Y-154485000D01*
X117207619Y-154532619D01*
X117160000Y-154627857D01*
X117160000Y-154865952D01*
X117207619Y-154961190D01*
X117255238Y-155008809D01*
X117350476Y-155056428D01*
X117540952Y-155056428D01*
X117636190Y-155008809D01*
X117683809Y-154961190D01*
X117731428Y-154865952D01*
X87457619Y-154989761D02*
X87600476Y-155037380D01*
X87838571Y-155037380D01*
X87933809Y-154989761D01*
X87981428Y-154942142D01*
X88029047Y-154846904D01*
X88029047Y-154751666D01*
X87981428Y-154656428D01*
X87933809Y-154608809D01*
X87838571Y-154561190D01*
X87648095Y-154513571D01*
X87552857Y-154465952D01*
X87505238Y-154418333D01*
X87457619Y-154323095D01*
X87457619Y-154227857D01*
X87505238Y-154132619D01*
X87552857Y-154085000D01*
X87648095Y-154037380D01*
X87886190Y-154037380D01*
X88029047Y-154085000D01*
X88314761Y-154370714D02*
X88695714Y-154370714D01*
X88457619Y-154037380D02*
X88457619Y-154894523D01*
X88505238Y-154989761D01*
X88600476Y-155037380D01*
X88695714Y-155037380D01*
X89410000Y-154989761D02*
X89314761Y-155037380D01*
X89124285Y-155037380D01*
X89029047Y-154989761D01*
X88981428Y-154894523D01*
X88981428Y-154513571D01*
X89029047Y-154418333D01*
X89124285Y-154370714D01*
X89314761Y-154370714D01*
X89410000Y-154418333D01*
X89457619Y-154513571D01*
X89457619Y-154608809D01*
X88981428Y-154704047D01*
X90314761Y-155037380D02*
X90314761Y-154513571D01*
X90267142Y-154418333D01*
X90171904Y-154370714D01*
X89981428Y-154370714D01*
X89886190Y-154418333D01*
X90314761Y-154989761D02*
X90219523Y-155037380D01*
X89981428Y-155037380D01*
X89886190Y-154989761D01*
X89838571Y-154894523D01*
X89838571Y-154799285D01*
X89886190Y-154704047D01*
X89981428Y-154656428D01*
X90219523Y-154656428D01*
X90314761Y-154608809D01*
X90790952Y-155037380D02*
X90790952Y-154370714D01*
X90790952Y-154465952D02*
X90838571Y-154418333D01*
X90933809Y-154370714D01*
X91076666Y-154370714D01*
X91171904Y-154418333D01*
X91219523Y-154513571D01*
X91219523Y-155037380D01*
X91219523Y-154513571D02*
X91267142Y-154418333D01*
X91362380Y-154370714D01*
X91505238Y-154370714D01*
X91600476Y-154418333D01*
X91648095Y-154513571D01*
X91648095Y-155037380D01*
X93410000Y-154085000D02*
X93314761Y-154037380D01*
X93171904Y-154037380D01*
X93029047Y-154085000D01*
X92933809Y-154180238D01*
X92886190Y-154275476D01*
X92838571Y-154465952D01*
X92838571Y-154608809D01*
X92886190Y-154799285D01*
X92933809Y-154894523D01*
X93029047Y-154989761D01*
X93171904Y-155037380D01*
X93267142Y-155037380D01*
X93410000Y-154989761D01*
X93457619Y-154942142D01*
X93457619Y-154608809D01*
X93267142Y-154608809D01*
X94267142Y-154989761D02*
X94171904Y-155037380D01*
X93981428Y-155037380D01*
X93886190Y-154989761D01*
X93838571Y-154894523D01*
X93838571Y-154513571D01*
X93886190Y-154418333D01*
X93981428Y-154370714D01*
X94171904Y-154370714D01*
X94267142Y-154418333D01*
X94314761Y-154513571D01*
X94314761Y-154608809D01*
X93838571Y-154704047D01*
X94743333Y-154370714D02*
X94743333Y-155037380D01*
X94743333Y-154465952D02*
X94790952Y-154418333D01*
X94886190Y-154370714D01*
X95029047Y-154370714D01*
X95124285Y-154418333D01*
X95171904Y-154513571D01*
X95171904Y-155037380D01*
X96029047Y-154989761D02*
X95933809Y-155037380D01*
X95743333Y-155037380D01*
X95648095Y-154989761D01*
X95600476Y-154894523D01*
X95600476Y-154513571D01*
X95648095Y-154418333D01*
X95743333Y-154370714D01*
X95933809Y-154370714D01*
X96029047Y-154418333D01*
X96076666Y-154513571D01*
X96076666Y-154608809D01*
X95600476Y-154704047D01*
X96505238Y-155037380D02*
X96505238Y-154370714D01*
X96505238Y-154561190D02*
X96552857Y-154465952D01*
X96600476Y-154418333D01*
X96695714Y-154370714D01*
X96790952Y-154370714D01*
X97552857Y-155037380D02*
X97552857Y-154513571D01*
X97505238Y-154418333D01*
X97410000Y-154370714D01*
X97219523Y-154370714D01*
X97124285Y-154418333D01*
X97552857Y-154989761D02*
X97457619Y-155037380D01*
X97219523Y-155037380D01*
X97124285Y-154989761D01*
X97076666Y-154894523D01*
X97076666Y-154799285D01*
X97124285Y-154704047D01*
X97219523Y-154656428D01*
X97457619Y-154656428D01*
X97552857Y-154608809D01*
X97886190Y-154370714D02*
X98267142Y-154370714D01*
X98029047Y-154037380D02*
X98029047Y-154894523D01*
X98076666Y-154989761D01*
X98171904Y-155037380D01*
X98267142Y-155037380D01*
X98600476Y-155037380D02*
X98600476Y-154370714D01*
X98600476Y-154037380D02*
X98552857Y-154085000D01*
X98600476Y-154132619D01*
X98648095Y-154085000D01*
X98600476Y-154037380D01*
X98600476Y-154132619D01*
X99076666Y-154370714D02*
X99076666Y-155037380D01*
X99076666Y-154465952D02*
X99124285Y-154418333D01*
X99219523Y-154370714D01*
X99362380Y-154370714D01*
X99457619Y-154418333D01*
X99505238Y-154513571D01*
X99505238Y-155037380D01*
X100410000Y-154370714D02*
X100410000Y-155180238D01*
X100362380Y-155275476D01*
X100314761Y-155323095D01*
X100219523Y-155370714D01*
X100076666Y-155370714D01*
X99981428Y-155323095D01*
X100410000Y-154989761D02*
X100314761Y-155037380D01*
X100124285Y-155037380D01*
X100029047Y-154989761D01*
X99981428Y-154942142D01*
X99933809Y-154846904D01*
X99933809Y-154561190D01*
X99981428Y-154465952D01*
X100029047Y-154418333D01*
X100124285Y-154370714D01*
X100314761Y-154370714D01*
X100410000Y-154418333D01*
X101648095Y-155037380D02*
X101648095Y-154037380D01*
X101648095Y-154513571D02*
X102219523Y-154513571D01*
X102219523Y-155037380D02*
X102219523Y-154037380D01*
X103124285Y-154370714D02*
X103124285Y-155037380D01*
X102695714Y-154370714D02*
X102695714Y-154894523D01*
X102743333Y-154989761D01*
X102838571Y-155037380D01*
X102981428Y-155037380D01*
X103076666Y-154989761D01*
X103124285Y-154942142D01*
X103600476Y-155037380D02*
X103600476Y-154370714D01*
X103600476Y-154465952D02*
X103648095Y-154418333D01*
X103743333Y-154370714D01*
X103886190Y-154370714D01*
X103981428Y-154418333D01*
X104029047Y-154513571D01*
X104029047Y-155037380D01*
X104029047Y-154513571D02*
X104076666Y-154418333D01*
X104171904Y-154370714D01*
X104314761Y-154370714D01*
X104410000Y-154418333D01*
X104457619Y-154513571D01*
X104457619Y-155037380D01*
X104933809Y-155037380D02*
X104933809Y-154370714D01*
X104933809Y-154037380D02*
X104886190Y-154085000D01*
X104933809Y-154132619D01*
X104981428Y-154085000D01*
X104933809Y-154037380D01*
X104933809Y-154132619D01*
X105838571Y-155037380D02*
X105838571Y-154037380D01*
X105838571Y-154989761D02*
X105743333Y-155037380D01*
X105552857Y-155037380D01*
X105457619Y-154989761D01*
X105410000Y-154942142D01*
X105362380Y-154846904D01*
X105362380Y-154561190D01*
X105410000Y-154465952D01*
X105457619Y-154418333D01*
X105552857Y-154370714D01*
X105743333Y-154370714D01*
X105838571Y-154418333D01*
X106314761Y-155037380D02*
X106314761Y-154370714D01*
X106314761Y-154037380D02*
X106267142Y-154085000D01*
X106314761Y-154132619D01*
X106362380Y-154085000D01*
X106314761Y-154037380D01*
X106314761Y-154132619D01*
X106648095Y-154370714D02*
X107029047Y-154370714D01*
X106790952Y-155037380D02*
X106790952Y-154180238D01*
X106838571Y-154085000D01*
X106933809Y-154037380D01*
X107029047Y-154037380D01*
X107362380Y-155037380D02*
X107362380Y-154370714D01*
X107362380Y-154037380D02*
X107314761Y-154085000D01*
X107362380Y-154132619D01*
X107410000Y-154085000D01*
X107362380Y-154037380D01*
X107362380Y-154132619D01*
X108219523Y-154989761D02*
X108124285Y-155037380D01*
X107933809Y-155037380D01*
X107838571Y-154989761D01*
X107790952Y-154894523D01*
X107790952Y-154513571D01*
X107838571Y-154418333D01*
X107933809Y-154370714D01*
X108124285Y-154370714D01*
X108219523Y-154418333D01*
X108267142Y-154513571D01*
X108267142Y-154608809D01*
X107790952Y-154704047D01*
X108695714Y-155037380D02*
X108695714Y-154370714D01*
X108695714Y-154561190D02*
X108743333Y-154465952D01*
X108790952Y-154418333D01*
X108886190Y-154370714D01*
X108981428Y-154370714D01*
X85719523Y-156163571D02*
X85862380Y-156211190D01*
X85910000Y-156258809D01*
X85957619Y-156354047D01*
X85957619Y-156496904D01*
X85910000Y-156592142D01*
X85862380Y-156639761D01*
X85767142Y-156687380D01*
X85386190Y-156687380D01*
X85386190Y-155687380D01*
X85719523Y-155687380D01*
X85814761Y-155735000D01*
X85862380Y-155782619D01*
X85910000Y-155877857D01*
X85910000Y-155973095D01*
X85862380Y-156068333D01*
X85814761Y-156115952D01*
X85719523Y-156163571D01*
X85386190Y-156163571D01*
X86290952Y-156020714D02*
X86529047Y-156687380D01*
X86767142Y-156020714D02*
X86529047Y-156687380D01*
X86433809Y-156925476D01*
X86386190Y-156973095D01*
X86290952Y-157020714D01*
X88386190Y-156687380D02*
X87910000Y-156687380D01*
X87910000Y-155687380D01*
X89148095Y-156687380D02*
X89148095Y-156163571D01*
X89100476Y-156068333D01*
X89005238Y-156020714D01*
X88814761Y-156020714D01*
X88719523Y-156068333D01*
X89148095Y-156639761D02*
X89052857Y-156687380D01*
X88814761Y-156687380D01*
X88719523Y-156639761D01*
X88671904Y-156544523D01*
X88671904Y-156449285D01*
X88719523Y-156354047D01*
X88814761Y-156306428D01*
X89052857Y-156306428D01*
X89148095Y-156258809D01*
X89624285Y-156687380D02*
X89624285Y-156020714D01*
X89624285Y-156211190D02*
X89671904Y-156115952D01*
X89719523Y-156068333D01*
X89814761Y-156020714D01*
X89910000Y-156020714D01*
X90243333Y-156687380D02*
X90243333Y-156020714D01*
X90243333Y-156211190D02*
X90290952Y-156115952D01*
X90338571Y-156068333D01*
X90433809Y-156020714D01*
X90529047Y-156020714D01*
X90767142Y-156020714D02*
X91005238Y-156687380D01*
X91243333Y-156020714D02*
X91005238Y-156687380D01*
X90910000Y-156925476D01*
X90862380Y-156973095D01*
X90767142Y-157020714D01*
X92910000Y-155735000D02*
X92814761Y-155687380D01*
X92671904Y-155687380D01*
X92529047Y-155735000D01*
X92433809Y-155830238D01*
X92386190Y-155925476D01*
X92338571Y-156115952D01*
X92338571Y-156258809D01*
X92386190Y-156449285D01*
X92433809Y-156544523D01*
X92529047Y-156639761D01*
X92671904Y-156687380D01*
X92767142Y-156687380D01*
X92910000Y-156639761D01*
X92957619Y-156592142D01*
X92957619Y-156258809D01*
X92767142Y-156258809D01*
X93529047Y-156687380D02*
X93433809Y-156639761D01*
X93386190Y-156592142D01*
X93338571Y-156496904D01*
X93338571Y-156211190D01*
X93386190Y-156115952D01*
X93433809Y-156068333D01*
X93529047Y-156020714D01*
X93671904Y-156020714D01*
X93767142Y-156068333D01*
X93814761Y-156115952D01*
X93862380Y-156211190D01*
X93862380Y-156496904D01*
X93814761Y-156592142D01*
X93767142Y-156639761D01*
X93671904Y-156687380D01*
X93529047Y-156687380D01*
X94290952Y-156687380D02*
X94290952Y-156020714D01*
X94290952Y-156211190D02*
X94338571Y-156115952D01*
X94386190Y-156068333D01*
X94481428Y-156020714D01*
X94576666Y-156020714D01*
X94910000Y-156687380D02*
X94910000Y-155687380D01*
X95338571Y-156687380D02*
X95338571Y-156163571D01*
X95290952Y-156068333D01*
X95195714Y-156020714D01*
X95052857Y-156020714D01*
X94957619Y-156068333D01*
X94910000Y-156115952D01*
X96243333Y-156687380D02*
X96243333Y-156163571D01*
X96195714Y-156068333D01*
X96100476Y-156020714D01*
X95910000Y-156020714D01*
X95814761Y-156068333D01*
X96243333Y-156639761D02*
X96148095Y-156687380D01*
X95910000Y-156687380D01*
X95814761Y-156639761D01*
X95767142Y-156544523D01*
X95767142Y-156449285D01*
X95814761Y-156354047D01*
X95910000Y-156306428D01*
X96148095Y-156306428D01*
X96243333Y-156258809D01*
X96719523Y-156687380D02*
X96719523Y-156020714D01*
X96719523Y-156115952D02*
X96767142Y-156068333D01*
X96862380Y-156020714D01*
X97005238Y-156020714D01*
X97100476Y-156068333D01*
X97148095Y-156163571D01*
X97148095Y-156687380D01*
X97148095Y-156163571D02*
X97195714Y-156068333D01*
X97290952Y-156020714D01*
X97433809Y-156020714D01*
X97529047Y-156068333D01*
X97576666Y-156163571D01*
X97576666Y-156687380D01*
X98767142Y-156401666D02*
X99243333Y-156401666D01*
X98671904Y-156687380D02*
X99005238Y-155687380D01*
X99338571Y-156687380D01*
X99671904Y-156020714D02*
X99671904Y-157020714D01*
X99671904Y-156068333D02*
X99767142Y-156020714D01*
X99957619Y-156020714D01*
X100052857Y-156068333D01*
X100100476Y-156115952D01*
X100148095Y-156211190D01*
X100148095Y-156496904D01*
X100100476Y-156592142D01*
X100052857Y-156639761D01*
X99957619Y-156687380D01*
X99767142Y-156687380D01*
X99671904Y-156639761D01*
X100576666Y-156687380D02*
X100576666Y-156020714D01*
X100576666Y-156211190D02*
X100624285Y-156115952D01*
X100671904Y-156068333D01*
X100767142Y-156020714D01*
X100862380Y-156020714D01*
X101195714Y-156687380D02*
X101195714Y-156020714D01*
X101195714Y-155687380D02*
X101148095Y-155735000D01*
X101195714Y-155782619D01*
X101243333Y-155735000D01*
X101195714Y-155687380D01*
X101195714Y-155782619D01*
X101814761Y-156687380D02*
X101719523Y-156639761D01*
X101671904Y-156544523D01*
X101671904Y-155687380D01*
X102910000Y-155782619D02*
X102957619Y-155735000D01*
X103052857Y-155687380D01*
X103290952Y-155687380D01*
X103386190Y-155735000D01*
X103433809Y-155782619D01*
X103481428Y-155877857D01*
X103481428Y-155973095D01*
X103433809Y-156115952D01*
X102862380Y-156687380D01*
X103481428Y-156687380D01*
X103862380Y-155782619D02*
X103910000Y-155735000D01*
X104005238Y-155687380D01*
X104243333Y-155687380D01*
X104338571Y-155735000D01*
X104386190Y-155782619D01*
X104433809Y-155877857D01*
X104433809Y-155973095D01*
X104386190Y-156115952D01*
X103814761Y-156687380D01*
X104433809Y-156687380D01*
X104910000Y-156639761D02*
X104910000Y-156687380D01*
X104862380Y-156782619D01*
X104814761Y-156830238D01*
X106052857Y-155782619D02*
X106100476Y-155735000D01*
X106195714Y-155687380D01*
X106433809Y-155687380D01*
X106529047Y-155735000D01*
X106576666Y-155782619D01*
X106624285Y-155877857D01*
X106624285Y-155973095D01*
X106576666Y-156115952D01*
X106005238Y-156687380D01*
X106624285Y-156687380D01*
X107243333Y-155687380D02*
X107338571Y-155687380D01*
X107433809Y-155735000D01*
X107481428Y-155782619D01*
X107529047Y-155877857D01*
X107576666Y-156068333D01*
X107576666Y-156306428D01*
X107529047Y-156496904D01*
X107481428Y-156592142D01*
X107433809Y-156639761D01*
X107338571Y-156687380D01*
X107243333Y-156687380D01*
X107148095Y-156639761D01*
X107100476Y-156592142D01*
X107052857Y-156496904D01*
X107005238Y-156306428D01*
X107005238Y-156068333D01*
X107052857Y-155877857D01*
X107100476Y-155782619D01*
X107148095Y-155735000D01*
X107243333Y-155687380D01*
X108529047Y-156687380D02*
X107957619Y-156687380D01*
X108243333Y-156687380D02*
X108243333Y-155687380D01*
X108148095Y-155830238D01*
X108052857Y-155925476D01*
X107957619Y-155973095D01*
X109005238Y-156687380D02*
X109195714Y-156687380D01*
X109290952Y-156639761D01*
X109338571Y-156592142D01*
X109433809Y-156449285D01*
X109481428Y-156258809D01*
X109481428Y-155877857D01*
X109433809Y-155782619D01*
X109386190Y-155735000D01*
X109290952Y-155687380D01*
X109100476Y-155687380D01*
X109005238Y-155735000D01*
X108957619Y-155782619D01*
X108910000Y-155877857D01*
X108910000Y-156115952D01*
X108957619Y-156211190D01*
X109005238Y-156258809D01*
X109100476Y-156306428D01*
X109290952Y-156306428D01*
X109386190Y-156258809D01*
X109433809Y-156211190D01*
X109481428Y-156115952D01*
X48160000Y-162160000D02*
X48160000Y-46160000D01*
X150160000Y-162160000D02*
X48160000Y-162160000D01*
X150160000Y-46160000D02*
X150160000Y-162160000D01*
X48160000Y-46160000D02*
X150160000Y-46160000D01*
D11*
X128760000Y-68700000D02*
X126160000Y-68700000D01*
X128760000Y-68700000D02*
X128760000Y-119620000D01*
X128760000Y-119620000D02*
X123560000Y-119620000D01*
X123560000Y-71300000D02*
X123560000Y-119620000D01*
X126160000Y-71300000D02*
X123560000Y-71300000D01*
X126160000Y-68700000D02*
X126160000Y-71300000D01*
X123560000Y-68700000D02*
X123560000Y-70030000D01*
X124890000Y-68700000D02*
X123560000Y-68700000D01*
D10*
X73660000Y-61660000D02*
X129660000Y-61660000D01*
X73660000Y-61660000D02*
X73660000Y-146660000D01*
X129660000Y-146660000D02*
X73660000Y-146660000D01*
X129660000Y-146660000D02*
X129660000Y-61660000D01*
X127535000Y-65160000D02*
G75*
G03X127535000Y-65160000I-1375000J0D01*
G01*
X127535000Y-123160000D02*
G75*
G03X127535000Y-123160000I-1375000J0D01*
G01*
X78535000Y-123160000D02*
G75*
G03X78535000Y-123160000I-1375000J0D01*
G01*
X78535000Y-65160000D02*
G75*
G03X78535000Y-65160000I-1375000J0D01*
G01*
D11*
X140620000Y-109830000D02*
X138970000Y-109830000D01*
X140620000Y-120110000D02*
X140620000Y-109830000D01*
X135320000Y-120110000D02*
X140620000Y-120110000D01*
X135320000Y-109830000D02*
X135320000Y-120110000D01*
X136970000Y-109830000D02*
X135320000Y-109830000D01*
X138970000Y-109830000D02*
G75*
G02X136970000Y-109830000I-1000000J0D01*
G01*
D10*
X138160000Y-63160000D02*
X138160000Y-55160000D01*
X136160000Y-63160000D02*
X136160000Y-55160000D01*
X136160000Y-55160000D02*
X150160000Y-55160000D01*
X150160000Y-55160000D02*
X150160000Y-63160000D01*
X150160000Y-63160000D02*
X136160000Y-63160000D01*
X83540000Y-66480000D02*
X83540000Y-52510000D01*
X108940000Y-66480000D02*
X83540000Y-66480000D01*
X108940000Y-52510000D02*
X108940000Y-66480000D01*
X83540000Y-52510000D02*
X108940000Y-52510000D01*
X74970000Y-97640000D02*
X74970000Y-100180000D01*
X67350000Y-97640000D02*
X74970000Y-97640000D01*
X67350000Y-100180000D02*
X67350000Y-97640000D01*
X74970000Y-100180000D02*
X67350000Y-100180000D01*
D11*
X90435000Y-84464775D02*
X90935000Y-84464775D01*
X90685000Y-84714775D02*
X90685000Y-84214775D01*
X91876000Y-79309000D02*
X92444000Y-79309000D01*
X91642000Y-79349000D02*
X92678000Y-79349000D01*
X91483000Y-79389000D02*
X92837000Y-79389000D01*
X91355000Y-79429000D02*
X92965000Y-79429000D01*
X91245000Y-79469000D02*
X93075000Y-79469000D01*
X91149000Y-79509000D02*
X93171000Y-79509000D01*
X91062000Y-79549000D02*
X93258000Y-79549000D01*
X90982000Y-79589000D02*
X93338000Y-79589000D01*
X93200000Y-79629000D02*
X93411000Y-79629000D01*
X90909000Y-79629000D02*
X91120000Y-79629000D01*
X93200000Y-79669000D02*
X93479000Y-79669000D01*
X90841000Y-79669000D02*
X91120000Y-79669000D01*
X93200000Y-79709000D02*
X93543000Y-79709000D01*
X90777000Y-79709000D02*
X91120000Y-79709000D01*
X93200000Y-79749000D02*
X93603000Y-79749000D01*
X90717000Y-79749000D02*
X91120000Y-79749000D01*
X93200000Y-79789000D02*
X93660000Y-79789000D01*
X90660000Y-79789000D02*
X91120000Y-79789000D01*
X93200000Y-79829000D02*
X93714000Y-79829000D01*
X90606000Y-79829000D02*
X91120000Y-79829000D01*
X93200000Y-79869000D02*
X93765000Y-79869000D01*
X90555000Y-79869000D02*
X91120000Y-79869000D01*
X93200000Y-79909000D02*
X93813000Y-79909000D01*
X90507000Y-79909000D02*
X91120000Y-79909000D01*
X93200000Y-79949000D02*
X93859000Y-79949000D01*
X90461000Y-79949000D02*
X91120000Y-79949000D01*
X93200000Y-79989000D02*
X93903000Y-79989000D01*
X90417000Y-79989000D02*
X91120000Y-79989000D01*
X93200000Y-80029000D02*
X93945000Y-80029000D01*
X90375000Y-80029000D02*
X91120000Y-80029000D01*
X93200000Y-80069000D02*
X93986000Y-80069000D01*
X90334000Y-80069000D02*
X91120000Y-80069000D01*
X93200000Y-80109000D02*
X94024000Y-80109000D01*
X90296000Y-80109000D02*
X91120000Y-80109000D01*
X93200000Y-80149000D02*
X94061000Y-80149000D01*
X90259000Y-80149000D02*
X91120000Y-80149000D01*
X93200000Y-80189000D02*
X94097000Y-80189000D01*
X90223000Y-80189000D02*
X91120000Y-80189000D01*
X93200000Y-80229000D02*
X94131000Y-80229000D01*
X90189000Y-80229000D02*
X91120000Y-80229000D01*
X93200000Y-80269000D02*
X94164000Y-80269000D01*
X90156000Y-80269000D02*
X91120000Y-80269000D01*
X93200000Y-80309000D02*
X94195000Y-80309000D01*
X90125000Y-80309000D02*
X91120000Y-80309000D01*
X93200000Y-80349000D02*
X94225000Y-80349000D01*
X90095000Y-80349000D02*
X91120000Y-80349000D01*
X93200000Y-80389000D02*
X94255000Y-80389000D01*
X90065000Y-80389000D02*
X91120000Y-80389000D01*
X93200000Y-80429000D02*
X94282000Y-80429000D01*
X90038000Y-80429000D02*
X91120000Y-80429000D01*
X93200000Y-80469000D02*
X94309000Y-80469000D01*
X90011000Y-80469000D02*
X91120000Y-80469000D01*
X93200000Y-80509000D02*
X94335000Y-80509000D01*
X89985000Y-80509000D02*
X91120000Y-80509000D01*
X93200000Y-80549000D02*
X94360000Y-80549000D01*
X89960000Y-80549000D02*
X91120000Y-80549000D01*
X93200000Y-80589000D02*
X94384000Y-80589000D01*
X89936000Y-80589000D02*
X91120000Y-80589000D01*
X93200000Y-80629000D02*
X94407000Y-80629000D01*
X89913000Y-80629000D02*
X91120000Y-80629000D01*
X93200000Y-80669000D02*
X94428000Y-80669000D01*
X89892000Y-80669000D02*
X91120000Y-80669000D01*
X93200000Y-80709000D02*
X94450000Y-80709000D01*
X89870000Y-80709000D02*
X91120000Y-80709000D01*
X93200000Y-80749000D02*
X94470000Y-80749000D01*
X89850000Y-80749000D02*
X91120000Y-80749000D01*
X93200000Y-80789000D02*
X94489000Y-80789000D01*
X89831000Y-80789000D02*
X91120000Y-80789000D01*
X93200000Y-80829000D02*
X94508000Y-80829000D01*
X89812000Y-80829000D02*
X91120000Y-80829000D01*
X93200000Y-80869000D02*
X94525000Y-80869000D01*
X89795000Y-80869000D02*
X91120000Y-80869000D01*
X93200000Y-80909000D02*
X94542000Y-80909000D01*
X89778000Y-80909000D02*
X91120000Y-80909000D01*
X93200000Y-80949000D02*
X94558000Y-80949000D01*
X89762000Y-80949000D02*
X91120000Y-80949000D01*
X93200000Y-80989000D02*
X94574000Y-80989000D01*
X89746000Y-80989000D02*
X91120000Y-80989000D01*
X93200000Y-81029000D02*
X94588000Y-81029000D01*
X89732000Y-81029000D02*
X91120000Y-81029000D01*
X93200000Y-81069000D02*
X94602000Y-81069000D01*
X89718000Y-81069000D02*
X91120000Y-81069000D01*
X93200000Y-81109000D02*
X94615000Y-81109000D01*
X89705000Y-81109000D02*
X91120000Y-81109000D01*
X93200000Y-81149000D02*
X94628000Y-81149000D01*
X89692000Y-81149000D02*
X91120000Y-81149000D01*
X93200000Y-81189000D02*
X94640000Y-81189000D01*
X89680000Y-81189000D02*
X91120000Y-81189000D01*
X93200000Y-81230000D02*
X94651000Y-81230000D01*
X89669000Y-81230000D02*
X91120000Y-81230000D01*
X93200000Y-81270000D02*
X94661000Y-81270000D01*
X89659000Y-81270000D02*
X91120000Y-81270000D01*
X93200000Y-81310000D02*
X94671000Y-81310000D01*
X89649000Y-81310000D02*
X91120000Y-81310000D01*
X93200000Y-81350000D02*
X94680000Y-81350000D01*
X89640000Y-81350000D02*
X91120000Y-81350000D01*
X93200000Y-81390000D02*
X94688000Y-81390000D01*
X89632000Y-81390000D02*
X91120000Y-81390000D01*
X93200000Y-81430000D02*
X94696000Y-81430000D01*
X89624000Y-81430000D02*
X91120000Y-81430000D01*
X93200000Y-81470000D02*
X94703000Y-81470000D01*
X89617000Y-81470000D02*
X91120000Y-81470000D01*
X93200000Y-81510000D02*
X94710000Y-81510000D01*
X89610000Y-81510000D02*
X91120000Y-81510000D01*
X93200000Y-81550000D02*
X94716000Y-81550000D01*
X89604000Y-81550000D02*
X91120000Y-81550000D01*
X93200000Y-81590000D02*
X94721000Y-81590000D01*
X89599000Y-81590000D02*
X91120000Y-81590000D01*
X93200000Y-81630000D02*
X94725000Y-81630000D01*
X89595000Y-81630000D02*
X91120000Y-81630000D01*
X93200000Y-81670000D02*
X94729000Y-81670000D01*
X89591000Y-81670000D02*
X91120000Y-81670000D01*
X89587000Y-81710000D02*
X94733000Y-81710000D01*
X89584000Y-81750000D02*
X94736000Y-81750000D01*
X89582000Y-81790000D02*
X94738000Y-81790000D01*
X89581000Y-81830000D02*
X94739000Y-81830000D01*
X89580000Y-81870000D02*
X94740000Y-81870000D01*
X89580000Y-81910000D02*
X94740000Y-81910000D01*
X94780000Y-81910000D02*
G75*
G03X94780000Y-81910000I-2620000J0D01*
G01*
X74720000Y-88130000D02*
X76370000Y-88130000D01*
X74720000Y-77850000D02*
X74720000Y-88130000D01*
X80020000Y-77850000D02*
X74720000Y-77850000D01*
X80020000Y-88130000D02*
X80020000Y-77850000D01*
X78370000Y-88130000D02*
X80020000Y-88130000D01*
X76370000Y-88130000D02*
G75*
G02X78370000Y-88130000I1000000J0D01*
G01*
X139620000Y-136830000D02*
X137970000Y-136830000D01*
X139620000Y-147110000D02*
X139620000Y-136830000D01*
X134320000Y-147110000D02*
X139620000Y-147110000D01*
X134320000Y-136830000D02*
X134320000Y-147110000D01*
X135970000Y-136830000D02*
X134320000Y-136830000D01*
X137970000Y-136830000D02*
G75*
G02X135970000Y-136830000I-1000000J0D01*
G01*
X92435000Y-118464775D02*
X92935000Y-118464775D01*
X92685000Y-118714775D02*
X92685000Y-118214775D01*
X93876000Y-113309000D02*
X94444000Y-113309000D01*
X93642000Y-113349000D02*
X94678000Y-113349000D01*
X93483000Y-113389000D02*
X94837000Y-113389000D01*
X93355000Y-113429000D02*
X94965000Y-113429000D01*
X93245000Y-113469000D02*
X95075000Y-113469000D01*
X93149000Y-113509000D02*
X95171000Y-113509000D01*
X93062000Y-113549000D02*
X95258000Y-113549000D01*
X92982000Y-113589000D02*
X95338000Y-113589000D01*
X95200000Y-113629000D02*
X95411000Y-113629000D01*
X92909000Y-113629000D02*
X93120000Y-113629000D01*
X95200000Y-113669000D02*
X95479000Y-113669000D01*
X92841000Y-113669000D02*
X93120000Y-113669000D01*
X95200000Y-113709000D02*
X95543000Y-113709000D01*
X92777000Y-113709000D02*
X93120000Y-113709000D01*
X95200000Y-113749000D02*
X95603000Y-113749000D01*
X92717000Y-113749000D02*
X93120000Y-113749000D01*
X95200000Y-113789000D02*
X95660000Y-113789000D01*
X92660000Y-113789000D02*
X93120000Y-113789000D01*
X95200000Y-113829000D02*
X95714000Y-113829000D01*
X92606000Y-113829000D02*
X93120000Y-113829000D01*
X95200000Y-113869000D02*
X95765000Y-113869000D01*
X92555000Y-113869000D02*
X93120000Y-113869000D01*
X95200000Y-113909000D02*
X95813000Y-113909000D01*
X92507000Y-113909000D02*
X93120000Y-113909000D01*
X95200000Y-113949000D02*
X95859000Y-113949000D01*
X92461000Y-113949000D02*
X93120000Y-113949000D01*
X95200000Y-113989000D02*
X95903000Y-113989000D01*
X92417000Y-113989000D02*
X93120000Y-113989000D01*
X95200000Y-114029000D02*
X95945000Y-114029000D01*
X92375000Y-114029000D02*
X93120000Y-114029000D01*
X95200000Y-114069000D02*
X95986000Y-114069000D01*
X92334000Y-114069000D02*
X93120000Y-114069000D01*
X95200000Y-114109000D02*
X96024000Y-114109000D01*
X92296000Y-114109000D02*
X93120000Y-114109000D01*
X95200000Y-114149000D02*
X96061000Y-114149000D01*
X92259000Y-114149000D02*
X93120000Y-114149000D01*
X95200000Y-114189000D02*
X96097000Y-114189000D01*
X92223000Y-114189000D02*
X93120000Y-114189000D01*
X95200000Y-114229000D02*
X96131000Y-114229000D01*
X92189000Y-114229000D02*
X93120000Y-114229000D01*
X95200000Y-114269000D02*
X96164000Y-114269000D01*
X92156000Y-114269000D02*
X93120000Y-114269000D01*
X95200000Y-114309000D02*
X96195000Y-114309000D01*
X92125000Y-114309000D02*
X93120000Y-114309000D01*
X95200000Y-114349000D02*
X96225000Y-114349000D01*
X92095000Y-114349000D02*
X93120000Y-114349000D01*
X95200000Y-114389000D02*
X96255000Y-114389000D01*
X92065000Y-114389000D02*
X93120000Y-114389000D01*
X95200000Y-114429000D02*
X96282000Y-114429000D01*
X92038000Y-114429000D02*
X93120000Y-114429000D01*
X95200000Y-114469000D02*
X96309000Y-114469000D01*
X92011000Y-114469000D02*
X93120000Y-114469000D01*
X95200000Y-114509000D02*
X96335000Y-114509000D01*
X91985000Y-114509000D02*
X93120000Y-114509000D01*
X95200000Y-114549000D02*
X96360000Y-114549000D01*
X91960000Y-114549000D02*
X93120000Y-114549000D01*
X95200000Y-114589000D02*
X96384000Y-114589000D01*
X91936000Y-114589000D02*
X93120000Y-114589000D01*
X95200000Y-114629000D02*
X96407000Y-114629000D01*
X91913000Y-114629000D02*
X93120000Y-114629000D01*
X95200000Y-114669000D02*
X96428000Y-114669000D01*
X91892000Y-114669000D02*
X93120000Y-114669000D01*
X95200000Y-114709000D02*
X96450000Y-114709000D01*
X91870000Y-114709000D02*
X93120000Y-114709000D01*
X95200000Y-114749000D02*
X96470000Y-114749000D01*
X91850000Y-114749000D02*
X93120000Y-114749000D01*
X95200000Y-114789000D02*
X96489000Y-114789000D01*
X91831000Y-114789000D02*
X93120000Y-114789000D01*
X95200000Y-114829000D02*
X96508000Y-114829000D01*
X91812000Y-114829000D02*
X93120000Y-114829000D01*
X95200000Y-114869000D02*
X96525000Y-114869000D01*
X91795000Y-114869000D02*
X93120000Y-114869000D01*
X95200000Y-114909000D02*
X96542000Y-114909000D01*
X91778000Y-114909000D02*
X93120000Y-114909000D01*
X95200000Y-114949000D02*
X96558000Y-114949000D01*
X91762000Y-114949000D02*
X93120000Y-114949000D01*
X95200000Y-114989000D02*
X96574000Y-114989000D01*
X91746000Y-114989000D02*
X93120000Y-114989000D01*
X95200000Y-115029000D02*
X96588000Y-115029000D01*
X91732000Y-115029000D02*
X93120000Y-115029000D01*
X95200000Y-115069000D02*
X96602000Y-115069000D01*
X91718000Y-115069000D02*
X93120000Y-115069000D01*
X95200000Y-115109000D02*
X96615000Y-115109000D01*
X91705000Y-115109000D02*
X93120000Y-115109000D01*
X95200000Y-115149000D02*
X96628000Y-115149000D01*
X91692000Y-115149000D02*
X93120000Y-115149000D01*
X95200000Y-115189000D02*
X96640000Y-115189000D01*
X91680000Y-115189000D02*
X93120000Y-115189000D01*
X95200000Y-115230000D02*
X96651000Y-115230000D01*
X91669000Y-115230000D02*
X93120000Y-115230000D01*
X95200000Y-115270000D02*
X96661000Y-115270000D01*
X91659000Y-115270000D02*
X93120000Y-115270000D01*
X95200000Y-115310000D02*
X96671000Y-115310000D01*
X91649000Y-115310000D02*
X93120000Y-115310000D01*
X95200000Y-115350000D02*
X96680000Y-115350000D01*
X91640000Y-115350000D02*
X93120000Y-115350000D01*
X95200000Y-115390000D02*
X96688000Y-115390000D01*
X91632000Y-115390000D02*
X93120000Y-115390000D01*
X95200000Y-115430000D02*
X96696000Y-115430000D01*
X91624000Y-115430000D02*
X93120000Y-115430000D01*
X95200000Y-115470000D02*
X96703000Y-115470000D01*
X91617000Y-115470000D02*
X93120000Y-115470000D01*
X95200000Y-115510000D02*
X96710000Y-115510000D01*
X91610000Y-115510000D02*
X93120000Y-115510000D01*
X95200000Y-115550000D02*
X96716000Y-115550000D01*
X91604000Y-115550000D02*
X93120000Y-115550000D01*
X95200000Y-115590000D02*
X96721000Y-115590000D01*
X91599000Y-115590000D02*
X93120000Y-115590000D01*
X95200000Y-115630000D02*
X96725000Y-115630000D01*
X91595000Y-115630000D02*
X93120000Y-115630000D01*
X95200000Y-115670000D02*
X96729000Y-115670000D01*
X91591000Y-115670000D02*
X93120000Y-115670000D01*
X91587000Y-115710000D02*
X96733000Y-115710000D01*
X91584000Y-115750000D02*
X96736000Y-115750000D01*
X91582000Y-115790000D02*
X96738000Y-115790000D01*
X91581000Y-115830000D02*
X96739000Y-115830000D01*
X91580000Y-115870000D02*
X96740000Y-115870000D01*
X91580000Y-115910000D02*
X96740000Y-115910000D01*
X96780000Y-115910000D02*
G75*
G03X96780000Y-115910000I-2620000J0D01*
G01*
X68445225Y-128255000D02*
X68445225Y-128755000D01*
X68195225Y-128505000D02*
X68695225Y-128505000D01*
X73601000Y-129696000D02*
X73601000Y-130264000D01*
X73561000Y-129462000D02*
X73561000Y-130498000D01*
X73521000Y-129303000D02*
X73521000Y-130657000D01*
X73481000Y-129175000D02*
X73481000Y-130785000D01*
X73441000Y-129065000D02*
X73441000Y-130895000D01*
X73401000Y-128969000D02*
X73401000Y-130991000D01*
X73361000Y-128882000D02*
X73361000Y-131078000D01*
X73321000Y-128802000D02*
X73321000Y-131158000D01*
X73281000Y-131020000D02*
X73281000Y-131231000D01*
X73281000Y-128729000D02*
X73281000Y-128940000D01*
X73241000Y-131020000D02*
X73241000Y-131299000D01*
X73241000Y-128661000D02*
X73241000Y-128940000D01*
X73201000Y-131020000D02*
X73201000Y-131363000D01*
X73201000Y-128597000D02*
X73201000Y-128940000D01*
X73161000Y-131020000D02*
X73161000Y-131423000D01*
X73161000Y-128537000D02*
X73161000Y-128940000D01*
X73121000Y-131020000D02*
X73121000Y-131480000D01*
X73121000Y-128480000D02*
X73121000Y-128940000D01*
X73081000Y-131020000D02*
X73081000Y-131534000D01*
X73081000Y-128426000D02*
X73081000Y-128940000D01*
X73041000Y-131020000D02*
X73041000Y-131585000D01*
X73041000Y-128375000D02*
X73041000Y-128940000D01*
X73001000Y-131020000D02*
X73001000Y-131633000D01*
X73001000Y-128327000D02*
X73001000Y-128940000D01*
X72961000Y-131020000D02*
X72961000Y-131679000D01*
X72961000Y-128281000D02*
X72961000Y-128940000D01*
X72921000Y-131020000D02*
X72921000Y-131723000D01*
X72921000Y-128237000D02*
X72921000Y-128940000D01*
X72881000Y-131020000D02*
X72881000Y-131765000D01*
X72881000Y-128195000D02*
X72881000Y-128940000D01*
X72841000Y-131020000D02*
X72841000Y-131806000D01*
X72841000Y-128154000D02*
X72841000Y-128940000D01*
X72801000Y-131020000D02*
X72801000Y-131844000D01*
X72801000Y-128116000D02*
X72801000Y-128940000D01*
X72761000Y-131020000D02*
X72761000Y-131881000D01*
X72761000Y-128079000D02*
X72761000Y-128940000D01*
X72721000Y-131020000D02*
X72721000Y-131917000D01*
X72721000Y-128043000D02*
X72721000Y-128940000D01*
X72681000Y-131020000D02*
X72681000Y-131951000D01*
X72681000Y-128009000D02*
X72681000Y-128940000D01*
X72641000Y-131020000D02*
X72641000Y-131984000D01*
X72641000Y-127976000D02*
X72641000Y-128940000D01*
X72601000Y-131020000D02*
X72601000Y-132015000D01*
X72601000Y-127945000D02*
X72601000Y-128940000D01*
X72561000Y-131020000D02*
X72561000Y-132045000D01*
X72561000Y-127915000D02*
X72561000Y-128940000D01*
X72521000Y-131020000D02*
X72521000Y-132075000D01*
X72521000Y-127885000D02*
X72521000Y-128940000D01*
X72481000Y-131020000D02*
X72481000Y-132102000D01*
X72481000Y-127858000D02*
X72481000Y-128940000D01*
X72441000Y-131020000D02*
X72441000Y-132129000D01*
X72441000Y-127831000D02*
X72441000Y-128940000D01*
X72401000Y-131020000D02*
X72401000Y-132155000D01*
X72401000Y-127805000D02*
X72401000Y-128940000D01*
X72361000Y-131020000D02*
X72361000Y-132180000D01*
X72361000Y-127780000D02*
X72361000Y-128940000D01*
X72321000Y-131020000D02*
X72321000Y-132204000D01*
X72321000Y-127756000D02*
X72321000Y-128940000D01*
X72281000Y-131020000D02*
X72281000Y-132227000D01*
X72281000Y-127733000D02*
X72281000Y-128940000D01*
X72241000Y-131020000D02*
X72241000Y-132248000D01*
X72241000Y-127712000D02*
X72241000Y-128940000D01*
X72201000Y-131020000D02*
X72201000Y-132270000D01*
X72201000Y-127690000D02*
X72201000Y-128940000D01*
X72161000Y-131020000D02*
X72161000Y-132290000D01*
X72161000Y-127670000D02*
X72161000Y-128940000D01*
X72121000Y-131020000D02*
X72121000Y-132309000D01*
X72121000Y-127651000D02*
X72121000Y-128940000D01*
X72081000Y-131020000D02*
X72081000Y-132328000D01*
X72081000Y-127632000D02*
X72081000Y-128940000D01*
X72041000Y-131020000D02*
X72041000Y-132345000D01*
X72041000Y-127615000D02*
X72041000Y-128940000D01*
X72001000Y-131020000D02*
X72001000Y-132362000D01*
X72001000Y-127598000D02*
X72001000Y-128940000D01*
X71961000Y-131020000D02*
X71961000Y-132378000D01*
X71961000Y-127582000D02*
X71961000Y-128940000D01*
X71921000Y-131020000D02*
X71921000Y-132394000D01*
X71921000Y-127566000D02*
X71921000Y-128940000D01*
X71881000Y-131020000D02*
X71881000Y-132408000D01*
X71881000Y-127552000D02*
X71881000Y-128940000D01*
X71841000Y-131020000D02*
X71841000Y-132422000D01*
X71841000Y-127538000D02*
X71841000Y-128940000D01*
X71801000Y-131020000D02*
X71801000Y-132435000D01*
X71801000Y-127525000D02*
X71801000Y-128940000D01*
X71761000Y-131020000D02*
X71761000Y-132448000D01*
X71761000Y-127512000D02*
X71761000Y-128940000D01*
X71721000Y-131020000D02*
X71721000Y-132460000D01*
X71721000Y-127500000D02*
X71721000Y-128940000D01*
X71680000Y-131020000D02*
X71680000Y-132471000D01*
X71680000Y-127489000D02*
X71680000Y-128940000D01*
X71640000Y-131020000D02*
X71640000Y-132481000D01*
X71640000Y-127479000D02*
X71640000Y-128940000D01*
X71600000Y-131020000D02*
X71600000Y-132491000D01*
X71600000Y-127469000D02*
X71600000Y-128940000D01*
X71560000Y-131020000D02*
X71560000Y-132500000D01*
X71560000Y-127460000D02*
X71560000Y-128940000D01*
X71520000Y-131020000D02*
X71520000Y-132508000D01*
X71520000Y-127452000D02*
X71520000Y-128940000D01*
X71480000Y-131020000D02*
X71480000Y-132516000D01*
X71480000Y-127444000D02*
X71480000Y-128940000D01*
X71440000Y-131020000D02*
X71440000Y-132523000D01*
X71440000Y-127437000D02*
X71440000Y-128940000D01*
X71400000Y-131020000D02*
X71400000Y-132530000D01*
X71400000Y-127430000D02*
X71400000Y-128940000D01*
X71360000Y-131020000D02*
X71360000Y-132536000D01*
X71360000Y-127424000D02*
X71360000Y-128940000D01*
X71320000Y-131020000D02*
X71320000Y-132541000D01*
X71320000Y-127419000D02*
X71320000Y-128940000D01*
X71280000Y-131020000D02*
X71280000Y-132545000D01*
X71280000Y-127415000D02*
X71280000Y-128940000D01*
X71240000Y-131020000D02*
X71240000Y-132549000D01*
X71240000Y-127411000D02*
X71240000Y-128940000D01*
X71200000Y-127407000D02*
X71200000Y-132553000D01*
X71160000Y-127404000D02*
X71160000Y-132556000D01*
X71120000Y-127402000D02*
X71120000Y-132558000D01*
X71080000Y-127401000D02*
X71080000Y-132559000D01*
X71040000Y-127400000D02*
X71040000Y-132560000D01*
X71000000Y-127400000D02*
X71000000Y-132560000D01*
X73620000Y-129980000D02*
G75*
G03X73620000Y-129980000I-2620000J0D01*
G01*
X109935000Y-111004775D02*
X110435000Y-111004775D01*
X110185000Y-111254775D02*
X110185000Y-110754775D01*
X111376000Y-105849000D02*
X111944000Y-105849000D01*
X111142000Y-105889000D02*
X112178000Y-105889000D01*
X110983000Y-105929000D02*
X112337000Y-105929000D01*
X110855000Y-105969000D02*
X112465000Y-105969000D01*
X110745000Y-106009000D02*
X112575000Y-106009000D01*
X110649000Y-106049000D02*
X112671000Y-106049000D01*
X110562000Y-106089000D02*
X112758000Y-106089000D01*
X110482000Y-106129000D02*
X112838000Y-106129000D01*
X112700000Y-106169000D02*
X112911000Y-106169000D01*
X110409000Y-106169000D02*
X110620000Y-106169000D01*
X112700000Y-106209000D02*
X112979000Y-106209000D01*
X110341000Y-106209000D02*
X110620000Y-106209000D01*
X112700000Y-106249000D02*
X113043000Y-106249000D01*
X110277000Y-106249000D02*
X110620000Y-106249000D01*
X112700000Y-106289000D02*
X113103000Y-106289000D01*
X110217000Y-106289000D02*
X110620000Y-106289000D01*
X112700000Y-106329000D02*
X113160000Y-106329000D01*
X110160000Y-106329000D02*
X110620000Y-106329000D01*
X112700000Y-106369000D02*
X113214000Y-106369000D01*
X110106000Y-106369000D02*
X110620000Y-106369000D01*
X112700000Y-106409000D02*
X113265000Y-106409000D01*
X110055000Y-106409000D02*
X110620000Y-106409000D01*
X112700000Y-106449000D02*
X113313000Y-106449000D01*
X110007000Y-106449000D02*
X110620000Y-106449000D01*
X112700000Y-106489000D02*
X113359000Y-106489000D01*
X109961000Y-106489000D02*
X110620000Y-106489000D01*
X112700000Y-106529000D02*
X113403000Y-106529000D01*
X109917000Y-106529000D02*
X110620000Y-106529000D01*
X112700000Y-106569000D02*
X113445000Y-106569000D01*
X109875000Y-106569000D02*
X110620000Y-106569000D01*
X112700000Y-106609000D02*
X113486000Y-106609000D01*
X109834000Y-106609000D02*
X110620000Y-106609000D01*
X112700000Y-106649000D02*
X113524000Y-106649000D01*
X109796000Y-106649000D02*
X110620000Y-106649000D01*
X112700000Y-106689000D02*
X113561000Y-106689000D01*
X109759000Y-106689000D02*
X110620000Y-106689000D01*
X112700000Y-106729000D02*
X113597000Y-106729000D01*
X109723000Y-106729000D02*
X110620000Y-106729000D01*
X112700000Y-106769000D02*
X113631000Y-106769000D01*
X109689000Y-106769000D02*
X110620000Y-106769000D01*
X112700000Y-106809000D02*
X113664000Y-106809000D01*
X109656000Y-106809000D02*
X110620000Y-106809000D01*
X112700000Y-106849000D02*
X113695000Y-106849000D01*
X109625000Y-106849000D02*
X110620000Y-106849000D01*
X112700000Y-106889000D02*
X113725000Y-106889000D01*
X109595000Y-106889000D02*
X110620000Y-106889000D01*
X112700000Y-106929000D02*
X113755000Y-106929000D01*
X109565000Y-106929000D02*
X110620000Y-106929000D01*
X112700000Y-106969000D02*
X113782000Y-106969000D01*
X109538000Y-106969000D02*
X110620000Y-106969000D01*
X112700000Y-107009000D02*
X113809000Y-107009000D01*
X109511000Y-107009000D02*
X110620000Y-107009000D01*
X112700000Y-107049000D02*
X113835000Y-107049000D01*
X109485000Y-107049000D02*
X110620000Y-107049000D01*
X112700000Y-107089000D02*
X113860000Y-107089000D01*
X109460000Y-107089000D02*
X110620000Y-107089000D01*
X112700000Y-107129000D02*
X113884000Y-107129000D01*
X109436000Y-107129000D02*
X110620000Y-107129000D01*
X112700000Y-107169000D02*
X113907000Y-107169000D01*
X109413000Y-107169000D02*
X110620000Y-107169000D01*
X112700000Y-107209000D02*
X113928000Y-107209000D01*
X109392000Y-107209000D02*
X110620000Y-107209000D01*
X112700000Y-107249000D02*
X113950000Y-107249000D01*
X109370000Y-107249000D02*
X110620000Y-107249000D01*
X112700000Y-107289000D02*
X113970000Y-107289000D01*
X109350000Y-107289000D02*
X110620000Y-107289000D01*
X112700000Y-107329000D02*
X113989000Y-107329000D01*
X109331000Y-107329000D02*
X110620000Y-107329000D01*
X112700000Y-107369000D02*
X114008000Y-107369000D01*
X109312000Y-107369000D02*
X110620000Y-107369000D01*
X112700000Y-107409000D02*
X114025000Y-107409000D01*
X109295000Y-107409000D02*
X110620000Y-107409000D01*
X112700000Y-107449000D02*
X114042000Y-107449000D01*
X109278000Y-107449000D02*
X110620000Y-107449000D01*
X112700000Y-107489000D02*
X114058000Y-107489000D01*
X109262000Y-107489000D02*
X110620000Y-107489000D01*
X112700000Y-107529000D02*
X114074000Y-107529000D01*
X109246000Y-107529000D02*
X110620000Y-107529000D01*
X112700000Y-107569000D02*
X114088000Y-107569000D01*
X109232000Y-107569000D02*
X110620000Y-107569000D01*
X112700000Y-107609000D02*
X114102000Y-107609000D01*
X109218000Y-107609000D02*
X110620000Y-107609000D01*
X112700000Y-107649000D02*
X114115000Y-107649000D01*
X109205000Y-107649000D02*
X110620000Y-107649000D01*
X112700000Y-107689000D02*
X114128000Y-107689000D01*
X109192000Y-107689000D02*
X110620000Y-107689000D01*
X112700000Y-107729000D02*
X114140000Y-107729000D01*
X109180000Y-107729000D02*
X110620000Y-107729000D01*
X112700000Y-107770000D02*
X114151000Y-107770000D01*
X109169000Y-107770000D02*
X110620000Y-107770000D01*
X112700000Y-107810000D02*
X114161000Y-107810000D01*
X109159000Y-107810000D02*
X110620000Y-107810000D01*
X112700000Y-107850000D02*
X114171000Y-107850000D01*
X109149000Y-107850000D02*
X110620000Y-107850000D01*
X112700000Y-107890000D02*
X114180000Y-107890000D01*
X109140000Y-107890000D02*
X110620000Y-107890000D01*
X112700000Y-107930000D02*
X114188000Y-107930000D01*
X109132000Y-107930000D02*
X110620000Y-107930000D01*
X112700000Y-107970000D02*
X114196000Y-107970000D01*
X109124000Y-107970000D02*
X110620000Y-107970000D01*
X112700000Y-108010000D02*
X114203000Y-108010000D01*
X109117000Y-108010000D02*
X110620000Y-108010000D01*
X112700000Y-108050000D02*
X114210000Y-108050000D01*
X109110000Y-108050000D02*
X110620000Y-108050000D01*
X112700000Y-108090000D02*
X114216000Y-108090000D01*
X109104000Y-108090000D02*
X110620000Y-108090000D01*
X112700000Y-108130000D02*
X114221000Y-108130000D01*
X109099000Y-108130000D02*
X110620000Y-108130000D01*
X112700000Y-108170000D02*
X114225000Y-108170000D01*
X109095000Y-108170000D02*
X110620000Y-108170000D01*
X112700000Y-108210000D02*
X114229000Y-108210000D01*
X109091000Y-108210000D02*
X110620000Y-108210000D01*
X109087000Y-108250000D02*
X114233000Y-108250000D01*
X109084000Y-108290000D02*
X114236000Y-108290000D01*
X109082000Y-108330000D02*
X114238000Y-108330000D01*
X109081000Y-108370000D02*
X114239000Y-108370000D01*
X109080000Y-108410000D02*
X114240000Y-108410000D01*
X109080000Y-108450000D02*
X114240000Y-108450000D01*
X114280000Y-108450000D02*
G75*
G03X114280000Y-108450000I-2620000J0D01*
G01*
X110464775Y-118885000D02*
X110464775Y-118385000D01*
X110714775Y-118635000D02*
X110214775Y-118635000D01*
X105309000Y-117444000D02*
X105309000Y-116876000D01*
X105349000Y-117678000D02*
X105349000Y-116642000D01*
X105389000Y-117837000D02*
X105389000Y-116483000D01*
X105429000Y-117965000D02*
X105429000Y-116355000D01*
X105469000Y-118075000D02*
X105469000Y-116245000D01*
X105509000Y-118171000D02*
X105509000Y-116149000D01*
X105549000Y-118258000D02*
X105549000Y-116062000D01*
X105589000Y-118338000D02*
X105589000Y-115982000D01*
X105629000Y-116120000D02*
X105629000Y-115909000D01*
X105629000Y-118411000D02*
X105629000Y-118200000D01*
X105669000Y-116120000D02*
X105669000Y-115841000D01*
X105669000Y-118479000D02*
X105669000Y-118200000D01*
X105709000Y-116120000D02*
X105709000Y-115777000D01*
X105709000Y-118543000D02*
X105709000Y-118200000D01*
X105749000Y-116120000D02*
X105749000Y-115717000D01*
X105749000Y-118603000D02*
X105749000Y-118200000D01*
X105789000Y-116120000D02*
X105789000Y-115660000D01*
X105789000Y-118660000D02*
X105789000Y-118200000D01*
X105829000Y-116120000D02*
X105829000Y-115606000D01*
X105829000Y-118714000D02*
X105829000Y-118200000D01*
X105869000Y-116120000D02*
X105869000Y-115555000D01*
X105869000Y-118765000D02*
X105869000Y-118200000D01*
X105909000Y-116120000D02*
X105909000Y-115507000D01*
X105909000Y-118813000D02*
X105909000Y-118200000D01*
X105949000Y-116120000D02*
X105949000Y-115461000D01*
X105949000Y-118859000D02*
X105949000Y-118200000D01*
X105989000Y-116120000D02*
X105989000Y-115417000D01*
X105989000Y-118903000D02*
X105989000Y-118200000D01*
X106029000Y-116120000D02*
X106029000Y-115375000D01*
X106029000Y-118945000D02*
X106029000Y-118200000D01*
X106069000Y-116120000D02*
X106069000Y-115334000D01*
X106069000Y-118986000D02*
X106069000Y-118200000D01*
X106109000Y-116120000D02*
X106109000Y-115296000D01*
X106109000Y-119024000D02*
X106109000Y-118200000D01*
X106149000Y-116120000D02*
X106149000Y-115259000D01*
X106149000Y-119061000D02*
X106149000Y-118200000D01*
X106189000Y-116120000D02*
X106189000Y-115223000D01*
X106189000Y-119097000D02*
X106189000Y-118200000D01*
X106229000Y-116120000D02*
X106229000Y-115189000D01*
X106229000Y-119131000D02*
X106229000Y-118200000D01*
X106269000Y-116120000D02*
X106269000Y-115156000D01*
X106269000Y-119164000D02*
X106269000Y-118200000D01*
X106309000Y-116120000D02*
X106309000Y-115125000D01*
X106309000Y-119195000D02*
X106309000Y-118200000D01*
X106349000Y-116120000D02*
X106349000Y-115095000D01*
X106349000Y-119225000D02*
X106349000Y-118200000D01*
X106389000Y-116120000D02*
X106389000Y-115065000D01*
X106389000Y-119255000D02*
X106389000Y-118200000D01*
X106429000Y-116120000D02*
X106429000Y-115038000D01*
X106429000Y-119282000D02*
X106429000Y-118200000D01*
X106469000Y-116120000D02*
X106469000Y-115011000D01*
X106469000Y-119309000D02*
X106469000Y-118200000D01*
X106509000Y-116120000D02*
X106509000Y-114985000D01*
X106509000Y-119335000D02*
X106509000Y-118200000D01*
X106549000Y-116120000D02*
X106549000Y-114960000D01*
X106549000Y-119360000D02*
X106549000Y-118200000D01*
X106589000Y-116120000D02*
X106589000Y-114936000D01*
X106589000Y-119384000D02*
X106589000Y-118200000D01*
X106629000Y-116120000D02*
X106629000Y-114913000D01*
X106629000Y-119407000D02*
X106629000Y-118200000D01*
X106669000Y-116120000D02*
X106669000Y-114892000D01*
X106669000Y-119428000D02*
X106669000Y-118200000D01*
X106709000Y-116120000D02*
X106709000Y-114870000D01*
X106709000Y-119450000D02*
X106709000Y-118200000D01*
X106749000Y-116120000D02*
X106749000Y-114850000D01*
X106749000Y-119470000D02*
X106749000Y-118200000D01*
X106789000Y-116120000D02*
X106789000Y-114831000D01*
X106789000Y-119489000D02*
X106789000Y-118200000D01*
X106829000Y-116120000D02*
X106829000Y-114812000D01*
X106829000Y-119508000D02*
X106829000Y-118200000D01*
X106869000Y-116120000D02*
X106869000Y-114795000D01*
X106869000Y-119525000D02*
X106869000Y-118200000D01*
X106909000Y-116120000D02*
X106909000Y-114778000D01*
X106909000Y-119542000D02*
X106909000Y-118200000D01*
X106949000Y-116120000D02*
X106949000Y-114762000D01*
X106949000Y-119558000D02*
X106949000Y-118200000D01*
X106989000Y-116120000D02*
X106989000Y-114746000D01*
X106989000Y-119574000D02*
X106989000Y-118200000D01*
X107029000Y-116120000D02*
X107029000Y-114732000D01*
X107029000Y-119588000D02*
X107029000Y-118200000D01*
X107069000Y-116120000D02*
X107069000Y-114718000D01*
X107069000Y-119602000D02*
X107069000Y-118200000D01*
X107109000Y-116120000D02*
X107109000Y-114705000D01*
X107109000Y-119615000D02*
X107109000Y-118200000D01*
X107149000Y-116120000D02*
X107149000Y-114692000D01*
X107149000Y-119628000D02*
X107149000Y-118200000D01*
X107189000Y-116120000D02*
X107189000Y-114680000D01*
X107189000Y-119640000D02*
X107189000Y-118200000D01*
X107230000Y-116120000D02*
X107230000Y-114669000D01*
X107230000Y-119651000D02*
X107230000Y-118200000D01*
X107270000Y-116120000D02*
X107270000Y-114659000D01*
X107270000Y-119661000D02*
X107270000Y-118200000D01*
X107310000Y-116120000D02*
X107310000Y-114649000D01*
X107310000Y-119671000D02*
X107310000Y-118200000D01*
X107350000Y-116120000D02*
X107350000Y-114640000D01*
X107350000Y-119680000D02*
X107350000Y-118200000D01*
X107390000Y-116120000D02*
X107390000Y-114632000D01*
X107390000Y-119688000D02*
X107390000Y-118200000D01*
X107430000Y-116120000D02*
X107430000Y-114624000D01*
X107430000Y-119696000D02*
X107430000Y-118200000D01*
X107470000Y-116120000D02*
X107470000Y-114617000D01*
X107470000Y-119703000D02*
X107470000Y-118200000D01*
X107510000Y-116120000D02*
X107510000Y-114610000D01*
X107510000Y-119710000D02*
X107510000Y-118200000D01*
X107550000Y-116120000D02*
X107550000Y-114604000D01*
X107550000Y-119716000D02*
X107550000Y-118200000D01*
X107590000Y-116120000D02*
X107590000Y-114599000D01*
X107590000Y-119721000D02*
X107590000Y-118200000D01*
X107630000Y-116120000D02*
X107630000Y-114595000D01*
X107630000Y-119725000D02*
X107630000Y-118200000D01*
X107670000Y-116120000D02*
X107670000Y-114591000D01*
X107670000Y-119729000D02*
X107670000Y-118200000D01*
X107710000Y-119733000D02*
X107710000Y-114587000D01*
X107750000Y-119736000D02*
X107750000Y-114584000D01*
X107790000Y-119738000D02*
X107790000Y-114582000D01*
X107830000Y-119739000D02*
X107830000Y-114581000D01*
X107870000Y-119740000D02*
X107870000Y-114580000D01*
X107910000Y-119740000D02*
X107910000Y-114580000D01*
X110530000Y-117160000D02*
G75*
G03X110530000Y-117160000I-2620000J0D01*
G01*
X121855225Y-53435000D02*
X121855225Y-53935000D01*
X121605225Y-53685000D02*
X122105225Y-53685000D01*
X127011000Y-54876000D02*
X127011000Y-55444000D01*
X126971000Y-54642000D02*
X126971000Y-55678000D01*
X126931000Y-54483000D02*
X126931000Y-55837000D01*
X126891000Y-54355000D02*
X126891000Y-55965000D01*
X126851000Y-54245000D02*
X126851000Y-56075000D01*
X126811000Y-54149000D02*
X126811000Y-56171000D01*
X126771000Y-54062000D02*
X126771000Y-56258000D01*
X126731000Y-53982000D02*
X126731000Y-56338000D01*
X126691000Y-56200000D02*
X126691000Y-56411000D01*
X126691000Y-53909000D02*
X126691000Y-54120000D01*
X126651000Y-56200000D02*
X126651000Y-56479000D01*
X126651000Y-53841000D02*
X126651000Y-54120000D01*
X126611000Y-56200000D02*
X126611000Y-56543000D01*
X126611000Y-53777000D02*
X126611000Y-54120000D01*
X126571000Y-56200000D02*
X126571000Y-56603000D01*
X126571000Y-53717000D02*
X126571000Y-54120000D01*
X126531000Y-56200000D02*
X126531000Y-56660000D01*
X126531000Y-53660000D02*
X126531000Y-54120000D01*
X126491000Y-56200000D02*
X126491000Y-56714000D01*
X126491000Y-53606000D02*
X126491000Y-54120000D01*
X126451000Y-56200000D02*
X126451000Y-56765000D01*
X126451000Y-53555000D02*
X126451000Y-54120000D01*
X126411000Y-56200000D02*
X126411000Y-56813000D01*
X126411000Y-53507000D02*
X126411000Y-54120000D01*
X126371000Y-56200000D02*
X126371000Y-56859000D01*
X126371000Y-53461000D02*
X126371000Y-54120000D01*
X126331000Y-56200000D02*
X126331000Y-56903000D01*
X126331000Y-53417000D02*
X126331000Y-54120000D01*
X126291000Y-56200000D02*
X126291000Y-56945000D01*
X126291000Y-53375000D02*
X126291000Y-54120000D01*
X126251000Y-56200000D02*
X126251000Y-56986000D01*
X126251000Y-53334000D02*
X126251000Y-54120000D01*
X126211000Y-56200000D02*
X126211000Y-57024000D01*
X126211000Y-53296000D02*
X126211000Y-54120000D01*
X126171000Y-56200000D02*
X126171000Y-57061000D01*
X126171000Y-53259000D02*
X126171000Y-54120000D01*
X126131000Y-56200000D02*
X126131000Y-57097000D01*
X126131000Y-53223000D02*
X126131000Y-54120000D01*
X126091000Y-56200000D02*
X126091000Y-57131000D01*
X126091000Y-53189000D02*
X126091000Y-54120000D01*
X126051000Y-56200000D02*
X126051000Y-57164000D01*
X126051000Y-53156000D02*
X126051000Y-54120000D01*
X126011000Y-56200000D02*
X126011000Y-57195000D01*
X126011000Y-53125000D02*
X126011000Y-54120000D01*
X125971000Y-56200000D02*
X125971000Y-57225000D01*
X125971000Y-53095000D02*
X125971000Y-54120000D01*
X125931000Y-56200000D02*
X125931000Y-57255000D01*
X125931000Y-53065000D02*
X125931000Y-54120000D01*
X125891000Y-56200000D02*
X125891000Y-57282000D01*
X125891000Y-53038000D02*
X125891000Y-54120000D01*
X125851000Y-56200000D02*
X125851000Y-57309000D01*
X125851000Y-53011000D02*
X125851000Y-54120000D01*
X125811000Y-56200000D02*
X125811000Y-57335000D01*
X125811000Y-52985000D02*
X125811000Y-54120000D01*
X125771000Y-56200000D02*
X125771000Y-57360000D01*
X125771000Y-52960000D02*
X125771000Y-54120000D01*
X125731000Y-56200000D02*
X125731000Y-57384000D01*
X125731000Y-52936000D02*
X125731000Y-54120000D01*
X125691000Y-56200000D02*
X125691000Y-57407000D01*
X125691000Y-52913000D02*
X125691000Y-54120000D01*
X125651000Y-56200000D02*
X125651000Y-57428000D01*
X125651000Y-52892000D02*
X125651000Y-54120000D01*
X125611000Y-56200000D02*
X125611000Y-57450000D01*
X125611000Y-52870000D02*
X125611000Y-54120000D01*
X125571000Y-56200000D02*
X125571000Y-57470000D01*
X125571000Y-52850000D02*
X125571000Y-54120000D01*
X125531000Y-56200000D02*
X125531000Y-57489000D01*
X125531000Y-52831000D02*
X125531000Y-54120000D01*
X125491000Y-56200000D02*
X125491000Y-57508000D01*
X125491000Y-52812000D02*
X125491000Y-54120000D01*
X125451000Y-56200000D02*
X125451000Y-57525000D01*
X125451000Y-52795000D02*
X125451000Y-54120000D01*
X125411000Y-56200000D02*
X125411000Y-57542000D01*
X125411000Y-52778000D02*
X125411000Y-54120000D01*
X125371000Y-56200000D02*
X125371000Y-57558000D01*
X125371000Y-52762000D02*
X125371000Y-54120000D01*
X125331000Y-56200000D02*
X125331000Y-57574000D01*
X125331000Y-52746000D02*
X125331000Y-54120000D01*
X125291000Y-56200000D02*
X125291000Y-57588000D01*
X125291000Y-52732000D02*
X125291000Y-54120000D01*
X125251000Y-56200000D02*
X125251000Y-57602000D01*
X125251000Y-52718000D02*
X125251000Y-54120000D01*
X125211000Y-56200000D02*
X125211000Y-57615000D01*
X125211000Y-52705000D02*
X125211000Y-54120000D01*
X125171000Y-56200000D02*
X125171000Y-57628000D01*
X125171000Y-52692000D02*
X125171000Y-54120000D01*
X125131000Y-56200000D02*
X125131000Y-57640000D01*
X125131000Y-52680000D02*
X125131000Y-54120000D01*
X125090000Y-56200000D02*
X125090000Y-57651000D01*
X125090000Y-52669000D02*
X125090000Y-54120000D01*
X125050000Y-56200000D02*
X125050000Y-57661000D01*
X125050000Y-52659000D02*
X125050000Y-54120000D01*
X125010000Y-56200000D02*
X125010000Y-57671000D01*
X125010000Y-52649000D02*
X125010000Y-54120000D01*
X124970000Y-56200000D02*
X124970000Y-57680000D01*
X124970000Y-52640000D02*
X124970000Y-54120000D01*
X124930000Y-56200000D02*
X124930000Y-57688000D01*
X124930000Y-52632000D02*
X124930000Y-54120000D01*
X124890000Y-56200000D02*
X124890000Y-57696000D01*
X124890000Y-52624000D02*
X124890000Y-54120000D01*
X124850000Y-56200000D02*
X124850000Y-57703000D01*
X124850000Y-52617000D02*
X124850000Y-54120000D01*
X124810000Y-56200000D02*
X124810000Y-57710000D01*
X124810000Y-52610000D02*
X124810000Y-54120000D01*
X124770000Y-56200000D02*
X124770000Y-57716000D01*
X124770000Y-52604000D02*
X124770000Y-54120000D01*
X124730000Y-56200000D02*
X124730000Y-57721000D01*
X124730000Y-52599000D02*
X124730000Y-54120000D01*
X124690000Y-56200000D02*
X124690000Y-57725000D01*
X124690000Y-52595000D02*
X124690000Y-54120000D01*
X124650000Y-56200000D02*
X124650000Y-57729000D01*
X124650000Y-52591000D02*
X124650000Y-54120000D01*
X124610000Y-52587000D02*
X124610000Y-57733000D01*
X124570000Y-52584000D02*
X124570000Y-57736000D01*
X124530000Y-52582000D02*
X124530000Y-57738000D01*
X124490000Y-52581000D02*
X124490000Y-57739000D01*
X124450000Y-52580000D02*
X124450000Y-57740000D01*
X124410000Y-52580000D02*
X124410000Y-57740000D01*
X127030000Y-55160000D02*
G75*
G03X127030000Y-55160000I-2620000J0D01*
G01*
X134700000Y-102490000D02*
X136350000Y-102490000D01*
X134700000Y-82050000D02*
X134700000Y-102490000D01*
X140000000Y-82050000D02*
X134700000Y-82050000D01*
X140000000Y-102490000D02*
X140000000Y-82050000D01*
X138350000Y-102490000D02*
X140000000Y-102490000D01*
X136350000Y-102490000D02*
G75*
G02X138350000Y-102490000I1000000J0D01*
G01*
D10*
X74830000Y-110930000D02*
X74830000Y-113470000D01*
X67210000Y-110930000D02*
X74830000Y-110930000D01*
X67210000Y-113470000D02*
X67210000Y-110930000D01*
X74830000Y-113470000D02*
X67210000Y-113470000D01*
X117970000Y-53890000D02*
X117970000Y-56430000D01*
X110350000Y-53890000D02*
X117970000Y-53890000D01*
X110350000Y-56430000D02*
X110350000Y-53890000D01*
X117970000Y-56430000D02*
X110350000Y-56430000D01*
X74970000Y-92640000D02*
X74970000Y-95180000D01*
X67350000Y-92640000D02*
X74970000Y-92640000D01*
X67350000Y-95180000D02*
X67350000Y-92640000D01*
X74970000Y-95180000D02*
X67350000Y-95180000D01*
X75970000Y-57590000D02*
X75970000Y-60130000D01*
X68350000Y-57590000D02*
X75970000Y-57590000D01*
X68350000Y-60130000D02*
X68350000Y-57590000D01*
X75970000Y-60130000D02*
X68350000Y-60130000D01*
X74830000Y-105850000D02*
X74830000Y-108390000D01*
X67210000Y-105850000D02*
X74830000Y-105850000D01*
X67210000Y-108390000D02*
X67210000Y-105850000D01*
X74830000Y-108390000D02*
X67210000Y-108390000D01*
X66650000Y-69620000D02*
X99670000Y-69620000D01*
X99670000Y-69620000D02*
X99670000Y-74700000D01*
X99670000Y-74700000D02*
X66650000Y-74700000D01*
X66650000Y-74700000D02*
X66650000Y-69620000D01*
X138430000Y-79050000D02*
X135890000Y-79050000D01*
X138430000Y-63810000D02*
X138430000Y-79050000D01*
X135890000Y-63810000D02*
X138430000Y-63810000D01*
X135890000Y-79050000D02*
X135890000Y-63810000D01*
X114200000Y-69020000D02*
X116740000Y-69020000D01*
X114200000Y-84260000D02*
X114200000Y-69020000D01*
X116740000Y-84260000D02*
X114200000Y-84260000D01*
X116740000Y-69020000D02*
X116740000Y-84260000D01*
X107050000Y-94890000D02*
X107050000Y-97430000D01*
X91810000Y-94890000D02*
X107050000Y-94890000D01*
X91810000Y-97430000D02*
X91810000Y-94890000D01*
X107050000Y-97430000D02*
X91810000Y-97430000D01*
X85270000Y-129430000D02*
X85270000Y-126890000D01*
X100510000Y-129430000D02*
X85270000Y-129430000D01*
X100510000Y-126890000D02*
X100510000Y-129430000D01*
X85270000Y-126890000D02*
X100510000Y-126890000D01*
X74830000Y-149030000D02*
X74830000Y-146490000D01*
X90070000Y-149030000D02*
X74830000Y-149030000D01*
X90070000Y-146490000D02*
X90070000Y-149030000D01*
X74830000Y-146490000D02*
X90070000Y-146490000D01*
X110390000Y-146490000D02*
X110390000Y-143950000D01*
X125630000Y-146490000D02*
X110390000Y-146490000D01*
X125630000Y-143950000D02*
X125630000Y-146490000D01*
X110390000Y-143950000D02*
X125630000Y-143950000D01*
X142050000Y-127890000D02*
X142050000Y-130430000D01*
X126810000Y-127890000D02*
X142050000Y-127890000D01*
X126810000Y-130430000D02*
X126810000Y-127890000D01*
X142050000Y-130430000D02*
X126810000Y-130430000D01*
X90270000Y-106430000D02*
X90270000Y-103890000D01*
X105510000Y-106430000D02*
X90270000Y-106430000D01*
X105510000Y-103890000D02*
X105510000Y-106430000D01*
X90270000Y-103890000D02*
X105510000Y-103890000D01*
X107050000Y-87890000D02*
X107050000Y-90430000D01*
X91810000Y-87890000D02*
X107050000Y-87890000D01*
X91810000Y-90430000D02*
X91810000Y-87890000D01*
X107050000Y-90430000D02*
X91810000Y-90430000D01*
X118050000Y-126890000D02*
X118050000Y-129430000D01*
X102810000Y-126890000D02*
X118050000Y-126890000D01*
X102810000Y-129430000D02*
X102810000Y-126890000D01*
X118050000Y-129430000D02*
X102810000Y-129430000D01*
D11*
X85244000Y-106739000D02*
G75*
G03X84101000Y-113724000I-4064000J-2921000D01*
G01*
X85244000Y-112581000D02*
X85244000Y-106739000D01*
X85244000Y-93404000D02*
G75*
G03X84101000Y-100389000I-4064000J-2921000D01*
G01*
X85244000Y-99246000D02*
X85244000Y-93404000D01*
X58320000Y-56320000D02*
X58320000Y-66480000D01*
X65940000Y-56320000D02*
X58320000Y-56320000D01*
X65940000Y-66480000D02*
X65940000Y-56320000D01*
X58320000Y-66480000D02*
X65940000Y-66480000D01*
X59590000Y-66480000D02*
X59590000Y-56320000D01*
X58320000Y-67750000D02*
X58320000Y-77910000D01*
X65940000Y-67750000D02*
X58320000Y-67750000D01*
X65940000Y-77910000D02*
X65940000Y-67750000D01*
X58320000Y-77910000D02*
X65940000Y-77910000D01*
X59590000Y-77910000D02*
X59590000Y-67750000D01*
X58320000Y-79180000D02*
X58320000Y-89340000D01*
X65940000Y-79180000D02*
X58320000Y-79180000D01*
X65940000Y-89340000D02*
X65940000Y-79180000D01*
X58320000Y-89340000D02*
X65940000Y-89340000D01*
X59590000Y-89340000D02*
X59590000Y-79180000D01*
X58320000Y-91245000D02*
X58320000Y-101405000D01*
X65940000Y-91245000D02*
X58320000Y-91245000D01*
X65940000Y-101405000D02*
X65940000Y-91245000D01*
X58320000Y-101405000D02*
X65940000Y-101405000D01*
X59590000Y-101405000D02*
X59590000Y-91245000D01*
X58320000Y-114740000D02*
X58320000Y-124900000D01*
X65940000Y-114740000D02*
X58320000Y-114740000D01*
X65940000Y-124900000D02*
X65940000Y-114740000D01*
X58320000Y-124900000D02*
X65940000Y-124900000D01*
X59590000Y-124900000D02*
X59590000Y-114740000D01*
X58320000Y-136330000D02*
X58320000Y-151570000D01*
X65940000Y-136330000D02*
X65940000Y-151570000D01*
X59590000Y-136330000D02*
X59590000Y-151570000D01*
X58320000Y-151570000D02*
X65940000Y-151570000D01*
X58320000Y-136330000D02*
X65940000Y-136330000D01*
X102880000Y-138810000D02*
X101230000Y-138810000D01*
X102880000Y-149090000D02*
X102880000Y-138810000D01*
X97580000Y-149090000D02*
X102880000Y-149090000D01*
X97580000Y-138810000D02*
X97580000Y-149090000D01*
X99230000Y-138810000D02*
X97580000Y-138810000D01*
X101230000Y-138810000D02*
G75*
G02X99230000Y-138810000I-1000000J0D01*
G01*
D10*
X121826666Y-68612380D02*
X121826666Y-69326666D01*
X121779047Y-69469523D01*
X121683809Y-69564761D01*
X121540952Y-69612380D01*
X121445714Y-69612380D01*
X122826666Y-69612380D02*
X122255238Y-69612380D01*
X122540952Y-69612380D02*
X122540952Y-68612380D01*
X122445714Y-68755238D01*
X122350476Y-68850476D01*
X122255238Y-68898095D01*
X137208095Y-108282380D02*
X137208095Y-109091904D01*
X137255714Y-109187142D01*
X137303333Y-109234761D01*
X137398571Y-109282380D01*
X137589047Y-109282380D01*
X137684285Y-109234761D01*
X137731904Y-109187142D01*
X137779523Y-109091904D01*
X137779523Y-108282380D01*
X138160476Y-108282380D02*
X138779523Y-108282380D01*
X138446190Y-108663333D01*
X138589047Y-108663333D01*
X138684285Y-108710952D01*
X138731904Y-108758571D01*
X138779523Y-108853809D01*
X138779523Y-109091904D01*
X138731904Y-109187142D01*
X138684285Y-109234761D01*
X138589047Y-109282380D01*
X138303333Y-109282380D01*
X138208095Y-109234761D01*
X138160476Y-109187142D01*
X144898095Y-60612380D02*
X144898095Y-61421904D01*
X144945714Y-61517142D01*
X144993333Y-61564761D01*
X145088571Y-61612380D01*
X145279047Y-61612380D01*
X145374285Y-61564761D01*
X145421904Y-61517142D01*
X145469523Y-61421904D01*
X145469523Y-60612380D01*
X146374285Y-60612380D02*
X146183809Y-60612380D01*
X146088571Y-60660000D01*
X146040952Y-60707619D01*
X145945714Y-60850476D01*
X145898095Y-61040952D01*
X145898095Y-61421904D01*
X145945714Y-61517142D01*
X145993333Y-61564761D01*
X146088571Y-61612380D01*
X146279047Y-61612380D01*
X146374285Y-61564761D01*
X146421904Y-61517142D01*
X146469523Y-61421904D01*
X146469523Y-61183809D01*
X146421904Y-61088571D01*
X146374285Y-61040952D01*
X146279047Y-60993333D01*
X146088571Y-60993333D01*
X145993333Y-61040952D01*
X145945714Y-61088571D01*
X145898095Y-61183809D01*
X95398095Y-50612380D02*
X95398095Y-51421904D01*
X95445714Y-51517142D01*
X95493333Y-51564761D01*
X95588571Y-51612380D01*
X95779047Y-51612380D01*
X95874285Y-51564761D01*
X95921904Y-51517142D01*
X95969523Y-51421904D01*
X95969523Y-50612380D01*
X96350476Y-50612380D02*
X97017142Y-50612380D01*
X96588571Y-51612380D01*
X70826666Y-101088571D02*
X70493333Y-101088571D01*
X70493333Y-101612380D02*
X70493333Y-100612380D01*
X70969523Y-100612380D01*
X71779047Y-100612380D02*
X71588571Y-100612380D01*
X71493333Y-100660000D01*
X71445714Y-100707619D01*
X71350476Y-100850476D01*
X71302857Y-101040952D01*
X71302857Y-101421904D01*
X71350476Y-101517142D01*
X71398095Y-101564761D01*
X71493333Y-101612380D01*
X71683809Y-101612380D01*
X71779047Y-101564761D01*
X71826666Y-101517142D01*
X71874285Y-101421904D01*
X71874285Y-101183809D01*
X71826666Y-101088571D01*
X71779047Y-101040952D01*
X71683809Y-100993333D01*
X71493333Y-100993333D01*
X71398095Y-101040952D01*
X71350476Y-101088571D01*
X71302857Y-101183809D01*
X88767142Y-82076666D02*
X88814761Y-82124285D01*
X88862380Y-82267142D01*
X88862380Y-82362380D01*
X88814761Y-82505238D01*
X88719523Y-82600476D01*
X88624285Y-82648095D01*
X88433809Y-82695714D01*
X88290952Y-82695714D01*
X88100476Y-82648095D01*
X88005238Y-82600476D01*
X87910000Y-82505238D01*
X87862380Y-82362380D01*
X87862380Y-82267142D01*
X87910000Y-82124285D01*
X87957619Y-82076666D01*
X87957619Y-81695714D02*
X87910000Y-81648095D01*
X87862380Y-81552857D01*
X87862380Y-81314761D01*
X87910000Y-81219523D01*
X87957619Y-81171904D01*
X88052857Y-81124285D01*
X88148095Y-81124285D01*
X88290952Y-81171904D01*
X88862380Y-81743333D01*
X88862380Y-81124285D01*
X76608095Y-88582380D02*
X76608095Y-89391904D01*
X76655714Y-89487142D01*
X76703333Y-89534761D01*
X76798571Y-89582380D01*
X76989047Y-89582380D01*
X77084285Y-89534761D01*
X77131904Y-89487142D01*
X77179523Y-89391904D01*
X77179523Y-88582380D01*
X77608095Y-88677619D02*
X77655714Y-88630000D01*
X77750952Y-88582380D01*
X77989047Y-88582380D01*
X78084285Y-88630000D01*
X78131904Y-88677619D01*
X78179523Y-88772857D01*
X78179523Y-88868095D01*
X78131904Y-89010952D01*
X77560476Y-89582380D01*
X78179523Y-89582380D01*
X136208095Y-135282380D02*
X136208095Y-136091904D01*
X136255714Y-136187142D01*
X136303333Y-136234761D01*
X136398571Y-136282380D01*
X136589047Y-136282380D01*
X136684285Y-136234761D01*
X136731904Y-136187142D01*
X136779523Y-136091904D01*
X136779523Y-135282380D01*
X137684285Y-135615714D02*
X137684285Y-136282380D01*
X137446190Y-135234761D02*
X137208095Y-135949047D01*
X137827142Y-135949047D01*
X90767142Y-116076666D02*
X90814761Y-116124285D01*
X90862380Y-116267142D01*
X90862380Y-116362380D01*
X90814761Y-116505238D01*
X90719523Y-116600476D01*
X90624285Y-116648095D01*
X90433809Y-116695714D01*
X90290952Y-116695714D01*
X90100476Y-116648095D01*
X90005238Y-116600476D01*
X89910000Y-116505238D01*
X89862380Y-116362380D01*
X89862380Y-116267142D01*
X89910000Y-116124285D01*
X89957619Y-116076666D01*
X89862380Y-115171904D02*
X89862380Y-115648095D01*
X90338571Y-115695714D01*
X90290952Y-115648095D01*
X90243333Y-115552857D01*
X90243333Y-115314761D01*
X90290952Y-115219523D01*
X90338571Y-115171904D01*
X90433809Y-115124285D01*
X90671904Y-115124285D01*
X90767142Y-115171904D01*
X90814761Y-115219523D01*
X90862380Y-115314761D01*
X90862380Y-115552857D01*
X90814761Y-115648095D01*
X90767142Y-115695714D01*
X70833333Y-126587142D02*
X70785714Y-126634761D01*
X70642857Y-126682380D01*
X70547619Y-126682380D01*
X70404761Y-126634761D01*
X70309523Y-126539523D01*
X70261904Y-126444285D01*
X70214285Y-126253809D01*
X70214285Y-126110952D01*
X70261904Y-125920476D01*
X70309523Y-125825238D01*
X70404761Y-125730000D01*
X70547619Y-125682380D01*
X70642857Y-125682380D01*
X70785714Y-125730000D01*
X70833333Y-125777619D01*
X71690476Y-126015714D02*
X71690476Y-126682380D01*
X71452380Y-125634761D02*
X71214285Y-126349047D01*
X71833333Y-126349047D01*
X108267142Y-108616666D02*
X108314761Y-108664285D01*
X108362380Y-108807142D01*
X108362380Y-108902380D01*
X108314761Y-109045238D01*
X108219523Y-109140476D01*
X108124285Y-109188095D01*
X107933809Y-109235714D01*
X107790952Y-109235714D01*
X107600476Y-109188095D01*
X107505238Y-109140476D01*
X107410000Y-109045238D01*
X107362380Y-108902380D01*
X107362380Y-108807142D01*
X107410000Y-108664285D01*
X107457619Y-108616666D01*
X107362380Y-108283333D02*
X107362380Y-107664285D01*
X107743333Y-107997619D01*
X107743333Y-107854761D01*
X107790952Y-107759523D01*
X107838571Y-107711904D01*
X107933809Y-107664285D01*
X108171904Y-107664285D01*
X108267142Y-107711904D01*
X108314761Y-107759523D01*
X108362380Y-107854761D01*
X108362380Y-108140476D01*
X108314761Y-108235714D01*
X108267142Y-108283333D01*
X107743333Y-121267142D02*
X107695714Y-121314761D01*
X107552857Y-121362380D01*
X107457619Y-121362380D01*
X107314761Y-121314761D01*
X107219523Y-121219523D01*
X107171904Y-121124285D01*
X107124285Y-120933809D01*
X107124285Y-120790952D01*
X107171904Y-120600476D01*
X107219523Y-120505238D01*
X107314761Y-120410000D01*
X107457619Y-120362380D01*
X107552857Y-120362380D01*
X107695714Y-120410000D01*
X107743333Y-120457619D01*
X108695714Y-121362380D02*
X108124285Y-121362380D01*
X108410000Y-121362380D02*
X108410000Y-120362380D01*
X108314761Y-120505238D01*
X108219523Y-120600476D01*
X108124285Y-120648095D01*
X124243333Y-51767142D02*
X124195714Y-51814761D01*
X124052857Y-51862380D01*
X123957619Y-51862380D01*
X123814761Y-51814761D01*
X123719523Y-51719523D01*
X123671904Y-51624285D01*
X123624285Y-51433809D01*
X123624285Y-51290952D01*
X123671904Y-51100476D01*
X123719523Y-51005238D01*
X123814761Y-50910000D01*
X123957619Y-50862380D01*
X124052857Y-50862380D01*
X124195714Y-50910000D01*
X124243333Y-50957619D01*
X125100476Y-50862380D02*
X124910000Y-50862380D01*
X124814761Y-50910000D01*
X124767142Y-50957619D01*
X124671904Y-51100476D01*
X124624285Y-51290952D01*
X124624285Y-51671904D01*
X124671904Y-51767142D01*
X124719523Y-51814761D01*
X124814761Y-51862380D01*
X125005238Y-51862380D01*
X125100476Y-51814761D01*
X125148095Y-51767142D01*
X125195714Y-51671904D01*
X125195714Y-51433809D01*
X125148095Y-51338571D01*
X125100476Y-51290952D01*
X125005238Y-51243333D01*
X124814761Y-51243333D01*
X124719523Y-51290952D01*
X124671904Y-51338571D01*
X124624285Y-51433809D01*
X136588095Y-102942380D02*
X136588095Y-103751904D01*
X136635714Y-103847142D01*
X136683333Y-103894761D01*
X136778571Y-103942380D01*
X136969047Y-103942380D01*
X137064285Y-103894761D01*
X137111904Y-103847142D01*
X137159523Y-103751904D01*
X137159523Y-102942380D01*
X138159523Y-103942380D02*
X137588095Y-103942380D01*
X137873809Y-103942380D02*
X137873809Y-102942380D01*
X137778571Y-103085238D01*
X137683333Y-103180476D01*
X137588095Y-103228095D01*
X70686666Y-114668571D02*
X70353333Y-114668571D01*
X70353333Y-115192380D02*
X70353333Y-114192380D01*
X70829523Y-114192380D01*
X71686666Y-114192380D02*
X71210476Y-114192380D01*
X71162857Y-114668571D01*
X71210476Y-114620952D01*
X71305714Y-114573333D01*
X71543809Y-114573333D01*
X71639047Y-114620952D01*
X71686666Y-114668571D01*
X71734285Y-114763809D01*
X71734285Y-115001904D01*
X71686666Y-115097142D01*
X71639047Y-115144761D01*
X71543809Y-115192380D01*
X71305714Y-115192380D01*
X71210476Y-115144761D01*
X71162857Y-115097142D01*
X113826666Y-52548571D02*
X113493333Y-52548571D01*
X113493333Y-53072380D02*
X113493333Y-52072380D01*
X113969523Y-52072380D01*
X114255238Y-52072380D02*
X114874285Y-52072380D01*
X114540952Y-52453333D01*
X114683809Y-52453333D01*
X114779047Y-52500952D01*
X114826666Y-52548571D01*
X114874285Y-52643809D01*
X114874285Y-52881904D01*
X114826666Y-52977142D01*
X114779047Y-53024761D01*
X114683809Y-53072380D01*
X114398095Y-53072380D01*
X114302857Y-53024761D01*
X114255238Y-52977142D01*
X70576666Y-91838571D02*
X70243333Y-91838571D01*
X70243333Y-92362380D02*
X70243333Y-91362380D01*
X70719523Y-91362380D01*
X71052857Y-91457619D02*
X71100476Y-91410000D01*
X71195714Y-91362380D01*
X71433809Y-91362380D01*
X71529047Y-91410000D01*
X71576666Y-91457619D01*
X71624285Y-91552857D01*
X71624285Y-91648095D01*
X71576666Y-91790952D01*
X71005238Y-92362380D01*
X71624285Y-92362380D01*
X71826666Y-61328571D02*
X71493333Y-61328571D01*
X71493333Y-61852380D02*
X71493333Y-60852380D01*
X71969523Y-60852380D01*
X72874285Y-61852380D02*
X72302857Y-61852380D01*
X72588571Y-61852380D02*
X72588571Y-60852380D01*
X72493333Y-60995238D01*
X72398095Y-61090476D01*
X72302857Y-61138095D01*
X70686666Y-109588571D02*
X70353333Y-109588571D01*
X70353333Y-110112380D02*
X70353333Y-109112380D01*
X70829523Y-109112380D01*
X71639047Y-109445714D02*
X71639047Y-110112380D01*
X71400952Y-109064761D02*
X71162857Y-109779047D01*
X71781904Y-109779047D01*
X84263333Y-70072380D02*
X83930000Y-69596190D01*
X83691904Y-70072380D02*
X83691904Y-69072380D01*
X84072857Y-69072380D01*
X84168095Y-69120000D01*
X84215714Y-69167619D01*
X84263333Y-69262857D01*
X84263333Y-69405714D01*
X84215714Y-69500952D01*
X84168095Y-69548571D01*
X84072857Y-69596190D01*
X83691904Y-69596190D01*
X85120476Y-69072380D02*
X84930000Y-69072380D01*
X84834761Y-69120000D01*
X84787142Y-69167619D01*
X84691904Y-69310476D01*
X84644285Y-69500952D01*
X84644285Y-69881904D01*
X84691904Y-69977142D01*
X84739523Y-70024761D01*
X84834761Y-70072380D01*
X85025238Y-70072380D01*
X85120476Y-70024761D01*
X85168095Y-69977142D01*
X85215714Y-69881904D01*
X85215714Y-69643809D01*
X85168095Y-69548571D01*
X85120476Y-69500952D01*
X85025238Y-69453333D01*
X84834761Y-69453333D01*
X84739523Y-69500952D01*
X84691904Y-69548571D01*
X84644285Y-69643809D01*
X135072380Y-70802857D02*
X134596190Y-71136190D01*
X135072380Y-71374285D02*
X134072380Y-71374285D01*
X134072380Y-70993333D01*
X134120000Y-70898095D01*
X134167619Y-70850476D01*
X134262857Y-70802857D01*
X134405714Y-70802857D01*
X134500952Y-70850476D01*
X134548571Y-70898095D01*
X134596190Y-70993333D01*
X134596190Y-71374285D01*
X135072380Y-69850476D02*
X135072380Y-70421904D01*
X135072380Y-70136190D02*
X134072380Y-70136190D01*
X134215238Y-70231428D01*
X134310476Y-70326666D01*
X134358095Y-70421904D01*
X135072380Y-68898095D02*
X135072380Y-69469523D01*
X135072380Y-69183809D02*
X134072380Y-69183809D01*
X134215238Y-69279047D01*
X134310476Y-69374285D01*
X134358095Y-69469523D01*
X118462380Y-78552857D02*
X117986190Y-78886190D01*
X118462380Y-79124285D02*
X117462380Y-79124285D01*
X117462380Y-78743333D01*
X117510000Y-78648095D01*
X117557619Y-78600476D01*
X117652857Y-78552857D01*
X117795714Y-78552857D01*
X117890952Y-78600476D01*
X117938571Y-78648095D01*
X117986190Y-78743333D01*
X117986190Y-79124285D01*
X118462380Y-77600476D02*
X118462380Y-78171904D01*
X118462380Y-77886190D02*
X117462380Y-77886190D01*
X117605238Y-77981428D01*
X117700476Y-78076666D01*
X117748095Y-78171904D01*
X117462380Y-76981428D02*
X117462380Y-76886190D01*
X117510000Y-76790952D01*
X117557619Y-76743333D01*
X117652857Y-76695714D01*
X117843333Y-76648095D01*
X118081428Y-76648095D01*
X118271904Y-76695714D01*
X118367142Y-76743333D01*
X118414761Y-76790952D01*
X118462380Y-76886190D01*
X118462380Y-76981428D01*
X118414761Y-77076666D01*
X118367142Y-77124285D01*
X118271904Y-77171904D01*
X118081428Y-77219523D01*
X117843333Y-77219523D01*
X117652857Y-77171904D01*
X117557619Y-77124285D01*
X117510000Y-77076666D01*
X117462380Y-76981428D01*
X97993333Y-99152380D02*
X97660000Y-98676190D01*
X97421904Y-99152380D02*
X97421904Y-98152380D01*
X97802857Y-98152380D01*
X97898095Y-98200000D01*
X97945714Y-98247619D01*
X97993333Y-98342857D01*
X97993333Y-98485714D01*
X97945714Y-98580952D01*
X97898095Y-98628571D01*
X97802857Y-98676190D01*
X97421904Y-98676190D01*
X98469523Y-99152380D02*
X98660000Y-99152380D01*
X98755238Y-99104761D01*
X98802857Y-99057142D01*
X98898095Y-98914285D01*
X98945714Y-98723809D01*
X98945714Y-98342857D01*
X98898095Y-98247619D01*
X98850476Y-98200000D01*
X98755238Y-98152380D01*
X98564761Y-98152380D01*
X98469523Y-98200000D01*
X98421904Y-98247619D01*
X98374285Y-98342857D01*
X98374285Y-98580952D01*
X98421904Y-98676190D01*
X98469523Y-98723809D01*
X98564761Y-98771428D01*
X98755238Y-98771428D01*
X98850476Y-98723809D01*
X98898095Y-98676190D01*
X98945714Y-98580952D01*
X93993333Y-126072380D02*
X93660000Y-125596190D01*
X93421904Y-126072380D02*
X93421904Y-125072380D01*
X93802857Y-125072380D01*
X93898095Y-125120000D01*
X93945714Y-125167619D01*
X93993333Y-125262857D01*
X93993333Y-125405714D01*
X93945714Y-125500952D01*
X93898095Y-125548571D01*
X93802857Y-125596190D01*
X93421904Y-125596190D01*
X94564761Y-125500952D02*
X94469523Y-125453333D01*
X94421904Y-125405714D01*
X94374285Y-125310476D01*
X94374285Y-125262857D01*
X94421904Y-125167619D01*
X94469523Y-125120000D01*
X94564761Y-125072380D01*
X94755238Y-125072380D01*
X94850476Y-125120000D01*
X94898095Y-125167619D01*
X94945714Y-125262857D01*
X94945714Y-125310476D01*
X94898095Y-125405714D01*
X94850476Y-125453333D01*
X94755238Y-125500952D01*
X94564761Y-125500952D01*
X94469523Y-125548571D01*
X94421904Y-125596190D01*
X94374285Y-125691428D01*
X94374285Y-125881904D01*
X94421904Y-125977142D01*
X94469523Y-126024761D01*
X94564761Y-126072380D01*
X94755238Y-126072380D01*
X94850476Y-126024761D01*
X94898095Y-125977142D01*
X94945714Y-125881904D01*
X94945714Y-125691428D01*
X94898095Y-125596190D01*
X94850476Y-125548571D01*
X94755238Y-125500952D01*
X83553333Y-145672380D02*
X83220000Y-145196190D01*
X82981904Y-145672380D02*
X82981904Y-144672380D01*
X83362857Y-144672380D01*
X83458095Y-144720000D01*
X83505714Y-144767619D01*
X83553333Y-144862857D01*
X83553333Y-145005714D01*
X83505714Y-145100952D01*
X83458095Y-145148571D01*
X83362857Y-145196190D01*
X82981904Y-145196190D01*
X83886666Y-144672380D02*
X84553333Y-144672380D01*
X84124761Y-145672380D01*
X119113333Y-143132380D02*
X118780000Y-142656190D01*
X118541904Y-143132380D02*
X118541904Y-142132380D01*
X118922857Y-142132380D01*
X119018095Y-142180000D01*
X119065714Y-142227619D01*
X119113333Y-142322857D01*
X119113333Y-142465714D01*
X119065714Y-142560952D01*
X119018095Y-142608571D01*
X118922857Y-142656190D01*
X118541904Y-142656190D01*
X120018095Y-142132380D02*
X119541904Y-142132380D01*
X119494285Y-142608571D01*
X119541904Y-142560952D01*
X119637142Y-142513333D01*
X119875238Y-142513333D01*
X119970476Y-142560952D01*
X120018095Y-142608571D01*
X120065714Y-142703809D01*
X120065714Y-142941904D01*
X120018095Y-143037142D01*
X119970476Y-143084761D01*
X119875238Y-143132380D01*
X119637142Y-143132380D01*
X119541904Y-143084761D01*
X119494285Y-143037142D01*
X132993333Y-132152380D02*
X132660000Y-131676190D01*
X132421904Y-132152380D02*
X132421904Y-131152380D01*
X132802857Y-131152380D01*
X132898095Y-131200000D01*
X132945714Y-131247619D01*
X132993333Y-131342857D01*
X132993333Y-131485714D01*
X132945714Y-131580952D01*
X132898095Y-131628571D01*
X132802857Y-131676190D01*
X132421904Y-131676190D01*
X133850476Y-131485714D02*
X133850476Y-132152380D01*
X133612380Y-131104761D02*
X133374285Y-131819047D01*
X133993333Y-131819047D01*
X98993333Y-103072380D02*
X98660000Y-102596190D01*
X98421904Y-103072380D02*
X98421904Y-102072380D01*
X98802857Y-102072380D01*
X98898095Y-102120000D01*
X98945714Y-102167619D01*
X98993333Y-102262857D01*
X98993333Y-102405714D01*
X98945714Y-102500952D01*
X98898095Y-102548571D01*
X98802857Y-102596190D01*
X98421904Y-102596190D01*
X99326666Y-102072380D02*
X99945714Y-102072380D01*
X99612380Y-102453333D01*
X99755238Y-102453333D01*
X99850476Y-102500952D01*
X99898095Y-102548571D01*
X99945714Y-102643809D01*
X99945714Y-102881904D01*
X99898095Y-102977142D01*
X99850476Y-103024761D01*
X99755238Y-103072380D01*
X99469523Y-103072380D01*
X99374285Y-103024761D01*
X99326666Y-102977142D01*
X97993333Y-92152380D02*
X97660000Y-91676190D01*
X97421904Y-92152380D02*
X97421904Y-91152380D01*
X97802857Y-91152380D01*
X97898095Y-91200000D01*
X97945714Y-91247619D01*
X97993333Y-91342857D01*
X97993333Y-91485714D01*
X97945714Y-91580952D01*
X97898095Y-91628571D01*
X97802857Y-91676190D01*
X97421904Y-91676190D01*
X98374285Y-91247619D02*
X98421904Y-91200000D01*
X98517142Y-91152380D01*
X98755238Y-91152380D01*
X98850476Y-91200000D01*
X98898095Y-91247619D01*
X98945714Y-91342857D01*
X98945714Y-91438095D01*
X98898095Y-91580952D01*
X98326666Y-92152380D01*
X98945714Y-92152380D01*
X108993333Y-126072380D02*
X108660000Y-125596190D01*
X108421904Y-126072380D02*
X108421904Y-125072380D01*
X108802857Y-125072380D01*
X108898095Y-125120000D01*
X108945714Y-125167619D01*
X108993333Y-125262857D01*
X108993333Y-125405714D01*
X108945714Y-125500952D01*
X108898095Y-125548571D01*
X108802857Y-125596190D01*
X108421904Y-125596190D01*
X109945714Y-126072380D02*
X109374285Y-126072380D01*
X109660000Y-126072380D02*
X109660000Y-125072380D01*
X109564761Y-125215238D01*
X109469523Y-125310476D01*
X109374285Y-125358095D01*
X81421904Y-109612380D02*
X81421904Y-108612380D01*
X81660000Y-108612380D01*
X81802857Y-108660000D01*
X81898095Y-108755238D01*
X81945714Y-108850476D01*
X81993333Y-109040952D01*
X81993333Y-109183809D01*
X81945714Y-109374285D01*
X81898095Y-109469523D01*
X81802857Y-109564761D01*
X81660000Y-109612380D01*
X81421904Y-109612380D01*
X82374285Y-108707619D02*
X82421904Y-108660000D01*
X82517142Y-108612380D01*
X82755238Y-108612380D01*
X82850476Y-108660000D01*
X82898095Y-108707619D01*
X82945714Y-108802857D01*
X82945714Y-108898095D01*
X82898095Y-109040952D01*
X82326666Y-109612380D01*
X82945714Y-109612380D01*
X80441904Y-102619380D02*
X80441904Y-101619380D01*
X80680000Y-101619380D01*
X80822857Y-101667000D01*
X80918095Y-101762238D01*
X80965714Y-101857476D01*
X81013333Y-102047952D01*
X81013333Y-102190809D01*
X80965714Y-102381285D01*
X80918095Y-102476523D01*
X80822857Y-102571761D01*
X80680000Y-102619380D01*
X80441904Y-102619380D01*
X81965714Y-102619380D02*
X81394285Y-102619380D01*
X81680000Y-102619380D02*
X81680000Y-101619380D01*
X81584761Y-101762238D01*
X81489523Y-101857476D01*
X81394285Y-101905095D01*
X66662380Y-61733333D02*
X67376666Y-61733333D01*
X67519523Y-61780952D01*
X67614761Y-61876190D01*
X67662380Y-62019047D01*
X67662380Y-62114285D01*
X66757619Y-61304761D02*
X66710000Y-61257142D01*
X66662380Y-61161904D01*
X66662380Y-60923809D01*
X66710000Y-60828571D01*
X66757619Y-60780952D01*
X66852857Y-60733333D01*
X66948095Y-60733333D01*
X67090952Y-60780952D01*
X67662380Y-61352380D01*
X67662380Y-60733333D01*
X66662380Y-73163333D02*
X67376666Y-73163333D01*
X67519523Y-73210952D01*
X67614761Y-73306190D01*
X67662380Y-73449047D01*
X67662380Y-73544285D01*
X66662380Y-72782380D02*
X66662380Y-72163333D01*
X67043333Y-72496666D01*
X67043333Y-72353809D01*
X67090952Y-72258571D01*
X67138571Y-72210952D01*
X67233809Y-72163333D01*
X67471904Y-72163333D01*
X67567142Y-72210952D01*
X67614761Y-72258571D01*
X67662380Y-72353809D01*
X67662380Y-72639523D01*
X67614761Y-72734761D01*
X67567142Y-72782380D01*
X66662380Y-84593333D02*
X67376666Y-84593333D01*
X67519523Y-84640952D01*
X67614761Y-84736190D01*
X67662380Y-84879047D01*
X67662380Y-84974285D01*
X66995714Y-83688571D02*
X67662380Y-83688571D01*
X66614761Y-83926666D02*
X67329047Y-84164761D01*
X67329047Y-83545714D01*
X66662380Y-96658333D02*
X67376666Y-96658333D01*
X67519523Y-96705952D01*
X67614761Y-96801190D01*
X67662380Y-96944047D01*
X67662380Y-97039285D01*
X66662380Y-95705952D02*
X66662380Y-96182142D01*
X67138571Y-96229761D01*
X67090952Y-96182142D01*
X67043333Y-96086904D01*
X67043333Y-95848809D01*
X67090952Y-95753571D01*
X67138571Y-95705952D01*
X67233809Y-95658333D01*
X67471904Y-95658333D01*
X67567142Y-95705952D01*
X67614761Y-95753571D01*
X67662380Y-95848809D01*
X67662380Y-96086904D01*
X67614761Y-96182142D01*
X67567142Y-96229761D01*
X66662380Y-120153333D02*
X67376666Y-120153333D01*
X67519523Y-120200952D01*
X67614761Y-120296190D01*
X67662380Y-120439047D01*
X67662380Y-120534285D01*
X66662380Y-119248571D02*
X66662380Y-119439047D01*
X66710000Y-119534285D01*
X66757619Y-119581904D01*
X66900476Y-119677142D01*
X67090952Y-119724761D01*
X67471904Y-119724761D01*
X67567142Y-119677142D01*
X67614761Y-119629523D01*
X67662380Y-119534285D01*
X67662380Y-119343809D01*
X67614761Y-119248571D01*
X67567142Y-119200952D01*
X67471904Y-119153333D01*
X67233809Y-119153333D01*
X67138571Y-119200952D01*
X67090952Y-119248571D01*
X67043333Y-119343809D01*
X67043333Y-119534285D01*
X67090952Y-119629523D01*
X67138571Y-119677142D01*
X67233809Y-119724761D01*
X66232380Y-144253333D02*
X66946666Y-144253333D01*
X67089523Y-144300952D01*
X67184761Y-144396190D01*
X67232380Y-144539047D01*
X67232380Y-144634285D01*
X66232380Y-143872380D02*
X66232380Y-143205714D01*
X67232380Y-143634285D01*
X99468095Y-137262380D02*
X99468095Y-138071904D01*
X99515714Y-138167142D01*
X99563333Y-138214761D01*
X99658571Y-138262380D01*
X99849047Y-138262380D01*
X99944285Y-138214761D01*
X99991904Y-138167142D01*
X100039523Y-138071904D01*
X100039523Y-137262380D01*
X100991904Y-137262380D02*
X100515714Y-137262380D01*
X100468095Y-137738571D01*
X100515714Y-137690952D01*
X100610952Y-137643333D01*
X100849047Y-137643333D01*
X100944285Y-137690952D01*
X100991904Y-137738571D01*
X101039523Y-137833809D01*
X101039523Y-138071904D01*
X100991904Y-138167142D01*
X100944285Y-138214761D01*
X100849047Y-138262380D01*
X100610952Y-138262380D01*
X100515714Y-138214761D01*
X100468095Y-138167142D01*
M02*
