M48
; DRILL file {KiCad (5.1.0)-1} date 4/24/2019 2:26:46 PM
; FORMAT={-:-/ absolute / inch / decimal}
; #@! TF.CreationDate,2019-04-24T14:26:46-04:00
; #@! TF.GenerationSoftware,Kicad,Pcbnew,(5.1.0)-1
; #@! TF.FileFunction,Plated,1,2,PTH
FMAT,2
INCH
T1C0.0300
T2C0.0315
T3C0.0394
T4C0.0598
%
G90
G05
T1
X2.674Y-2.8409
X3.874Y-2.8409
X3.6646Y-3.7858
X4.1646Y-3.7858
X4.3945Y-2.1717
X4.5945Y-2.1717
X5.4Y-2.5622
X5.4Y-3.0622
X3.389Y-2.1673
X3.389Y-2.5173
X4.189Y-2.1673
X4.189Y-2.5173
X3.6646Y-3.5102
X4.1646Y-3.5102
X2.7409Y-2.3173
X2.9409Y-2.3173
X2.7016Y-3.8941
X2.9016Y-3.8941
X4.0976Y-5.0457
X4.5976Y-5.0457
X2.9961Y-5.8173
X3.4961Y-5.8173
X4.3961Y-5.7173
X4.8961Y-5.7173
X5.0425Y-5.085
X5.5425Y-5.085
X2.6961Y-4.4173
X2.8961Y-4.4173
X2.7016Y-3.6972
X2.9016Y-3.6972
X3.4071Y-5.0457
X3.9071Y-5.0457
X3.6039Y-4.1402
X4.1039Y-4.1402
X5.4Y-2.2504
X5.4Y-2.3291
X5.4Y-2.4079
X4.5461Y-2.7673
X4.5461Y-3.2673
X2.6961Y-4.2173
X2.8961Y-4.2173
T2
X4.3961Y-4.2205
X4.3961Y-4.3189
X5.2575Y-3.2827
X5.2575Y-3.3827
X5.2575Y-3.4827
X5.2575Y-3.5827
X5.2575Y-3.6827
X5.2575Y-3.7827
X5.2575Y-3.8827
X5.2575Y-3.9827
X5.5575Y-3.2827
X5.5575Y-3.3827
X5.5575Y-3.4827
X5.5575Y-3.5827
X5.5575Y-3.6827
X5.5575Y-3.7827
X5.5575Y-3.8827
X5.5575Y-3.9827
X2.7461Y-5.1173
X2.8445Y-5.1173
X3.6283Y-3.1756
X3.6283Y-3.274
X4.8488Y-2.1717
X4.9472Y-2.1717
X5.2425Y-5.4394
X5.2425Y-5.5394
X5.2425Y-5.6394
X5.2425Y-5.7394
X5.5425Y-5.4394
X5.5425Y-5.5394
X5.5425Y-5.6394
X5.5425Y-5.7394
X3.7961Y-5.5173
X3.7961Y-5.6173
X3.7961Y-5.7173
X3.7961Y-5.8173
X4.0961Y-5.5173
X4.0961Y-5.6173
X4.0961Y-5.7173
X4.0961Y-5.8173
X5.2819Y-4.3764
X5.2819Y-4.4764
X5.2819Y-4.5764
X5.2819Y-4.6764
X5.5819Y-4.3764
X5.5819Y-4.4764
X5.5819Y-4.5764
X5.5819Y-4.6764
X4.1992Y-4.6126
X4.2976Y-4.6126
X2.8961Y-3.1173
X2.8961Y-3.2173
X2.8961Y-3.3173
X2.8961Y-3.4173
X3.1961Y-3.1173
X3.1961Y-3.2173
X3.1961Y-3.3173
X3.1961Y-3.4173
X3.7071Y-4.5142
X3.7071Y-4.6126
T3
X4.9169Y-2.7571
X4.9169Y-3.2571
X4.9169Y-3.3571
X4.9169Y-3.6571
X4.9169Y-3.7571
X4.9169Y-3.8571
X4.9169Y-4.6571
X5.0169Y-2.7571
X5.0169Y-2.9571
X5.0169Y-3.2571
X5.0169Y-3.3571
X5.0169Y-3.8571
X5.0169Y-4.6571
X3.0961Y-3.6923
X3.0961Y-3.8923
X3.2961Y-3.6923
X3.2961Y-3.8923
X3.0961Y-4.2173
X3.0961Y-4.4173
X3.2961Y-4.2173
X3.2961Y-4.4173
T4
X2.4461Y-3.6923
X2.4461Y-3.8923
X2.4461Y-3.2173
X2.4461Y-3.4173
X2.4461Y-2.7673
X2.4461Y-2.9673
X2.4461Y-2.3173
X2.4461Y-2.5173
X2.4461Y-4.6173
X2.4461Y-4.8173
X2.4461Y-5.4673
X2.4461Y-5.6673
X2.4461Y-5.8673
T0
M30
