%TF.GenerationSoftware,KiCad,Pcbnew,(5.1.0)-1*%
%TF.CreationDate,2019-04-24T14:24:49-04:00*%
%TF.ProjectId,SGschematic,53477363-6865-46d6-9174-69632e6b6963,rev?*%
%TF.SameCoordinates,Original*%
%TF.FileFunction,Other,Comment*%
%FSLAX46Y46*%
G04 Gerber Fmt 4.6, Leading zero omitted, Abs format (unit mm)*
G04 Created by KiCad (PCBNEW (5.1.0)-1) date 2019-04-24 14:24:49*
%MOMM*%
%LPD*%
G04 APERTURE LIST*
%ADD10C,0.150000*%
G04 APERTURE END LIST*
D10*
X44076666Y-165160000D02*
G75*
G03X44076666Y-165160000I-1666666J0D01*
G01*
X39910000Y-165160000D02*
X44910000Y-165160000D01*
X42410000Y-162660000D02*
X42410000Y-167660000D01*
X46576666Y-43910000D02*
G75*
G03X46576666Y-43910000I-1666666J0D01*
G01*
X42410000Y-43910000D02*
X47410000Y-43910000D01*
X44910000Y-41410000D02*
X44910000Y-46410000D01*
X154576666Y-43410000D02*
G75*
G03X154576666Y-43410000I-1666666J0D01*
G01*
X150410000Y-43410000D02*
X155410000Y-43410000D01*
X152910000Y-40910000D02*
X152910000Y-45910000D01*
X154576666Y-164660000D02*
G75*
G03X154576666Y-164660000I-1666666J0D01*
G01*
X150410000Y-164660000D02*
X155410000Y-164660000D01*
X152910000Y-162160000D02*
X152910000Y-167160000D01*
X52945714Y-123136190D02*
X53231428Y-123898095D01*
X53517142Y-123136190D01*
X53231428Y-122660000D02*
X53231428Y-121898095D01*
X53231428Y-121421904D02*
X53231428Y-120660000D01*
X53231428Y-120183809D02*
X53231428Y-119421904D01*
X53231428Y-118945714D02*
X53231428Y-118183809D01*
X53231428Y-117707619D02*
X53231428Y-116945714D01*
X52945714Y-112993333D02*
X53612380Y-112993333D01*
X52564761Y-113231428D02*
X53279047Y-113469523D01*
X53279047Y-112850476D01*
X53517142Y-112469523D02*
X53564761Y-112421904D01*
X53612380Y-112469523D01*
X53564761Y-112517142D01*
X53517142Y-112469523D01*
X53612380Y-112469523D01*
X52612380Y-111517142D02*
X52612380Y-111993333D01*
X53088571Y-112040952D01*
X53040952Y-111993333D01*
X52993333Y-111898095D01*
X52993333Y-111660000D01*
X53040952Y-111564761D01*
X53088571Y-111517142D01*
X53183809Y-111469523D01*
X53421904Y-111469523D01*
X53517142Y-111517142D01*
X53564761Y-111564761D01*
X53612380Y-111660000D01*
X53612380Y-111898095D01*
X53564761Y-111993333D01*
X53517142Y-112040952D01*
X52612380Y-110612380D02*
X52612380Y-110802857D01*
X52660000Y-110898095D01*
X52707619Y-110945714D01*
X52850476Y-111040952D01*
X53040952Y-111088571D01*
X53421904Y-111088571D01*
X53517142Y-111040952D01*
X53564761Y-110993333D01*
X53612380Y-110898095D01*
X53612380Y-110707619D01*
X53564761Y-110612380D01*
X53517142Y-110564761D01*
X53421904Y-110517142D01*
X53183809Y-110517142D01*
X53088571Y-110564761D01*
X53040952Y-110612380D01*
X52993333Y-110707619D01*
X52993333Y-110898095D01*
X53040952Y-110993333D01*
X53088571Y-111040952D01*
X53183809Y-111088571D01*
X52612380Y-110183809D02*
X52612380Y-109517142D01*
X53612380Y-109945714D01*
X53612380Y-108374285D02*
X52945714Y-108374285D01*
X52612380Y-108374285D02*
X52660000Y-108421904D01*
X52707619Y-108374285D01*
X52660000Y-108326666D01*
X52612380Y-108374285D01*
X52707619Y-108374285D01*
X52945714Y-107898095D02*
X53612380Y-107898095D01*
X53040952Y-107898095D02*
X52993333Y-107850476D01*
X52945714Y-107755238D01*
X52945714Y-107612380D01*
X52993333Y-107517142D01*
X53088571Y-107469523D01*
X53612380Y-107469523D01*
X53564761Y-106564761D02*
X53612380Y-106660000D01*
X53612380Y-106850476D01*
X53564761Y-106945714D01*
X53517142Y-106993333D01*
X53421904Y-107040952D01*
X53136190Y-107040952D01*
X53040952Y-106993333D01*
X52993333Y-106945714D01*
X52945714Y-106850476D01*
X52945714Y-106660000D01*
X52993333Y-106564761D01*
X53612380Y-106136190D02*
X52612380Y-106136190D01*
X53612380Y-105707619D02*
X53088571Y-105707619D01*
X52993333Y-105755238D01*
X52945714Y-105850476D01*
X52945714Y-105993333D01*
X52993333Y-106088571D01*
X53040952Y-106136190D01*
X53564761Y-104850476D02*
X53612380Y-104945714D01*
X53612380Y-105136190D01*
X53564761Y-105231428D01*
X53469523Y-105279047D01*
X53088571Y-105279047D01*
X52993333Y-105231428D01*
X52945714Y-105136190D01*
X52945714Y-104945714D01*
X52993333Y-104850476D01*
X53088571Y-104802857D01*
X53183809Y-104802857D01*
X53279047Y-105279047D01*
X53564761Y-104421904D02*
X53612380Y-104326666D01*
X53612380Y-104136190D01*
X53564761Y-104040952D01*
X53469523Y-103993333D01*
X53421904Y-103993333D01*
X53326666Y-104040952D01*
X53279047Y-104136190D01*
X53279047Y-104279047D01*
X53231428Y-104374285D01*
X53136190Y-104421904D01*
X53088571Y-104421904D01*
X52993333Y-104374285D01*
X52945714Y-104279047D01*
X52945714Y-104136190D01*
X52993333Y-104040952D01*
X53612380Y-102802857D02*
X52612380Y-102802857D01*
X53612380Y-102374285D02*
X53088571Y-102374285D01*
X52993333Y-102421904D01*
X52945714Y-102517142D01*
X52945714Y-102660000D01*
X52993333Y-102755238D01*
X53040952Y-102802857D01*
X53612380Y-101898095D02*
X52945714Y-101898095D01*
X52612380Y-101898095D02*
X52660000Y-101945714D01*
X52707619Y-101898095D01*
X52660000Y-101850476D01*
X52612380Y-101898095D01*
X52707619Y-101898095D01*
X52945714Y-100993333D02*
X53755238Y-100993333D01*
X53850476Y-101040952D01*
X53898095Y-101088571D01*
X53945714Y-101183809D01*
X53945714Y-101326666D01*
X53898095Y-101421904D01*
X53564761Y-100993333D02*
X53612380Y-101088571D01*
X53612380Y-101279047D01*
X53564761Y-101374285D01*
X53517142Y-101421904D01*
X53421904Y-101469523D01*
X53136190Y-101469523D01*
X53040952Y-101421904D01*
X52993333Y-101374285D01*
X52945714Y-101279047D01*
X52945714Y-101088571D01*
X52993333Y-100993333D01*
X53612380Y-100517142D02*
X52612380Y-100517142D01*
X53612380Y-100088571D02*
X53088571Y-100088571D01*
X52993333Y-100136190D01*
X52945714Y-100231428D01*
X52945714Y-100374285D01*
X52993333Y-100469523D01*
X53040952Y-100517142D01*
X53231428Y-98088571D02*
X53231428Y-97326666D01*
X53231428Y-96850476D02*
X53231428Y-96088571D01*
X53231428Y-95612380D02*
X53231428Y-94850476D01*
X53231428Y-94374285D02*
X53231428Y-93612380D01*
X53231428Y-93136190D02*
X53231428Y-92374285D01*
X53231428Y-91898095D02*
X53231428Y-91136190D01*
X53231428Y-90660000D02*
X53231428Y-89898095D01*
X53231428Y-89421904D02*
X53231428Y-88660000D01*
X52945714Y-88183809D02*
X53231428Y-87421904D01*
X53517142Y-88183809D01*
X81362380Y-159445714D02*
X80600476Y-159731428D01*
X81362380Y-160017142D01*
X81838571Y-159731428D02*
X82600476Y-159731428D01*
X83076666Y-159731428D02*
X83838571Y-159731428D01*
X84314761Y-159731428D02*
X85076666Y-159731428D01*
X85552857Y-159731428D02*
X86314761Y-159731428D01*
X89505238Y-159445714D02*
X89505238Y-160112380D01*
X89267142Y-159064761D02*
X89029047Y-159779047D01*
X89648095Y-159779047D01*
X90029047Y-160017142D02*
X90076666Y-160064761D01*
X90029047Y-160112380D01*
X89981428Y-160064761D01*
X90029047Y-160017142D01*
X90029047Y-160112380D01*
X90695714Y-159112380D02*
X90790952Y-159112380D01*
X90886190Y-159160000D01*
X90933809Y-159207619D01*
X90981428Y-159302857D01*
X91029047Y-159493333D01*
X91029047Y-159731428D01*
X90981428Y-159921904D01*
X90933809Y-160017142D01*
X90886190Y-160064761D01*
X90790952Y-160112380D01*
X90695714Y-160112380D01*
X90600476Y-160064761D01*
X90552857Y-160017142D01*
X90505238Y-159921904D01*
X90457619Y-159731428D01*
X90457619Y-159493333D01*
X90505238Y-159302857D01*
X90552857Y-159207619D01*
X90600476Y-159160000D01*
X90695714Y-159112380D01*
X91981428Y-160112380D02*
X91410000Y-160112380D01*
X91695714Y-160112380D02*
X91695714Y-159112380D01*
X91600476Y-159255238D01*
X91505238Y-159350476D01*
X91410000Y-159398095D01*
X92838571Y-159112380D02*
X92648095Y-159112380D01*
X92552857Y-159160000D01*
X92505238Y-159207619D01*
X92410000Y-159350476D01*
X92362380Y-159540952D01*
X92362380Y-159921904D01*
X92410000Y-160017142D01*
X92457619Y-160064761D01*
X92552857Y-160112380D01*
X92743333Y-160112380D01*
X92838571Y-160064761D01*
X92886190Y-160017142D01*
X92933809Y-159921904D01*
X92933809Y-159683809D01*
X92886190Y-159588571D01*
X92838571Y-159540952D01*
X92743333Y-159493333D01*
X92552857Y-159493333D01*
X92457619Y-159540952D01*
X92410000Y-159588571D01*
X92362380Y-159683809D01*
X94124285Y-160112380D02*
X94124285Y-159445714D01*
X94124285Y-159112380D02*
X94076666Y-159160000D01*
X94124285Y-159207619D01*
X94171904Y-159160000D01*
X94124285Y-159112380D01*
X94124285Y-159207619D01*
X94600476Y-159445714D02*
X94600476Y-160112380D01*
X94600476Y-159540952D02*
X94648095Y-159493333D01*
X94743333Y-159445714D01*
X94886190Y-159445714D01*
X94981428Y-159493333D01*
X95029047Y-159588571D01*
X95029047Y-160112380D01*
X95933809Y-160064761D02*
X95838571Y-160112380D01*
X95648095Y-160112380D01*
X95552857Y-160064761D01*
X95505238Y-160017142D01*
X95457619Y-159921904D01*
X95457619Y-159636190D01*
X95505238Y-159540952D01*
X95552857Y-159493333D01*
X95648095Y-159445714D01*
X95838571Y-159445714D01*
X95933809Y-159493333D01*
X96362380Y-160112380D02*
X96362380Y-159112380D01*
X96790952Y-160112380D02*
X96790952Y-159588571D01*
X96743333Y-159493333D01*
X96648095Y-159445714D01*
X96505238Y-159445714D01*
X96410000Y-159493333D01*
X96362380Y-159540952D01*
X97648095Y-160064761D02*
X97552857Y-160112380D01*
X97362380Y-160112380D01*
X97267142Y-160064761D01*
X97219523Y-159969523D01*
X97219523Y-159588571D01*
X97267142Y-159493333D01*
X97362380Y-159445714D01*
X97552857Y-159445714D01*
X97648095Y-159493333D01*
X97695714Y-159588571D01*
X97695714Y-159683809D01*
X97219523Y-159779047D01*
X98076666Y-160064761D02*
X98171904Y-160112380D01*
X98362380Y-160112380D01*
X98457619Y-160064761D01*
X98505238Y-159969523D01*
X98505238Y-159921904D01*
X98457619Y-159826666D01*
X98362380Y-159779047D01*
X98219523Y-159779047D01*
X98124285Y-159731428D01*
X98076666Y-159636190D01*
X98076666Y-159588571D01*
X98124285Y-159493333D01*
X98219523Y-159445714D01*
X98362380Y-159445714D01*
X98457619Y-159493333D01*
X99600476Y-159445714D02*
X99790952Y-160112380D01*
X99981428Y-159636190D01*
X100171904Y-160112380D01*
X100362380Y-159445714D01*
X100743333Y-160112380D02*
X100743333Y-159445714D01*
X100743333Y-159112380D02*
X100695714Y-159160000D01*
X100743333Y-159207619D01*
X100790952Y-159160000D01*
X100743333Y-159112380D01*
X100743333Y-159207619D01*
X101648095Y-160112380D02*
X101648095Y-159112380D01*
X101648095Y-160064761D02*
X101552857Y-160112380D01*
X101362380Y-160112380D01*
X101267142Y-160064761D01*
X101219523Y-160017142D01*
X101171904Y-159921904D01*
X101171904Y-159636190D01*
X101219523Y-159540952D01*
X101267142Y-159493333D01*
X101362380Y-159445714D01*
X101552857Y-159445714D01*
X101648095Y-159493333D01*
X102505238Y-160064761D02*
X102410000Y-160112380D01*
X102219523Y-160112380D01*
X102124285Y-160064761D01*
X102076666Y-159969523D01*
X102076666Y-159588571D01*
X102124285Y-159493333D01*
X102219523Y-159445714D01*
X102410000Y-159445714D01*
X102505238Y-159493333D01*
X102552857Y-159588571D01*
X102552857Y-159683809D01*
X102076666Y-159779047D01*
X104505238Y-159731428D02*
X105267142Y-159731428D01*
X105743333Y-159731428D02*
X106505238Y-159731428D01*
X106981428Y-159731428D02*
X107743333Y-159731428D01*
X108219523Y-159731428D02*
X108981428Y-159731428D01*
X109457619Y-159445714D02*
X110219523Y-159731428D01*
X109457619Y-160017142D01*
X80576666Y-155239761D02*
X80719523Y-155287380D01*
X80957619Y-155287380D01*
X81052857Y-155239761D01*
X81100476Y-155192142D01*
X81148095Y-155096904D01*
X81148095Y-155001666D01*
X81100476Y-154906428D01*
X81052857Y-154858809D01*
X80957619Y-154811190D01*
X80767142Y-154763571D01*
X80671904Y-154715952D01*
X80624285Y-154668333D01*
X80576666Y-154573095D01*
X80576666Y-154477857D01*
X80624285Y-154382619D01*
X80671904Y-154335000D01*
X80767142Y-154287380D01*
X81005238Y-154287380D01*
X81148095Y-154335000D01*
X81433809Y-154620714D02*
X81814761Y-154620714D01*
X81576666Y-154287380D02*
X81576666Y-155144523D01*
X81624285Y-155239761D01*
X81719523Y-155287380D01*
X81814761Y-155287380D01*
X82529047Y-155239761D02*
X82433809Y-155287380D01*
X82243333Y-155287380D01*
X82148095Y-155239761D01*
X82100476Y-155144523D01*
X82100476Y-154763571D01*
X82148095Y-154668333D01*
X82243333Y-154620714D01*
X82433809Y-154620714D01*
X82529047Y-154668333D01*
X82576666Y-154763571D01*
X82576666Y-154858809D01*
X82100476Y-154954047D01*
X83433809Y-155287380D02*
X83433809Y-154763571D01*
X83386190Y-154668333D01*
X83290952Y-154620714D01*
X83100476Y-154620714D01*
X83005238Y-154668333D01*
X83433809Y-155239761D02*
X83338571Y-155287380D01*
X83100476Y-155287380D01*
X83005238Y-155239761D01*
X82957619Y-155144523D01*
X82957619Y-155049285D01*
X83005238Y-154954047D01*
X83100476Y-154906428D01*
X83338571Y-154906428D01*
X83433809Y-154858809D01*
X83910000Y-155287380D02*
X83910000Y-154620714D01*
X83910000Y-154715952D02*
X83957619Y-154668333D01*
X84052857Y-154620714D01*
X84195714Y-154620714D01*
X84290952Y-154668333D01*
X84338571Y-154763571D01*
X84338571Y-155287380D01*
X84338571Y-154763571D02*
X84386190Y-154668333D01*
X84481428Y-154620714D01*
X84624285Y-154620714D01*
X84719523Y-154668333D01*
X84767142Y-154763571D01*
X84767142Y-155287380D01*
X86529047Y-154335000D02*
X86433809Y-154287380D01*
X86290952Y-154287380D01*
X86148095Y-154335000D01*
X86052857Y-154430238D01*
X86005238Y-154525476D01*
X85957619Y-154715952D01*
X85957619Y-154858809D01*
X86005238Y-155049285D01*
X86052857Y-155144523D01*
X86148095Y-155239761D01*
X86290952Y-155287380D01*
X86386190Y-155287380D01*
X86529047Y-155239761D01*
X86576666Y-155192142D01*
X86576666Y-154858809D01*
X86386190Y-154858809D01*
X87386190Y-155239761D02*
X87290952Y-155287380D01*
X87100476Y-155287380D01*
X87005238Y-155239761D01*
X86957619Y-155144523D01*
X86957619Y-154763571D01*
X87005238Y-154668333D01*
X87100476Y-154620714D01*
X87290952Y-154620714D01*
X87386190Y-154668333D01*
X87433809Y-154763571D01*
X87433809Y-154858809D01*
X86957619Y-154954047D01*
X87862380Y-154620714D02*
X87862380Y-155287380D01*
X87862380Y-154715952D02*
X87910000Y-154668333D01*
X88005238Y-154620714D01*
X88148095Y-154620714D01*
X88243333Y-154668333D01*
X88290952Y-154763571D01*
X88290952Y-155287380D01*
X89148095Y-155239761D02*
X89052857Y-155287380D01*
X88862380Y-155287380D01*
X88767142Y-155239761D01*
X88719523Y-155144523D01*
X88719523Y-154763571D01*
X88767142Y-154668333D01*
X88862380Y-154620714D01*
X89052857Y-154620714D01*
X89148095Y-154668333D01*
X89195714Y-154763571D01*
X89195714Y-154858809D01*
X88719523Y-154954047D01*
X89624285Y-155287380D02*
X89624285Y-154620714D01*
X89624285Y-154811190D02*
X89671904Y-154715952D01*
X89719523Y-154668333D01*
X89814761Y-154620714D01*
X89910000Y-154620714D01*
X90671904Y-155287380D02*
X90671904Y-154763571D01*
X90624285Y-154668333D01*
X90529047Y-154620714D01*
X90338571Y-154620714D01*
X90243333Y-154668333D01*
X90671904Y-155239761D02*
X90576666Y-155287380D01*
X90338571Y-155287380D01*
X90243333Y-155239761D01*
X90195714Y-155144523D01*
X90195714Y-155049285D01*
X90243333Y-154954047D01*
X90338571Y-154906428D01*
X90576666Y-154906428D01*
X90671904Y-154858809D01*
X91005238Y-154620714D02*
X91386190Y-154620714D01*
X91148095Y-154287380D02*
X91148095Y-155144523D01*
X91195714Y-155239761D01*
X91290952Y-155287380D01*
X91386190Y-155287380D01*
X91719523Y-155287380D02*
X91719523Y-154620714D01*
X91719523Y-154287380D02*
X91671904Y-154335000D01*
X91719523Y-154382619D01*
X91767142Y-154335000D01*
X91719523Y-154287380D01*
X91719523Y-154382619D01*
X92195714Y-154620714D02*
X92195714Y-155287380D01*
X92195714Y-154715952D02*
X92243333Y-154668333D01*
X92338571Y-154620714D01*
X92481428Y-154620714D01*
X92576666Y-154668333D01*
X92624285Y-154763571D01*
X92624285Y-155287380D01*
X93529047Y-154620714D02*
X93529047Y-155430238D01*
X93481428Y-155525476D01*
X93433809Y-155573095D01*
X93338571Y-155620714D01*
X93195714Y-155620714D01*
X93100476Y-155573095D01*
X93529047Y-155239761D02*
X93433809Y-155287380D01*
X93243333Y-155287380D01*
X93148095Y-155239761D01*
X93100476Y-155192142D01*
X93052857Y-155096904D01*
X93052857Y-154811190D01*
X93100476Y-154715952D01*
X93148095Y-154668333D01*
X93243333Y-154620714D01*
X93433809Y-154620714D01*
X93529047Y-154668333D01*
X94767142Y-155287380D02*
X94767142Y-154287380D01*
X94767142Y-154763571D02*
X95338571Y-154763571D01*
X95338571Y-155287380D02*
X95338571Y-154287380D01*
X96243333Y-154620714D02*
X96243333Y-155287380D01*
X95814761Y-154620714D02*
X95814761Y-155144523D01*
X95862380Y-155239761D01*
X95957619Y-155287380D01*
X96100476Y-155287380D01*
X96195714Y-155239761D01*
X96243333Y-155192142D01*
X96719523Y-155287380D02*
X96719523Y-154620714D01*
X96719523Y-154715952D02*
X96767142Y-154668333D01*
X96862380Y-154620714D01*
X97005238Y-154620714D01*
X97100476Y-154668333D01*
X97148095Y-154763571D01*
X97148095Y-155287380D01*
X97148095Y-154763571D02*
X97195714Y-154668333D01*
X97290952Y-154620714D01*
X97433809Y-154620714D01*
X97529047Y-154668333D01*
X97576666Y-154763571D01*
X97576666Y-155287380D01*
X98052857Y-155287380D02*
X98052857Y-154620714D01*
X98052857Y-154287380D02*
X98005238Y-154335000D01*
X98052857Y-154382619D01*
X98100476Y-154335000D01*
X98052857Y-154287380D01*
X98052857Y-154382619D01*
X98957619Y-155287380D02*
X98957619Y-154287380D01*
X98957619Y-155239761D02*
X98862380Y-155287380D01*
X98671904Y-155287380D01*
X98576666Y-155239761D01*
X98529047Y-155192142D01*
X98481428Y-155096904D01*
X98481428Y-154811190D01*
X98529047Y-154715952D01*
X98576666Y-154668333D01*
X98671904Y-154620714D01*
X98862380Y-154620714D01*
X98957619Y-154668333D01*
X99433809Y-155287380D02*
X99433809Y-154620714D01*
X99433809Y-154287380D02*
X99386190Y-154335000D01*
X99433809Y-154382619D01*
X99481428Y-154335000D01*
X99433809Y-154287380D01*
X99433809Y-154382619D01*
X99767142Y-154620714D02*
X100148095Y-154620714D01*
X99910000Y-155287380D02*
X99910000Y-154430238D01*
X99957619Y-154335000D01*
X100052857Y-154287380D01*
X100148095Y-154287380D01*
X100481428Y-155287380D02*
X100481428Y-154620714D01*
X100481428Y-154287380D02*
X100433809Y-154335000D01*
X100481428Y-154382619D01*
X100529047Y-154335000D01*
X100481428Y-154287380D01*
X100481428Y-154382619D01*
X101338571Y-155239761D02*
X101243333Y-155287380D01*
X101052857Y-155287380D01*
X100957619Y-155239761D01*
X100910000Y-155144523D01*
X100910000Y-154763571D01*
X100957619Y-154668333D01*
X101052857Y-154620714D01*
X101243333Y-154620714D01*
X101338571Y-154668333D01*
X101386190Y-154763571D01*
X101386190Y-154858809D01*
X100910000Y-154954047D01*
X101814761Y-155287380D02*
X101814761Y-154620714D01*
X101814761Y-154811190D02*
X101862380Y-154715952D01*
X101910000Y-154668333D01*
X102005238Y-154620714D01*
X102100476Y-154620714D01*
X79219523Y-156413571D02*
X79362380Y-156461190D01*
X79410000Y-156508809D01*
X79457619Y-156604047D01*
X79457619Y-156746904D01*
X79410000Y-156842142D01*
X79362380Y-156889761D01*
X79267142Y-156937380D01*
X78886190Y-156937380D01*
X78886190Y-155937380D01*
X79219523Y-155937380D01*
X79314761Y-155985000D01*
X79362380Y-156032619D01*
X79410000Y-156127857D01*
X79410000Y-156223095D01*
X79362380Y-156318333D01*
X79314761Y-156365952D01*
X79219523Y-156413571D01*
X78886190Y-156413571D01*
X79790952Y-156270714D02*
X80029047Y-156937380D01*
X80267142Y-156270714D02*
X80029047Y-156937380D01*
X79933809Y-157175476D01*
X79886190Y-157223095D01*
X79790952Y-157270714D01*
X81886190Y-156937380D02*
X81410000Y-156937380D01*
X81410000Y-155937380D01*
X82648095Y-156937380D02*
X82648095Y-156413571D01*
X82600476Y-156318333D01*
X82505238Y-156270714D01*
X82314761Y-156270714D01*
X82219523Y-156318333D01*
X82648095Y-156889761D02*
X82552857Y-156937380D01*
X82314761Y-156937380D01*
X82219523Y-156889761D01*
X82171904Y-156794523D01*
X82171904Y-156699285D01*
X82219523Y-156604047D01*
X82314761Y-156556428D01*
X82552857Y-156556428D01*
X82648095Y-156508809D01*
X83124285Y-156937380D02*
X83124285Y-156270714D01*
X83124285Y-156461190D02*
X83171904Y-156365952D01*
X83219523Y-156318333D01*
X83314761Y-156270714D01*
X83410000Y-156270714D01*
X83743333Y-156937380D02*
X83743333Y-156270714D01*
X83743333Y-156461190D02*
X83790952Y-156365952D01*
X83838571Y-156318333D01*
X83933809Y-156270714D01*
X84029047Y-156270714D01*
X84267142Y-156270714D02*
X84505238Y-156937380D01*
X84743333Y-156270714D02*
X84505238Y-156937380D01*
X84410000Y-157175476D01*
X84362380Y-157223095D01*
X84267142Y-157270714D01*
X86410000Y-155985000D02*
X86314761Y-155937380D01*
X86171904Y-155937380D01*
X86029047Y-155985000D01*
X85933809Y-156080238D01*
X85886190Y-156175476D01*
X85838571Y-156365952D01*
X85838571Y-156508809D01*
X85886190Y-156699285D01*
X85933809Y-156794523D01*
X86029047Y-156889761D01*
X86171904Y-156937380D01*
X86267142Y-156937380D01*
X86410000Y-156889761D01*
X86457619Y-156842142D01*
X86457619Y-156508809D01*
X86267142Y-156508809D01*
X87029047Y-156937380D02*
X86933809Y-156889761D01*
X86886190Y-156842142D01*
X86838571Y-156746904D01*
X86838571Y-156461190D01*
X86886190Y-156365952D01*
X86933809Y-156318333D01*
X87029047Y-156270714D01*
X87171904Y-156270714D01*
X87267142Y-156318333D01*
X87314761Y-156365952D01*
X87362380Y-156461190D01*
X87362380Y-156746904D01*
X87314761Y-156842142D01*
X87267142Y-156889761D01*
X87171904Y-156937380D01*
X87029047Y-156937380D01*
X87790952Y-156937380D02*
X87790952Y-156270714D01*
X87790952Y-156461190D02*
X87838571Y-156365952D01*
X87886190Y-156318333D01*
X87981428Y-156270714D01*
X88076666Y-156270714D01*
X88410000Y-156937380D02*
X88410000Y-155937380D01*
X88838571Y-156937380D02*
X88838571Y-156413571D01*
X88790952Y-156318333D01*
X88695714Y-156270714D01*
X88552857Y-156270714D01*
X88457619Y-156318333D01*
X88410000Y-156365952D01*
X89743333Y-156937380D02*
X89743333Y-156413571D01*
X89695714Y-156318333D01*
X89600476Y-156270714D01*
X89410000Y-156270714D01*
X89314761Y-156318333D01*
X89743333Y-156889761D02*
X89648095Y-156937380D01*
X89410000Y-156937380D01*
X89314761Y-156889761D01*
X89267142Y-156794523D01*
X89267142Y-156699285D01*
X89314761Y-156604047D01*
X89410000Y-156556428D01*
X89648095Y-156556428D01*
X89743333Y-156508809D01*
X90219523Y-156937380D02*
X90219523Y-156270714D01*
X90219523Y-156365952D02*
X90267142Y-156318333D01*
X90362380Y-156270714D01*
X90505238Y-156270714D01*
X90600476Y-156318333D01*
X90648095Y-156413571D01*
X90648095Y-156937380D01*
X90648095Y-156413571D02*
X90695714Y-156318333D01*
X90790952Y-156270714D01*
X90933809Y-156270714D01*
X91029047Y-156318333D01*
X91076666Y-156413571D01*
X91076666Y-156937380D01*
X92267142Y-156651666D02*
X92743333Y-156651666D01*
X92171904Y-156937380D02*
X92505238Y-155937380D01*
X92838571Y-156937380D01*
X93171904Y-156270714D02*
X93171904Y-157270714D01*
X93171904Y-156318333D02*
X93267142Y-156270714D01*
X93457619Y-156270714D01*
X93552857Y-156318333D01*
X93600476Y-156365952D01*
X93648095Y-156461190D01*
X93648095Y-156746904D01*
X93600476Y-156842142D01*
X93552857Y-156889761D01*
X93457619Y-156937380D01*
X93267142Y-156937380D01*
X93171904Y-156889761D01*
X94076666Y-156937380D02*
X94076666Y-156270714D01*
X94076666Y-156461190D02*
X94124285Y-156365952D01*
X94171904Y-156318333D01*
X94267142Y-156270714D01*
X94362380Y-156270714D01*
X94695714Y-156937380D02*
X94695714Y-156270714D01*
X94695714Y-155937380D02*
X94648095Y-155985000D01*
X94695714Y-156032619D01*
X94743333Y-155985000D01*
X94695714Y-155937380D01*
X94695714Y-156032619D01*
X95314761Y-156937380D02*
X95219523Y-156889761D01*
X95171904Y-156794523D01*
X95171904Y-155937380D01*
X96410000Y-156032619D02*
X96457619Y-155985000D01*
X96552857Y-155937380D01*
X96790952Y-155937380D01*
X96886190Y-155985000D01*
X96933809Y-156032619D01*
X96981428Y-156127857D01*
X96981428Y-156223095D01*
X96933809Y-156365952D01*
X96362380Y-156937380D01*
X96981428Y-156937380D01*
X97362380Y-156032619D02*
X97410000Y-155985000D01*
X97505238Y-155937380D01*
X97743333Y-155937380D01*
X97838571Y-155985000D01*
X97886190Y-156032619D01*
X97933809Y-156127857D01*
X97933809Y-156223095D01*
X97886190Y-156365952D01*
X97314761Y-156937380D01*
X97933809Y-156937380D01*
X98410000Y-156889761D02*
X98410000Y-156937380D01*
X98362380Y-157032619D01*
X98314761Y-157080238D01*
X99552857Y-156032619D02*
X99600476Y-155985000D01*
X99695714Y-155937380D01*
X99933809Y-155937380D01*
X100029047Y-155985000D01*
X100076666Y-156032619D01*
X100124285Y-156127857D01*
X100124285Y-156223095D01*
X100076666Y-156365952D01*
X99505238Y-156937380D01*
X100124285Y-156937380D01*
X100743333Y-155937380D02*
X100838571Y-155937380D01*
X100933809Y-155985000D01*
X100981428Y-156032619D01*
X101029047Y-156127857D01*
X101076666Y-156318333D01*
X101076666Y-156556428D01*
X101029047Y-156746904D01*
X100981428Y-156842142D01*
X100933809Y-156889761D01*
X100838571Y-156937380D01*
X100743333Y-156937380D01*
X100648095Y-156889761D01*
X100600476Y-156842142D01*
X100552857Y-156746904D01*
X100505238Y-156556428D01*
X100505238Y-156318333D01*
X100552857Y-156127857D01*
X100600476Y-156032619D01*
X100648095Y-155985000D01*
X100743333Y-155937380D01*
X102029047Y-156937380D02*
X101457619Y-156937380D01*
X101743333Y-156937380D02*
X101743333Y-155937380D01*
X101648095Y-156080238D01*
X101552857Y-156175476D01*
X101457619Y-156223095D01*
X102505238Y-156937380D02*
X102695714Y-156937380D01*
X102790952Y-156889761D01*
X102838571Y-156842142D01*
X102933809Y-156699285D01*
X102981428Y-156508809D01*
X102981428Y-156127857D01*
X102933809Y-156032619D01*
X102886190Y-155985000D01*
X102790952Y-155937380D01*
X102600476Y-155937380D01*
X102505238Y-155985000D01*
X102457619Y-156032619D01*
X102410000Y-156127857D01*
X102410000Y-156365952D01*
X102457619Y-156461190D01*
X102505238Y-156508809D01*
X102600476Y-156556428D01*
X102790952Y-156556428D01*
X102886190Y-156508809D01*
X102933809Y-156461190D01*
X102981428Y-156365952D01*
X48160000Y-162160000D02*
X48160000Y-46160000D01*
X150160000Y-162160000D02*
X48160000Y-162160000D01*
X150160000Y-46160000D02*
X150160000Y-162160000D01*
X48160000Y-46160000D02*
X150160000Y-46160000D01*
X79860000Y-123160000D02*
G75*
G03X79860000Y-123160000I-2700000J0D01*
G01*
X147860000Y-157160000D02*
G75*
G03X147860000Y-157160000I-2700000J0D01*
G01*
X147860000Y-51160000D02*
G75*
G03X147860000Y-51160000I-2700000J0D01*
G01*
X55860000Y-157160000D02*
G75*
G03X55860000Y-157160000I-2700000J0D01*
G01*
X128860000Y-123160000D02*
G75*
G03X128860000Y-123160000I-2700000J0D01*
G01*
X128860000Y-65160000D02*
G75*
G03X128860000Y-65160000I-2700000J0D01*
G01*
X55860000Y-51160000D02*
G75*
G03X55860000Y-51160000I-2700000J0D01*
G01*
X79860000Y-65160000D02*
G75*
G03X79860000Y-65160000I-2700000J0D01*
G01*
M02*
