%TF.GenerationSoftware,KiCad,Pcbnew,(5.1.0)-1*%
%TF.CreationDate,2019-04-24T14:24:48-04:00*%
%TF.ProjectId,SGschematic,53477363-6865-46d6-9174-69632e6b6963,rev?*%
%TF.SameCoordinates,Original*%
%TF.FileFunction,Copper,L1,Top*%
%TF.FilePolarity,Positive*%
%FSLAX46Y46*%
G04 Gerber Fmt 4.6, Leading zero omitted, Abs format (unit mm)*
G04 Created by KiCad (PCBNEW (5.1.0)-1) date 2019-04-24 14:24:48*
%MOMM*%
%LPD*%
G04 APERTURE LIST*
%ADD10C,0.150000*%
%ADD11C,0.300000*%
%ADD12R,1.700000X1.700000*%
%ADD13O,1.700000X1.700000*%
%ADD14O,1.600000X1.600000*%
%ADD15R,1.600000X1.600000*%
%ADD16C,1.524000*%
%ADD17R,1.524000X1.524000*%
%ADD18C,1.600000*%
%ADD19R,2.000000X2.000000*%
%ADD20O,2.000000X2.000000*%
%ADD21C,3.000000*%
%ADD22R,3.000000X3.000000*%
%ADD23C,0.250000*%
%ADD24C,0.800000*%
%ADD25C,0.750000*%
G04 APERTURE END LIST*
D10*
X44076666Y-165160000D02*
G75*
G03X44076666Y-165160000I-1666666J0D01*
G01*
X39910000Y-165160000D02*
X44910000Y-165160000D01*
X42410000Y-162660000D02*
X42410000Y-167660000D01*
X46576666Y-43910000D02*
G75*
G03X46576666Y-43910000I-1666666J0D01*
G01*
X42410000Y-43910000D02*
X47410000Y-43910000D01*
X44910000Y-41410000D02*
X44910000Y-46410000D01*
X154576666Y-43410000D02*
G75*
G03X154576666Y-43410000I-1666666J0D01*
G01*
X150410000Y-43410000D02*
X155410000Y-43410000D01*
X152910000Y-40910000D02*
X152910000Y-45910000D01*
X154576666Y-164660000D02*
G75*
G03X154576666Y-164660000I-1666666J0D01*
G01*
X150410000Y-164660000D02*
X155410000Y-164660000D01*
X152910000Y-162160000D02*
X152910000Y-167160000D01*
D11*
X113409999Y-154992142D02*
X113195714Y-155063571D01*
X112838571Y-155063571D01*
X112695714Y-154992142D01*
X112624285Y-154920714D01*
X112552857Y-154777857D01*
X112552857Y-154635000D01*
X112624285Y-154492142D01*
X112695714Y-154420714D01*
X112838571Y-154349285D01*
X113124285Y-154277857D01*
X113267142Y-154206428D01*
X113338571Y-154135000D01*
X113409999Y-153992142D01*
X113409999Y-153849285D01*
X113338571Y-153706428D01*
X113267142Y-153635000D01*
X113124285Y-153563571D01*
X112767142Y-153563571D01*
X112552857Y-153635000D01*
X112124285Y-154063571D02*
X111552857Y-154063571D01*
X111909999Y-153563571D02*
X111909999Y-154849285D01*
X111838571Y-154992142D01*
X111695714Y-155063571D01*
X111552857Y-155063571D01*
X110481428Y-154992142D02*
X110624285Y-155063571D01*
X110909999Y-155063571D01*
X111052857Y-154992142D01*
X111124285Y-154849285D01*
X111124285Y-154277857D01*
X111052857Y-154135000D01*
X110909999Y-154063571D01*
X110624285Y-154063571D01*
X110481428Y-154135000D01*
X110409999Y-154277857D01*
X110409999Y-154420714D01*
X111124285Y-154563571D01*
X109124285Y-155063571D02*
X109124285Y-154277857D01*
X109195714Y-154135000D01*
X109338571Y-154063571D01*
X109624285Y-154063571D01*
X109767142Y-154135000D01*
X109124285Y-154992142D02*
X109267142Y-155063571D01*
X109624285Y-155063571D01*
X109767142Y-154992142D01*
X109838571Y-154849285D01*
X109838571Y-154706428D01*
X109767142Y-154563571D01*
X109624285Y-154492142D01*
X109267142Y-154492142D01*
X109124285Y-154420714D01*
X108409999Y-155063571D02*
X108409999Y-154063571D01*
X108409999Y-154206428D02*
X108338571Y-154135000D01*
X108195714Y-154063571D01*
X107981428Y-154063571D01*
X107838571Y-154135000D01*
X107767142Y-154277857D01*
X107767142Y-155063571D01*
X107767142Y-154277857D02*
X107695714Y-154135000D01*
X107552857Y-154063571D01*
X107338571Y-154063571D01*
X107195714Y-154135000D01*
X107124285Y-154277857D01*
X107124285Y-155063571D01*
X104481428Y-153635000D02*
X104624285Y-153563571D01*
X104838571Y-153563571D01*
X105052857Y-153635000D01*
X105195714Y-153777857D01*
X105267142Y-153920714D01*
X105338571Y-154206428D01*
X105338571Y-154420714D01*
X105267142Y-154706428D01*
X105195714Y-154849285D01*
X105052857Y-154992142D01*
X104838571Y-155063571D01*
X104695714Y-155063571D01*
X104481428Y-154992142D01*
X104409999Y-154920714D01*
X104409999Y-154420714D01*
X104695714Y-154420714D01*
X103195714Y-154992142D02*
X103338571Y-155063571D01*
X103624285Y-155063571D01*
X103767142Y-154992142D01*
X103838571Y-154849285D01*
X103838571Y-154277857D01*
X103767142Y-154135000D01*
X103624285Y-154063571D01*
X103338571Y-154063571D01*
X103195714Y-154135000D01*
X103124285Y-154277857D01*
X103124285Y-154420714D01*
X103838571Y-154563571D01*
X102481428Y-154063571D02*
X102481428Y-155063571D01*
X102481428Y-154206428D02*
X102409999Y-154135000D01*
X102267142Y-154063571D01*
X102052857Y-154063571D01*
X101909999Y-154135000D01*
X101838571Y-154277857D01*
X101838571Y-155063571D01*
X100552857Y-154992142D02*
X100695714Y-155063571D01*
X100981428Y-155063571D01*
X101124285Y-154992142D01*
X101195714Y-154849285D01*
X101195714Y-154277857D01*
X101124285Y-154135000D01*
X100981428Y-154063571D01*
X100695714Y-154063571D01*
X100552857Y-154135000D01*
X100481428Y-154277857D01*
X100481428Y-154420714D01*
X101195714Y-154563571D01*
X99838571Y-155063571D02*
X99838571Y-154063571D01*
X99838571Y-154349285D02*
X99767142Y-154206428D01*
X99695714Y-154135000D01*
X99552857Y-154063571D01*
X99409999Y-154063571D01*
X98267142Y-155063571D02*
X98267142Y-154277857D01*
X98338571Y-154135000D01*
X98481428Y-154063571D01*
X98767142Y-154063571D01*
X98909999Y-154135000D01*
X98267142Y-154992142D02*
X98409999Y-155063571D01*
X98767142Y-155063571D01*
X98909999Y-154992142D01*
X98981428Y-154849285D01*
X98981428Y-154706428D01*
X98909999Y-154563571D01*
X98767142Y-154492142D01*
X98409999Y-154492142D01*
X98267142Y-154420714D01*
X97767142Y-154063571D02*
X97195714Y-154063571D01*
X97552857Y-153563571D02*
X97552857Y-154849285D01*
X97481428Y-154992142D01*
X97338571Y-155063571D01*
X97195714Y-155063571D01*
X96695714Y-155063571D02*
X96695714Y-154063571D01*
X96695714Y-153563571D02*
X96767142Y-153635000D01*
X96695714Y-153706428D01*
X96624285Y-153635000D01*
X96695714Y-153563571D01*
X96695714Y-153706428D01*
X95981428Y-154063571D02*
X95981428Y-155063571D01*
X95981428Y-154206428D02*
X95909999Y-154135000D01*
X95767142Y-154063571D01*
X95552857Y-154063571D01*
X95409999Y-154135000D01*
X95338571Y-154277857D01*
X95338571Y-155063571D01*
X93981428Y-154063571D02*
X93981428Y-155277857D01*
X94052857Y-155420714D01*
X94124285Y-155492142D01*
X94267142Y-155563571D01*
X94481428Y-155563571D01*
X94624285Y-155492142D01*
X93981428Y-154992142D02*
X94124285Y-155063571D01*
X94409999Y-155063571D01*
X94552857Y-154992142D01*
X94624285Y-154920714D01*
X94695714Y-154777857D01*
X94695714Y-154349285D01*
X94624285Y-154206428D01*
X94552857Y-154135000D01*
X94409999Y-154063571D01*
X94124285Y-154063571D01*
X93981428Y-154135000D01*
X92124285Y-155063571D02*
X92124285Y-153563571D01*
X92124285Y-154277857D02*
X91267142Y-154277857D01*
X91267142Y-155063571D02*
X91267142Y-153563571D01*
X89909999Y-154063571D02*
X89909999Y-155063571D01*
X90552857Y-154063571D02*
X90552857Y-154849285D01*
X90481428Y-154992142D01*
X90338571Y-155063571D01*
X90124285Y-155063571D01*
X89981428Y-154992142D01*
X89909999Y-154920714D01*
X89195714Y-155063571D02*
X89195714Y-154063571D01*
X89195714Y-154206428D02*
X89124285Y-154135000D01*
X88981428Y-154063571D01*
X88767142Y-154063571D01*
X88624285Y-154135000D01*
X88552857Y-154277857D01*
X88552857Y-155063571D01*
X88552857Y-154277857D02*
X88481428Y-154135000D01*
X88338571Y-154063571D01*
X88124285Y-154063571D01*
X87981428Y-154135000D01*
X87909999Y-154277857D01*
X87909999Y-155063571D01*
X87195714Y-155063571D02*
X87195714Y-154063571D01*
X87195714Y-153563571D02*
X87267142Y-153635000D01*
X87195714Y-153706428D01*
X87124285Y-153635000D01*
X87195714Y-153563571D01*
X87195714Y-153706428D01*
X85838571Y-155063571D02*
X85838571Y-153563571D01*
X85838571Y-154992142D02*
X85981428Y-155063571D01*
X86267142Y-155063571D01*
X86409999Y-154992142D01*
X86481428Y-154920714D01*
X86552857Y-154777857D01*
X86552857Y-154349285D01*
X86481428Y-154206428D01*
X86409999Y-154135000D01*
X86267142Y-154063571D01*
X85981428Y-154063571D01*
X85838571Y-154135000D01*
X85124285Y-155063571D02*
X85124285Y-154063571D01*
X85124285Y-153563571D02*
X85195714Y-153635000D01*
X85124285Y-153706428D01*
X85052857Y-153635000D01*
X85124285Y-153563571D01*
X85124285Y-153706428D01*
X84624285Y-154063571D02*
X84052857Y-154063571D01*
X84409999Y-155063571D02*
X84409999Y-153777857D01*
X84338571Y-153635000D01*
X84195714Y-153563571D01*
X84052857Y-153563571D01*
X83552857Y-155063571D02*
X83552857Y-154063571D01*
X83552857Y-153563571D02*
X83624285Y-153635000D01*
X83552857Y-153706428D01*
X83481428Y-153635000D01*
X83552857Y-153563571D01*
X83552857Y-153706428D01*
X82267142Y-154992142D02*
X82409999Y-155063571D01*
X82695714Y-155063571D01*
X82838571Y-154992142D01*
X82909999Y-154849285D01*
X82909999Y-154277857D01*
X82838571Y-154135000D01*
X82695714Y-154063571D01*
X82409999Y-154063571D01*
X82267142Y-154135000D01*
X82195714Y-154277857D01*
X82195714Y-154420714D01*
X82909999Y-154563571D01*
X81552857Y-155063571D02*
X81552857Y-154063571D01*
X81552857Y-154349285D02*
X81481428Y-154206428D01*
X81409999Y-154135000D01*
X81267142Y-154063571D01*
X81124285Y-154063571D01*
X115445714Y-156827857D02*
X115231428Y-156899285D01*
X115160000Y-156970714D01*
X115088571Y-157113571D01*
X115088571Y-157327857D01*
X115160000Y-157470714D01*
X115231428Y-157542142D01*
X115374285Y-157613571D01*
X115945714Y-157613571D01*
X115945714Y-156113571D01*
X115445714Y-156113571D01*
X115302857Y-156185000D01*
X115231428Y-156256428D01*
X115160000Y-156399285D01*
X115160000Y-156542142D01*
X115231428Y-156685000D01*
X115302857Y-156756428D01*
X115445714Y-156827857D01*
X115945714Y-156827857D01*
X114588571Y-156613571D02*
X114231428Y-157613571D01*
X113874285Y-156613571D02*
X114231428Y-157613571D01*
X114374285Y-157970714D01*
X114445714Y-158042142D01*
X114588571Y-158113571D01*
X111445714Y-157613571D02*
X112160000Y-157613571D01*
X112160000Y-156113571D01*
X110302857Y-157613571D02*
X110302857Y-156827857D01*
X110374285Y-156685000D01*
X110517142Y-156613571D01*
X110802857Y-156613571D01*
X110945714Y-156685000D01*
X110302857Y-157542142D02*
X110445714Y-157613571D01*
X110802857Y-157613571D01*
X110945714Y-157542142D01*
X111017142Y-157399285D01*
X111017142Y-157256428D01*
X110945714Y-157113571D01*
X110802857Y-157042142D01*
X110445714Y-157042142D01*
X110302857Y-156970714D01*
X109588571Y-157613571D02*
X109588571Y-156613571D01*
X109588571Y-156899285D02*
X109517142Y-156756428D01*
X109445714Y-156685000D01*
X109302857Y-156613571D01*
X109160000Y-156613571D01*
X108660000Y-157613571D02*
X108660000Y-156613571D01*
X108660000Y-156899285D02*
X108588571Y-156756428D01*
X108517142Y-156685000D01*
X108374285Y-156613571D01*
X108231428Y-156613571D01*
X107874285Y-156613571D02*
X107517142Y-157613571D01*
X107160000Y-156613571D02*
X107517142Y-157613571D01*
X107660000Y-157970714D01*
X107731428Y-158042142D01*
X107874285Y-158113571D01*
X104660000Y-156185000D02*
X104802857Y-156113571D01*
X105017142Y-156113571D01*
X105231428Y-156185000D01*
X105374285Y-156327857D01*
X105445714Y-156470714D01*
X105517142Y-156756428D01*
X105517142Y-156970714D01*
X105445714Y-157256428D01*
X105374285Y-157399285D01*
X105231428Y-157542142D01*
X105017142Y-157613571D01*
X104874285Y-157613571D01*
X104660000Y-157542142D01*
X104588571Y-157470714D01*
X104588571Y-156970714D01*
X104874285Y-156970714D01*
X103731428Y-157613571D02*
X103874285Y-157542142D01*
X103945714Y-157470714D01*
X104017142Y-157327857D01*
X104017142Y-156899285D01*
X103945714Y-156756428D01*
X103874285Y-156685000D01*
X103731428Y-156613571D01*
X103517142Y-156613571D01*
X103374285Y-156685000D01*
X103302857Y-156756428D01*
X103231428Y-156899285D01*
X103231428Y-157327857D01*
X103302857Y-157470714D01*
X103374285Y-157542142D01*
X103517142Y-157613571D01*
X103731428Y-157613571D01*
X102588571Y-157613571D02*
X102588571Y-156613571D01*
X102588571Y-156899285D02*
X102517142Y-156756428D01*
X102445714Y-156685000D01*
X102302857Y-156613571D01*
X102160000Y-156613571D01*
X101660000Y-157613571D02*
X101660000Y-156113571D01*
X101017142Y-157613571D02*
X101017142Y-156827857D01*
X101088571Y-156685000D01*
X101231428Y-156613571D01*
X101445714Y-156613571D01*
X101588571Y-156685000D01*
X101660000Y-156756428D01*
X99660000Y-157613571D02*
X99660000Y-156827857D01*
X99731428Y-156685000D01*
X99874285Y-156613571D01*
X100160000Y-156613571D01*
X100302857Y-156685000D01*
X99660000Y-157542142D02*
X99802857Y-157613571D01*
X100160000Y-157613571D01*
X100302857Y-157542142D01*
X100374285Y-157399285D01*
X100374285Y-157256428D01*
X100302857Y-157113571D01*
X100160000Y-157042142D01*
X99802857Y-157042142D01*
X99660000Y-156970714D01*
X98945714Y-157613571D02*
X98945714Y-156613571D01*
X98945714Y-156756428D02*
X98874285Y-156685000D01*
X98731428Y-156613571D01*
X98517142Y-156613571D01*
X98374285Y-156685000D01*
X98302857Y-156827857D01*
X98302857Y-157613571D01*
X98302857Y-156827857D02*
X98231428Y-156685000D01*
X98088571Y-156613571D01*
X97874285Y-156613571D01*
X97731428Y-156685000D01*
X97660000Y-156827857D01*
X97660000Y-157613571D01*
X95874285Y-157185000D02*
X95160000Y-157185000D01*
X96017142Y-157613571D02*
X95517142Y-156113571D01*
X95017142Y-157613571D01*
X94517142Y-156613571D02*
X94517142Y-158113571D01*
X94517142Y-156685000D02*
X94374285Y-156613571D01*
X94088571Y-156613571D01*
X93945714Y-156685000D01*
X93874285Y-156756428D01*
X93802857Y-156899285D01*
X93802857Y-157327857D01*
X93874285Y-157470714D01*
X93945714Y-157542142D01*
X94088571Y-157613571D01*
X94374285Y-157613571D01*
X94517142Y-157542142D01*
X93160000Y-157613571D02*
X93160000Y-156613571D01*
X93160000Y-156899285D02*
X93088571Y-156756428D01*
X93017142Y-156685000D01*
X92874285Y-156613571D01*
X92731428Y-156613571D01*
X92231428Y-157613571D02*
X92231428Y-156613571D01*
X92231428Y-156113571D02*
X92302857Y-156185000D01*
X92231428Y-156256428D01*
X92160000Y-156185000D01*
X92231428Y-156113571D01*
X92231428Y-156256428D01*
X91302857Y-157613571D02*
X91445714Y-157542142D01*
X91517142Y-157399285D01*
X91517142Y-156113571D01*
X89660000Y-156256428D02*
X89588571Y-156185000D01*
X89445714Y-156113571D01*
X89088571Y-156113571D01*
X88945714Y-156185000D01*
X88874285Y-156256428D01*
X88802857Y-156399285D01*
X88802857Y-156542142D01*
X88874285Y-156756428D01*
X89731428Y-157613571D01*
X88802857Y-157613571D01*
X88231428Y-156256428D02*
X88160000Y-156185000D01*
X88017142Y-156113571D01*
X87660000Y-156113571D01*
X87517142Y-156185000D01*
X87445714Y-156256428D01*
X87374285Y-156399285D01*
X87374285Y-156542142D01*
X87445714Y-156756428D01*
X88302857Y-157613571D01*
X87374285Y-157613571D01*
X86660000Y-157542142D02*
X86660000Y-157613571D01*
X86731428Y-157756428D01*
X86802857Y-157827857D01*
X84945714Y-156256428D02*
X84874285Y-156185000D01*
X84731428Y-156113571D01*
X84374285Y-156113571D01*
X84231428Y-156185000D01*
X84160000Y-156256428D01*
X84088571Y-156399285D01*
X84088571Y-156542142D01*
X84160000Y-156756428D01*
X85017142Y-157613571D01*
X84088571Y-157613571D01*
X83160000Y-156113571D02*
X83017142Y-156113571D01*
X82874285Y-156185000D01*
X82802857Y-156256428D01*
X82731428Y-156399285D01*
X82660000Y-156685000D01*
X82660000Y-157042142D01*
X82731428Y-157327857D01*
X82802857Y-157470714D01*
X82874285Y-157542142D01*
X83017142Y-157613571D01*
X83160000Y-157613571D01*
X83302857Y-157542142D01*
X83374285Y-157470714D01*
X83445714Y-157327857D01*
X83517142Y-157042142D01*
X83517142Y-156685000D01*
X83445714Y-156399285D01*
X83374285Y-156256428D01*
X83302857Y-156185000D01*
X83160000Y-156113571D01*
X81231428Y-157613571D02*
X82088571Y-157613571D01*
X81660000Y-157613571D02*
X81660000Y-156113571D01*
X81802857Y-156327857D01*
X81945714Y-156470714D01*
X82088571Y-156542142D01*
X80517142Y-157613571D02*
X80231428Y-157613571D01*
X80088571Y-157542142D01*
X80017142Y-157470714D01*
X79874285Y-157256428D01*
X79802857Y-156970714D01*
X79802857Y-156399285D01*
X79874285Y-156256428D01*
X79945714Y-156185000D01*
X80088571Y-156113571D01*
X80374285Y-156113571D01*
X80517142Y-156185000D01*
X80588571Y-156256428D01*
X80660000Y-156399285D01*
X80660000Y-156756428D01*
X80588571Y-156899285D01*
X80517142Y-156970714D01*
X80374285Y-157042142D01*
X80088571Y-157042142D01*
X79945714Y-156970714D01*
X79874285Y-156899285D01*
X79802857Y-156756428D01*
D10*
X48160000Y-162160000D02*
X48160000Y-46160000D01*
X150160000Y-162160000D02*
X48160000Y-162160000D01*
X150160000Y-46160000D02*
X150160000Y-162160000D01*
X48160000Y-46160000D02*
X150160000Y-46160000D01*
D12*
X124890000Y-70030000D03*
D13*
X127430000Y-70030000D03*
X127430000Y-75110000D03*
X124890000Y-82730000D03*
X127430000Y-82730000D03*
X124890000Y-85270000D03*
X127430000Y-85270000D03*
X124890000Y-92890000D03*
X124890000Y-95430000D03*
X124890000Y-97970000D03*
X127430000Y-97970000D03*
X124890000Y-118290000D03*
X127430000Y-118290000D03*
D14*
X141780000Y-111160000D03*
X141780000Y-113700000D03*
X134160000Y-113700000D03*
D15*
X134160000Y-111160000D03*
D16*
X137160000Y-59160000D03*
D17*
X137160000Y-57160000D03*
D16*
X137160000Y-61160000D03*
X106400000Y-55050000D03*
X106400000Y-63940000D03*
X86080000Y-55050000D03*
X86080000Y-63940000D03*
X68620000Y-98910000D03*
X73700000Y-98910000D03*
D18*
X92160000Y-80660000D03*
D15*
X92160000Y-83160000D03*
D14*
X73560000Y-86800000D03*
X81180000Y-79180000D03*
X73560000Y-84260000D03*
X81180000Y-81720000D03*
X73560000Y-81720000D03*
X81180000Y-84260000D03*
X73560000Y-79180000D03*
D15*
X81180000Y-86800000D03*
D14*
X140780000Y-138160000D03*
X133160000Y-145780000D03*
X140780000Y-140700000D03*
X133160000Y-143240000D03*
X140780000Y-143240000D03*
X133160000Y-140700000D03*
X140780000Y-145780000D03*
D15*
X133160000Y-138160000D03*
D18*
X94160000Y-114660000D03*
D15*
X94160000Y-117160000D03*
D18*
X72250000Y-129980000D03*
D15*
X69750000Y-129980000D03*
D18*
X111660000Y-107200000D03*
D15*
X111660000Y-109700000D03*
D18*
X106660000Y-117160000D03*
D15*
X109160000Y-117160000D03*
D18*
X125660000Y-55160000D03*
D15*
X123160000Y-55160000D03*
D14*
X133540000Y-101160000D03*
X141160000Y-83380000D03*
X133540000Y-98620000D03*
X141160000Y-85920000D03*
X133540000Y-96080000D03*
X141160000Y-88460000D03*
X133540000Y-93540000D03*
X141160000Y-91000000D03*
X133540000Y-91000000D03*
X141160000Y-93540000D03*
X133540000Y-88460000D03*
X141160000Y-96080000D03*
X133540000Y-85920000D03*
X141160000Y-98620000D03*
X133540000Y-83380000D03*
D15*
X141160000Y-101160000D03*
D16*
X68480000Y-112200000D03*
X73560000Y-112200000D03*
X111620000Y-55160000D03*
X116700000Y-55160000D03*
X68620000Y-93910000D03*
X73700000Y-93910000D03*
X69620000Y-58860000D03*
X74700000Y-58860000D03*
X68480000Y-107120000D03*
X73560000Y-107120000D03*
X67920000Y-72160000D03*
X98400000Y-72160000D03*
X137160000Y-77780000D03*
X137160000Y-65080000D03*
X115470000Y-70290000D03*
X115470000Y-82990000D03*
X105780000Y-96160000D03*
X93080000Y-96160000D03*
X86540000Y-128160000D03*
X99240000Y-128160000D03*
X76100000Y-147760000D03*
X88800000Y-147760000D03*
X111660000Y-145220000D03*
X124360000Y-145220000D03*
X140780000Y-129160000D03*
X128080000Y-129160000D03*
X91540000Y-105160000D03*
X104240000Y-105160000D03*
X105780000Y-89160000D03*
X93080000Y-89160000D03*
X116780000Y-128160000D03*
X104080000Y-128160000D03*
D19*
X83720000Y-112200000D03*
D20*
X78640000Y-107120000D03*
X83720000Y-107120000D03*
X78640000Y-112200000D03*
D19*
X83720000Y-98865000D03*
D20*
X78640000Y-93785000D03*
X83720000Y-93785000D03*
X78640000Y-98865000D03*
D21*
X62130000Y-63940000D03*
D22*
X62130000Y-58860000D03*
D21*
X62130000Y-75370000D03*
D22*
X62130000Y-70290000D03*
D21*
X62130000Y-86800000D03*
D22*
X62130000Y-81720000D03*
D21*
X62130000Y-98865000D03*
D22*
X62130000Y-93785000D03*
D21*
X62130000Y-122360000D03*
D22*
X62130000Y-117280000D03*
D21*
X62130000Y-149030000D03*
X62130000Y-143950000D03*
D22*
X62130000Y-138870000D03*
D14*
X104040000Y-140140000D03*
X96420000Y-147760000D03*
X104040000Y-142680000D03*
X96420000Y-145220000D03*
X104040000Y-145220000D03*
X96420000Y-142680000D03*
X104040000Y-147760000D03*
D15*
X96420000Y-140140000D03*
D23*
X85134700Y-129980000D02*
X85134700Y-123685300D01*
X85134700Y-123685300D02*
X94160000Y-114660000D01*
X85134700Y-129980000D02*
X95294700Y-140140000D01*
X72250000Y-129980000D02*
X85134700Y-129980000D01*
X81180000Y-85385300D02*
X80476700Y-85385300D01*
X80476700Y-85385300D02*
X80044600Y-85817400D01*
X80044600Y-85817400D02*
X80044600Y-100544600D01*
X80044600Y-100544600D02*
X94160000Y-114660000D01*
X96420000Y-140140000D02*
X95294700Y-140140000D01*
X81180000Y-84260000D02*
X81180000Y-85385300D01*
X127430000Y-75110000D02*
X128605300Y-75110000D01*
X133540000Y-81220000D02*
X133540000Y-83380000D01*
X128605300Y-75110000D02*
X128605300Y-76285300D01*
X128605300Y-76285300D02*
X133540000Y-81220000D01*
X137160000Y-77780000D02*
X133720000Y-81220000D01*
X133720000Y-81220000D02*
X133540000Y-81220000D01*
X133160000Y-145780000D02*
X133160000Y-144654700D01*
X133160000Y-140700000D02*
X133160000Y-141825300D01*
X133160000Y-141825300D02*
X132878700Y-141825300D01*
X132878700Y-141825300D02*
X132034700Y-142669300D01*
X132034700Y-142669300D02*
X132034700Y-143810800D01*
X132034700Y-143810800D02*
X132878600Y-144654700D01*
X132878600Y-144654700D02*
X133160000Y-144654700D01*
X133540000Y-83380000D02*
X133540000Y-84505300D01*
X133540000Y-96080000D02*
X133540000Y-94954700D01*
X133540000Y-94954700D02*
X133821300Y-94954700D01*
X133821300Y-94954700D02*
X134665300Y-94110700D01*
X134665300Y-94110700D02*
X134665300Y-85349200D01*
X134665300Y-85349200D02*
X133821400Y-84505300D01*
X133821400Y-84505300D02*
X133540000Y-84505300D01*
X127430000Y-70030000D02*
X128880300Y-70030000D01*
X140780000Y-138160000D02*
X140780000Y-136759700D01*
X140780000Y-136759700D02*
X139241400Y-135221100D01*
X139241400Y-135221100D02*
X139241400Y-77889600D01*
X139241400Y-77889600D02*
X131381900Y-70030100D01*
X131381900Y-70030100D02*
X128880300Y-70030100D01*
D24*
X116700000Y-55160000D02*
X122771700Y-61231700D01*
X122771700Y-61231700D02*
X128144300Y-61231700D01*
X128144300Y-67865400D02*
X127430000Y-68579700D01*
X127430000Y-70030000D02*
X127430000Y-68579700D01*
X128144300Y-61231700D02*
X128216000Y-61160000D01*
X128144300Y-67865400D02*
X129454600Y-67865400D01*
X129454600Y-67865400D02*
X130160000Y-67160000D01*
X130160000Y-63247400D02*
X128144300Y-61231700D01*
X130160000Y-67160000D02*
X130160000Y-63247400D01*
D23*
X130160000Y-62598000D02*
X130160000Y-63247400D01*
X135598000Y-57160000D02*
X130160000Y-62598000D01*
X137160000Y-57160000D02*
X135598000Y-57160000D01*
X104040000Y-147760000D02*
X104040000Y-146634700D01*
X104040000Y-146634700D02*
X104321300Y-146634700D01*
X104321300Y-146634700D02*
X109160000Y-141796000D01*
X109160000Y-141796000D02*
X109160000Y-117160000D01*
X76100000Y-147760000D02*
X69750000Y-141410000D01*
X69750000Y-141410000D02*
X69750000Y-129980000D01*
X104040000Y-145220000D02*
X104040000Y-142680000D01*
X94160000Y-117160000D02*
X94160000Y-118285300D01*
X86540000Y-128160000D02*
X86540000Y-125905300D01*
X86540000Y-125905300D02*
X94160000Y-118285300D01*
X104040000Y-140140000D02*
X104040000Y-139014700D01*
X99240000Y-128160000D02*
X99240000Y-134214700D01*
X99240000Y-134214700D02*
X104040000Y-139014700D01*
X104040000Y-140140000D02*
X104040000Y-141265300D01*
X96420000Y-147760000D02*
X97545300Y-147760000D01*
X97545300Y-147760000D02*
X97545300Y-147478700D01*
X97545300Y-147478700D02*
X103758700Y-141265300D01*
X103758700Y-141265300D02*
X104040000Y-141265300D01*
D24*
X88873000Y-75370000D02*
X62130000Y-75370000D01*
X142200700Y-144660700D02*
X142200700Y-151630700D01*
X140780000Y-143240000D02*
X142200700Y-144660700D01*
X142200700Y-151630700D02*
X139001400Y-154830000D01*
X139001400Y-154830000D02*
X136570000Y-154830000D01*
X136570000Y-154830000D02*
X113060300Y-131320300D01*
X113060300Y-99557300D02*
X88873000Y-75370000D01*
X113060300Y-131320300D02*
X113060300Y-99557300D01*
D23*
X128080000Y-129160000D02*
X133160000Y-134240000D01*
X133160000Y-134240000D02*
X133160000Y-138160000D01*
X104240000Y-105160000D02*
X105780000Y-103620000D01*
X105780000Y-103620000D02*
X105780000Y-96160000D01*
X111660000Y-107200000D02*
X104120000Y-107200000D01*
X104120000Y-107200000D02*
X93080000Y-96160000D01*
X141780000Y-113700000D02*
X141780000Y-112574700D01*
X141160000Y-98620000D02*
X142905300Y-100365300D01*
X142905300Y-100365300D02*
X142905300Y-111730800D01*
X142905300Y-111730800D02*
X142061400Y-112574700D01*
X142061400Y-112574700D02*
X141780000Y-112574700D01*
X133540000Y-99162500D02*
X133540000Y-101160000D01*
X133540000Y-98620000D02*
X133540000Y-99162500D01*
X133540000Y-99162500D02*
X126860100Y-99162500D01*
X126860100Y-99162500D02*
X126065300Y-98367700D01*
X126065300Y-98367700D02*
X126065300Y-72013200D01*
X126065300Y-72013200D02*
X125257400Y-71205300D01*
X125257400Y-71205300D02*
X124890000Y-71205300D01*
X124890000Y-70030000D02*
X124890000Y-71205300D01*
X83720000Y-81592000D02*
X91228000Y-81592000D01*
X91228000Y-81592000D02*
X92160000Y-80660000D01*
X81180000Y-80305300D02*
X82433300Y-80305300D01*
X82433300Y-80305300D02*
X83720000Y-81592000D01*
X83720000Y-93785000D02*
X83720000Y-81592000D01*
X81180000Y-79180000D02*
X81180000Y-80305300D01*
D25*
X73560000Y-81720000D02*
X73560000Y-84260000D01*
D23*
X104080000Y-128160000D02*
X104080000Y-116109700D01*
X104080000Y-116109700D02*
X81180000Y-93209700D01*
X81180000Y-93209700D02*
X81180000Y-86800000D01*
X141160000Y-101160000D02*
X141160000Y-100034700D01*
X137160000Y-65080000D02*
X140034700Y-67954700D01*
X140034700Y-67954700D02*
X140034700Y-99190800D01*
X140034700Y-99190800D02*
X140878600Y-100034700D01*
X140878600Y-100034700D02*
X141160000Y-100034700D01*
X62130000Y-117280000D02*
X62130000Y-113470000D01*
X62130000Y-113470000D02*
X68480000Y-107120000D01*
X62130000Y-122360000D02*
X68480000Y-116010000D01*
X68480000Y-116010000D02*
X68480000Y-112200000D01*
D24*
X86080000Y-55050000D02*
X98400000Y-67370000D01*
X98400000Y-67370000D02*
X98400000Y-72160000D01*
D23*
X124890000Y-82730000D02*
X124890000Y-83905300D01*
X124890000Y-83905300D02*
X124522700Y-83905300D01*
X124522700Y-83905300D02*
X116780000Y-91648000D01*
X116780000Y-91648000D02*
X116780000Y-128160000D01*
X127430000Y-97970000D02*
X127430000Y-96794700D01*
X133540000Y-85920000D02*
X133540000Y-87045300D01*
X133540000Y-87045300D02*
X133258600Y-87045300D01*
X133258600Y-87045300D02*
X128605300Y-91698600D01*
X128605300Y-91698600D02*
X128605300Y-95986800D01*
X128605300Y-95986800D02*
X127797400Y-96794700D01*
X127797400Y-96794700D02*
X127430000Y-96794700D01*
D25*
X86080000Y-63940000D02*
X114956900Y-92816900D01*
D24*
X62130000Y-63940000D02*
X71380000Y-63940000D01*
X73485010Y-61834990D02*
X81834990Y-61834990D01*
X71380000Y-63940000D02*
X73485010Y-61834990D01*
X83940000Y-63940000D02*
X86080000Y-63940000D01*
X81834990Y-61834990D02*
X83940000Y-63940000D01*
X139980001Y-146579999D02*
X139980001Y-151039999D01*
X140780000Y-145780000D02*
X139980001Y-146579999D01*
X139980001Y-151039999D02*
X136005309Y-151039999D01*
D23*
X114930000Y-126953800D02*
X114956900Y-126926900D01*
D25*
X114956900Y-92816900D02*
X114956900Y-126926900D01*
X114956900Y-126926900D02*
X114956900Y-127890800D01*
D23*
X135789999Y-151039999D02*
X136005309Y-151039999D01*
D24*
X114956900Y-127890800D02*
X114956900Y-130206900D01*
X114956900Y-130206900D02*
X135789999Y-151039999D01*
M02*
